<svg id="Layer_1" data-name="Layer 1" xmlns="http://www.w3.org/2000/svg" viewBox="0 0 550.51 531.6"><defs><style>.cls-1{fill:#efbf00;}</style></defs><title>icon 2</title><path class="cls-1" d="M719.75,582.74q3.56-3.81,3.55-10.21t-3.55-10.22q-3.56-3.79-9.77-3.8h-4.82v28H710Q716.19,586.55,719.75,582.74Z" transform="translate(-479.8 -512.4)"/><path class="cls-1" d="M990.47,512.4H541.71A39.92,39.92,0,0,0,502,550.49h-2.12a20.08,20.08,0,0,0-20.05,20.06v9.92a20.07,20.07,0,0,0,20.05,20h2v.12a39.92,39.92,0,0,0,22.74,35.91V820.62a27.68,27.68,0,0,0,54.53,6.78l.08-2.39a19.78,19.78,0,1,1,39.55,0V861.1l0,.28A49.24,49.24,0,0,0,717,855.84V779.6a13.35,13.35,0,0,1,13.33-13.33h1.91a13.34,13.34,0,0,1,13.32,13.33l.13,67.8A27.75,27.75,0,0,0,765,873.81v5.58a15,15,0,0,0-10.53,14.3V1029a15,15,0,0,0,15,15h15.32a15,15,0,0,0,15-15V893.69a15,15,0,0,0-10.53-14.3v-9.27A27.74,27.74,0,0,0,801,848.45V817.13l24.49-9.06a12.21,12.21,0,0,1,1.72,6.16v12.35l.16.43a44.19,44.19,0,0,0,85.5-15.7V775.75l-5,1.85v33.71a39.19,39.19,0,0,1-75.67,14.34V814.23a17.17,17.17,0,0,0-1.94-7.92l-3.44,1.27,170.86-63.2a12.13,12.13,0,0,0,7.9-11.35V637.45a40,40,0,0,0,24.7-36.81v-48.4A40,40,0,0,0,990.47,512.4ZM501.88,595.53h-2a15.08,15.08,0,0,1-15.06-15.06v-9.92a15.08,15.08,0,0,1,15.06-15.07h2Zm456.41-45.27h35.15v8.25H981.26V594.8H970.41V558.51H958.29Zm-38.19,0h29v8.25H931v9.58h13.57v8.24H931V594.8H920.1Zm-38.7-.13h13.19L910,594.8H898.4l-2.47-7.49h-16l-2.48,7.49H865.92Zm-58.43.13h17.57q7.74,0,12.05,4a12.66,12.66,0,0,1,4.32,9.64,13.83,13.83,0,0,1-2.35,7.55q-2.34,3.67-7.67,5.2L857.8,594.8H845.11l-10-17.32h-1.26V594.8H823Zm-49.2,5.81A22.35,22.35,0,0,1,790,549.63a22.85,22.85,0,0,1,13.19,3.93,20.48,20.48,0,0,1,8.06,10.91H798.29a8.51,8.51,0,0,0-8.12-4.88,11.34,11.34,0,0,0-8.79,3.49q-3.2,3.48-3.2,9.32t3.2,9.33a11.37,11.37,0,0,0,8.79,3.49,8.52,8.52,0,0,0,8.12-4.89h12.94a20.45,20.45,0,0,1-8.06,10.91A22.79,22.79,0,0,1,790,595.18a22.39,22.39,0,0,1-16.21-6.44,23.44,23.44,0,0,1,0-32.67Zm-79.46-5.81H710q10.65,0,17.51,6.19t6.85,16a20.71,20.71,0,0,1-6.85,16.08q-6.86,6.23-17.51,6.22H694.31Zm-54.12-.13H651l18.14,28.11V550.13H680V594.8H669.18L651,566.69V594.8H640.19Zm-38.7,0h13.2L630.1,594.8H618.49L616,587.31H600l-2.47,7.49H586Zm-64.46.13h10.85v17.83h17.2V550.26h10.84V594.8H565.08V576.33h-17.2V594.8H537ZM765,813.08v55.41a22.73,22.73,0,0,1-14.34-21.09l-.12-67.8a18.34,18.34,0,0,0-18.32-18.32h-1.91A18.34,18.34,0,0,0,712,779.6l0,76.24A44.24,44.24,0,0,1,623.78,861V825a24.77,24.77,0,0,0-49.54,0v1.46a22.7,22.7,0,0,1-44.63-5.85v-182a39.44,39.44,0,0,0,12.1,1.91H907.9V751.8l5-1.85V640.48h68.51v79.18a7.15,7.15,0,0,1-4.64,6.67L772.9,801.73A12.14,12.14,0,0,0,765,813.08Zm24.2,50.61V826.46a7.15,7.15,0,0,1,4.64-6.67L796,819v29.37A22.66,22.66,0,0,1,789.2,863.69ZM1000.62,733A7.14,7.14,0,0,1,996,739.7L792.11,815.11a12.14,12.14,0,0,0-7.9,11.35v52.26H770V813.08a7.15,7.15,0,0,1,4.64-6.67L978.5,731a12.14,12.14,0,0,0,7.9-11.35V640.48h4.07a39.58,39.58,0,0,0,10.15-1.37Z" transform="translate(-479.8 -512.4)"/><rect class="cls-1" x="47.44" y="20.59" width="491.83" height="87.5"/></svg>