<svg id="Layer_1" data-name="Layer 1" xmlns="http://www.w3.org/2000/svg" viewBox="0 0 818.02 720.11"><defs><style>.cls-1{fill:#f2ba1a;}</style></defs><title>Icon 3</title><path class="cls-1" d="M983.71,768.2A24.24,24.24,0,0,0,959.46,744H726.66a24.25,24.25,0,0,0,0,48.5h232.8A24.25,24.25,0,0,0,983.71,768.2ZM484.16,952.5a19.41,19.41,0,0,1-19.4-19.4V603.29a19.41,19.41,0,0,1,19.4-19.4h504.4a19.4,19.4,0,0,1,19.4,19.4V786.13l77.6-77.6v-241a77.6,77.6,0,0,0-77.6-77.6H464.76a77.6,77.6,0,0,0-77.6,77.6v485a77.6,77.6,0,0,0,77.6,77.6H781.3a58,58,0,0,1,16.19-33.55c7-7.07,26.62-26.58,26.62-26.58l17.48-17.47ZM620,457.79h77.6a29.1,29.1,0,1,1,0,58.2H620a29.1,29.1,0,0,1,0-58.2Zm-116.4-9.7a38.8,38.8,0,1,1-38.8,38.8A38.8,38.8,0,0,1,503.56,448.09ZM1125.67,862,1070,806.38a9.69,9.69,0,0,0-13.71,0L900.41,962.27a9.7,9.7,0,0,0,0,13.72l55.65,55.65a9.7,9.7,0,0,0,13.72,0l155.89-155.89A9.72,9.72,0,0,0,1125.67,862ZM865.25,1011.11a9.65,9.65,0,0,0-13.66-.05c-6.33,6.3-15.4,15.34-19.7,19.68a9.46,9.46,0,0,0-2.72,6l-4.83,62.79a9.71,9.71,0,0,0,10.78,10.39l60.33-7a9.73,9.73,0,0,0,5.75-2.77l19.72-19.72a9.7,9.7,0,0,0,0-13.72ZM532.66,841a24.25,24.25,0,1,0,0,48.5h349.2a24.25,24.25,0,0,0,0-48.5Zm426.8-194H726.66a24.25,24.25,0,0,0,0,48.5h232.8a24.25,24.25,0,0,0,0-48.5Z" transform="translate(-387.16 -389.89)"/><path class="cls-1" d="M620,642.1h-77.6A19.4,19.4,0,0,0,523,661.5v97a19.41,19.41,0,0,0,19.4,19.4H620a19.4,19.4,0,0,0,19.4-19.4v-97A19.39,19.39,0,0,0,620,642.1Zm582.38,143.26-55.65-55.65a9.7,9.7,0,0,0-13.72,0l-29.24,29.23a9.7,9.7,0,0,0,0,13.72l55.66,55.65a9.69,9.69,0,0,0,13.71,0l29.24-29.23A9.72,9.72,0,0,0,1202.34,785.36Z" transform="translate(-387.16 -389.89)"/></svg>