<svg id="Layer_1" data-name="Layer 1" xmlns="http://www.w3.org/2000/svg" viewBox="0 0 443.84 538.39"><defs><style>.cls-1{fill:#f2ba1a;}.cls-2{fill:#f0f0f0;}</style></defs><title>icon 1</title><rect class="cls-1" y="178.1" width="443.84" height="93.99"/><rect class="cls-1" x="26.11" y="292.97" width="391.63" height="234.98"/><rect class="cls-2" x="193.2" y="172.88" width="57.44" height="365.52"/><path class="cls-2" d="M633,482.13c-7.51,0-13,3-15.08,4.79-4.84,4.16-3.37,22.74,1.13,35.95l3.38,9.93-7.89,6.94c-14.22,12.45-21.26,23.77-18.81,30.29,3.1,8.24,20.51,14.88,32.87,14.88,14.64,0,43.46-11,64.09-20.39C679.37,512.67,657.44,482.13,633,482.13Z" transform="translate(-498.08 -450.8)"/><path class="cls-2" d="M816.74,539.74l-7.93-6.94,3.43-10c4.49-13.18,6-31.76,1.12-35.92-2.07-1.78-7.57-4.79-15.08-4.79-24.41,0-46.34,30.54-59.69,82.39,20.63,9.41,49.46,20.39,64.09,20.39,12.36,0,29.77-6.64,32.87-14.88C838,563.51,831,552.19,816.74,539.74Z" transform="translate(-498.08 -450.8)"/><path class="cls-1" d="M844.75,523.07c3.82-15.8,7.32-44.19-11-59.92-9-7.73-22.27-12.35-35.5-12.35-21.63,0-58.4,11.57-82.62,81.21-24.23-69.64-61-81.21-82.63-81.21-13.23,0-26.5,4.62-35.5,12.35-18.29,15.73-14.79,44.12-11,59.92-24.94,25-25,45.13-20.13,58,9.63,25.63,43.26,35.19,62.2,35.19,28.31,0,75.29-22.16,87-27.92,11.73,5.76,58.71,27.92,87,27.92,18.94,0,52.57-9.56,62.2-35.19C869.71,568.2,869.69,548.1,844.75,523.07ZM628.63,584.91c-12.36,0-29.77-6.64-32.87-14.88-2.45-6.52,4.59-17.84,18.81-30.29l7.89-6.94-3.38-9.93c-4.5-13.21-6-31.79-1.13-35.95,2.07-1.78,7.57-4.79,15.08-4.79,24.41,0,46.34,30.54,59.69,82.39C672.09,573.93,643.27,584.91,628.63,584.91ZM835.55,570c-3.1,8.24-20.51,14.88-32.87,14.88-14.63,0-43.46-11-64.09-20.39,13.35-51.85,35.28-82.39,59.69-82.39,7.51,0,13,3,15.08,4.79,4.84,4.16,3.37,22.74-1.12,35.92l-3.43,10,7.93,6.94C831,552.19,838,563.51,835.55,570Z" transform="translate(-498.08 -450.8)"/></svg>