<?xml version="1.0" encoding="utf-8"?>
<!-- Generator: Adobe Illustrator 22.1.0, SVG Export Plug-In . SVG Version: 6.00 Build 0)  -->
<svg version="1.1" id="Layer_1" xmlns="http://www.w3.org/2000/svg" xmlns:xlink="http://www.w3.org/1999/xlink" x="0px" y="0px"
	 viewBox="0 0 300 300" style="enable-background:new 0 0 300 300;" xml:space="preserve">
<style type="text/css">
	.st0{fill:none;stroke:#FAD034;stroke-miterlimit:10;}
	.st1{fill:#C2A7EB;stroke:#C2A7EB;stroke-miterlimit:10;}
	.st2{opacity:0.7;fill:#FFFFFF;stroke:#FFFFFF;stroke-width:8.193600e-02;stroke-miterlimit:10;}
	.st3{fill:#C2A7EB;stroke:#C2A7EB;stroke-width:0.1759;stroke-miterlimit:10;}
	.st4{fill:#ED7321;stroke:#ED7321;stroke-width:0.954;stroke-miterlimit:10;}
	.st5{opacity:0.7;fill:#FFFFFF;stroke:#FFFFFF;stroke-width:0.1022;stroke-miterlimit:10;}
</style>
<g>
	<g>
		<path class="st0" d="M80.3,166.2c-1.5,5.1-24.1,76.5-80.3,99"/>
		<g>
			<path class="st1" d="M73.6,129.1c5-11.1,18-16.2,29.2-11.2c11.1,5,16.2,18,11.2,29.2c-4.6,10.4-23.9,19.8-31.1,18.9l-1.2,4.7
				l-6.6-5.5l4-1.7C73.8,157.2,69.3,138.8,73.6,129.1z"/>
			<path class="st2" d="M102.7,123.3c7.6,3.9,11.5,12.6,9.4,20.9c-0.2,0.7-1.3,0.9-1.4,0.1c-2.8-15.7-9-20.1-9-20.1
				C101.4,123.7,102.1,123,102.7,123.3z"/>
			<path class="st3" d="M79.8,160c-2.5-4.2-5.4-10.6-4.6-16.6c0.1-1,1.5-1.1,1.8-0.1l4.5,16C81.8,160.3,80.4,161,79.8,160z"/>
		</g>
	</g>
	<g>
		<path class="st0" d="M50.4,95.4C31.9,233.9-1,252.3,0.2,254.9"/>
		<g>
			<path class="st4" d="M36.3,57.1c3.5-13.3,17.1-21.3,30.4-17.8C80.1,42.7,88,56.4,84.6,69.7c-3.2,12.4-22.9,26.5-31.2,26.8
				l-0.5,5.5l-8.4-4.9l4.2-2.6C41.7,88.3,33.3,68.7,36.3,57.1z"/>
			<path class="st5" d="M72,43.6c8.5,6.4,11.5,18,7.1,27.7c-0.4,0.8-1.8,0.8-1.8-0.1c-0.1-19.9-6.8-26.6-6.8-26.6
				C70.3,43.7,71.3,43.1,72,43.6z"/>
			<path class="st4" d="M47.8,88.6c-3.6-4.9-8.1-12.5-7.9-20c0-1.3,1.7-1.6,2.2-0.4l7.7,19.3C50.3,88.8,48.6,89.7,47.8,88.6z"/>
		</g>
	</g>
</g>
</svg>
