<?xml version="1.0" encoding="utf-8"?>
<!-- Generator: Adobe Illustrator 22.1.0, SVG Export Plug-In . SVG Version: 6.00 Build 0)  -->
<svg version="1.1" id="Layer_1" xmlns="http://www.w3.org/2000/svg" xmlns:xlink="http://www.w3.org/1999/xlink" x="0px" y="0px"
	 viewBox="0 0 300 300" style="enable-background:new 0 0 300 300;" xml:space="preserve">
<style type="text/css">
	.st0{fill:#F2BA1A;}
</style>
<g>
	<g>
		<g>
			<g>
				<g>
					<path class="st0" d="M155.4,163.1c0-0.4-0.3-0.7-0.7-0.7H148c-0.4,0-0.7,0.3-0.7,0.7c0,0.4,0.3,0.7,0.7,0.7h6.7
						C155.1,163.8,155.4,163.5,155.4,163.1z M141,168.5c-0.3,0-0.6-0.3-0.6-0.6v-9.5c0-0.3,0.3-0.6,0.6-0.6h14.6
						c0.3,0,0.6,0.3,0.6,0.6v5.3l2.2-2.2v-7c0-1.2-1-2.2-2.2-2.2h-15.7c-1.2,0-2.2,1-2.2,2.2v14c0,1.2,1,2.2,2.2,2.2h9.1
						c0-0.4,0.2-0.7,0.5-1c0.2-0.2,0.8-0.8,0.8-0.8l0.5-0.5H141z M144.9,154.2h2.2c0.5,0,0.8,0.4,0.8,0.8c0,0.5-0.4,0.8-0.8,0.8
						h-2.2c-0.5,0-0.8-0.4-0.8-0.8C144.1,154.5,144.4,154.2,144.9,154.2z M141.6,153.9c0.6,0,1.1,0.5,1.1,1.1c0,0.6-0.5,1.1-1.1,1.1
						c-0.6,0-1.1-0.5-1.1-1.1C140.4,154.4,140.9,153.9,141.6,153.9z M159.5,165.8l-1.6-1.6c-0.1-0.1-0.3-0.1-0.4,0l-4.5,4.5
						c-0.1,0.1-0.1,0.3,0,0.4l1.6,1.6c0.1,0.1,0.3,0.1,0.4,0l4.5-4.5C159.6,166.1,159.6,165.9,159.5,165.8z M152,170.1
						c-0.1-0.1-0.3-0.1-0.4,0c-0.2,0.2-0.4,0.4-0.6,0.6c0,0-0.1,0.1-0.1,0.2l-0.1,1.8c0,0.2,0.1,0.3,0.3,0.3l1.7-0.2
						c0.1,0,0.1,0,0.2-0.1l0.6-0.6c0.1-0.1,0.1-0.3,0-0.4L152,170.1z M142.4,165.2c-0.4,0-0.7,0.3-0.7,0.7c0,0.4,0.3,0.7,0.7,0.7
						h10.1c0.4,0,0.7-0.3,0.7-0.7c0-0.4-0.3-0.7-0.7-0.7H142.4z M154.7,159.6H148c-0.4,0-0.7,0.3-0.7,0.7c0,0.4,0.3,0.7,0.7,0.7h6.7
						c0.4,0,0.7-0.3,0.7-0.7C155.4,159.9,155.1,159.6,154.7,159.6z"/>
					<path class="st0" d="M144.9,159.5h-2.2c-0.3,0-0.6,0.3-0.6,0.6v2.8c0,0.3,0.3,0.6,0.6,0.6h2.2c0.3,0,0.6-0.3,0.6-0.6V160
						C145.5,159.7,145.2,159.5,144.9,159.5z M161.7,163.6l-1.6-1.6c-0.1-0.1-0.3-0.1-0.4,0l-0.8,0.8c-0.1,0.1-0.1,0.3,0,0.4l1.6,1.6
						c0.1,0.1,0.3,0.1,0.4,0l0.8-0.8C161.8,163.9,161.8,163.7,161.7,163.6z"/>
				</g>
			</g>
		</g>
	</g>
</g>
</svg>
