<?xml version="1.0" encoding="utf-8"?>
<!-- Generator: Adobe Illustrator 22.1.0, SVG Export Plug-In . SVG Version: 6.00 Build 0)  -->
<svg version="1.1" id="Layer_1" xmlns="http://www.w3.org/2000/svg" xmlns:xlink="http://www.w3.org/1999/xlink" x="0px" y="0px"
	 viewBox="0 0 300 300" style="enable-background:new 0 0 300 300;" xml:space="preserve">
<style type="text/css">
	.st0{fill:none;}
	.st1{fill:#FFFFFF;}
	.st2{opacity:0.32;clip-path:url(#SVGID_2_);}
	.st3{fill:#C231D1;}
	.st4{fill:#FFB359;}
	.st5{opacity:0.8;fill:url(#SVGID_3_);}
	.st6{opacity:0.8;fill:url(#SVGID_4_);}
	.st7{opacity:0.8;fill:url(#SVGID_5_);}
	.st8{opacity:0.8;fill:url(#SVGID_6_);}
	.st9{opacity:0.8;fill:url(#SVGID_7_);}
	.st10{opacity:0.8;fill:url(#SVGID_8_);}
	.st11{opacity:0.8;fill:url(#SVGID_9_);}
	.st12{opacity:0.8;fill:url(#SVGID_10_);}
	.st13{opacity:0.8;fill:url(#SVGID_11_);}
	.st14{opacity:0.8;fill:url(#SVGID_12_);}
	.st15{opacity:0.8;fill:url(#SVGID_13_);}
	.st16{opacity:0.8;fill:url(#SVGID_14_);}
	.st17{fill:none;stroke:#632C1F;stroke-width:1.2127;stroke-miterlimit:10;}
	.st18{opacity:0.67;clip-path:url(#SVGID_2_);}
	.st19{opacity:0.8;fill:url(#SVGID_15_);}
	.st20{opacity:0.8;fill:url(#SVGID_16_);}
	.st21{opacity:0.8;fill:url(#SVGID_17_);}
	.st22{opacity:0.8;fill:url(#SVGID_18_);}
	.st23{opacity:0.8;fill:url(#SVGID_19_);}
	.st24{opacity:0.8;fill:url(#SVGID_20_);}
	.st25{opacity:0.8;fill:url(#SVGID_21_);}
	.st26{opacity:0.8;fill:url(#SVGID_22_);}
	.st27{opacity:0.8;fill:url(#SVGID_23_);}
	.st28{opacity:0.8;fill:url(#SVGID_24_);}
	.st29{opacity:0.8;fill:url(#SVGID_25_);}
	.st30{opacity:0.8;fill:url(#SVGID_26_);}
</style>
<pattern  width="28.8" height="28.8" patternUnits="userSpaceOnUse" id="_x31_0_dpi_30_x25_" viewBox="2.2 -31 28.8 28.8" style="overflow:visible;">
	<g>
		<rect x="2.2" y="-31" class="st0" width="28.8" height="28.8"/>
		<g>
			<path class="st1" d="M31,0c1.2,0,2.2-1,2.2-2.2c0-1.2-1-2.2-2.2-2.2c-1.2,0-2.2,1-2.2,2.2C28.8-1,29.8,0,31,0z"/>
			<path class="st1" d="M16.6,0c1.2,0,2.2-1,2.2-2.2c0-1.2-1-2.2-2.2-2.2c-1.2,0-2.2,1-2.2,2.2C14.4-1,15.4,0,16.6,0z"/>
			<path class="st1" d="M31-14.4c1.2,0,2.2-1,2.2-2.2c0-1.2-1-2.2-2.2-2.2c-1.2,0-2.2,1-2.2,2.2C28.8-15.4,29.8-14.4,31-14.4z"/>
			<path class="st1" d="M16.6-14.4c1.2,0,2.2-1,2.2-2.2c0-1.2-1-2.2-2.2-2.2c-1.2,0-2.2,1-2.2,2.2C14.4-15.4,15.4-14.4,16.6-14.4z"
				/>
			<path class="st1" d="M9.4-7.2c1.2,0,2.2-1,2.2-2.2c0-1.2-1-2.2-2.2-2.2c-1.2,0-2.2,1-2.2,2.2C7.2-8.2,8.2-7.2,9.4-7.2z"/>
			<path class="st1" d="M23.8-7.2c1.2,0,2.2-1,2.2-2.2c0-1.2-1-2.2-2.2-2.2c-1.2,0-2.2,1-2.2,2.2C21.6-8.2,22.6-7.2,23.8-7.2z"/>
			<path class="st1" d="M9.4-21.6c1.2,0,2.2-1,2.2-2.2c0-1.2-1-2.2-2.2-2.2c-1.2,0-2.2,1-2.2,2.2C7.2-22.6,8.2-21.6,9.4-21.6z"/>
			<path class="st1" d="M23.8-21.6c1.2,0,2.2-1,2.2-2.2c0-1.2-1-2.2-2.2-2.2c-1.2,0-2.2,1-2.2,2.2C21.6-22.6,22.6-21.6,23.8-21.6z"
				/>
		</g>
		<g>
			<path class="st1" d="M2.2,0c1.2,0,2.2-1,2.2-2.2c0-1.2-1-2.2-2.2-2.2C1-4.3,0-3.4,0-2.2C0-1,1,0,2.2,0z"/>
			<path class="st1" d="M2.2-14.4c1.2,0,2.2-1,2.2-2.2c0-1.2-1-2.2-2.2-2.2c-1.2,0-2.2,1-2.2,2.2C0-15.4,1-14.4,2.2-14.4z"/>
		</g>
		<g>
			<path class="st1" d="M31-28.8c1.2,0,2.2-1,2.2-2.2c0-1.2-1-2.2-2.2-2.2c-1.2,0-2.2,1-2.2,2.2C28.8-29.8,29.8-28.8,31-28.8z"/>
			<path class="st1" d="M16.6-28.8c1.2,0,2.2-1,2.2-2.2c0-1.2-1-2.2-2.2-2.2c-1.2,0-2.2,1-2.2,2.2C14.4-29.8,15.4-28.8,16.6-28.8z"
				/>
		</g>
		<g>
			<path class="st1" d="M2.2-28.8c1.2,0,2.2-1,2.2-2.2c0-1.2-1-2.2-2.2-2.2C1-33.1,0-32.2,0-31C0-29.8,1-28.8,2.2-28.8z"/>
		</g>
	</g>
</pattern>
<g>
	<defs>
		<rect id="SVGID_1_" width="300" height="300"/>
	</defs>
	<clipPath id="SVGID_2_">
		<use xlink:href="#SVGID_1_"  style="overflow:visible;"/>
	</clipPath>
	<g class="st2">
		<g>
			<g>
				<path class="st3" d="M67.7-51.1c3.1-3.8,6.3-7.4,9.5-11c1.5,4.4,3.1,8.8,4.9,13.1C77.3-49.6,72.5-50.3,67.7-51.1z"/>
				<g>
					<g>
						<path class="st3" d="M79.8-54.9c-1.2-2-2.5-4-3.6-6c0.2-0.2,0.4-0.4,0.5-0.6c0.6,1,1.2,2,1.8,2.9
							C78.9-57.4,79.3-56.2,79.8-54.9z"/>
					</g>
					<g>
						<path class="st3" d="M82.1-49c-0.3,0-0.6-0.1-1-0.1c-2.2-3.3-4.3-6.7-6.4-10.2c0.2-0.2,0.4-0.4,0.5-0.6
							c2.2,3.7,4.4,7.2,6.7,10.7C82-49.1,82.1-49.1,82.1-49z"/>
					</g>
					<g>
						<path class="st3" d="M79.5-49.3c-0.3,0-0.7-0.1-1-0.1c-1.8-2.7-3.5-5.5-5.2-8.3c0.2-0.2,0.4-0.4,0.5-0.6
							C75.7-55.3,77.5-52.3,79.5-49.3z"/>
					</g>
					<g>
						<path class="st3" d="M76.8-49.7c-0.3,0-0.7-0.1-1-0.1c-1.3-2.1-2.6-4.1-3.9-6.3c0.2-0.2,0.4-0.4,0.5-0.6
							C73.9-54.3,75.3-52,76.8-49.7z"/>
					</g>
					<g>
						<path class="st3" d="M74.1-50.1c-0.3-0.1-0.7-0.1-1-0.2c-0.9-1.4-1.8-2.8-2.6-4.2c0.2-0.2,0.4-0.4,0.5-0.6
							C72-53.4,73.1-51.7,74.1-50.1z"/>
					</g>
					<g>
						<path class="st3" d="M71.5-50.5c-0.3-0.1-0.7-0.1-1-0.2c-0.4-0.7-0.9-1.4-1.3-2.2c0.2-0.2,0.4-0.4,0.5-0.6
							C70.2-52.4,70.8-51.5,71.5-50.5z"/>
					</g>
					<g>
						<path class="st3" d="M68.8-50.9c-0.3-0.1-0.7-0.1-1-0.2c0,0,0,0,0-0.1c0.2-0.2,0.4-0.4,0.5-0.6C68.4-51.5,68.6-51.2,68.8-50.9
							z"/>
					</g>
				</g>
				<path class="st3" d="M82.1-49c-1.7-4.3-3.4-8.7-4.9-13.1c-1,1.1-2.1,2.3-3.1,3.5c2.4,3.3,4.8,6.5,7.3,9.6
					C81.7-49,81.9-49,82.1-49z"/>
			</g>
			<g>
				<path class="st4" d="M73.4-36.9c2.9-3.9,5.9-7.7,8.9-11.5c1.7,4.3,3.6,8.6,5.5,12.8C83.1-35.9,78.2-36.3,73.4-36.9z"/>
				
					<pattern  id="SVGID_3_" xlink:href="#_x31_0_dpi_30_x25_" patternTransform="matrix(0.9261 0.2856 -0.2856 0.9261 -2877.3955 1694.993)">
				</pattern>
				<path class="st5" d="M73.4-36.9c2.9-3.9,5.9-7.7,8.9-11.5c1.7,4.3,3.6,8.6,5.5,12.8C83.1-35.9,78.2-36.3,73.4-36.9z"/>
				<path class="st4" d="M87.9-35.6c-1.9-4.2-3.8-8.4-5.5-12.8c-1,1.2-1.9,2.4-2.9,3.6c2.6,3.1,5.2,6.2,7.8,9.1
					C87.5-35.6,87.7-35.6,87.9-35.6z"/>
			</g>
			<g>
				<path class="st3" d="M79.9-23c2.7-4,5.5-8,8.3-11.9c2,4.2,4,8.3,6.2,12.3C89.5-22.6,84.7-22.8,79.9-23z"/>
				<g>
					<g>
						<path class="st3" d="M91.5-28.2c-1.4-1.8-2.8-3.6-4.2-5.4c0.2-0.2,0.3-0.4,0.5-0.7c0.7,0.9,1.4,1.8,2.1,2.7
							C90.3-30.5,90.9-29.3,91.5-28.2z"/>
					</g>
					<g>
						<path class="st3" d="M94.3-22.6c-0.3,0-0.6,0-1,0c-2.5-3-5-6.1-7.4-9.3c0.2-0.2,0.3-0.4,0.5-0.7c2.5,3.3,5.1,6.6,7.8,9.8
							C94.3-22.7,94.3-22.7,94.3-22.6z"/>
					</g>
					<g>
						<path class="st3" d="M91.7-22.6c-0.3,0-0.7,0-1,0c-2-2.5-4-5-6-7.5c0.2-0.2,0.3-0.4,0.5-0.7C87.3-28,89.5-25.3,91.7-22.6z"/>
					</g>
					<g>
						<path class="st3" d="M89-22.7c-0.3,0-0.7,0-1,0c-1.5-1.9-3-3.8-4.5-5.7c0.2-0.2,0.3-0.5,0.5-0.7C85.6-26.9,87.3-24.8,89-22.7z
							"/>
					</g>
					<g>
						<path class="st3" d="M86.4-22.7c-0.3,0-0.7,0-1,0c-1-1.3-2-2.6-3-3.8c0.2-0.2,0.3-0.5,0.5-0.7C83.9-25.8,85.1-24.2,86.4-22.7z
							"/>
					</g>
					<g>
						<path class="st3" d="M83.7-22.8c-0.3,0-0.7,0-1,0c-0.5-0.7-1-1.3-1.5-2c0.2-0.2,0.3-0.5,0.5-0.7C82.2-24.6,83-23.7,83.7-22.8z
							"/>
					</g>
					<g>
						<path class="st3" d="M81-23c-0.3,0-0.7,0-1-0.1c0,0,0,0,0,0c0.2-0.2,0.3-0.5,0.5-0.7C80.5-23.5,80.8-23.2,81-23z"/>
					</g>
				</g>
				<path class="st3" d="M94.3-22.6c-2.2-4-4.2-8.2-6.2-12.3c-0.9,1.2-1.8,2.5-2.7,3.7c2.7,3,5.5,5.8,8.3,8.6
					C93.9-22.6,94.1-22.6,94.3-22.6z"/>
			</g>
			<g>
				<path class="st4" d="M87-9.7C89.5-13.9,92-18,94.7-22c2.2,4,4.4,8,6.8,11.9C96.6-9.8,91.8-9.7,87-9.7z"/>
				
					<pattern  id="SVGID_4_" xlink:href="#_x31_0_dpi_30_x25_" patternTransform="matrix(0.9261 0.2856 -0.2856 0.9261 -2848.3533 1678.54)">
				</pattern>
				<path class="st6" d="M87-9.7C89.5-13.9,92-18,94.7-22c2.2,4,4.4,8,6.8,11.9C96.6-9.8,91.8-9.7,87-9.7z"/>
				<path class="st4" d="M101.4-10.1C99.1-14,96.8-18,94.7-22c-0.8,1.3-1.7,2.6-2.5,3.9c2.8,2.8,5.7,5.5,8.7,8.1
					C101-10.1,101.2-10.1,101.4-10.1z"/>
			</g>
			<g>
				<path class="st3" d="M94.8,3.2c2.3-4.3,4.6-8.5,7.1-12.6c2.4,3.9,4.8,7.7,7.4,11.5C104.4,2.5,99.6,2.9,94.8,3.2z"/>
				<g>
					<g>
						<path class="st3" d="M105.7-3.2c-1.6-1.6-3.2-3.2-4.7-4.9c0.1-0.2,0.3-0.5,0.4-0.7c0.8,0.8,1.5,1.6,2.3,2.4
							C104.4-5.3,105.1-4.2,105.7-3.2z"/>
					</g>
					<g>
						<path class="st3" d="M109.2,2c-0.3,0-0.6,0.1-1,0.1c-2.8-2.7-5.6-5.5-8.3-8.3c0.1-0.2,0.3-0.5,0.4-0.7c2.8,3,5.7,5.9,8.7,8.7
							C109.1,1.9,109.1,2,109.2,2z"/>
					</g>
					<g>
						<path class="st3" d="M106.6,2.3c-0.3,0-0.7,0.1-1,0.1c-2.3-2.2-4.5-4.4-6.7-6.7c0.1-0.2,0.3-0.5,0.4-0.7
							C101.7-2.6,104.1-0.1,106.6,2.3z"/>
					</g>
					<g>
						<path class="st3" d="M103.9,2.5c-0.3,0-0.7,0.1-1,0.1c-1.7-1.7-3.4-3.4-5-5.1C98-2.7,98.1-3,98.2-3.2
							C100.1-1.3,102,0.6,103.9,2.5z"/>
					</g>
					<g>
						<path class="st3" d="M101.2,2.7c-0.3,0-0.7,0.1-1,0.1c-1.1-1.1-2.3-2.3-3.4-3.5c0.1-0.2,0.3-0.5,0.4-0.7
							C98.5,0,99.9,1.4,101.2,2.7z"/>
					</g>
					<g>
						<path class="st3" d="M98.6,2.9c-0.3,0-0.7,0-1,0.1c-0.6-0.6-1.2-1.2-1.7-1.8c0.1-0.2,0.3-0.5,0.4-0.7
							C97,1.3,97.8,2.1,98.6,2.9z"/>
					</g>
					<g>
						<path class="st3" d="M95.9,3.1c-0.3,0-0.7,0-1,0.1c0,0,0,0,0,0c0.1-0.2,0.3-0.5,0.4-0.7C95.4,2.6,95.6,2.9,95.9,3.1z"/>
					</g>
				</g>
				<path class="st3" d="M109.2,2c-2.5-3.8-5-7.6-7.4-11.5c-0.8,1.3-1.5,2.7-2.3,4c3,2.6,6,5.1,9.1,7.5C108.8,2.1,109,2,109.2,2z"/>
			</g>
			<g>
				<path class="st4" d="M103.2,15.5c2-4.4,4.2-8.7,6.4-13c2.6,3.7,5.2,7.4,7.9,11C112.7,14.3,108,15,103.2,15.5z"/>
				
					<pattern  id="SVGID_5_" xlink:href="#_x31_0_dpi_30_x25_" patternTransform="matrix(0.9261 0.2856 -0.2856 0.9261 -2819.311 1662.0869)">
				</pattern>
				<path class="st7" d="M103.2,15.5c2-4.4,4.2-8.7,6.4-13c2.6,3.7,5.2,7.4,7.9,11C112.7,14.3,108,15,103.2,15.5z"/>
				<path class="st4" d="M117.5,13.6c-2.7-3.6-5.4-7.3-7.9-11c-0.7,1.4-1.4,2.7-2.1,4.1c3.1,2.4,6.2,4.8,9.4,7
					C117.1,13.6,117.3,13.6,117.5,13.6z"/>
			</g>
			<g>
				<path class="st3" d="M112.2,27.4c1.8-4.5,3.7-8.9,5.7-13.3c2.7,3.6,5.6,7.1,8.5,10.5C121.7,25.7,117,26.6,112.2,27.4z"/>
				<g>
					<g>
						<path class="st3" d="M122.4,19.9c-1.7-1.4-3.5-2.8-5.2-4.3c0.1-0.2,0.2-0.5,0.3-0.7c0.8,0.7,1.7,1.4,2.5,2.1
							C120.9,18,121.7,19,122.4,19.9z"/>
					</g>
					<g>
						<path class="st3" d="M126.4,24.7c-0.3,0.1-0.6,0.1-0.9,0.2c-3.1-2.4-6.1-4.8-9.1-7.3c0.1-0.2,0.2-0.5,0.3-0.7
							c3.1,2.7,6.3,5.2,9.5,7.7C126.3,24.6,126.3,24.6,126.4,24.7z"/>
					</g>
					<g>
						<path class="st3" d="M123.8,25.2c-0.3,0.1-0.7,0.1-1,0.2c-2.5-1.9-4.9-3.9-7.3-5.9c0.1-0.3,0.2-0.5,0.3-0.8
							C118.5,21,121.1,23.1,123.8,25.2z"/>
					</g>
					<g>
						<path class="st3" d="M121.2,25.8c-0.3,0.1-0.7,0.1-1,0.2c-1.9-1.5-3.7-3-5.5-4.5c0.1-0.3,0.2-0.5,0.3-0.8
							C117.1,22.4,119.1,24.1,121.2,25.8z"/>
					</g>
					<g>
						<path class="st3" d="M118.6,26.3c-0.3,0.1-0.7,0.1-1,0.2c-1.2-1-2.5-2-3.7-3c0.1-0.3,0.2-0.5,0.3-0.8
							C115.6,23.9,117.1,25.1,118.6,26.3z"/>
					</g>
					<g>
						<path class="st3" d="M115.9,26.8c-0.3,0.1-0.7,0.1-1,0.2c-0.6-0.5-1.3-1-1.9-1.6c0.1-0.3,0.2-0.5,0.3-0.8
							C114.2,25.3,115.1,26.1,115.9,26.8z"/>
					</g>
					<g>
						<path class="st3" d="M113.3,27.2c-0.3,0.1-0.7,0.1-1,0.2c0,0,0,0,0,0c0.1-0.3,0.2-0.5,0.3-0.8C112.8,26.8,113,27,113.3,27.2z"
							/>
					</g>
				</g>
				<path class="st3" d="M126.4,24.7c-2.9-3.4-5.7-6.9-8.5-10.5c-0.6,1.4-1.3,2.8-1.9,4.2c3.2,2.2,6.5,4.4,9.7,6.5
					C126,24.8,126.2,24.7,126.4,24.7z"/>
			</g>
			<g>
				<path class="st4" d="M121.8,38.7c1.6-4.6,3.3-9.1,5-13.5c2.9,3.4,5.9,6.8,9,10C131.2,36.5,126.5,37.7,121.8,38.7z"/>
				
					<pattern  id="SVGID_6_" xlink:href="#_x31_0_dpi_30_x25_" patternTransform="matrix(0.9261 0.2856 -0.2856 0.9261 -2790.2688 1645.6339)">
				</pattern>
				<path class="st8" d="M121.8,38.7c1.6-4.6,3.3-9.1,5-13.5c2.9,3.4,5.9,6.8,9,10C131.2,36.5,126.5,37.7,121.8,38.7z"/>
				<path class="st4" d="M135.8,35.2c-3.1-3.3-6.1-6.6-9-10c-0.6,1.4-1.1,2.9-1.7,4.3c3.3,2.1,6.7,4,10.1,5.9
					C135.4,35.3,135.6,35.3,135.8,35.2z"/>
			</g>
			<g>
				<path class="st3" d="M132,49.5c1.3-4.6,2.8-9.2,4.3-13.8c3.1,3.3,6.2,6.4,9.5,9.5C141.2,46.8,136.6,48.2,132,49.5z"/>
				<g>
					<g>
						<path class="st3" d="M141.4,41c-1.9-1.2-3.7-2.4-5.6-3.7c0.1-0.3,0.2-0.5,0.3-0.8c0.9,0.6,1.8,1.2,2.7,1.8
							C139.6,39.2,140.5,40.1,141.4,41z"/>
					</g>
					<g>
						<path class="st3" d="M145.7,45.3c-0.3,0.1-0.6,0.2-0.9,0.3c-3.3-2-6.5-4.1-9.7-6.3c0.1-0.3,0.2-0.5,0.3-0.8
							c3.4,2.3,6.8,4.5,10.2,6.6C145.6,45.2,145.7,45.2,145.7,45.3z"/>
					</g>
					<g>
						<path class="st3" d="M143.3,46.1c-0.3,0.1-0.7,0.2-1,0.3c-2.6-1.6-5.2-3.3-7.8-5.1c0.1-0.3,0.2-0.5,0.2-0.8
							C137.5,42.5,140.4,44.3,143.3,46.1z"/>
					</g>
					<g>
						<path class="st3" d="M140.7,46.9c-0.3,0.1-0.7,0.2-1,0.3c-2-1.3-4-2.6-5.9-3.9c0.1-0.3,0.2-0.5,0.2-0.8
							C136.3,44,138.5,45.5,140.7,46.9z"/>
					</g>
					<g>
						<path class="st3" d="M138.2,47.7c-0.3,0.1-0.7,0.2-1,0.3c-1.3-0.9-2.7-1.7-4-2.6c0.1-0.3,0.2-0.5,0.2-0.8
							C135,45.6,136.6,46.7,138.2,47.7z"/>
					</g>
					<g>
						<path class="st3" d="M135.6,48.5c-0.3,0.1-0.7,0.2-1,0.3c-0.7-0.4-1.4-0.9-2-1.3c0.1-0.3,0.2-0.5,0.2-0.8
							C133.7,47.3,134.7,47.9,135.6,48.5z"/>
					</g>
					<g>
						<path class="st3" d="M133,49.2c-0.3,0.1-0.7,0.2-1,0.3c0,0,0,0,0,0c0.1-0.3,0.2-0.5,0.2-0.8C132.5,48.9,132.7,49,133,49.2z"/>
					</g>
				</g>
				<path class="st3" d="M145.7,45.3c-3.2-3.1-6.4-6.3-9.5-9.5c-0.5,1.4-1,2.9-1.4,4.4c3.4,1.9,6.9,3.7,10.3,5.4
					C145.4,45.4,145.6,45.4,145.7,45.3z"/>
			</g>
			<g>
				<path class="st4" d="M142.6,59.7c1.1-4.7,2.3-9.4,3.6-14c3.2,3.1,6.6,6.1,9.9,9C151.7,56.5,147.2,58.1,142.6,59.7z"/>
				
					<pattern  id="SVGID_7_" xlink:href="#_x31_0_dpi_30_x25_" patternTransform="matrix(0.9261 0.2856 -0.2856 0.9261 -2761.2266 1629.1809)">
				</pattern>
				<path class="st9" d="M142.6,59.7c1.1-4.7,2.3-9.4,3.6-14c3.2,3.1,6.6,6.1,9.9,9C151.7,56.5,147.2,58.1,142.6,59.7z"/>
				<path class="st4" d="M156.2,54.8c-3.4-2.9-6.7-5.9-9.9-9c-0.4,1.5-0.8,2.9-1.2,4.4c3.5,1.7,7,3.3,10.6,4.8
					C155.8,54.9,156,54.8,156.2,54.8z"/>
			</g>
			<g>
				<path class="st3" d="M153.8,69.3c0.9-4.8,1.8-9.5,2.9-14.1c3.4,2.9,6.9,5.7,10.4,8.5C162.7,65.7,158.3,67.6,153.8,69.3z"/>
				<g>
					<g>
						<path class="st3" d="M162.3,59.9c-2-1-4-2-5.9-3.1c0.1-0.3,0.1-0.5,0.2-0.8c1,0.5,1.9,1,2.9,1.5
							C160.4,58.3,161.3,59.1,162.3,59.9z"/>
					</g>
					<g>
						<path class="st3" d="M167.1,63.7c-0.3,0.1-0.6,0.3-0.9,0.4c-3.5-1.7-6.9-3.4-10.3-5.2c0.1-0.3,0.1-0.5,0.2-0.8
							c3.6,1.9,7.2,3.7,10.8,5.5C167,63.6,167,63.6,167.1,63.7z"/>
					</g>
					<g>
						<path class="st3" d="M164.7,64.8c-0.3,0.1-0.6,0.3-0.9,0.4c-2.8-1.4-5.6-2.8-8.3-4.2c0.1-0.3,0.1-0.5,0.2-0.8
							C158.6,61.7,161.7,63.3,164.7,64.8z"/>
					</g>
					<g>
						<path class="st3" d="M162.3,65.8c-0.3,0.1-0.6,0.3-0.9,0.4c-2.1-1-4.2-2.1-6.3-3.2c0.1-0.3,0.1-0.5,0.2-0.8
							C157.5,63.5,159.9,64.7,162.3,65.8z"/>
					</g>
					<g>
						<path class="st3" d="M159.8,66.9c-0.3,0.1-0.6,0.3-1,0.4c-1.4-0.7-2.8-1.4-4.2-2.2c0.1-0.3,0.1-0.5,0.2-0.8
							C156.5,65.2,158.1,66,159.8,66.9z"/>
					</g>
					<g>
						<path class="st3" d="M157.3,67.9c-0.3,0.1-0.6,0.3-1,0.4c-0.7-0.4-1.4-0.7-2.2-1.1c0.1-0.3,0.1-0.5,0.2-0.8
							C155.4,66.9,156.3,67.4,157.3,67.9z"/>
					</g>
					<g>
						<path class="st3" d="M154.9,68.9c-0.3,0.1-0.6,0.3-1,0.4c0,0,0,0-0.1,0c0-0.3,0.1-0.5,0.1-0.8
							C154.3,68.6,154.6,68.8,154.9,68.9z"/>
					</g>
				</g>
				<path class="st3" d="M167.1,63.7c-3.5-2.7-7-5.6-10.4-8.5c-0.3,1.5-0.7,3-1,4.5c3.6,1.5,7.2,2.9,10.8,4.2
					C166.7,63.9,166.9,63.8,167.1,63.7z"/>
			</g>
			<g>
				<path class="st4" d="M165.5,78.3c0.6-4.8,1.3-9.5,2.1-14.2c3.5,2.7,7.1,5.4,10.8,7.9C174.2,74.2,169.8,76.3,165.5,78.3z"/>
				
					<pattern  id="SVGID_8_" xlink:href="#_x31_0_dpi_30_x25_" patternTransform="matrix(0.9261 0.2856 -0.2856 0.9261 -2732.1841 1612.7278)">
				</pattern>
				<path class="st10" d="M165.5,78.3c0.6-4.8,1.3-9.5,2.1-14.2c3.5,2.7,7.1,5.4,10.8,7.9C174.2,74.2,169.8,76.3,165.5,78.3z"/>
				<path class="st4" d="M178.4,72c-3.7-2.5-7.3-5.2-10.8-7.9c-0.3,1.5-0.5,3-0.7,4.5c3.7,1.3,7.3,2.5,11,3.7
					C178,72.2,178.2,72.1,178.4,72z"/>
			</g>
			<g>
				<path class="st3" d="M177.6,86.8c0.4-4.8,0.8-9.6,1.4-14.3c3.7,2.5,7.4,5,11.2,7.3C186.1,82.2,181.9,84.5,177.6,86.8z"/>
				<g>
					<g>
						<path class="st3" d="M185,76.5c-2.1-0.8-4.1-1.6-6.2-2.5c0-0.3,0.1-0.5,0.1-0.8c1,0.4,2,0.8,3,1.2C183,75.1,184,75.8,185,76.5
							z"/>
					</g>
					<g>
						<path class="st3" d="M190.2,79.8c-0.3,0.2-0.6,0.3-0.8,0.5c-3.6-1.3-7.2-2.7-10.8-4.1c0-0.3,0.1-0.5,0.1-0.8
							c3.8,1.5,7.5,3,11.3,4.3C190.1,79.7,190.1,79.7,190.2,79.8z"/>
					</g>
					<g>
						<path class="st3" d="M187.9,81.1c-0.3,0.2-0.6,0.3-0.9,0.5c-2.9-1.1-5.8-2.2-8.7-3.3c0-0.3,0.1-0.5,0.1-0.8
							C181.6,78.7,184.8,79.9,187.9,81.1z"/>
					</g>
					<g>
						<path class="st3" d="M185.6,82.4c-0.3,0.2-0.6,0.3-0.9,0.5c-2.2-0.8-4.4-1.7-6.6-2.5c0-0.3,0.1-0.5,0.1-0.8
							C180.7,80.5,183.2,81.5,185.6,82.4z"/>
					</g>
					<g>
						<path class="st3" d="M183.3,83.7c-0.3,0.2-0.6,0.3-0.9,0.5c-1.5-0.6-3-1.1-4.4-1.7c0-0.3,0-0.5,0.1-0.8
							C179.8,82.3,181.5,83,183.3,83.7z"/>
					</g>
					<g>
						<path class="st3" d="M180.9,85c-0.3,0.2-0.6,0.3-0.9,0.5c-0.8-0.3-1.5-0.6-2.3-0.9c0-0.3,0-0.5,0.1-0.8
							C178.9,84.2,179.9,84.6,180.9,85z"/>
					</g>
					<g>
						<path class="st3" d="M178.6,86.2c-0.3,0.2-0.6,0.3-0.9,0.5c0,0,0,0-0.1,0c0-0.3,0-0.5,0.1-0.8C178,86,178.3,86.1,178.6,86.2z"
							/>
					</g>
				</g>
				<path class="st3" d="M190.2,79.8c-3.8-2.4-7.5-4.8-11.2-7.3c-0.2,1.5-0.4,3-0.5,4.6c3.7,1.1,7.5,2.1,11.2,3.1
					C189.8,80,190,79.9,190.2,79.8z"/>
			</g>
			<g>
				<path class="st4" d="M190.1,94.5c0.1-4.8,0.3-9.6,0.6-14.4c3.8,2.3,7.7,4.6,11.6,6.8C198.3,89.5,194.3,92,190.1,94.5z"/>
				
					<pattern  id="SVGID_9_" xlink:href="#_x31_0_dpi_30_x25_" patternTransform="matrix(0.9261 0.2856 -0.2856 0.9261 -2703.1418 1596.2748)">
				</pattern>
				<path class="st11" d="M190.1,94.5c0.1-4.8,0.3-9.6,0.6-14.4c3.8,2.3,7.7,4.6,11.6,6.8C198.3,89.5,194.3,92,190.1,94.5z"/>
				<path class="st4" d="M202.3,86.8c-3.9-2.2-7.8-4.4-11.6-6.8c-0.1,1.5-0.2,3.1-0.3,4.6c3.8,0.9,7.6,1.8,11.3,2.5
					C202,87.1,202.2,87,202.3,86.8z"/>
			</g>
			<g>
				<path class="st3" d="M203.1,101.6c-0.1-4.8-0.2-9.6-0.1-14.4c3.9,2.1,7.9,4.2,11.9,6.1C211,96.2,207.1,98.9,203.1,101.6z"/>
				<g>
					<g>
						<path class="st3" d="M209.4,90.6c-2.2-0.6-4.3-1.2-6.4-1.8c0-0.3,0-0.5,0-0.8c1.1,0.3,2.1,0.6,3.2,0.9
							C207.2,89.5,208.3,90,209.4,90.6z"/>
					</g>
					<g>
						<path class="st3" d="M214.9,93.3c-0.3,0.2-0.5,0.4-0.8,0.6c-3.7-0.9-7.5-1.9-11.2-3c0-0.3,0-0.5,0-0.8
							c3.9,1.1,7.8,2.2,11.7,3.1C214.7,93.3,214.8,93.3,214.9,93.3z"/>
					</g>
					<g>
						<path class="st3" d="M212.8,94.9c-0.3,0.2-0.6,0.4-0.8,0.6c-3-0.8-6-1.6-9-2.4c0-0.3,0-0.5,0-0.8
							C206.2,93.2,209.5,94,212.8,94.9z"/>
					</g>
					<g>
						<path class="st3" d="M210.6,96.4c-0.3,0.2-0.6,0.4-0.8,0.6c-2.3-0.6-4.5-1.2-6.8-1.9c0-0.3,0-0.5,0-0.8
							C205.5,95.1,208,95.8,210.6,96.4z"/>
					</g>
					<g>
						<path class="st3" d="M208.4,98c-0.3,0.2-0.6,0.4-0.8,0.6c-1.5-0.4-3.1-0.8-4.6-1.3c0-0.3,0-0.5,0-0.8
							C204.8,97,206.6,97.5,208.4,98z"/>
					</g>
					<g>
						<path class="st3" d="M206.2,99.5c-0.3,0.2-0.6,0.4-0.9,0.6c-0.8-0.2-1.6-0.4-2.3-0.6c0-0.3,0-0.5,0-0.8
							C204.1,98.9,205.1,99.2,206.2,99.5z"/>
					</g>
					<g>
						<path class="st3" d="M204,101c-0.3,0.2-0.6,0.4-0.9,0.6c0,0,0,0-0.1,0c0-0.3,0-0.5,0-0.8C203.4,100.8,203.7,100.9,204,101z"/>
					</g>
				</g>
				<path class="st3" d="M214.9,93.3c-4-1.9-8-4-11.9-6.1c0,1.5,0,3.1,0,4.6c3.8,0.7,7.6,1.4,11.5,1.9
					C214.5,93.6,214.7,93.5,214.9,93.3z"/>
			</g>
			<g>
				<path class="st4" d="M216.3,108c-0.4-4.8-0.7-9.6-0.9-14.4c4,1.9,8.1,3.8,12.2,5.5C224,102.2,220.2,105.1,216.3,108z"/>
				
					<pattern  id="SVGID_10_" xlink:href="#_x31_0_dpi_30_x25_" patternTransform="matrix(0.9261 0.2856 -0.2856 0.9261 -2674.0996 1579.8218)">
				</pattern>
				<path class="st12" d="M216.3,108c-0.4-4.8-0.7-9.6-0.9-14.4c4,1.9,8.1,3.8,12.2,5.5C224,102.2,220.2,105.1,216.3,108z"/>
				<path class="st4" d="M227.7,99.1c-4.1-1.7-8.2-3.6-12.2-5.5c0.1,1.5,0.1,3.1,0.2,4.6c3.9,0.5,7.7,1,11.6,1.3
					C227.4,99.4,227.6,99.3,227.7,99.1z"/>
			</g>
			<g>
				<path class="st3" d="M230,113.8c-0.7-4.8-1.2-9.6-1.6-14.3c4.1,1.7,8.3,3.4,12.6,4.9C237.4,107.5,233.7,110.7,230,113.8z"/>
				<g>
					<g>
						<path class="st3" d="M235.1,102.1c-2.2-0.3-4.4-0.7-6.6-1.1c0-0.3-0.1-0.5-0.1-0.8c1.1,0.2,2.2,0.4,3.2,0.6
							C232.8,101.2,234,101.7,235.1,102.1z"/>
					</g>
					<g>
						<path class="st3" d="M240.9,104.3c-0.2,0.2-0.5,0.4-0.7,0.6c-3.8-0.5-7.6-1.1-11.5-1.8c0-0.3-0.1-0.5-0.1-0.8
							c4,0.7,8,1.4,12,1.9C240.8,104.2,240.8,104.3,240.9,104.3z"/>
					</g>
					<g>
						<path class="st3" d="M239,106c-0.3,0.2-0.5,0.5-0.8,0.7c-3.1-0.4-6.2-0.9-9.3-1.5c0-0.3-0.1-0.5-0.1-0.8
							C232.2,105,235.6,105.6,239,106z"/>
					</g>
					<g>
						<path class="st3" d="M237,107.8c-0.3,0.2-0.5,0.5-0.8,0.7c-2.3-0.3-4.7-0.7-7-1.1c0-0.3-0.1-0.5-0.1-0.8
							C231.7,107,234.4,107.4,237,107.8z"/>
					</g>
					<g>
						<path class="st3" d="M235,109.6c-0.3,0.2-0.5,0.4-0.8,0.7c-1.6-0.2-3.1-0.5-4.7-0.8c0-0.3-0.1-0.5-0.1-0.8
							C231.2,109,233.1,109.3,235,109.6z"/>
					</g>
					<g>
						<path class="st3" d="M232.9,111.3c-0.3,0.2-0.5,0.4-0.8,0.7c-0.8-0.1-1.6-0.3-2.4-0.4c0-0.3-0.1-0.5-0.1-0.8
							C230.7,111,231.8,111.1,232.9,111.3z"/>
					</g>
					<g>
						<path class="st3" d="M230.9,113c-0.3,0.2-0.5,0.4-0.8,0.7c0,0,0,0-0.1,0c0-0.3-0.1-0.5-0.1-0.8
							C230.2,112.9,230.5,113,230.9,113z"/>
					</g>
				</g>
				<path class="st3" d="M240.9,104.3c-4.2-1.5-8.4-3.2-12.6-4.9c0.1,1.5,0.3,3,0.5,4.6c3.9,0.3,7.8,0.6,11.6,0.7
					C240.6,104.6,240.8,104.4,240.9,104.3z"/>
			</g>
			<g>
				<path class="st4" d="M244,118.8c-0.9-4.8-1.7-9.5-2.4-14.2c4.2,1.5,8.5,2.9,12.8,4.2C251,112.1,247.5,115.5,244,118.8z"/>
				
					<pattern  id="SVGID_11_" xlink:href="#_x31_0_dpi_30_x25_" patternTransform="matrix(0.9261 0.2856 -0.2856 0.9261 -2645.0574 1563.3688)">
				</pattern>
				<path class="st13" d="M244,118.8c-0.9-4.8-1.7-9.5-2.4-14.2c4.2,1.5,8.5,2.9,12.8,4.2C251,112.1,247.5,115.5,244,118.8z"/>
				<path class="st4" d="M254.4,108.8c-4.3-1.3-8.6-2.7-12.8-4.2c0.2,1.5,0.5,3,0.7,4.5c3.9,0.1,7.8,0.2,11.7,0.1
					C254.1,109,254.2,108.9,254.4,108.8z"/>
			</g>
			<g>
				<path class="st3" d="M258.3,123.1c-1.2-4.7-2.2-9.4-3.2-14.1c4.3,1.3,8.7,2.5,13.1,3.6C264.9,116.1,261.6,119.6,258.3,123.1z"/>
				<g>
					<g>
						<path class="st3" d="M262.1,111c-2.2-0.1-4.5-0.3-6.7-0.4c-0.1-0.3-0.1-0.5-0.2-0.8c1.1,0.1,2.2,0.2,3.3,0.2
							C259.7,110.3,260.9,110.6,262.1,111z"/>
					</g>
					<g>
						<path class="st3" d="M268.1,112.5c-0.2,0.2-0.4,0.5-0.6,0.7c-3.9-0.1-7.8-0.3-11.7-0.6c-0.1-0.3-0.1-0.5-0.2-0.8
							c4.1,0.3,8.2,0.5,12.3,0.6C268,112.5,268.1,112.5,268.1,112.5z"/>
					</g>
					<g>
						<path class="st3" d="M266.4,114.4c-0.2,0.3-0.5,0.5-0.7,0.8c-3.1-0.1-6.3-0.3-9.4-0.5c-0.1-0.3-0.1-0.5-0.2-0.8
							C259.5,114.1,263,114.3,266.4,114.4z"/>
					</g>
					<g>
						<path class="st3" d="M264.6,116.4c-0.2,0.3-0.5,0.5-0.7,0.8c-2.4-0.1-4.7-0.2-7.1-0.4c-0.1-0.3-0.1-0.5-0.2-0.8
							C259.2,116.2,261.9,116.3,264.6,116.4z"/>
					</g>
					<g>
						<path class="st3" d="M262.7,118.4c-0.2,0.3-0.5,0.5-0.7,0.8c-1.6-0.1-3.2-0.2-4.8-0.3c-0.1-0.3-0.1-0.5-0.2-0.8
							C258.9,118.2,260.8,118.3,262.7,118.4z"/>
					</g>
					<g>
						<path class="st3" d="M260.9,120.3c-0.2,0.2-0.5,0.5-0.7,0.7c-0.8,0-1.6-0.1-2.4-0.1c-0.1-0.3-0.1-0.5-0.2-0.8
							C258.7,120.2,259.8,120.3,260.9,120.3z"/>
					</g>
					<g>
						<path class="st3" d="M259,122.3c-0.2,0.2-0.5,0.5-0.7,0.7c0,0,0,0-0.1,0c-0.1-0.3-0.1-0.5-0.2-0.8
							C258.4,122.2,258.7,122.2,259,122.3z"/>
					</g>
				</g>
				<path class="st3" d="M268.1,112.5c-4.4-1.1-8.8-2.3-13.1-3.6c0.3,1.5,0.6,3,0.9,4.5c3.9-0.1,7.8-0.2,11.7-0.5
					C267.9,112.8,268,112.7,268.1,112.5z"/>
			</g>
			<g>
				<path class="st4" d="M272.7,126.6c-1.4-4.6-2.8-9.3-4-13.9c4.4,1.1,8.8,2,13.3,2.9C279.1,119.3,276,123,272.7,126.6z"/>
				
					<pattern  id="SVGID_12_" xlink:href="#_x31_0_dpi_30_x25_" patternTransform="matrix(0.9261 0.2856 -0.2856 0.9261 -2616.0151 1546.9158)">
				</pattern>
				<path class="st14" d="M272.7,126.6c-1.4-4.6-2.8-9.3-4-13.9c4.4,1.1,8.8,2,13.3,2.9C279.1,119.3,276,123,272.7,126.6z"/>
				<path class="st4" d="M282.1,115.5c-4.5-0.8-8.9-1.8-13.3-2.9c0.4,1.5,0.8,3,1.2,4.4c3.9-0.3,7.8-0.6,11.7-1.1
					C281.8,115.9,282,115.7,282.1,115.5z"/>
			</g>
			<g>
				<path class="st3" d="M287.6,129.4c-1.7-4.6-3.3-9.1-4.7-13.7c4.5,0.8,9,1.6,13.5,2.2C293.5,121.7,290.6,125.6,287.6,129.4z"/>
				<g>
					<g>
						<path class="st3" d="M290.1,116.9c-2.3,0.1-4.5,0.2-6.8,0.3c-0.1-0.3-0.2-0.5-0.3-0.8c1.1,0,2.2-0.1,3.3-0.1
							C287.6,116.5,288.9,116.7,290.1,116.9z"/>
					</g>
					<g>
						<path class="st3" d="M296.3,117.8c-0.2,0.3-0.4,0.5-0.6,0.8c-3.9,0.3-7.8,0.5-11.8,0.6c-0.1-0.3-0.2-0.5-0.3-0.8
							c4.1-0.1,8.3-0.3,12.4-0.6C296.2,117.8,296.3,117.8,296.3,117.8z"/>
					</g>
					<g>
						<path class="st3" d="M294.8,119.9c-0.2,0.3-0.4,0.6-0.6,0.8c-3.2,0.2-6.3,0.4-9.5,0.5c-0.1-0.3-0.2-0.5-0.3-0.8
							C287.9,120.4,291.3,120.2,294.8,119.9z"/>
					</g>
					<g>
						<path class="st3" d="M293.2,122.1c-0.2,0.3-0.4,0.6-0.6,0.8c-2.4,0.1-4.8,0.3-7.2,0.3c-0.1-0.3-0.2-0.5-0.3-0.8
							C287.8,122.4,290.5,122.3,293.2,122.1z"/>
					</g>
					<g>
						<path class="st3" d="M291.6,124.2c-0.2,0.3-0.4,0.5-0.6,0.8c-1.6,0.1-3.2,0.2-4.9,0.2c-0.1-0.3-0.2-0.5-0.3-0.8
							C287.7,124.4,289.6,124.4,291.6,124.2z"/>
					</g>
					<g>
						<path class="st3" d="M289.9,126.4c-0.2,0.3-0.4,0.5-0.6,0.8c-0.8,0-1.6,0.1-2.5,0.1c-0.1-0.3-0.2-0.5-0.3-0.8
							C287.6,126.5,288.8,126.4,289.9,126.4z"/>
					</g>
					<g>
						<path class="st3" d="M288.2,128.5c-0.2,0.3-0.4,0.5-0.7,0.8c0,0,0,0-0.1,0c-0.1-0.3-0.2-0.5-0.3-0.8
							C287.6,128.5,287.9,128.5,288.2,128.5z"/>
					</g>
				</g>
				<path class="st3" d="M296.3,117.8c-4.5-0.6-9-1.3-13.5-2.2c0.5,1.5,0.9,2.9,1.4,4.4c3.9-0.5,7.8-1.1,11.7-1.7
					C296.1,118.2,296.2,118,296.3,117.8z"/>
			</g>
			<g>
				<path class="st4" d="M302.5,131.3c-1.9-4.5-3.8-8.9-5.5-13.4c4.5,0.6,9.1,1.1,13.7,1.4C308.1,123.4,305.3,127.4,302.5,131.3z"/>
				
					<pattern  id="SVGID_13_" xlink:href="#_x31_0_dpi_30_x25_" patternTransform="matrix(0.9261 0.2856 -0.2856 0.9261 -2586.9729 1530.4628)">
				</pattern>
				<path class="st15" d="M302.5,131.3c-1.9-4.5-3.8-8.9-5.5-13.4c4.5,0.6,9.1,1.1,13.7,1.4C308.1,123.4,305.3,127.4,302.5,131.3z"
					/>
				<path class="st4" d="M310.7,119.4c-4.6-0.4-9.2-0.8-13.7-1.4c0.5,1.4,1.1,2.9,1.7,4.3c3.9-0.7,7.8-1.5,11.7-2.3
					C310.5,119.7,310.6,119.5,310.7,119.4z"/>
			</g>
			<g>
				<path class="st3" d="M317.7,132.5c-2.2-4.3-4.3-8.7-6.3-13.1c4.6,0.4,9.2,0.6,13.9,0.7C322.9,124.3,320.3,128.4,317.7,132.5z"/>
				<g>
					<g>
						<path class="st3" d="M319,119.9c-2.3,0.4-4.6,0.7-6.8,1c-0.1-0.2-0.2-0.5-0.3-0.7c1.1-0.1,2.2-0.3,3.4-0.5
							C316.4,119.8,317.7,119.8,319,119.9z"/>
					</g>
					<g>
						<path class="st3" d="M325.3,120.1c-0.2,0.3-0.3,0.6-0.5,0.8c-3.9,0.7-7.9,1.3-11.8,1.9c-0.1-0.2-0.2-0.5-0.3-0.7
							c4.2-0.6,8.3-1.2,12.4-2C325.1,120.1,325.2,120.1,325.3,120.1z"/>
					</g>
					<g>
						<path class="st3" d="M324,122.4c-0.2,0.3-0.4,0.6-0.5,0.9c-3.2,0.5-6.3,1-9.5,1.5c-0.1-0.2-0.2-0.5-0.4-0.7
							C317,123.6,320.5,123,324,122.4z"/>
					</g>
					<g>
						<path class="st3" d="M322.6,124.7c-0.2,0.3-0.4,0.6-0.5,0.9c-2.4,0.4-4.8,0.8-7.2,1.1c-0.1-0.2-0.2-0.5-0.4-0.7
							C317.2,125.6,319.9,125.2,322.6,124.7z"/>
					</g>
					<g>
						<path class="st3" d="M321.2,127c-0.2,0.3-0.4,0.6-0.5,0.9c-1.6,0.3-3.2,0.5-4.9,0.7c-0.1-0.2-0.2-0.5-0.4-0.7
							C317.3,127.6,319.3,127.3,321.2,127z"/>
					</g>
					<g>
						<path class="st3" d="M319.8,129.3c-0.2,0.3-0.4,0.6-0.6,0.9c-0.8,0.1-1.7,0.3-2.5,0.4c-0.1-0.2-0.2-0.5-0.4-0.7
							C317.5,129.7,318.6,129.5,319.8,129.3z"/>
					</g>
					<g>
						<path class="st3" d="M318.3,131.6c-0.2,0.3-0.4,0.6-0.6,0.9c0,0,0,0-0.1,0c-0.1-0.2-0.3-0.5-0.4-0.7
							C317.6,131.7,318,131.7,318.3,131.6z"/>
					</g>
				</g>
				<path class="st3" d="M325.3,120.1c-4.6-0.1-9.3-0.4-13.9-0.7c0.6,1.4,1.3,2.8,1.9,4.2c3.9-0.9,7.8-1.9,11.6-3
					C325.1,120.5,325.2,120.3,325.3,120.1z"/>
			</g>
			<g>
				<path class="st4" d="M333,132.9c-2.5-4.2-4.8-8.5-7-12.7c4.6,0.1,9.3,0.1,14,0C337.8,124.4,335.4,128.7,333,132.9z"/>
				
					<pattern  id="SVGID_14_" xlink:href="#_x31_0_dpi_30_x25_" patternTransform="matrix(0.9261 0.2856 -0.2856 0.9261 -2557.9307 1514.0098)">
				</pattern>
				<path class="st16" d="M333,132.9c-2.5-4.2-4.8-8.5-7-12.7c4.6,0.1,9.3,0.1,14,0C337.8,124.4,335.4,128.7,333,132.9z"/>
				<path class="st4" d="M340,120.1c-4.7,0.1-9.4,0.1-14,0c0.7,1.4,1.4,2.7,2.2,4.1c3.9-1.1,7.7-2.3,11.5-3.6
					C339.8,120.5,339.9,120.3,340,120.1z"/>
			</g>
		</g>
		<path class="st17" d="M76.8-63.3C115.1,50.3,223.8,125,343.6,120"/>
	</g>
	<g class="st18">
		<g>
			<g>
				<path class="st3" d="M40.5-54.3c2.1-4.4,4.3-8.8,6.5-13c2.6,3.9,5.2,7.8,8,11.5C50.2-55.2,45.4-54.7,40.5-54.3z"/>
				<g>
					<g>
						<path class="st3" d="M51.3-61.1c-1.7-1.6-3.3-3.2-5-4.9c0.1-0.2,0.3-0.5,0.4-0.7c0.8,0.8,1.6,1.6,2.4,2.4
							C49.9-63.2,50.6-62.1,51.3-61.1z"/>
					</g>
					<g>
						<path class="st3" d="M55-55.8c-0.3,0-0.6,0.1-1,0.1c-3-2.7-5.9-5.5-8.7-8.3c0.1-0.2,0.3-0.5,0.4-0.7c3,3,6.1,5.9,9.2,8.7
							C54.9-56,55-55.9,55-55.8z"/>
					</g>
					<g>
						<path class="st3" d="M52.4-55.5c-0.3,0-0.7,0.1-1,0.1c-2.4-2.2-4.7-4.4-7-6.7c0.1-0.2,0.2-0.5,0.4-0.7
							C47.3-60.4,49.8-57.9,52.4-55.5z"/>
					</g>
					<g>
						<path class="st3" d="M49.7-55.2c-0.3,0-0.7,0.1-1,0.1c-1.8-1.7-3.6-3.4-5.3-5.1c0.1-0.2,0.2-0.5,0.4-0.7
							C45.7-59,47.7-57.1,49.7-55.2z"/>
					</g>
					<g>
						<path class="st3" d="M47-54.9c-0.3,0-0.7,0.1-1,0.1c-1.2-1.1-2.4-2.3-3.6-3.5c0.1-0.2,0.2-0.5,0.4-0.7
							C44.2-57.6,45.6-56.3,47-54.9z"/>
					</g>
					<g>
						<path class="st3" d="M44.4-54.7c-0.3,0-0.7,0.1-1,0.1c-0.6-0.6-1.2-1.2-1.8-1.8c0.1-0.3,0.2-0.5,0.4-0.7
							C42.7-56.3,43.5-55.5,44.4-54.7z"/>
					</g>
					<g>
						<path class="st3" d="M41.6-54.4c-0.3,0-0.7,0.1-1,0.1c0,0,0,0,0,0c0.1-0.3,0.2-0.5,0.4-0.8C41.2-54.9,41.4-54.7,41.6-54.4z"/>
					</g>
				</g>
				<path class="st3" d="M55-55.8c-2.7-3.8-5.4-7.6-8-11.5c-0.7,1.4-1.4,2.7-2.1,4.1c3.1,2.6,6.3,5.1,9.5,7.5
					C54.6-55.8,54.8-55.8,55-55.8z"/>
			</g>
			<g>
				<path class="st4" d="M49.6-42c1.9-4.5,3.8-8.9,5.8-13.3c2.7,3.8,5.6,7.4,8.5,11C59.2-43.4,54.4-42.6,49.6-42z"/>
				
					<pattern  id="SVGID_15_" xlink:href="#_x31_0_dpi_30_x25_" patternTransform="matrix(0.9261 0.2856 -0.2856 0.9261 -2877.3955 1694.993)">
				</pattern>
				<path class="st19" d="M49.6-42c1.9-4.5,3.8-8.9,5.8-13.3c2.7,3.8,5.6,7.4,8.5,11C59.2-43.4,54.4-42.6,49.6-42z"/>
				<path class="st4" d="M63.9-44.3c-2.9-3.6-5.7-7.2-8.5-11c-0.7,1.4-1.3,2.8-1.9,4.2c3.2,2.4,6.5,4.7,9.8,6.9
					C63.5-44.2,63.7-44.2,63.9-44.3z"/>
			</g>
			<g>
				<path class="st3" d="M59.2-30.1c1.6-4.6,3.3-9.1,5.2-13.6c2.9,3.6,5.9,7.1,9,10.4C68.7-32.1,64-31.1,59.2-30.1z"/>
				<g>
					<g>
						<path class="st3" d="M69.2-38c-1.8-1.4-3.6-2.8-5.4-4.2c0.1-0.3,0.2-0.5,0.3-0.8c0.9,0.7,1.8,1.4,2.7,2.1
							C67.6-39.9,68.4-38.9,69.2-38z"/>
					</g>
					<g>
						<path class="st3" d="M73.4-33.3c-0.3,0.1-0.6,0.2-0.9,0.2c-3.2-2.3-6.3-4.7-9.5-7.2c0.1-0.3,0.2-0.5,0.3-0.8
							c3.3,2.6,6.6,5.1,9.9,7.5C73.3-33.4,73.3-33.3,73.4-33.3z"/>
					</g>
					<g>
						<path class="st3" d="M70.8-32.7c-0.3,0.1-0.7,0.2-1,0.2c-2.6-1.9-5.1-3.8-7.6-5.8c0.1-0.3,0.2-0.5,0.3-0.8
							C65.3-36.8,68-34.7,70.8-32.7z"/>
					</g>
					<g>
						<path class="st3" d="M68.2-32c-0.3,0.1-0.7,0.2-1,0.2c-1.9-1.4-3.9-2.9-5.8-4.4c0.1-0.3,0.2-0.5,0.3-0.8
							C63.9-35.3,66.1-33.7,68.2-32z"/>
					</g>
					<g>
						<path class="st3" d="M65.6-31.5c-0.3,0.1-0.7,0.1-1,0.2c-1.3-1-2.6-2-3.9-3c0.1-0.3,0.2-0.5,0.3-0.8
							C62.5-33.8,64.1-32.6,65.6-31.5z"/>
					</g>
					<g>
						<path class="st3" d="M63-30.9c-0.3,0.1-0.7,0.1-1,0.2c-0.7-0.5-1.3-1-2-1.5c0.1-0.3,0.2-0.5,0.3-0.8
							C61.2-32.3,62.1-31.6,63-30.9z"/>
					</g>
					<g>
						<path class="st3" d="M60.3-30.4c-0.3,0.1-0.7,0.1-1,0.2c0,0,0,0,0,0c0.1-0.3,0.2-0.5,0.3-0.8C59.8-30.8,60.1-30.6,60.3-30.4z"
							/>
					</g>
				</g>
				<path class="st3" d="M73.4-33.3c-3.1-3.4-6.1-6.9-9-10.4c-0.6,1.4-1.1,2.9-1.7,4.3c3.3,2.2,6.7,4.3,10.1,6.3
					C73-33.2,73.2-33.2,73.4-33.3z"/>
			</g>
			<g>
				<path class="st4" d="M69.4-19c1.4-4.7,2.9-9.3,4.4-13.8c3.1,3.4,6.3,6.7,9.5,9.9C78.7-21.5,74.1-20.2,69.4-19z"/>
				
					<pattern  id="SVGID_16_" xlink:href="#_x31_0_dpi_30_x25_" patternTransform="matrix(0.9261 0.2856 -0.2856 0.9261 -2848.3533 1678.54)">
				</pattern>
				<path class="st20" d="M69.4-19c1.4-4.7,2.9-9.3,4.4-13.8c3.1,3.4,6.3,6.7,9.5,9.9C78.7-21.5,74.1-20.2,69.4-19z"/>
				<path class="st4" d="M83.3-22.9c-3.2-3.2-6.4-6.5-9.5-9.9c-0.5,1.5-1,2.9-1.5,4.4c3.4,2,6.9,3.9,10.4,5.7
					C82.9-22.8,83.1-22.8,83.3-22.9z"/>
			</g>
			<g>
				<path class="st3" d="M80.1-8.4c1.1-4.7,2.4-9.4,3.7-14c3.2,3.2,6.6,6.3,10,9.3C89.3-11.4,84.7-9.8,80.1-8.4z"/>
				<g>
					<g>
						<path class="st3" d="M89.2-17.3c-1.9-1.2-3.9-2.4-5.8-3.6c0.1-0.3,0.1-0.5,0.2-0.8c0.9,0.6,1.9,1.2,2.8,1.8
							C87.4-19,88.3-18.1,89.2-17.3z"/>
					</g>
					<g>
						<path class="st3" d="M93.8-13.1c-0.3,0.1-0.6,0.2-0.9,0.3c-3.4-1.9-6.7-3.9-10.1-6c0.1-0.3,0.1-0.5,0.2-0.8
							c3.5,2.2,7,4.3,10.6,6.3C93.7-13.2,93.8-13.1,93.8-13.1z"/>
					</g>
					<g>
						<path class="st3" d="M91.4-12.2c-0.3,0.1-0.6,0.2-1,0.3c-2.7-1.6-5.4-3.2-8.1-4.9c0.1-0.3,0.1-0.5,0.2-0.8
							C85.4-15.7,88.4-13.9,91.4-12.2z"/>
					</g>
					<g>
						<path class="st3" d="M88.8-11.3c-0.3,0.1-0.7,0.2-1,0.3c-2.1-1.2-4.1-2.4-6.1-3.7c0.1-0.3,0.1-0.5,0.2-0.8
							C84.2-14,86.5-12.6,88.8-11.3z"/>
					</g>
					<g>
						<path class="st3" d="M86.3-10.4c-0.3,0.1-0.7,0.2-1,0.3c-1.4-0.8-2.8-1.7-4.1-2.5c0.1-0.3,0.1-0.5,0.2-0.8
							C83-12.4,84.7-11.4,86.3-10.4z"/>
					</g>
					<g>
						<path class="st3" d="M83.7-9.6c-0.3,0.1-0.7,0.2-1,0.3c-0.7-0.4-1.4-0.9-2.1-1.3c0.1-0.3,0.1-0.5,0.2-0.8
							C81.8-10.7,82.8-10.1,83.7-9.6z"/>
					</g>
					<g>
						<path class="st3" d="M81.2-8.7c-0.3,0.1-0.7,0.2-1,0.3c0,0,0,0,0,0c0.1-0.3,0.1-0.5,0.2-0.8C80.6-9.1,80.9-8.9,81.2-8.7z"/>
					</g>
				</g>
				<path class="st3" d="M93.8-13.1c-3.4-3-6.7-6.1-10-9.3c-0.4,1.5-0.8,3-1.3,4.4c3.5,1.8,7.1,3.5,10.6,5.1
					C93.4-12.9,93.6-13,93.8-13.1z"/>
			</g>
			<g>
				<path class="st4" d="M91.3,1.5c0.9-4.8,1.9-9.5,3-14.1c3.4,3,6.9,5.9,10.4,8.7C100.3-2,95.8-0.2,91.3,1.5z"/>
				
					<pattern  id="SVGID_17_" xlink:href="#_x31_0_dpi_30_x25_" patternTransform="matrix(0.9261 0.2856 -0.2856 0.9261 -2819.311 1662.0869)">
				</pattern>
				<path class="st21" d="M91.3,1.5c0.9-4.8,1.9-9.5,3-14.1c3.4,3,6.9,5.9,10.4,8.7C100.3-2,95.8-0.2,91.3,1.5z"/>
				<path class="st4" d="M104.7-3.9c-3.5-2.8-7-5.7-10.4-8.7c-0.4,1.5-0.7,3-1,4.5c3.6,1.6,7.2,3.1,10.8,4.5
					C104.3-3.7,104.5-3.8,104.7-3.9z"/>
			</g>
			<g>
				<path class="st3" d="M103,10.8c0.7-4.8,1.4-9.5,2.3-14.3c3.5,2.8,7.1,5.5,10.8,8.1C111.8,6.8,107.4,8.9,103,10.8z"/>
				<g>
					<g>
						<path class="st3" d="M111.1,1c-2-0.9-4.1-1.9-6.1-2.9c0-0.3,0.1-0.5,0.1-0.8c1,0.5,2,1,3,1.4C109.1-0.5,110.1,0.3,111.1,1z"/>
					</g>
					<g>
						<path class="st3" d="M116.1,4.7c-0.3,0.1-0.6,0.3-0.9,0.4c-3.5-1.5-7.1-3.2-10.6-4.9c0-0.3,0.1-0.5,0.1-0.8
							c3.7,1.8,7.4,3.5,11.1,5.1C115.9,4.6,116,4.6,116.1,4.7z"/>
					</g>
					<g>
						<path class="st3" d="M113.7,5.8c-0.3,0.2-0.6,0.3-0.9,0.4c-2.9-1.3-5.7-2.6-8.5-4c0-0.3,0.1-0.5,0.1-0.8
							C107.5,3,110.6,4.5,113.7,5.8z"/>
					</g>
					<g>
						<path class="st3" d="M111.3,7c-0.3,0.1-0.6,0.3-0.9,0.4c-2.2-1-4.3-2-6.4-3c0-0.3,0.1-0.5,0.1-0.8
							C106.5,4.8,108.9,5.9,111.3,7z"/>
					</g>
					<g>
						<path class="st3" d="M108.9,8.1c-0.3,0.1-0.6,0.3-0.9,0.4c-1.5-0.7-2.9-1.3-4.3-2c0-0.3,0.1-0.5,0.1-0.8
							C105.4,6.6,107.2,7.4,108.9,8.1z"/>
					</g>
					<g>
						<path class="st3" d="M106.4,9.3c-0.3,0.1-0.6,0.3-0.9,0.4c-0.7-0.3-1.5-0.7-2.2-1c0-0.3,0.1-0.5,0.1-0.8
							C104.4,8.3,105.4,8.8,106.4,9.3z"/>
					</g>
					<g>
						<path class="st3" d="M104,10.4c-0.3,0.1-0.6,0.3-1,0.4c0,0,0,0-0.1,0c0-0.3,0.1-0.5,0.1-0.8C103.4,10.1,103.7,10.2,104,10.4z"
							/>
					</g>
				</g>
				<path class="st3" d="M116.1,4.7c-3.7-2.6-7.3-5.3-10.8-8.1c-0.3,1.5-0.5,3-0.8,4.5c3.7,1.4,7.4,2.7,11,3.9
					C115.7,4.9,115.9,4.8,116.1,4.7z"/>
			</g>
			<g>
				<path class="st4" d="M115,19.4c0.4-4.8,0.9-9.6,1.5-14.3c3.7,2.6,7.4,5.1,11.2,7.5C123.6,15,119.4,17.2,115,19.4z"/>
				
					<pattern  id="SVGID_18_" xlink:href="#_x31_0_dpi_30_x25_" patternTransform="matrix(0.9261 0.2856 -0.2856 0.9261 -2790.2688 1645.6339)">
				</pattern>
				<path class="st22" d="M115,19.4c0.4-4.8,0.9-9.6,1.5-14.3c3.7,2.6,7.4,5.1,11.2,7.5C123.6,15,119.4,17.2,115,19.4z"/>
				<path class="st4" d="M127.8,12.6c-3.8-2.4-7.5-4.9-11.2-7.5c-0.2,1.5-0.4,3-0.6,4.6c3.7,1.2,7.5,2.3,11.2,3.3
					C127.4,12.8,127.6,12.7,127.8,12.6z"/>
			</g>
			<g>
				<path class="st3" d="M127.6,27.4c0.2-4.8,0.4-9.6,0.8-14.4c3.8,2.4,7.6,4.7,11.5,6.9C135.9,22.5,131.7,25,127.6,27.4z"/>
				<g>
					<g>
						<path class="st3" d="M134.6,16.8c-2.1-0.7-4.2-1.5-6.3-2.2c0-0.3,0-0.5,0.1-0.8c1,0.4,2.1,0.7,3.1,1.1
							C132.5,15.5,133.5,16.2,134.6,16.8z"/>
					</g>
					<g>
						<path class="st3" d="M139.9,19.9c-0.3,0.2-0.5,0.3-0.8,0.5c-3.7-1.2-7.3-2.4-11-3.7c0-0.3,0-0.5,0.1-0.8
							c3.8,1.4,7.7,2.7,11.5,3.9C139.8,19.8,139.8,19.9,139.9,19.9z"/>
					</g>
					<g>
						<path class="st3" d="M137.7,21.3c-0.3,0.2-0.6,0.4-0.9,0.5c-3-1-5.9-2-8.9-3c0-0.3,0-0.5,0-0.8
							C131.2,19.2,134.5,20.3,137.7,21.3z"/>
					</g>
					<g>
						<path class="st3" d="M135.4,22.7c-0.3,0.2-0.6,0.4-0.9,0.5c-2.2-0.7-4.5-1.5-6.7-2.3c0-0.3,0-0.5,0-0.8
							C130.4,21,132.9,21.9,135.4,22.7z"/>
					</g>
					<g>
						<path class="st3" d="M133.1,24.1c-0.3,0.2-0.6,0.4-0.9,0.5c-1.5-0.5-3-1-4.5-1.6c0-0.3,0-0.5,0-0.8
							C129.6,22.9,131.3,23.5,133.1,24.1z"/>
					</g>
					<g>
						<path class="st3" d="M130.8,25.5c-0.3,0.2-0.6,0.4-0.9,0.5c-0.8-0.3-1.5-0.5-2.3-0.8c0-0.3,0-0.5,0-0.8
							C128.7,24.8,129.8,25.1,130.8,25.5z"/>
					</g>
					<g>
						<path class="st3" d="M128.5,26.8c-0.3,0.2-0.6,0.3-0.9,0.5c0,0,0,0-0.1,0c0-0.3,0-0.5,0-0.8C127.9,26.6,128.2,26.7,128.5,26.8
							z"/>
					</g>
				</g>
				<path class="st3" d="M139.9,19.9c-3.9-2.2-7.7-4.5-11.5-6.9c-0.1,1.5-0.2,3.1-0.3,4.6c3.8,1,7.6,1.9,11.3,2.7
					C139.5,20.1,139.7,20,139.9,19.9z"/>
			</g>
			<g>
				<path class="st4" d="M140.4,34.6c-0.1-4.8-0.1-9.6,0.1-14.4c3.9,2.2,7.8,4.3,11.8,6.3C148.4,29.3,144.4,32,140.4,34.6z"/>
				
					<pattern  id="SVGID_19_" xlink:href="#_x31_0_dpi_30_x25_" patternTransform="matrix(0.9261 0.2856 -0.2856 0.9261 -2761.2266 1629.1809)">
				</pattern>
				<path class="st23" d="M140.4,34.6c-0.1-4.8-0.1-9.6,0.1-14.4c3.9,2.2,7.8,4.3,11.8,6.3C148.4,29.3,144.4,32,140.4,34.6z"/>
				<path class="st4" d="M152.3,26.5c-4-2-7.9-4.1-11.8-6.3c0,1.5-0.1,3.1-0.1,4.6c3.8,0.8,7.6,1.5,11.4,2.1
					C152,26.8,152.1,26.6,152.3,26.5z"/>
			</g>
			<g>
				<path class="st3" d="M153.6,41.2c-0.3-4.8-0.6-9.6-0.7-14.4c4,2,8.1,3.9,12.1,5.7C161.4,35.5,157.5,38.4,153.6,41.2z"/>
				<g>
					<g>
						<path class="st3" d="M159.5,30c-2.2-0.5-4.3-1-6.5-1.5c0-0.3,0-0.5,0-0.8c1.1,0.3,2.1,0.5,3.2,0.8
							C157.3,28.9,158.4,29.5,159.5,30z"/>
					</g>
					<g>
						<path class="st3" d="M165.1,32.5c-0.3,0.2-0.5,0.4-0.8,0.6c-3.8-0.8-7.5-1.6-11.3-2.5c0-0.3,0-0.5,0-0.8
							c3.9,1,7.9,1.9,11.8,2.7C164.9,32.4,165,32.5,165.1,32.5z"/>
					</g>
					<g>
						<path class="st3" d="M163.1,34.1c-0.3,0.2-0.5,0.4-0.8,0.6c-3-0.6-6.1-1.3-9.1-2.1c0-0.3,0-0.5,0-0.8
							C156.4,32.7,159.7,33.4,163.1,34.1z"/>
					</g>
					<g>
						<path class="st3" d="M161,35.8c-0.3,0.2-0.5,0.4-0.8,0.6c-2.3-0.5-4.6-1-6.9-1.6c0-0.3,0-0.5,0-0.8
							C155.8,34.6,158.4,35.2,161,35.8z"/>
					</g>
					<g>
						<path class="st3" d="M158.8,37.4c-0.3,0.2-0.5,0.4-0.8,0.6c-1.5-0.3-3.1-0.7-4.6-1.1c0-0.3,0-0.5,0-0.8
							C155.2,36.6,157,37,158.8,37.4z"/>
					</g>
					<g>
						<path class="st3" d="M156.7,39c-0.3,0.2-0.6,0.4-0.8,0.6c-0.8-0.2-1.6-0.4-2.4-0.5c0-0.3,0-0.5-0.1-0.8
							C154.5,38.5,155.6,38.7,156.7,39z"/>
					</g>
					<g>
						<path class="st3" d="M154.5,40.6c-0.3,0.2-0.6,0.4-0.8,0.6c0,0,0,0-0.1,0c0-0.3,0-0.5-0.1-0.8
							C153.9,40.4,154.2,40.5,154.5,40.6z"/>
					</g>
				</g>
				<path class="st3" d="M165.1,32.5c-4.1-1.8-8.1-3.7-12.1-5.7c0,1.5,0.1,3.1,0.1,4.6c3.9,0.6,7.7,1.1,11.5,1.5
					C164.8,32.8,164.9,32.6,165.1,32.5z"/>
			</g>
			<g>
				<path class="st4" d="M167.1,47.1c-0.6-4.8-1.1-9.6-1.4-14.3c4.1,1.8,8.2,3.4,12.4,5C174.5,40.9,170.9,44.1,167.1,47.1z"/>
				
					<pattern  id="SVGID_20_" xlink:href="#_x31_0_dpi_30_x25_" patternTransform="matrix(0.9261 0.2856 -0.2856 0.9261 -2732.1841 1612.7278)">
				</pattern>
				<path class="st24" d="M167.1,47.1c-0.6-4.8-1.1-9.6-1.4-14.3c4.1,1.8,8.2,3.4,12.4,5C174.5,40.9,170.9,44.1,167.1,47.1z"/>
				<path class="st4" d="M178.1,37.8c-4.2-1.6-8.3-3.2-12.4-5c0.1,1.5,0.2,3,0.4,4.6c3.9,0.4,7.7,0.7,11.6,0.9
					C177.8,38,178,37.9,178.1,37.8z"/>
			</g>
			<g>
				<path class="st3" d="M181,52.3c-0.8-4.8-1.6-9.5-2.2-14.2c4.2,1.6,8.4,3,12.7,4.4C188,45.7,184.5,49,181,52.3z"/>
				<g>
					<g>
						<path class="st3" d="M185.6,40.5c-2.2-0.3-4.4-0.5-6.6-0.9c0-0.3-0.1-0.5-0.1-0.8c1.1,0.2,2.2,0.3,3.3,0.4
							C183.3,39.7,184.5,40.1,185.6,40.5z"/>
					</g>
					<g>
						<path class="st3" d="M191.4,42.4c-0.2,0.2-0.5,0.5-0.7,0.7c-3.8-0.4-7.6-0.8-11.5-1.3c0-0.3-0.1-0.5-0.1-0.8c4,0.6,8,1,12,1.4
							C191.3,42.3,191.4,42.4,191.4,42.4z"/>
					</g>
					<g>
						<path class="st3" d="M189.6,44.2c-0.2,0.2-0.5,0.5-0.7,0.7c-3.1-0.3-6.2-0.7-9.3-1.1c0-0.3-0.1-0.5-0.1-0.8
							C182.8,43.5,186.2,43.9,189.6,44.2z"/>
					</g>
					<g>
						<path class="st3" d="M187.7,46.1c-0.2,0.2-0.5,0.5-0.7,0.7c-2.3-0.3-4.7-0.5-7-0.9c0-0.3-0.1-0.5-0.1-0.8
							C182.4,45.5,185,45.8,187.7,46.1z"/>
					</g>
					<g>
						<path class="st3" d="M185.7,47.9c-0.3,0.2-0.5,0.5-0.8,0.7c-1.6-0.2-3.1-0.4-4.7-0.6c0-0.3-0.1-0.5-0.1-0.8
							C182,47.5,183.8,47.7,185.7,47.9z"/>
					</g>
					<g>
						<path class="st3" d="M183.8,49.7c-0.3,0.2-0.5,0.5-0.8,0.7c-0.8-0.1-1.6-0.2-2.4-0.3c0-0.3-0.1-0.5-0.1-0.8
							C181.6,49.5,182.7,49.6,183.8,49.7z"/>
					</g>
					<g>
						<path class="st3" d="M181.8,51.5c-0.3,0.2-0.5,0.5-0.8,0.7c0,0,0,0-0.1,0c0-0.3-0.1-0.5-0.1-0.8
							C181.1,51.5,181.4,51.5,181.8,51.5z"/>
					</g>
				</g>
				<path class="st3" d="M191.4,42.4c-4.3-1.3-8.5-2.8-12.7-4.4c0.2,1.5,0.4,3,0.6,4.5c3.9,0.2,7.8,0.2,11.6,0.2
					C191.1,42.7,191.3,42.5,191.4,42.4z"/>
			</g>
			<g>
				<path class="st4" d="M195,56.7c-1.1-4.7-2.1-9.4-2.9-14.1c4.3,1.3,8.6,2.6,12.9,3.7C201.7,49.8,198.4,53.3,195,56.7z"/>
				
					<pattern  id="SVGID_21_" xlink:href="#_x31_0_dpi_30_x25_" patternTransform="matrix(0.9261 0.2856 -0.2856 0.9261 -2703.1418 1596.2748)">
				</pattern>
				<path class="st25" d="M195,56.7c-1.1-4.7-2.1-9.4-2.9-14.1c4.3,1.3,8.6,2.6,12.9,3.7C201.7,49.8,198.4,53.3,195,56.7z"/>
				<path class="st4" d="M204.9,46.3c-4.3-1.1-8.6-2.4-12.9-3.7c0.3,1.5,0.6,3,0.9,4.5c3.9,0,7.8-0.2,11.6-0.4
					C204.7,46.6,204.8,46.4,204.9,46.3z"/>
			</g>
			<g>
				<path class="st3" d="M209.3,60.4c-1.3-4.6-2.5-9.3-3.7-13.9c4.3,1.1,8.7,2.1,13.1,3C215.7,53.2,212.5,56.8,209.3,60.4z"/>
				<g>
					<g>
						<path class="st3" d="M212.7,48.2c-2.2,0-4.5-0.1-6.7-0.2c-0.1-0.3-0.1-0.5-0.2-0.8c1.1,0,2.2,0.1,3.3,0.1
							C210.3,47.6,211.5,47.9,212.7,48.2z"/>
					</g>
					<g>
						<path class="st3" d="M218.7,49.5c-0.2,0.2-0.4,0.5-0.6,0.7c-3.8,0-7.7,0-11.6-0.2c-0.1-0.3-0.1-0.5-0.2-0.8
							c4.1,0.1,8.1,0.2,12.1,0.2C218.5,49.5,218.6,49.5,218.7,49.5z"/>
					</g>
					<g>
						<path class="st3" d="M217,51.5c-0.2,0.3-0.4,0.5-0.7,0.8c-3.1,0-6.2,0-9.3-0.1c-0.1-0.3-0.1-0.5-0.2-0.8
							C210.2,51.5,213.6,51.5,217,51.5z"/>
					</g>
					<g>
						<path class="st3" d="M215.3,53.5c-0.2,0.3-0.4,0.5-0.7,0.8c-2.3,0-4.7,0-7.1-0.1c-0.1-0.3-0.1-0.5-0.2-0.8
							C210,53.5,212.7,53.5,215.3,53.5z"/>
					</g>
					<g>
						<path class="st3" d="M213.6,55.6c-0.2,0.3-0.5,0.5-0.7,0.8c-1.6,0-3.2,0-4.8-0.1c-0.1-0.3-0.1-0.5-0.2-0.8
							C209.8,55.5,211.7,55.5,213.6,55.6z"/>
					</g>
					<g>
						<path class="st3" d="M211.8,57.6c-0.2,0.3-0.5,0.5-0.7,0.8c-0.8,0-1.6,0-2.4,0c-0.1-0.3-0.1-0.5-0.2-0.8
							C209.6,57.5,210.7,57.6,211.8,57.6z"/>
					</g>
					<g>
						<path class="st3" d="M210,59.6c-0.2,0.3-0.5,0.5-0.7,0.8c0,0,0,0-0.1,0c-0.1-0.3-0.2-0.5-0.2-0.8
							C209.4,59.6,209.7,59.6,210,59.6z"/>
					</g>
				</g>
				<path class="st3" d="M218.7,49.5c-4.4-0.9-8.7-1.9-13.1-3c0.4,1.5,0.7,3,1.1,4.5c3.9-0.2,7.7-0.6,11.6-1
					C218.4,49.8,218.6,49.7,218.7,49.5z"/>
			</g>
			<g>
				<path class="st4" d="M223.7,63.4c-1.6-4.6-3-9.2-4.4-13.7c4.4,0.9,8.8,1.7,13.2,2.3C229.7,55.8,226.8,59.6,223.7,63.4z"/>
				
					<pattern  id="SVGID_22_" xlink:href="#_x31_0_dpi_30_x25_" patternTransform="matrix(0.9261 0.2856 -0.2856 0.9261 -2674.0996 1579.8218)">
				</pattern>
				<path class="st26" d="M223.7,63.4c-1.6-4.6-3-9.2-4.4-13.7c4.4,0.9,8.8,1.7,13.2,2.3C229.7,55.8,226.8,59.6,223.7,63.4z"/>
				<path class="st4" d="M232.6,52c-4.4-0.7-8.8-1.5-13.2-2.3c0.4,1.5,0.9,2.9,1.3,4.4c3.9-0.4,7.7-1,11.5-1.6
					C232.3,52.3,232.4,52.1,232.6,52z"/>
			</g>
			<g>
				<path class="st3" d="M238.4,65.6c-1.8-4.5-3.5-9-5.1-13.5c4.4,0.7,8.9,1.2,13.4,1.6C244,57.7,241.2,61.7,238.4,65.6z"/>
				<g>
					<g>
						<path class="st3" d="M240.5,53.1c-2.2,0.2-4.5,0.4-6.7,0.5c-0.1-0.3-0.2-0.5-0.3-0.8c1.1-0.1,2.2-0.2,3.3-0.2
							C238.1,52.7,239.3,52.9,240.5,53.1z"/>
					</g>
					<g>
						<path class="st3" d="M246.6,53.7c-0.2,0.3-0.4,0.5-0.5,0.8c-3.8,0.4-7.7,0.8-11.6,1.1c-0.1-0.3-0.2-0.5-0.3-0.8
							c4.1-0.3,8.1-0.7,12.1-1.1C246.5,53.7,246.6,53.7,246.6,53.7z"/>
					</g>
					<g>
						<path class="st3" d="M245.2,55.9c-0.2,0.3-0.4,0.6-0.6,0.9c-3.1,0.3-6.2,0.6-9.3,0.8c-0.1-0.3-0.2-0.5-0.3-0.8
							C238.4,56.6,241.8,56.3,245.2,55.9z"/>
					</g>
					<g>
						<path class="st3" d="M243.7,58.1c-0.2,0.3-0.4,0.6-0.6,0.9c-2.3,0.2-4.7,0.4-7.1,0.6c-0.1-0.3-0.2-0.5-0.3-0.8
							C238.4,58.6,241.1,58.4,243.7,58.1z"/>
					</g>
					<g>
						<path class="st3" d="M242.2,60.3c-0.2,0.3-0.4,0.6-0.6,0.8c-1.6,0.1-3.2,0.3-4.8,0.4c-0.1-0.3-0.2-0.5-0.3-0.8
							C238.4,60.6,240.3,60.5,242.2,60.3z"/>
					</g>
					<g>
						<path class="st3" d="M240.6,62.5c-0.2,0.3-0.4,0.6-0.6,0.8c-0.8,0.1-1.6,0.1-2.4,0.2c-0.1-0.3-0.2-0.5-0.3-0.8
							C238.4,62.7,239.5,62.6,240.6,62.5z"/>
					</g>
					<g>
						<path class="st3" d="M239.1,64.7c-0.2,0.3-0.4,0.6-0.6,0.8c0,0,0,0-0.1,0c-0.1-0.3-0.2-0.5-0.3-0.8
							C238.4,64.7,238.7,64.7,239.1,64.7z"/>
					</g>
				</g>
				<path class="st3" d="M246.6,53.7c-4.5-0.4-8.9-1-13.4-1.6c0.5,1.4,1,2.9,1.6,4.3c3.9-0.6,7.7-1.4,11.5-2.2
					C246.4,54.1,246.5,53.9,246.6,53.7z"/>
			</g>
			<g>
				<path class="st4" d="M253.1,67c-2.1-4.4-4-8.8-5.8-13.2c4.5,0.4,9,0.7,13.5,0.9C258.3,58.9,255.8,62.9,253.1,67z"/>
				
					<pattern  id="SVGID_23_" xlink:href="#_x31_0_dpi_30_x25_" patternTransform="matrix(0.9261 0.2856 -0.2856 0.9261 -2645.0574 1563.3688)">
				</pattern>
				<path class="st27" d="M253.1,67c-2.1-4.4-4-8.8-5.8-13.2c4.5,0.4,9,0.7,13.5,0.9C258.3,58.9,255.8,62.9,253.1,67z"/>
				<path class="st4" d="M260.8,54.7c-4.5-0.2-9-0.5-13.5-0.9c0.6,1.4,1.2,2.8,1.8,4.2c3.8-0.8,7.6-1.8,11.4-2.8
					C260.6,55.1,260.7,54.9,260.8,54.7z"/>
			</g>
			<g>
				<path class="st3" d="M268,67.6c-2.3-4.3-4.5-8.6-6.6-12.9c4.5,0.2,9,0.3,13.6,0.2C272.8,59.2,270.5,63.5,268,67.6z"/>
				<g>
					<g>
						<path class="st3" d="M268.8,55c-2.2,0.4-4.4,0.9-6.6,1.2c-0.1-0.2-0.2-0.5-0.4-0.7c1.1-0.2,2.2-0.4,3.3-0.6
							C266.4,54.9,267.6,55,268.8,55z"/>
					</g>
					<g>
						<path class="st3" d="M275.1,55c-0.1,0.3-0.3,0.6-0.4,0.9c-3.8,0.8-7.6,1.6-11.5,2.3c-0.1-0.2-0.2-0.5-0.4-0.7
							c4-0.7,8.1-1.5,12-2.4C274.9,55,275,55,275.1,55z"/>
					</g>
					<g>
						<path class="st3" d="M273.8,57.3c-0.2,0.3-0.3,0.6-0.5,0.9c-3.1,0.7-6.2,1.3-9.3,1.8c-0.1-0.2-0.2-0.5-0.4-0.7
							C267.1,58.7,270.5,58,273.8,57.3z"/>
					</g>
					<g>
						<path class="st3" d="M272.6,59.7c-0.2,0.3-0.3,0.6-0.5,0.9c-2.3,0.5-4.7,0.9-7,1.4c-0.1-0.2-0.2-0.5-0.4-0.7
							C267.3,60.7,269.9,60.2,272.6,59.7z"/>
					</g>
					<g>
						<path class="st3" d="M271.3,62c-0.2,0.3-0.3,0.6-0.5,0.9c-1.6,0.3-3.1,0.6-4.7,0.9c-0.1-0.2-0.3-0.5-0.4-0.7
							C267.5,62.7,269.4,62.4,271.3,62z"/>
					</g>
					<g>
						<path class="st3" d="M269.9,64.4c-0.2,0.3-0.3,0.6-0.5,0.9c-0.8,0.2-1.6,0.3-2.4,0.5c-0.1-0.2-0.3-0.5-0.4-0.7
							C267.7,64.8,268.8,64.6,269.9,64.4z"/>
					</g>
					<g>
						<path class="st3" d="M268.6,66.7c-0.2,0.3-0.3,0.6-0.5,0.9c0,0,0,0-0.1,0c-0.1-0.2-0.3-0.5-0.4-0.7
							C268,66.8,268.3,66.7,268.6,66.7z"/>
					</g>
				</g>
				<path class="st3" d="M275.1,55c-4.5,0-9,0-13.6-0.2c0.7,1.4,1.3,2.8,2,4.1c3.8-1,7.5-2.2,11.2-3.4C274.9,55.4,275,55.2,275.1,55
					z"/>
			</g>
			<g>
				<path class="st4" d="M283,67.5c-2.5-4.1-4.9-8.3-7.3-12.5c4.5,0,9.1-0.2,13.6-0.5C287.3,58.9,285.2,63.2,283,67.5z"/>
				
					<pattern  id="SVGID_24_" xlink:href="#_x31_0_dpi_30_x25_" patternTransform="matrix(0.9261 0.2856 -0.2856 0.9261 -2616.0151 1546.9158)">
				</pattern>
				<path class="st28" d="M283,67.5c-2.5-4.1-4.9-8.3-7.3-12.5c4.5,0,9.1-0.2,13.6-0.5C287.3,58.9,285.2,63.2,283,67.5z"/>
				<path class="st4" d="M289.3,54.5c-4.5,0.3-9.1,0.4-13.6,0.5c0.7,1.3,1.5,2.7,2.2,4c3.7-1.2,7.4-2.6,11.1-3.9
					C289.2,54.9,289.2,54.7,289.3,54.5z"/>
			</g>
			<g>
				<path class="st3" d="M298,66.6c-2.8-4-5.4-8-7.9-12.1c4.5-0.3,9.1-0.7,13.6-1.2C301.9,57.7,300,62.1,298,66.6z"/>
				<g>
					<g>
						<path class="st3" d="M297.5,53.9c-2.2,0.7-4.3,1.3-6.5,1.9c-0.1-0.2-0.3-0.5-0.4-0.7c1.1-0.3,2.1-0.6,3.2-0.9
							C294.9,54.1,296.2,54,297.5,53.9z"/>
					</g>
					<g>
						<path class="st3" d="M303.7,53.2c-0.1,0.3-0.2,0.6-0.4,0.9c-3.7,1.2-7.5,2.4-11.3,3.5c-0.1-0.2-0.3-0.5-0.4-0.7
							c4-1.1,7.9-2.4,11.8-3.7C303.5,53.3,303.6,53.2,303.7,53.2z"/>
					</g>
					<g>
						<path class="st3" d="M302.7,55.7c-0.1,0.3-0.3,0.6-0.4,1c-3,1-6.1,1.9-9.1,2.8c-0.1-0.2-0.3-0.5-0.4-0.7
							C296.1,57.8,299.4,56.7,302.7,55.7z"/>
					</g>
					<g>
						<path class="st3" d="M301.7,58.1c-0.1,0.3-0.3,0.6-0.4,1c-2.3,0.7-4.6,1.4-6.9,2.1c-0.2-0.2-0.3-0.5-0.5-0.7
							C296.5,59.8,299.1,59,301.7,58.1z"/>
					</g>
					<g>
						<path class="st3" d="M300.6,60.6c-0.1,0.3-0.3,0.6-0.4,1c-1.5,0.5-3.1,1-4.7,1.4c-0.2-0.2-0.3-0.5-0.5-0.7
							C297,61.7,298.8,61.2,300.6,60.6z"/>
					</g>
					<g>
						<path class="st3" d="M299.6,63.1c-0.1,0.3-0.3,0.6-0.4,1c-0.8,0.2-1.6,0.5-2.4,0.7c-0.2-0.2-0.3-0.5-0.5-0.7
							C297.4,63.7,298.5,63.4,299.6,63.1z"/>
					</g>
					<g>
						<path class="st3" d="M298.5,65.6c-0.1,0.3-0.3,0.6-0.4,0.9c0,0,0,0-0.1,0c-0.2-0.2-0.3-0.5-0.5-0.7
							C297.8,65.7,298.1,65.6,298.5,65.6z"/>
					</g>
				</g>
				<path class="st3" d="M303.7,53.2c-4.5,0.5-9.1,0.9-13.6,1.2c0.8,1.3,1.6,2.6,2.5,3.9c3.7-1.4,7.3-3,10.9-4.5
					C303.5,53.6,303.6,53.4,303.7,53.2z"/>
			</g>
			<g>
				<path class="st4" d="M313,64.8c-3-3.8-5.9-7.7-8.6-11.7c4.5-0.5,9.1-1.2,13.6-2C316.4,55.7,314.8,60.3,313,64.8z"/>
				
					<pattern  id="SVGID_25_" xlink:href="#_x31_0_dpi_30_x25_" patternTransform="matrix(0.9261 0.2856 -0.2856 0.9261 -2586.9729 1530.4628)">
				</pattern>
				<path class="st29" d="M313,64.8c-3-3.8-5.9-7.7-8.6-11.7c4.5-0.5,9.1-1.2,13.6-2C316.4,55.7,314.8,60.3,313,64.8z"/>
				<path class="st4" d="M318,51.2c-4.5,0.8-9.1,1.4-13.6,2c0.9,1.3,1.8,2.5,2.7,3.8c3.6-1.6,7.2-3.4,10.8-5.1
					C317.9,51.6,317.9,51.4,318,51.2z"/>
			</g>
			<g>
				<path class="st3" d="M328,62.2c-3.2-3.7-6.3-7.4-9.3-11.2c4.5-0.8,9.1-1.7,13.6-2.7C331,53,329.6,57.6,328,62.2z"/>
				<g>
					<g>
						<path class="st3" d="M326.1,49.7c-2.1,0.9-4.2,1.8-6.4,2.6c-0.2-0.2-0.3-0.4-0.5-0.6c1-0.4,2.1-0.8,3.1-1.3
							C323.6,50.2,324.9,49.9,326.1,49.7z"/>
					</g>
					<g>
						<path class="st3" d="M332.3,48.3c-0.1,0.3-0.2,0.6-0.3,0.9c-3.6,1.6-7.3,3.2-11,4.7c-0.2-0.2-0.3-0.4-0.5-0.6
							c3.9-1.6,7.7-3.2,11.5-4.9C332.2,48.4,332.3,48.4,332.3,48.3z"/>
					</g>
					<g>
						<path class="st3" d="M331.6,50.9c-0.1,0.3-0.2,0.7-0.3,1c-2.9,1.3-5.9,2.6-8.9,3.8c-0.2-0.2-0.3-0.4-0.5-0.6
							C325.2,53.7,328.4,52.3,331.6,50.9z"/>
					</g>
					<g>
						<path class="st3" d="M330.8,53.4c-0.1,0.3-0.2,0.7-0.3,1c-2.2,1-4.5,1.9-6.7,2.9c-0.2-0.2-0.4-0.4-0.5-0.6
							C325.8,55.6,328.3,54.5,330.8,53.4z"/>
					</g>
					<g>
						<path class="st3" d="M330,56c-0.1,0.3-0.2,0.7-0.3,1c-1.5,0.7-3,1.3-4.5,1.9c-0.2-0.2-0.4-0.4-0.5-0.6
							C326.4,57.6,328.2,56.8,330,56z"/>
					</g>
					<g>
						<path class="st3" d="M329.2,58.6c-0.1,0.3-0.2,0.7-0.3,1c-0.8,0.3-1.5,0.7-2.3,1c-0.2-0.2-0.4-0.4-0.5-0.6
							C327.1,59.5,328.2,59.1,329.2,58.6z"/>
					</g>
					<g>
						<path class="st3" d="M328.4,61.2c-0.1,0.3-0.2,0.7-0.3,1c0,0,0,0-0.1,0c-0.2-0.2-0.4-0.4-0.5-0.6
							C327.7,61.4,328.1,61.3,328.4,61.2z"/>
					</g>
				</g>
				<path class="st3" d="M332.3,48.3c-4.5,1-9.1,1.9-13.6,2.7c1,1.2,1.9,2.4,2.9,3.6c3.6-1.8,7.1-3.7,10.5-5.7
					C332.2,48.7,332.3,48.5,332.3,48.3z"/>
			</g>
			<g>
				<path class="st4" d="M342.9,58.8c-3.4-3.5-6.7-7-9.9-10.6c4.5-1,9.1-2.2,13.6-3.5C345.5,49.4,344.3,54.1,342.9,58.8z"/>
				
					<pattern  id="SVGID_26_" xlink:href="#_x31_0_dpi_30_x25_" patternTransform="matrix(0.9261 0.2856 -0.2856 0.9261 -2557.9307 1514.0098)">
				</pattern>
				<path class="st30" d="M342.9,58.8c-3.4-3.5-6.7-7-9.9-10.6c4.5-1,9.1-2.2,13.6-3.5C345.5,49.4,344.3,54.1,342.9,58.8z"/>
				<path class="st4" d="M346.6,44.7c-4.5,1.3-9,2.4-13.6,3.5c1,1.2,2.1,2.3,3.1,3.4c3.5-2,6.9-4.1,10.3-6.3
					C346.5,45.1,346.5,44.9,346.6,44.7z"/>
			</g>
		</g>
		<path class="st17" d="M46.4-68.4C111.4,32.3,235.1,78,350,43.7"/>
	</g>
</g>
</svg>
