<?xml version="1.0" encoding="utf-8"?>
<!-- Generator: Adobe Illustrator 22.1.0, SVG Export Plug-In . SVG Version: 6.00 Build 0)  -->
<svg version="1.1" id="Layer_1" xmlns="http://www.w3.org/2000/svg" xmlns:xlink="http://www.w3.org/1999/xlink" x="0px" y="0px"
	 viewBox="0 0 300 300" style="enable-background:new 0 0 300 300;" xml:space="preserve">
<style type="text/css">
	.st0{fill:#EFBF00;}
</style>
<g>
	<g>
		<g>
			<g>
				<g>
					<path class="st0" d="M158.6,110l-2.4-1.3c-0.6-0.3-1.1-0.1-1.6,0.6c-1.1,1.5-1.7,1.8-3,1.1c-1.3-0.7-2.2-1.6-3.4-2.7
						c-1.2-1.2-2-2.1-2.7-3.4c-0.8-1.4-0.5-1.9,1.1-3c0.7-0.5,0.9-1,0.6-1.6l-1.3-2.4c-0.5-1-1.3-1.2-2.4-0.8
						c-1.6,0.5-3.1,2.8-3,3.8c0.2,3.1,1.8,6.8,5,10.1c3.2,3.2,7,4.8,10.1,5c1.1,0.1,3.3-1.4,3.8-3
						C159.7,111.3,159.6,110.6,158.6,110z"/>
					<path class="st0" d="M151.3,100.7c-0.5,0-0.9,0.4-0.9,0.9c0,0.5,0.4,0.9,0.9,0.9c0,0,0,0,0,0c0.6,0,1.1,0.2,1.5,0.6
						c0.4,0.4,0.6,0.9,0.6,1.5c0,0.5,0.4,0.9,0.9,0.9h0c0.5,0,0.9-0.4,0.9-0.9c0-1.1-0.4-2.1-1.1-2.8
						C153.4,101.1,152.3,100.7,151.3,100.7z M156.8,99.1c-1.5-1.5-3.5-2.3-5.5-2.3c-0.5,0-0.9,0.4-0.9,0.9c0,0.5,0.4,0.9,0.9,0.9
						c0,0,0,0,0,0c1.6,0,3.1,0.6,4.2,1.7c1.1,1.1,1.7,2.6,1.7,4.2c0,0.5,0.4,0.9,0.9,0.9h0c0.5,0,0.9-0.4,0.9-0.9
						C159.1,102.5,158.3,100.5,156.8,99.1z"/>
				</g>
			</g>
		</g>
	</g>
</g>
<g>
	<g>
		<g>
			<path class="st0" d="M149.3,191.4c-3.7,0.4-6.4,3.9-6.1,7.6c0.4,4.8,4.8,8.4,6.3,9.5c0.3,0.2,0.7,0.2,1,0
				c1.6-1.2,6.4-5.4,6.4-10.2C156.9,194.2,153.4,191,149.3,191.4z M150,201c-1.5,0-2.7-1.2-2.7-2.7c0-1.5,1.2-2.7,2.7-2.7
				s2.7,1.2,2.7,2.7C152.7,199.8,151.5,201,150,201z"/>
			<path class="st0" d="M158.4,211.5l-1.1-5.1c-0.1-0.6-0.6-1-1.2-1h-0.4c-1,1.3-2.4,2.8-4.2,4.2c-0.4,0.3-0.9,0.5-1.5,0.5
				c-0.5,0-1-0.2-1.4-0.5c-1.1-0.8-2.9-2.2-4.4-4.3h-0.3c-0.6,0-1.1,0.4-1.2,1l-1.1,5.1c-0.2,0.8,0.4,1.5,1.2,1.5h14.3
				C158,213.1,158.6,212.3,158.4,211.5z"/>
		</g>
	</g>
</g>
<g>
	<g>
		<g>
			<path class="st0" d="M160.3,147.4l-9-5.6c-0.8-0.5-1.9-0.5-2.7,0l-9,5.6c-0.7,0.4-1.1,1.2-1.1,2v11c0,1.3,1.1,2.3,2.4,2.3h18.1
				c1.3,0,2.4-1,2.4-2.3v-11C161.4,148.6,161,147.8,160.3,147.4z M147.1,156.7l-5.6,4.3c-0.1,0.1-0.3,0.2-0.5,0.2
				c-0.2,0-0.5-0.1-0.6-0.3c-0.3-0.3-0.2-0.8,0.1-1.1l5.6-4.3c0.3-0.3,0.8-0.2,1.1,0.1C147.5,155.9,147.4,156.4,147.1,156.7z
				 M149.3,154.9l-7.1-5c-0.8-0.6-0.4-1.8,0.6-1.8h14.4c1,0,1.4,1.2,0.6,1.8l-7.1,5C150.3,155.2,149.7,155.2,149.3,154.9z
				 M159.6,160.9c-0.2,0.2-0.4,0.3-0.6,0.3c-0.2,0-0.3-0.1-0.5-0.2l-5.6-4.3c-0.3-0.3-0.4-0.7-0.1-1.1c0.3-0.3,0.7-0.4,1.1-0.1
				l5.6,4.3C159.8,160.1,159.9,160.5,159.6,160.9z"/>
			<path class="st0" d="M152.8,149.6h-5c-0.5,0-0.9,0.4-0.9,0.9c0,0.5,0.4,0.9,0.9,0.9h5c0.5,0,0.9-0.4,0.9-0.9
				C153.7,150,153.3,149.6,152.8,149.6z"/>
		</g>
	</g>
</g>
</svg>
