<?xml version="1.0" encoding="utf-8"?>
<!-- Generator: Adobe Illustrator 22.1.0, SVG Export Plug-In . SVG Version: 6.00 Build 0)  -->
<svg version="1.1" id="Layer_1" xmlns="http://www.w3.org/2000/svg" xmlns:xlink="http://www.w3.org/1999/xlink" x="0px" y="0px"
	 viewBox="0 0 300 300" style="enable-background:new 0 0 300 300;" xml:space="preserve">
<style type="text/css">
	.st0{fill:#F2BA1A;}
	.st1{fill:#F0F0F0;}
</style>
<g>
	<g>
		<g>
			<rect x="141.5" y="146.5" class="st0" width="17" height="3.6"/>
		</g>
		<g>
			<rect x="142.5" y="150.9" class="st0" width="15" height="9"/>
		</g>
		<g>
			<rect x="148.9" y="146.3" class="st1" width="2.2" height="14"/>
		</g>
	</g>
	<path class="st1" d="M146.7,140.9c-0.3,0-0.5,0.1-0.6,0.2c-0.2,0.2-0.1,0.9,0,1.4l0.1,0.4l-0.3,0.3c-0.5,0.5-0.8,0.9-0.7,1.2
		c0.1,0.3,0.8,0.6,1.3,0.6c0.6,0,1.7-0.4,2.5-0.8C148.4,142,147.6,140.9,146.7,140.9z"/>
	<path class="st1" d="M153.7,143.1l-0.3-0.3l0.1-0.4c0.2-0.5,0.2-1.2,0-1.4c-0.1-0.1-0.3-0.2-0.6-0.2c-0.9,0-1.8,1.2-2.3,3.2
		c0.8,0.4,1.9,0.8,2.5,0.8c0.5,0,1.1-0.3,1.3-0.6C154.5,144,154.3,143.6,153.7,143.1z"/>
	<path class="st0" d="M154.8,142.4c0.1-0.6,0.3-1.7-0.4-2.3c-0.3-0.3-0.9-0.5-1.4-0.5c-0.8,0-2.2,0.4-3.2,3.1
		c-0.9-2.7-2.3-3.1-3.2-3.1c-0.5,0-1,0.2-1.4,0.5c-0.7,0.6-0.6,1.7-0.4,2.3c-1,1-1,1.7-0.8,2.2c0.4,1,1.7,1.3,2.4,1.3
		c1.1,0,2.9-0.8,3.3-1.1c0.5,0.2,2.3,1.1,3.3,1.1c0.7,0,2-0.4,2.4-1.3C155.7,144.2,155.7,143.4,154.8,142.4z M146.5,144.8
		c-0.5,0-1.1-0.3-1.3-0.6c-0.1-0.2,0.2-0.7,0.7-1.2l0.3-0.3l-0.1-0.4c-0.2-0.5-0.2-1.2,0-1.4c0.1-0.1,0.3-0.2,0.6-0.2
		c0.9,0,1.8,1.2,2.3,3.2C148.2,144.4,147.1,144.8,146.5,144.8z M154.4,144.2c-0.1,0.3-0.8,0.6-1.3,0.6c-0.6,0-1.7-0.4-2.5-0.8
		c0.5-2,1.4-3.2,2.3-3.2c0.3,0,0.5,0.1,0.6,0.2c0.2,0.2,0.1,0.9,0,1.4l-0.1,0.4l0.3,0.3C154.3,143.6,154.5,144,154.4,144.2z"/>
</g>
</svg>
