<svg width="995" height="663" viewBox="0 0 995 663" fill="none" xmlns="http://www.w3.org/2000/svg">
<g clip-path="url(#clip0)">
<path d="M994.938 380.87C993.96 434.24 978.125 486.281 949.21 531.15C920.295 576.019 879.446 611.94 831.248 634.88C793.354 652.845 751.933 662.137 709.998 662.08C703.968 662.08 697.981 661.894 692.038 661.52C562.471 653.4 432.524 653.4 302.958 661.52C297.018 661.89 291.031 662.077 284.998 662.08C236.33 662.151 188.473 649.629 146.078 625.73C102.53 601.158 66.1513 565.643 40.5411 522.697C14.9309 479.751 0.97627 430.864 0.0575692 380.87C-3.10243 220.19 124.088 88.8202 283.668 88.0802C368.658 87.6902 445.038 124.77 497.498 183.85C549.958 124.77 626.338 87.6902 711.328 88.0802C870.908 88.8202 998.097 220.19 994.938 380.87Z" fill="#F1BC19" fill-opacity="0.3"/>
<path d="M831.248 634.88C793.355 652.845 751.933 662.137 709.998 662.08C703.968 662.08 697.981 661.894 692.038 661.52C562.471 653.4 432.524 653.4 302.958 661.52C297.018 661.89 291.031 662.077 284.998 662.08C236.33 662.151 188.473 649.629 146.078 625.73C210.208 597.95 335.468 579.08 479.498 579.08C638.838 579.08 775.208 602.17 831.248 634.88Z" fill="#2F2E41"/>
<path d="M633.875 237.157C630.64 234.372 626.692 232.542 622.475 231.874C618.258 231.206 613.939 231.726 610.001 233.375C598.123 238.556 592.95 253.107 593.781 266.038C594.611 278.97 600 291.1 603.489 303.579C608.177 320.341 609.394 338.508 603.9 355.023C598.407 371.538 585.48 386.092 568.714 390.76C553.151 395.094 536.643 390.749 521.08 386.416" stroke="#3F3D56" stroke-miterlimit="10"/>
<path d="M662.051 211.319C662.155 209.539 661.907 207.757 661.321 206.073C660.736 204.39 659.824 202.838 658.639 201.506C657.454 200.175 656.017 199.09 654.413 198.314C652.808 197.538 651.066 197.086 649.286 196.983C647.507 196.881 645.724 197.13 644.041 197.716C642.358 198.303 640.806 199.215 639.476 200.401C638.145 201.587 637.061 203.024 636.286 204.629C635.511 206.234 635.06 207.977 634.958 209.756L633.396 236.849L660.488 238.411C662.267 238.514 664.049 238.265 665.732 237.679C667.414 237.093 668.965 236.182 670.296 234.996C671.626 233.811 672.71 232.375 673.486 230.771C674.261 229.167 674.713 227.425 674.816 225.646C674.918 223.868 674.67 222.086 674.084 220.403C673.498 218.72 672.586 217.169 671.401 215.839C670.215 214.509 668.78 213.425 667.175 212.649C665.571 211.873 663.83 211.422 662.051 211.319Z" fill="#F1BC19"/>
<path d="M632.918 281.862C633.125 278.269 631.897 274.741 629.503 272.054C627.109 269.367 623.746 267.741 620.153 267.534C616.561 267.327 613.033 268.555 610.346 270.949C607.659 273.343 606.033 276.707 605.826 280.299L604.263 307.392L631.356 308.954C634.947 309.159 638.473 307.93 641.158 305.536C643.843 303.142 645.468 299.78 645.675 296.189C645.882 292.598 644.654 289.071 642.262 286.385C639.87 283.698 636.509 282.071 632.918 281.862Z" fill="#F1BC19"/>
<path d="M593.881 206.294C592.515 205.148 590.937 204.282 589.237 203.746C587.537 203.211 585.747 203.015 583.971 203.171C582.196 203.327 580.468 203.832 578.887 204.656C577.306 205.48 575.903 206.608 574.758 207.974C573.614 209.341 572.749 210.919 572.215 212.62C571.68 214.321 571.486 216.11 571.643 217.886C571.801 219.662 572.306 221.389 573.132 222.969C573.957 224.549 575.085 225.951 576.453 227.095L597.254 244.523L614.683 223.722C615.828 222.356 616.694 220.778 617.23 219.078C617.766 217.377 617.961 215.588 617.805 213.812C617.649 212.036 617.144 210.309 616.32 208.728C615.496 207.147 614.369 205.744 613.002 204.599C611.636 203.454 610.057 202.59 608.356 202.055C606.656 201.521 604.866 201.327 603.09 201.484C601.315 201.642 599.587 202.147 598.007 202.973C596.427 203.798 595.025 204.926 593.881 206.294H593.881Z" fill="#6C63FF"/>
<path d="M755.922 224.806C753.545 221.259 750.228 218.444 746.341 216.677C742.454 214.91 738.152 214.26 733.917 214.801C721.089 216.63 712.227 229.278 709.583 241.963C706.939 254.649 708.901 267.776 708.941 280.734C708.994 298.138 705.328 315.973 695.633 330.428C685.939 344.883 669.603 355.468 652.198 355.501C636.044 355.533 621.289 346.948 607.443 338.626" stroke="#3F3D56" stroke-miterlimit="10"/>
<path d="M789.962 207.406C790.535 205.719 790.77 203.935 790.653 202.157C790.537 200.379 790.071 198.641 789.283 197.043C788.495 195.445 787.4 194.018 786.06 192.843C784.72 191.668 783.162 190.769 781.475 190.196C779.788 189.623 778.004 189.389 776.226 189.505C774.448 189.622 772.71 190.087 771.112 190.875C769.514 191.663 768.087 192.759 766.912 194.098C765.737 195.438 764.837 196.996 764.265 198.683L755.542 224.381L781.239 233.104C782.926 233.676 784.71 233.911 786.488 233.795C788.266 233.678 790.004 233.213 791.602 232.424C793.2 231.636 794.627 230.541 795.802 229.201C796.977 227.862 797.877 226.304 798.449 224.616C799.022 222.929 799.257 221.146 799.14 219.367C799.024 217.589 798.558 215.852 797.77 214.254C796.982 212.655 795.887 211.228 794.547 210.053C793.207 208.878 791.649 207.979 789.962 207.406Z" fill="#6C63FF"/>
<path d="M743.091 267.64C744.248 264.232 744.004 260.505 742.412 257.277C740.82 254.05 738.012 251.587 734.604 250.43C731.196 249.273 727.469 249.517 724.241 251.109C721.014 252.701 718.55 255.509 717.394 258.917L708.671 284.614L734.368 293.338C737.776 294.494 741.504 294.25 744.731 292.658C747.959 291.067 750.422 288.258 751.578 284.85C752.735 281.443 752.491 277.715 750.899 274.487C749.307 271.26 746.499 268.797 743.091 267.64Z" fill="#6C63FF"/>
<path d="M725.594 184.404C724.583 182.936 723.292 181.681 721.796 180.712C720.3 179.743 718.627 179.078 716.874 178.755C715.121 178.432 713.321 178.459 711.578 178.832C709.835 179.205 708.182 179.918 706.715 180.93C705.247 181.942 703.994 183.234 703.026 184.73C702.057 186.227 701.394 187.9 701.072 189.654C700.751 191.407 700.778 193.207 701.153 194.95C701.527 196.693 702.241 198.345 703.254 199.811L718.662 222.151L741.001 206.743C743.964 204.7 745.993 201.564 746.643 198.024C747.293 194.485 746.511 190.832 744.467 187.87C742.424 184.907 739.288 182.878 735.748 182.228C732.209 181.578 728.556 182.361 725.594 184.404Z" fill="#F1BC19"/>
<path d="M697.444 43.9051C701.661 43.2405 705.98 43.7639 709.917 45.4165C713.854 47.0692 717.252 49.7858 719.731 53.2617C727.101 63.9198 723.836 79.0143 716.321 89.5703C708.806 100.126 697.837 107.601 688.299 116.373C675.488 128.154 664.888 142.957 660.861 159.89C656.835 176.823 660.161 196.002 671.956 208.8C682.905 220.679 699.227 225.678 714.738 230.19" stroke="#3F3D56" stroke-miterlimit="10"/>
<path d="M687.097 7.10248C687.946 5.53614 689.096 4.15246 690.48 3.03044C691.864 1.90842 693.456 1.07004 695.164 0.563165C696.873 0.0562871 698.664 -0.109165 700.436 0.0762648C702.208 0.261695 703.927 0.794376 705.493 1.64388C707.059 2.49339 708.443 3.64309 709.565 5.02735C710.687 6.4116 711.525 8.0033 712.032 9.71156C712.539 11.4198 712.705 13.2112 712.519 14.9834C712.334 16.7556 711.801 18.4739 710.952 20.0403L698.014 43.8953L674.159 30.9575C672.592 30.108 671.209 28.9583 670.087 27.574C668.965 26.1898 668.126 24.5981 667.619 22.8898C667.113 21.1815 666.947 19.3901 667.133 17.6179C667.318 15.8457 667.851 14.1274 668.7 12.5611C669.55 10.9947 670.699 9.61105 672.084 8.48903C673.468 7.36701 675.06 6.52863 676.768 6.02175C678.476 5.51487 680.267 5.34943 682.04 5.53486C683.812 5.72029 685.53 6.25296 687.097 7.10247V7.10248Z" fill="#F1BC19"/>
<path d="M674.717 82.4135C675.567 80.8471 676.716 79.4635 678.1 78.3414C679.485 77.2194 681.076 76.381 682.785 75.8742C684.493 75.3673 686.284 75.2018 688.057 75.3873C689.829 75.5727 691.547 76.1054 693.113 76.9549C694.68 77.8044 696.063 78.9541 697.185 80.3384C698.308 81.7226 699.146 83.3143 699.653 85.0226C700.16 86.7308 700.325 88.5222 700.14 90.2944C699.954 92.0666 699.422 93.7849 698.572 95.3513L685.634 119.206L661.779 106.268C660.213 105.419 658.829 104.269 657.707 102.885C656.585 101.501 655.747 99.9091 655.24 98.2008C654.733 96.4925 654.568 94.7011 654.753 92.9289C654.938 91.1567 655.471 89.4384 656.321 87.8721C657.17 86.3057 658.32 84.9221 659.704 83.8C661.088 82.678 662.68 81.8396 664.388 81.3328C666.097 80.8259 667.888 80.6604 669.66 80.8459C671.432 81.0313 673.151 81.564 674.717 82.4135L674.717 82.4135Z" fill="#F1BC19"/>
<path d="M747.696 38.7269C749.46 38.4718 751.258 38.5669 752.985 39.0068C754.713 39.4466 756.337 40.2226 757.765 41.2904C759.192 42.3582 760.395 43.6969 761.305 45.2299C762.215 46.7629 762.814 48.4602 763.068 50.2248C763.322 51.9894 763.225 53.7867 762.784 55.514C762.343 57.2413 761.566 58.8647 760.497 60.2915C759.428 61.7182 758.089 62.9204 756.555 63.8292C755.021 64.7381 753.323 65.3358 751.559 65.5882L724.697 69.4507L720.835 42.5895C720.323 39.0274 721.246 35.4078 723.403 32.5269C725.559 29.646 728.772 27.7398 732.334 27.2276C735.896 26.7153 739.516 27.6391 742.397 29.7957C745.278 31.9522 747.184 35.1649 747.696 38.7269Z" fill="#6C63FF"/>
<path d="M465.498 331.08H440.498V344.08H465.498V331.08Z" fill="#FBBEBE"/>
<path opacity="0.1" d="M465.498 331.08H440.498V344.08H465.498V331.08Z" fill="black"/>
<path d="M394.498 144.08C412.171 144.08 426.498 129.753 426.498 112.08C426.498 94.4071 412.171 80.0802 394.498 80.0802C376.825 80.0802 362.498 94.4071 362.498 112.08C362.498 129.753 376.825 144.08 394.498 144.08Z" fill="#2F2E41"/>
<path d="M466.998 324.58C466.998 324.58 456.998 321.58 454.998 322.58C452.998 323.58 461.998 331.58 461.998 331.58L466.998 324.58Z" fill="#FBBEBE"/>
<path opacity="0.1" d="M466.998 324.58C466.998 324.58 456.998 321.58 454.998 322.58C452.998 323.58 461.998 331.58 461.998 331.58L466.998 324.58Z" fill="black"/>
<path d="M397.998 580.58C397.998 580.58 420.998 583.58 424.998 583.58C428.998 583.58 439.998 587.58 433.998 592.58C427.998 597.58 389.998 604.58 384.998 601.58C379.998 598.58 372.998 589.58 377.998 588.58C382.998 587.58 397.998 580.58 397.998 580.58Z" fill="#3F3D56"/>
<path d="M356.998 617.58L348.998 631.58L358.998 636.58L377.998 640.58L387.998 627.58L383.998 612.58L356.998 617.58Z" fill="#FBBEBE"/>
<path d="M409.998 514.58C409.998 514.58 396.998 569.58 398.998 572.58C400.998 575.58 404.998 583.58 400.998 586.58C396.998 589.58 380.998 590.58 380.998 590.58L385.998 561.58L392.998 526.58L409.998 514.58Z" fill="#2F2E41"/>
<path d="M373.998 398.58L386.998 457.58C386.998 457.58 388.998 486.58 383.998 497.58C378.998 508.58 351.998 624.58 351.998 624.58C351.998 624.58 379.998 625.58 385.998 622.58C391.998 619.58 402.117 550.315 402.117 550.315C402.117 550.315 434.998 484.58 433.998 471.58C432.998 458.58 438.966 392.543 430.482 387.562C421.998 382.58 373.998 398.58 373.998 398.58Z" fill="#2F2E41"/>
<path d="M375.998 635.58L387.998 623.58C387.998 623.58 419.998 639.58 424.998 640.58C429.998 641.58 440.998 649.58 429.998 652.58C418.998 655.58 377.998 653.58 367.998 652.58C357.998 651.58 337.998 650.58 340.998 644.58C343.998 638.58 348.998 617.58 348.998 617.58C348.998 617.58 351.761 613.759 353.379 618.67C354.998 623.58 355.998 630.58 359.998 630.58C363.998 630.58 375.998 635.58 375.998 635.58Z" fill="#3F3D56"/>
<path d="M529.998 381.58L557.998 379.58L576.998 389.58L574.998 401.58L566.998 403.58C566.998 403.58 544.998 394.58 531.998 397.58C518.998 400.58 529.998 381.58 529.998 381.58Z" fill="#FBBEBE"/>
<path d="M562.998 385.58C562.998 385.58 573.998 397.612 562.998 402.096C562.998 402.096 564.998 405.58 572.998 406.58C580.998 407.58 591.998 414.58 594.998 414.58C597.998 414.58 610.998 412.58 602.998 401.58C594.998 390.58 562.998 366.58 562.998 366.58C562.998 366.58 553.998 362.58 550.998 370.58C547.998 378.58 546.415 380.408 546.415 380.408C546.415 380.408 560.998 383.58 562.998 385.58Z" fill="#2F2E41"/>
<path d="M478.998 481.58C478.998 481.58 487.998 515.58 487.998 517.58C487.998 519.58 499.998 509.58 499.998 509.58L501.998 491.58C501.998 491.58 493.998 483.58 493.998 478.58C493.998 473.58 478.998 481.58 478.998 481.58Z" fill="#FBBEBE"/>
<path d="M496.998 505.58C496.998 505.58 489.998 514.58 484.998 511.58L487.998 545.58C487.998 545.58 489.998 562.58 496.998 555.58C503.998 548.58 510.998 513.58 510.998 513.58C510.998 513.58 520.998 492.58 512.998 489.58C508.457 487.841 503.772 486.502 498.998 485.58C498.998 485.58 498.998 506.58 496.998 505.58Z" fill="#2F2E41"/>
<path d="M431.998 391.58L461.998 453.58C461.998 453.58 471.998 488.58 475.998 489.58C479.998 490.58 494.998 483.58 496.998 482.58C498.998 481.58 479.998 442.58 479.998 435.58C479.998 428.58 456.998 389.58 456.998 389.58L431.998 391.58Z" fill="#F1BC19"/>
<path d="M452.998 283.58C452.998 283.58 453.998 304.58 449.998 318.58C445.998 332.58 454.998 378.58 454.998 378.58C454.998 378.58 469.998 379.58 473.998 378.58C477.998 377.58 531.998 376.58 534.998 378.58C537.998 380.58 536.998 415.58 534.998 414.58C532.998 413.58 480.998 402.58 455.998 406.58C430.998 410.58 427.998 404.58 426.998 402.58C425.998 400.58 408.998 346.58 408.998 346.58L402.998 320.58L394.998 292.58L399.998 265.58L452.998 283.58Z" fill="#F1BC19"/>
<path d="M392.498 153.08C407.409 153.08 419.498 140.992 419.498 126.08C419.498 111.169 407.409 99.0802 392.498 99.0802C377.586 99.0802 365.498 111.169 365.498 126.08C365.498 140.992 377.586 153.08 392.498 153.08Z" fill="#FBBEBE"/>
<path d="M341.998 216.58C356.909 216.58 368.998 204.492 368.998 189.58C368.998 174.669 356.909 162.58 341.998 162.58C327.086 162.58 314.998 174.669 314.998 189.58C314.998 204.492 327.086 216.58 341.998 216.58Z" fill="#FBBEBE"/>
<path d="M399.998 144.58C399.998 144.58 417.998 156.58 414.998 163.58C411.998 170.58 403.998 178.58 403.998 178.58L402.998 189.58L417.998 194.58L455.998 196.58C455.998 196.58 453.998 162.58 441.998 153.58C429.998 144.58 415.998 138.58 413.998 130.58C411.998 122.58 399.998 144.58 399.998 144.58Z" fill="#FBBEBE"/>
<path d="M449.614 169.246C443.069 157.02 424.657 158.506 420.841 171.837C420.34 173.452 420.185 175.153 420.384 176.832C420.583 178.51 421.133 180.128 421.998 181.58C428.998 193.58 433.998 202.58 433.998 202.58L455.998 200.58C455.998 200.58 456.43 181.98 449.614 169.246Z" fill="#FBBEBE"/>
<path d="M407.284 174.994C407.284 174.994 380.998 191.58 382.998 202.58C384.998 213.58 386.998 232.58 386.998 239.58C386.998 246.58 393.998 268.58 403.998 272.58C413.998 276.58 413.998 265.58 427.998 278.58C441.998 291.58 456.998 297.58 455.998 299.58C454.998 301.58 459.998 281.58 451.998 273.58C443.998 265.58 434.998 242.58 442.998 232.58C450.998 222.58 457.998 196.58 457.998 196.58C457.998 196.58 456.998 190.58 450.998 191.58C444.998 192.58 407.998 188.58 405.998 183.58C405.414 182.167 405.226 180.621 405.453 179.109C405.679 177.597 406.312 176.175 407.284 174.994Z" fill="#2F2E41"/>
<path d="M403.553 183.474C403.553 183.474 430.998 153.58 434.998 154.58C438.998 155.58 450.517 167.414 450.517 167.414L434.998 156.58L403.553 185.159L403.553 183.474Z" fill="#2F2E41"/>
<path d="M364.998 194.58C364.998 194.58 368.754 235.026 373.876 238.803C378.998 242.58 334.998 241.58 334.998 241.58C334.998 241.58 344.998 210.58 338.998 206.58C332.998 202.58 364.998 194.58 364.998 194.58Z" fill="#FBBEBE"/>
<path d="M374.998 227.58C374.998 227.58 340.998 218.58 336.998 223.58C332.998 228.58 324.998 271.58 324.998 271.58C324.998 271.58 328.998 300.58 335.998 321.58C342.998 342.58 351.998 416.58 358.998 416.58C365.998 416.58 377.998 405.58 380.998 405.58C383.998 405.58 401.998 396.58 412.998 398.58C419.316 399.823 425.844 399.48 431.998 397.58C431.998 397.58 426.998 355.58 414.998 344.58C402.998 333.58 396.998 257.58 396.998 257.58C396.998 257.58 379.998 225.58 374.998 227.58Z" fill="#3F3D56"/>
<path d="M426.998 322.58C426.998 322.58 438.368 338.013 449.683 338.797L455.998 338.58C455.998 338.58 445.998 364.58 450.998 365.58C455.998 366.58 470.998 346.58 465.998 335.58C460.998 324.58 445.998 307.58 445.998 307.58L426.998 322.58Z" fill="#FBBEBE"/>
<path d="M466.998 322.58C466.998 322.58 449.998 338.58 456.998 345.58C463.998 352.58 472.998 345.58 472.998 345.58C472.998 345.58 479.998 335.58 466.998 322.58Z" fill="#FBBEBE"/>
<path opacity="0.1" d="M466.998 322.58C466.998 322.58 449.998 338.58 456.998 345.58C463.998 352.58 472.998 345.58 472.998 345.58C472.998 345.58 479.998 335.58 466.998 322.58Z" fill="#FBBEBE"/>
<path d="M401.498 138.08C419.171 138.08 433.498 123.753 433.498 106.08C433.498 88.4071 419.171 74.0802 401.498 74.0802C383.825 74.0802 369.498 88.4071 369.498 106.08C369.498 123.753 383.825 138.08 401.498 138.08Z" fill="#2F2E41"/>
<path d="M416.498 98.0802C426.991 98.0802 435.498 89.5736 435.498 79.0802C435.498 68.5868 426.991 60.0802 416.498 60.0802C406.004 60.0802 397.498 68.5868 397.498 79.0802C397.498 89.5736 406.004 98.0802 416.498 98.0802Z" fill="#2F2E41"/>
<path d="M401.498 73.0802C401.498 68.3876 403.235 63.8612 406.374 60.3729C409.513 56.8845 413.831 54.6811 418.498 54.187C417.833 54.1166 417.166 54.0809 416.498 54.0802C413.917 54.0786 411.363 54.6026 408.992 55.6203C406.621 56.6381 404.482 58.1282 402.705 59.9997C400.929 61.8713 399.552 64.0851 398.659 66.5062C397.767 68.9272 397.376 71.5047 397.512 74.0816C397.648 76.6584 398.308 79.1806 399.45 81.4942C400.593 83.8078 402.195 85.8644 404.159 87.5386C406.122 89.2127 408.407 90.4694 410.872 91.2318C413.337 91.9943 415.932 92.2466 418.498 91.9734C413.831 91.4793 409.513 89.2758 406.374 85.7875C403.235 82.2992 401.498 77.7728 401.498 73.0802Z" fill="#2F2E41"/>
<path d="M390.998 138.08C405.081 138.08 416.498 129.574 416.498 119.08C416.498 108.587 405.081 100.08 390.998 100.08C376.914 100.08 365.498 108.587 365.498 119.08C365.498 129.574 376.914 138.08 390.998 138.08Z" fill="#2F2E41"/>
<path d="M343.124 179.556C342.773 181.433 341.94 183.319 342.644 185.252C343.165 186.684 344.435 187.819 345.197 189.176C346.732 191.906 345.715 195.402 343.075 196.471C341.59 195.614 339.847 195.319 338.163 195.64C337.396 195.813 336.719 196.262 336.262 196.901C335.805 197.541 335.6 198.326 335.685 199.108C336.037 201.417 338.728 202.896 340.097 204.956C340.938 206.499 341.504 208.178 341.769 209.915C342.443 212.612 343.628 215.289 343.765 217.987C343.902 220.684 342.59 223.535 339.913 223.922C337.663 224.246 335.243 222.721 333.615 220.869C331.987 219.017 330.889 216.82 329.398 214.87C324.553 208.535 316.271 205.582 310.664 199.833C303.478 192.466 301.956 181.554 304.527 172.855C305.606 169.202 307.393 165.71 310.428 163.481C313.614 161.142 317.868 160.394 321.436 158.575C325.251 156.63 328.177 153.519 331.552 150.979C334.926 148.439 339.106 146.403 343.711 147.088C346.923 147.565 349.97 149.314 353.157 150.139C356.623 151.086 360.311 150.782 363.574 149.28L360.612 152.458C362.744 153.303 365.039 153.651 367.325 153.476C366.404 155.362 364.79 156.82 362.819 157.545C364.414 158.792 366.417 159.396 368.435 159.238C366.237 161.749 363.876 164.362 360.489 165.237C358.83 165.666 357.023 165.645 355.311 165.925C351.661 166.522 348.587 168.449 345.607 170.34C344.042 171.333 342.074 172.459 342.085 174.52C342.094 176.237 343.482 177.638 343.124 179.556Z" fill="#2F2E41"/>
<path d="M354.998 237.58C354.998 237.58 345.998 270.58 361.998 277.58C377.998 284.58 410.998 310.58 416.998 319.58C422.998 328.58 429.998 331.58 429.998 331.58C429.998 331.58 453.998 311.58 448.998 305.58C443.998 299.58 423.998 281.58 423.998 281.58C423.998 281.58 372.998 226.58 354.998 237.58Z" fill="#3F3D56"/>
<path d="M433.998 238.58C433.998 238.58 397.259 228.078 386.128 226.329C374.998 224.58 345.998 227.58 351.998 232.58C357.998 237.58 392.998 241.58 392.998 241.58L434.998 257.58L433.998 238.58Z" fill="#FBBEBE"/>
<path d="M433.998 197.58C433.998 197.58 436.998 217.58 436.998 224.58C436.998 231.58 441.998 237.58 437.998 237.58C433.998 237.58 430.998 233.58 430.998 237.58C430.998 241.58 424.998 265.58 430.998 265.58C436.998 265.58 451.998 261.58 454.998 261.58C457.998 261.58 467.998 259.58 466.998 248.58C465.998 237.58 461.998 225.58 463.998 223.58C465.998 221.58 466.998 211.58 464.998 209.58C462.998 207.58 457.998 194.58 457.998 194.58L433.998 197.58Z" fill="#3F3D56"/>
<g opacity="0.3">
<path opacity="0.3" d="M645.367 401.129C643.522 400.907 641.664 401.428 640.202 402.576C638.741 403.724 637.795 405.406 637.573 407.252C637.352 409.097 637.872 410.955 639.021 412.417C640.169 413.878 641.851 414.824 643.696 415.046L657.613 416.717L659.285 402.8C659.394 401.886 659.323 400.96 659.075 400.073C658.826 399.187 658.406 398.358 657.837 397.635C657.269 396.911 656.563 396.306 655.761 395.855C654.959 395.404 654.075 395.115 653.162 395.006C652.248 394.896 651.321 394.967 650.435 395.216C649.549 395.464 648.72 395.884 647.996 396.453C647.273 397.022 646.668 397.727 646.217 398.529C645.766 399.332 645.477 400.215 645.367 401.129Z" fill="#6C63FF"/>
</g>
<g opacity="0.3">
<path opacity="0.3" d="M813.097 334.252C811.478 333.342 809.564 333.112 807.775 333.612C805.986 334.112 804.469 335.302 803.557 336.92C802.645 338.538 802.412 340.452 802.91 342.241C803.409 344.031 804.597 345.549 806.214 346.463L818.425 353.346L825.308 341.135C825.761 340.333 826.051 339.45 826.163 338.536C826.275 337.622 826.205 336.694 825.958 335.807C825.711 334.92 825.291 334.09 824.723 333.365C824.155 332.64 823.45 332.034 822.648 331.582C821.845 331.129 820.962 330.84 820.047 330.729C819.133 330.619 818.206 330.689 817.319 330.937C816.432 331.185 815.602 331.606 814.878 332.175C814.153 332.743 813.548 333.449 813.097 334.252Z" fill="#6C63FF"/>
</g>
<g opacity="0.3">
<path opacity="0.3" d="M738.367 429.129C737.454 429.019 736.527 429.09 735.641 429.339C734.755 429.587 733.926 430.007 733.202 430.576C732.478 431.144 731.874 431.85 731.423 432.652C730.972 433.455 730.683 434.338 730.573 435.252C730.464 436.165 730.535 437.092 730.783 437.978C731.032 438.864 731.452 439.693 732.021 440.417C732.589 441.14 733.295 441.745 734.097 442.196C734.899 442.647 735.782 442.936 736.696 443.046L750.613 444.717L752.284 430.8C752.506 428.954 751.985 427.096 750.837 425.635C749.689 424.173 748.007 423.227 746.162 423.006C744.316 422.784 742.458 423.305 740.996 424.453C739.535 425.601 738.589 427.283 738.367 429.129Z" fill="#6C63FF"/>
</g>
</g>
<defs>
<clipPath id="clip0">
<rect width="994.995" height="662.08" fill="white"/>
</clipPath>
</defs>
</svg>
