<svg width="1500" height="700" viewBox="0 0 1500 700" fill="none" xmlns="http://www.w3.org/2000/svg">
<rect width="1500" height="700" fill="#2D2D2D"/>
<path d="M550.05 380.93C524.779 379.11 512.143 373.923 512.143 365.37C512.125 363.96 512.595 362.559 513.536 361.22L553.371 318.94H617.143L577.329 361.22C577.027 361.635 576.867 362.071 576.857 362.51C576.857 363.99 579.343 365.11 584.271 365.89C586.756 366.378 589.443 366.6 592.136 366.54C598.894 366.45 605.593 365.925 612.043 364.98C621.309 363.685 629.332 360.937 634.757 357.2L670.414 318.94H734.336L677.357 380.67H613.071L616.779 376.91C598.521 379.658 579.455 381.059 560.271 381.06C556.243 381.06 552.857 381 550.05 380.93ZM759.879 380.15L795 342.8C798.02 341.236 801.658 339.96 805.714 339.04C810.343 337.9 814.971 336.84 819.579 335.79C825.185 334.433 831.373 333.681 837.686 333.59C840.252 333.566 842.79 333.838 845.079 334.38C850.007 335.14 852.493 336.28 852.493 337.74C852.475 338.208 852.146 338.662 851.55 339.04L813.964 379.24C813.426 379.861 812.961 380.495 812.571 381.14C811.843 382.33 811.136 383.9 810.429 385.6C809.98 386.586 809.764 387.592 809.786 388.6C809.781 390.631 810.679 392.64 812.424 394.501C814.168 396.362 816.721 398.033 819.921 399.41C821.207 399.89 822.6 400.33 824.207 400.8C825.814 401.27 827.743 401.8 829.629 402.28C840.171 404.86 853.05 406.13 868.2 406.13C895.343 405.776 916.171 403.443 930.686 399.13L916.821 387.46C910.821 389.154 903.904 390.008 896.893 389.92C884.314 389.59 877.607 386.76 877.05 381.47C876.975 380.626 877.335 379.785 878.1 379.02L915.964 339C916.924 337.797 917.396 336.522 917.357 335.24C917.357 327.8 904.7 322.466 879.386 319.24C874.339 318.875 869.236 318.704 864.129 318.73C846.894 318.799 829.813 320.244 813.621 323L817.35 318.85H753.429L696.021 380.07L759.879 380.15ZM1281.02 318.81L1202.29 354.73L1189.78 318.68H1125.86L1147.29 380.15C1138.59 383.623 1128.74 386.41 1118.12 388.4C1114.78 388.99 1068 393.54 1071.13 380.15L1110 339C1110.96 337.797 1111.43 336.522 1111.39 335.24C1111.39 327.8 1098.74 322.466 1073.42 319.24C1068.37 318.875 1063.26 318.704 1058.14 318.73C1040.91 318.798 1023.84 320.246 1007.66 323.01L1011.36 318.86H947.379L889.971 380.07H953.871L989.057 342.72C992.07 341.153 995.71 339.876 999.771 338.96C1004.4 337.84 1009.05 336.76 1013.68 335.72C1019.27 334.357 1025.44 333.605 1031.74 333.52C1034.31 333.495 1036.85 333.759 1039.16 334.29C1044.09 335.07 1046.55 336.196 1046.55 337.67C1046.53 338.133 1046.21 338.583 1045.63 338.96L1007.14 380.15C997.736 388.15 1008.36 397.83 1018.26 400.78C1045.03 408.34 1103.98 411.15 1148.98 401.16C1161.59 398.828 1173.44 395.688 1184.19 391.83C1188.83 390.09 1197.78 386.196 1211.04 380.15L1344.9 318.81H1281.02Z" fill="#F1BC19"/>
<path d="M680.486 410.38C680.486 412.93 678.021 415.38 673.136 417.77C667.663 420.314 661.014 422.24 653.7 423.4C665.129 426.066 670.843 429.666 670.843 434.2C670.578 437.266 668.075 440.198 663.75 442.51C657.776 445.872 650.04 448.456 641.293 450.01C631.994 451.767 622.054 452.667 612.021 452.66C605.098 452.679 598.206 452.231 591.557 451.33C589.607 451.09 584.807 450.4 577.114 449.27L584.207 441.19C585.687 441.655 587.267 442.047 588.921 442.36C592.98 443.2 597.342 443.675 601.779 443.76C603.506 443.923 605.267 443.997 607.029 443.98C612.737 443.97 618.376 443.394 623.571 442.29C629.871 440.916 633.807 439.126 635.379 436.92C635.878 436.185 636.145 435.42 636.171 434.65C636.171 431.463 630.657 429.256 619.629 428.03C612.601 427.286 605.404 426.95 598.2 427.03L598.457 426.88H598.2L603.964 420.19C605.55 420.19 606.6 420.27 607.114 420.27H612.857C630 419.93 640.321 417.263 643.821 412.27C644.156 411.847 644.337 411.401 644.357 410.95C644.357 408.283 640.593 406.37 633.064 405.21C627.559 404.328 621.722 403.987 615.921 404.21C614.452 404.335 612.957 404.382 611.464 404.35L567.086 451.92H525.321L566.807 407.37C560.028 408.409 552.92 408.906 545.786 408.84C543.171 408.84 540.45 408.84 537.664 408.69L544.221 401.63C546.493 401.73 548.679 401.78 550.779 401.78C562.207 401.78 570.871 400.113 576.771 396.78L610.65 396.71C640.05 396.61 660.443 398.79 671.829 403.25C677.586 405.31 680.471 407.687 680.486 410.38ZM895.714 433C888.866 431.669 881.845 430.54 874.693 429.62C867.279 428.54 863.571 427.593 863.571 426.78C863.571 425.99 865.071 425.33 868.05 424.78C870.886 424.251 873.91 423.976 876.964 423.97C889.009 423.839 900.983 424.86 912.15 426.97L919.5 418.73C909.971 416.91 897.421 416 881.85 416C869.586 415.873 857.437 417.125 846.429 419.65C835.929 422.19 830.679 425.36 830.679 429.13C830.679 431.43 834.257 433.35 841.393 434.87C848.236 435.89 855.107 436.943 862.007 438.03C868.907 439.11 872.378 440.33 872.378 441.7C872.378 443.52 866.614 444.42 855.043 444.42C843.293 444.543 831.581 443.749 820.393 442.07L813.043 450.23C816.014 450.896 822.578 451.51 832.736 452.07C839.832 452.573 846.989 452.867 854.164 452.95C869.221 452.95 881.736 451.686 891.707 449.16C901.679 446.633 906.679 443.3 906.707 439.16C906.764 436.74 903.1 434.686 895.714 433ZM1025.66 457.34C1022.81 457.357 1020 457.011 1017.54 456.34C1015.24 455.56 1014.19 454.14 1014.39 452.08L1036.18 428.55C1036.71 427.867 1036.97 427.146 1036.95 426.42C1036.95 422.2 1029.86 419.2 1015.69 417.42C1012.86 417.207 1009.99 417.107 1007.12 417.12C997.453 417.152 987.867 417.95 978.771 419.48L993.921 405.42H960.621L911.786 452H948.021L967.971 430.83C969.645 429.892 971.699 429.117 974.014 428.55C976.472 427.847 979.011 427.21 981.621 426.64C984.83 425.928 988.314 425.527 991.864 425.46C993.388 425.444 994.903 425.57 996.321 425.83C998.957 426.27 1000.26 426.93 1000.26 427.83C1000.26 428.078 1000.18 428.324 1000.01 428.56L978.214 452.07C975.857 454.84 973.479 459.65 984.257 463.46C991.852 465.583 1000.61 466.626 1009.46 466.46C1024.87 466.26 1036.69 464.926 1044.9 462.46L1036.76 455.84C1033.56 456.918 1029.65 457.432 1025.72 457.29L1025.66 457.34ZM811.371 415.59H774.943L771.986 418.7C766.029 416.38 758.014 415.22 747.943 415.22C737.185 415.369 726.638 416.65 717.09 418.969C707.543 421.288 699.241 424.583 692.807 428.61C687.761 431.652 684.917 435.364 684.686 439.21C684.686 445.57 691.986 449.63 706.586 451.39C710.391 451.809 714.29 452.014 718.2 452C727.329 451.935 736.328 450.981 744.621 449.2C744.589 448.778 744.378 448.363 744 447.98C743.251 447.337 742.606 446.668 742.071 445.98C741.394 445.013 741.532 443.961 742.457 443.04C742.457 442.97 742.564 442.89 742.629 442.8C740.486 442.8 740.486 442.7 741.514 441.87C741.686 441.74 741.836 441.6 742.029 441.44C741.907 441.445 741.785 441.445 741.664 441.44C740.976 441.39 740.301 441.306 739.65 441.19C738.463 441.123 737.344 440.893 736.436 440.53C725.721 437.98 724.693 431.7 724.671 431.53C724.523 430.298 725.02 429.067 726.118 427.945C727.217 426.823 728.885 425.842 730.978 425.088C733.071 424.334 735.526 423.829 738.131 423.616C740.736 423.404 743.412 423.491 745.929 423.87C747.085 424.032 748.199 424.253 749.25 424.53C750.023 424.697 750.743 424.912 751.393 425.17C754.31 426.121 756.472 427.496 757.543 429.08C758.411 430.583 758.411 432.167 757.543 433.67C757.543 433.82 757.543 433.97 757.393 434.12C756.354 436.428 753.791 438.527 750.064 440.12C748.487 440.754 746.617 441.209 744.6 441.45C745.093 441.71 745.5 441.94 745.907 442.17C746.314 442.4 746.207 442.77 745.393 442.75C744.579 442.73 743.957 443.04 743.614 443.43C743.116 444.017 742.915 444.65 743.027 445.28C743.138 445.909 743.559 446.518 744.257 447.06C745.108 447.705 745.743 448.406 746.143 449.14C752.596 451.42 760.53 452.599 768.621 452.48C777.548 452.377 786.349 451.478 794.55 449.83L801.429 443C798.857 443.282 796.227 443.433 793.586 443.45C789.45 443.45 787.371 442.95 787.371 441.94C787.386 441.592 787.569 441.25 787.907 440.94L811.371 415.59ZM735.279 425.48L734.55 425.66C732.682 426.187 731.086 426.901 729.879 427.75C728.955 428.442 728.315 429.208 727.993 430.01C727.993 430.15 727.714 430.26 727.671 430.41C727.666 430.497 727.706 430.583 727.789 430.662C727.871 430.74 727.992 430.808 728.143 430.86C728.7 430.97 728.936 430.75 729.043 430.52C729.043 430.47 729.043 430.41 729.043 430.35C729.411 429.573 730.079 428.835 731.014 428.17C732.061 427.406 733.45 426.758 735.086 426.27C735.333 426.216 735.552 426.137 735.729 426.04C735.785 425.985 735.815 425.925 735.815 425.865C735.815 425.804 735.785 425.744 735.729 425.69C735.857 425.55 735.557 425.49 735.364 425.43L735.279 425.48Z" fill="#F1BC19"/>
<path d="M1080.13 452.88C1080.13 454.32 1078.9 455.701 1076.72 456.72C1074.54 457.738 1071.58 458.31 1068.49 458.31C1065.41 458.31 1062.45 457.738 1060.27 456.72C1058.08 455.701 1056.86 454.32 1056.86 452.88C1056.79 452.146 1057.05 451.414 1057.61 450.728C1058.17 450.041 1059.02 449.415 1060.12 448.887C1061.21 448.359 1062.52 447.939 1063.97 447.655C1065.42 447.37 1066.98 447.226 1068.56 447.23C1070.13 447.221 1071.69 447.362 1073.14 447.646C1074.58 447.93 1075.89 448.35 1076.98 448.88C1078.06 449.41 1078.9 450.039 1079.45 450.727C1079.99 451.415 1080.22 452.148 1080.13 452.88ZM1086.41 457.88H1105.69V427.33H1086.41V457.88ZM1096.05 413.35C1094.61 413.342 1093.17 413.467 1091.83 413.718C1090.49 413.968 1089.27 414.339 1088.24 414.81C1087.21 415.281 1086.38 415.842 1085.81 416.462C1085.25 417.081 1084.95 417.746 1084.93 418.42C1084.91 419.094 1085.18 419.762 1085.72 420.388C1086.25 421.013 1087.05 421.583 1088.06 422.065C1089.07 422.547 1090.27 422.932 1091.6 423.197C1092.92 423.462 1094.35 423.602 1095.79 423.61C1097.32 423.627 1098.85 423.499 1100.27 423.232C1101.69 422.966 1102.98 422.567 1104.06 422.06C1105.05 421.587 1105.81 421.026 1106.31 420.41C1106.81 419.795 1107.04 419.138 1106.98 418.48C1107.02 417.803 1106.77 417.128 1106.24 416.497C1105.71 415.866 1104.9 415.293 1103.88 414.811C1102.86 414.329 1101.64 413.95 1100.29 413.695C1098.95 413.44 1097.5 413.316 1096.05 413.33V413.35ZM1151.96 426.69C1145.54 426.641 1139.28 427.634 1134.26 429.5L1133.98 427.35H1115.94L1116.26 429.35C1116.62 431.58 1116.77 433.91 1116.77 437.14V457.91H1136.06V440.91C1136.01 440.232 1136.22 439.556 1136.66 438.91C1137.39 437.737 1138.91 436.704 1140.99 435.958C1143.06 435.213 1145.59 434.793 1148.21 434.76C1150.84 434.76 1158.81 434.76 1158.81 441.58V457.87H1178.1V441C1178.06 430.41 1164 426.67 1151.96 426.67V426.69Z" fill="#F1BC19"/>
<path d="M483.236 447C480.146 446.025 476.917 445.15 473.571 444.38C472.885 444.211 472.168 444.071 471.429 443.96C471.114 443.912 470.83 443.828 470.603 443.716C470.377 443.604 470.214 443.466 470.131 443.317C470.048 443.168 470.046 443.011 470.127 442.861C470.208 442.711 470.368 442.573 470.593 442.46C487.971 433.64 495.514 423.6 496.307 411.46C496.95 402.23 493.479 393.46 483.236 385.46C475.943 379.987 466.429 375.231 455.229 371.46C454.736 371.29 454.221 371.13 453.707 370.98C447.279 369.26 442.993 368.66 438.986 367.75C438.314 367.604 437.743 367.372 437.337 367.083C436.932 366.793 436.707 366.456 436.689 366.11C436.672 365.764 436.861 365.422 437.236 365.124C437.612 364.825 438.158 364.582 438.814 364.42C448.993 361.94 467.85 357.63 473.529 355.56C485.974 351.098 494.961 344.863 499.126 337.801C503.291 330.739 502.407 323.236 496.607 316.43C489.386 308 475.714 302.2 459.214 297.76C441.636 293.076 422.212 290.097 402.107 289C393.257 288.49 387.107 286.8 382.5 283.38C381.364 282.5 380.079 281.67 378.921 280.79L359.786 266.15C339.943 250.91 311.421 240.89 275.271 235.49C267.107 234.28 258.643 233.49 250.329 232.49C246.793 232.59 243.536 232.67 239.979 232.75C230.571 234.63 228.129 236.89 229.671 241.75C232.843 251.75 243.643 259.88 258.3 267C269.529 272.46 283.243 276.26 297.171 280C304.821 282 312.579 284 320.293 286C320.293 286.16 320.121 286.29 320.079 286.44C318.867 286.386 317.665 286.296 316.479 286.17C297.021 283.56 277.736 280.65 258.107 278.36C230.67 275.024 201.627 276.08 175.629 281.36C172.23 282.077 169.063 283.013 166.221 284.14C163.485 285.19 161.655 286.666 161.068 288.296C160.482 289.927 161.178 291.601 163.029 293.01C168.343 297.08 176.25 299.91 184.886 302.34C203.507 307.58 223.971 310.34 245.336 312C263.014 313.35 280.65 312.63 298.264 311.56C300.793 311.4 303.321 311.22 305.85 311.07C306.171 311.07 306.514 311.16 307.05 311.28C306.866 311.631 306.577 311.967 306.193 312.28C293.593 320.73 285 330.15 276.943 339.66C268.2 350.01 250.586 380.25 241.843 395.22C241.843 395.22 241.843 395.28 241.843 395.3C240.814 397.11 239.871 398.71 239.079 400.02C239.079 400.02 239.271 400.02 239.357 400.02C237.943 402.6 236.4 405.36 235.671 407.02C234.3 410.22 233.014 413.42 231.664 416.63C231.471 417.11 231.064 417.63 230.764 418.13C226.479 417.29 222.75 416.41 218.786 415.81C198.9 412.86 176.743 415.81 164.55 422.91C160.574 425.288 157.798 428.053 156.429 431C155.979 431.9 155.486 432.78 155.036 433.69V439.89C155.37 440.255 155.635 440.633 155.829 441.02C157.264 446.21 161.807 451.16 171.429 453.85C192.493 459.7 214.479 460.07 234.3 454.85C241.286 453.01 245.657 453.13 252.3 454.76C275.871 460.51 301.586 463.11 327.9 463.9C349.623 464.601 371.45 463.877 392.743 461.75C395.706 461.441 398.785 461.469 401.721 461.83C415.414 463.43 439.436 463.83 442.093 464.4C447.207 465.604 452.684 466.437 458.336 466.87C463.561 467.279 468.852 467.48 474.15 467.47C479.08 467.546 483.984 467.109 488.507 466.19C490.818 465.694 492.879 464.975 494.552 464.08C496.225 463.186 497.473 462.136 498.214 461C499.29 459.534 499.563 457.965 499.009 456.437C498.455 454.909 497.092 453.47 495.043 452.25C491.692 450.234 487.712 448.465 483.236 447V447ZM429.664 417.06C429.178 422.869 425.488 428.522 418.95 433.47C410.07 439.807 396.511 444.401 380.85 446.38C347.941 451.048 312.728 450.8 280.136 445.67C277.736 445.27 275.357 444.67 272.057 444.03C271.629 444.2 267.129 443.03 262.521 441.7C262.146 441.566 261.744 441.449 261.321 441.35C261.06 441.254 260.788 441.163 260.507 441.08C260.382 441.068 260.268 441.036 260.186 440.99L259.5 440.75C257.426 439.955 255.754 438.955 254.606 437.823C253.457 436.69 252.86 435.453 252.857 434.2C252.857 433.88 252.857 433.56 252.857 433.2C252.857 433.08 252.857 432.96 252.857 432.84C259.286 406.94 296.957 339.89 308.764 326.03C314.271 319.51 320.186 313.03 328.864 307.2C329.13 306.979 329.318 306.739 329.421 306.49C329.057 306.43 328.864 306.35 328.65 306.35C326.85 306.47 325.136 306.6 323.357 306.69C311.25 307.43 299.164 307.93 286.929 307.01C272.296 306.052 258.192 303.795 245.379 300.36C239.361 298.83 234.217 296.649 230.379 294C227.229 291.61 227.914 289.6 232.521 287.84C234.472 287.075 236.634 286.436 238.95 285.94C256.81 282.29 276.784 281.554 295.65 283.85C309.171 285.42 322.436 287.42 335.829 289.2C336.635 289.302 337.46 289.368 338.293 289.4C338.293 289.3 338.4 289.2 338.464 289.1C333.129 287.72 327.75 286.36 322.543 284.97C312.964 282.41 303.536 279.79 295.8 276.05C285.729 271.12 278.336 265.55 276.129 258.68C275.014 255.24 276.857 253.68 283.586 252.4H291.257C296.679 253.05 302.164 253.59 307.479 254.4C332.357 258.13 351.986 265.02 365.593 275.49L378.75 285.56C379.521 286.16 380.464 286.75 381.236 287.36C382.643 288.464 384.606 289.391 386.955 290.06C389.304 290.729 391.968 291.12 394.714 291.2C408.528 291.955 421.877 293.996 433.971 297.2C445.35 300.2 454.757 304.26 459.814 310.08C463.701 314.692 464.316 319.763 461.571 324.55C460.996 325.699 461.02 326.896 461.643 328.039C462.266 329.182 463.469 330.239 465.15 331.12C471.579 334.69 473.486 337.98 470.807 341.45C466.696 347.29 459.035 352.446 448.757 356.29C442.743 358.588 435.87 360.348 428.486 361.48C427.8 361.58 427.2 361.64 426.514 361.72C425.355 361.821 424.179 361.871 423 361.87C418.752 361.877 414.633 361.186 411.364 359.92L398.014 354.41C398.014 354.41 385.414 348.32 372.536 345.41C370.818 345.018 369.042 344.684 367.221 344.41C367.116 344.391 367.009 344.374 366.9 344.36C365.681 344.24 364.439 344.18 363.193 344.18C360.398 344.179 357.639 344.477 355.131 345.053C352.623 345.629 350.432 346.466 348.729 347.5C347.529 348.5 346.586 349.5 345.6 350.4C337.414 359.19 343.607 365.28 365.7 370.64C384.986 375.32 393.171 380.02 400.414 382.35C402.279 383.16 404.057 384.02 405.814 384.88C410.708 387.295 414.947 389.982 418.436 392.88C422.047 395.977 424.812 399.272 426.664 402.69C429.286 407.386 430.298 412.246 429.664 417.09V417.06Z" fill="#F1BC19"/>
<path d="M300.129 435.309C300.621 435.139 301.114 434.97 301.586 434.79C301.093 434.97 300.557 435.099 300.064 435.269L300.129 435.309Z" fill="#F1BC19"/>
</svg>
