<?xml version="1.0" encoding="utf-8"?>
<!-- Generator: Adobe Illustrator 22.1.0, SVG Export Plug-In . SVG Version: 6.00 Build 0)  -->
<svg version="1.1" id="Layer_1" xmlns="http://www.w3.org/2000/svg" xmlns:xlink="http://www.w3.org/1999/xlink" x="0px" y="0px"
	 viewBox="0 0 400 400" style="enable-background:new 0 0 400 400;" xml:space="preserve">
<style type="text/css">
	.st0{fill:#EFBF00;}
</style>
<g>
	<path class="st0" d="M140.1,149.3c0.1-0.1,0.2-0.3,0.2-0.6c0-0.2-0.1-0.4-0.2-0.6c-0.1-0.1-0.3-0.2-0.5-0.2h-0.3v1.5h0.3
		C139.7,149.5,139.9,149.4,140.1,149.3z"/>
	<path class="st0" d="M155,145.4h-24.8c-1.2,0-2.1,0.9-2.2,2.1h-0.1c-0.6,0-1.1,0.5-1.1,1.1v0.5c0,0.6,0.5,1.1,1.1,1.1h0.1v0
		c0,0.9,0.5,1.6,1.3,2v10.2c0,0.8,0.7,1.5,1.5,1.5c0.7,0,1.3-0.5,1.5-1.2l0-0.1c0-0.6,0.5-1.1,1.1-1.1s1.1,0.5,1.1,1.1v2l0,0
		c0.2,1.4,1.3,2.4,2.7,2.4c1.5,0,2.7-1.2,2.7-2.7l0-4.2c0-0.4,0.3-0.7,0.7-0.7h0.1c0.4,0,0.7,0.3,0.7,0.7l0,3.7
		c0,0.7,0.4,1.3,1.1,1.5v0.3c-0.3,0.1-0.6,0.4-0.6,0.8v7.5c0,0.5,0.4,0.8,0.8,0.8h0.8c0.5,0,0.8-0.4,0.8-0.8v-7.5
		c0-0.4-0.2-0.7-0.6-0.8v-0.5c0.4-0.3,0.6-0.7,0.7-1.2v-1.7l1.4-0.5c0.1,0.1,0.1,0.2,0.1,0.3v0.7l0,0c0.4,0.9,1.3,1.6,2.3,1.6
		c1.3,0,2.4-1.1,2.4-2.4v-2l-0.3,0.1v1.9c0,1.2-1,2.2-2.2,2.2c-0.9,0-1.7-0.6-2-1.4v-0.6c0-0.2,0-0.3-0.1-0.4l-0.2,0.1l9.4-3.5
		c0.3-0.1,0.4-0.3,0.4-0.6v-5.3c0.8-0.3,1.4-1.1,1.4-2v-2.7C157.2,146.4,156.2,145.4,155,145.4z M128,150h-0.1
		c-0.5,0-0.8-0.4-0.8-0.8v-0.5c0-0.5,0.4-0.8,0.8-0.8h0.1V150z M153.2,147.5h1.9v0.5h-0.7v2h-0.6v-2h-0.7V147.5z M151.1,147.5h1.6
		v0.5h-1v0.5h0.7v0.5h-0.7v1h-0.6V147.5z M149,147.5h0.7l0.9,2.5h-0.6l-0.1-0.4h-0.9l-0.1,0.4h-0.6L149,147.5z M145.8,147.5h1
		c0.3,0,0.5,0.1,0.7,0.2c0.2,0.1,0.2,0.3,0.2,0.5c0,0.1,0,0.3-0.1,0.4c-0.1,0.1-0.2,0.2-0.4,0.3l0.6,1H147l-0.6-1h-0.1v1h-0.6V147.5
		z M143,147.8c0.2-0.2,0.5-0.4,0.9-0.4c0.3,0,0.5,0.1,0.7,0.2c0.2,0.1,0.4,0.3,0.4,0.6h-0.7c-0.1-0.2-0.2-0.3-0.4-0.3
		c-0.2,0-0.4,0.1-0.5,0.2c-0.1,0.1-0.2,0.3-0.2,0.5c0,0.2,0.1,0.4,0.2,0.5c0.1,0.1,0.3,0.2,0.5,0.2c0.2,0,0.4-0.1,0.4-0.3h0.7
		c-0.1,0.3-0.2,0.5-0.4,0.6c-0.2,0.1-0.5,0.2-0.7,0.2c-0.4,0-0.7-0.1-0.9-0.4c-0.2-0.2-0.4-0.5-0.4-0.9
		C142.7,148.4,142.8,148.1,143,147.8z M138.6,147.5h0.9c0.4,0,0.7,0.1,1,0.3c0.3,0.2,0.4,0.5,0.4,0.9c0,0.4-0.1,0.7-0.4,0.9
		c-0.3,0.2-0.6,0.3-1,0.3h-0.9V147.5z M135.7,147.5h0.6l1,1.6v-1.6h0.6v2.5h-0.6l-1-1.6v1.6h-0.6V147.5z M133.5,147.5h0.7l0.9,2.5
		h-0.6l-0.1-0.4h-0.9l-0.1,0.4h-0.6L133.5,147.5z M130,147.5h0.6v1h0.9v-1h0.6v2.5h-0.6v-1h-0.9v1H130V147.5z M142.5,162v3.1
		c-0.5-0.2-0.8-0.6-0.8-1.2l0-3.7c0-0.6-0.5-1-1-1h-0.1c-0.6,0-1,0.5-1,1l0,4.2c0,1.3-1.1,2.4-2.4,2.4c-1.2,0-2.3-0.9-2.4-2.2v-2
		c0-0.8-0.6-1.4-1.4-1.4c-0.8,0-1.4,0.6-1.4,1.4v0.1c-0.1,0.5-0.6,0.9-1.2,0.9c-0.7,0-1.3-0.6-1.3-1.3v-10.1
		c0.2,0.1,0.4,0.1,0.7,0.1h20.2v6.1l0.3-0.1v-6h3.8v4.4c0,0.2-0.1,0.3-0.3,0.4l-11.3,4.2C142.7,161.5,142.5,161.7,142.5,162z
		 M143.9,164.8v-2.1c0-0.2,0.1-0.3,0.3-0.4l0.1,0l0,1.6C144.3,164.3,144.1,164.6,143.9,164.8z M155.6,157.6c0,0.2-0.1,0.3-0.3,0.4
		l-11.3,4.2c-0.3,0.1-0.4,0.3-0.4,0.6v2.9h-0.8V162c0-0.2,0.1-0.3,0.3-0.4l11.3-4.2c0.3-0.1,0.4-0.3,0.4-0.6v-4.4h0.2
		c0.2,0,0.4,0,0.6-0.1V157.6z"/>
	<rect x="129.4" y="146.5" class="st0" width="27.2" height="4.8"/>
</g>
</svg>
