<?xml version="1.0" encoding="utf-8"?>
<!-- Generator: Adobe Illustrator 22.1.0, SVG Export Plug-In . SVG Version: 6.00 Build 0)  -->
<svg version="1.1" id="Layer_1" xmlns="http://www.w3.org/2000/svg" xmlns:xlink="http://www.w3.org/1999/xlink" x="0px" y="0px"
	 viewBox="0 0 300 300" style="enable-background:new 0 0 300 300;" xml:space="preserve">
<style type="text/css">
	.st0{fill:#232B38;}
	.st1{fill:none;stroke:#232B38;stroke-miterlimit:10;}
</style>
<g>
	<path class="st0" d="M117.6,92.3c-0.5,0-0.9,0.4-0.9,0.9c0,0.5,0.4,0.9,0.9,0.9c0.5,0,0.9-0.4,0.9-0.9
		C118.4,92.7,118,92.3,117.6,92.3z M117.6,93.8c-0.3,0-0.6-0.3-0.6-0.6c0-0.3,0.3-0.6,0.6-0.6c0.3,0,0.6,0.3,0.6,0.6
		C118.2,93.5,117.9,93.8,117.6,93.8z"/>
	<path class="st0" d="M120.7,92.3c-0.5,0-0.9,0.4-0.9,0.9c0,0.5,0.4,0.9,0.9,0.9c0.5,0,0.9-0.4,0.9-0.9
		C121.5,92.7,121.2,92.3,120.7,92.3z M120.7,93.8c-0.3,0-0.6-0.3-0.6-0.6c0-0.3,0.3-0.6,0.6-0.6c0.3,0,0.6,0.3,0.6,0.6
		C121.3,93.5,121,93.8,120.7,93.8z"/>
	<path class="st0" d="M122.8,89.4c-0.2,0-0.3,0.1-0.3,0.3c-0.1,0-0.3,0.1-0.4,0.3c-0.2,0.2-0.3,0.4-0.3,0.6h-2.5V88l-0.1,0
		c-0.1,0-1.4,0-2.2,1.2c-0.4,0.6-0.5,1-0.5,1.4h-0.1c0,0.2,0,0.3,0.1,0.5c0,0.1,0,0.2,0,0.2l0,0c0.1,0.4,0.3,0.7,0.6,1
		c0.1,0,0.2-0.1,0.3-0.1c0.1,0,0.2,0,0.3,0c0.5,0,1,0.4,1,1c0.2,0,0.3,0,0.5,0c0.2,0,0.4,0,0.5,0c0.1-0.5,0.5-0.9,1-0.9
		c0.2,0,0.3,0,0.5,0.1c0.4-0.4,0.7-1,0.7-1.6c0-0.1,0.1-0.3,0.3-0.5c0.1-0.1,0.2-0.2,0.3-0.2c0,0.1,0.2,0.2,0.3,0.2
		c0.2,0,0.3-0.2,0.3-0.3C123.1,89.6,123,89.4,122.8,89.4z M116.6,90.6c0-0.3,0.2-0.8,0.5-1.3c0.6-1,1.5-1.1,1.9-1.1v2.4H116.6z"/>
</g>
<g>
	<g>
		<path d="M190.3,93.2c1,0,1.8-0.8,1.8-1.8h-3.6C188.5,92.4,189.3,93.2,190.3,93.2z"/>
		<path d="M189.8,90.9C189.8,90.9,189.9,90.9,189.8,90.9c0.1-0.2,0.3-0.3,0.5-0.3c0.2,0,0.3,0.1,0.4,0.2c0,0,0,0,0.1,0
			c0,0,0,0,0-0.1c-0.1-0.2-0.3-0.3-0.5-0.3C190,90.4,189.8,90.6,189.8,90.9C189.7,90.8,189.8,90.9,189.8,90.9
			C189.8,90.9,189.8,90.9,189.8,90.9z"/>
		<path d="M189.4,90.5c0-0.1-0.1-0.2-0.2-0.2c-0.1,0-0.2,0.1-0.2,0.2c0,0.1,0.1,0.2,0.2,0.2C189.3,90.7,189.4,90.6,189.4,90.5z"/>
		<path d="M191.5,90.6c0-0.1-0.1-0.2-0.2-0.2c-0.1,0-0.2,0.1-0.2,0.2c0,0.1,0.1,0.2,0.2,0.2C191.4,90.8,191.5,90.7,191.5,90.6z"/>
		<path d="M190.2,88.4c-0.3,0-0.5,0-0.8,0c-0.5,0-0.8,0-1,0.4c-0.2,0.4,0.1,0.7,0.3,0.8c0,0,0,0,0.1,0c0,0,0.1,0,0.1-0.1
			c0-0.1,0-0.2,0-0.2c0,0-0.3-0.2-0.2-0.4c0.1-0.2,0.2-0.2,0.7-0.2c0.2,0,0.5,0,0.8,0c0.9-0.1,1-0.9,1-1.3c0-0.1-0.1-0.1-0.1-0.1
			c-0.1,0-0.1,0.1-0.1,0.1C190.9,87.4,191,88.3,190.2,88.4z"/>
		<path d="M191.2,89c0.1,0.3,0.3,0.4,0.6,0.4c0,0,0,0,0,0c0.2,0,0.4-0.1,0.5-0.3c0.1-0.3-0.1-0.5-0.3-0.6c-0.1,0-0.2,0-0.2,0.1
			c0,0.1,0,0.2,0.1,0.2c0,0,0.2,0.1,0.1,0.2c0,0.1-0.1,0.1-0.2,0.1c-0.1,0-0.2-0.1-0.3-0.3c-0.2-0.4,0.1-0.9,0.2-1.1
			c0-0.1,0-0.2,0-0.2c-0.1,0-0.2,0-0.2,0C191.4,87.7,190.9,88.5,191.2,89z"/>
		<path d="M193.4,90.4c-0.1-1-0.7-1.9-1.5-2.4c0,0-0.1,0-0.1,0.1c0,0.1,0,0.1,0,0.1l0,0c0.7,0.5,1.3,1.3,1.4,2.3l0,0.1l0.1,0
			c0.2,0,0.4,0.2,0.4,0.4c0,0.2-0.2,0.4-0.4,0.4l-0.1,0l0,0.1c-0.3,1.4-1.6,2.3-2.9,2.3c-1.4,0-2.6-0.9-2.9-2.3l0-0.1l-0.1,0
			c-0.2,0-0.4-0.2-0.4-0.4c0-0.2,0.1-0.4,0.4-0.4l0.1,0l0-0.1c0.1-1.6,1.4-2.8,3-2.8c0.1,0,0.3,0,0.4,0v0c0,0,0.1,0,0.1-0.1
			c0-0.1,0-0.1,0-0.1c-0.2,0-0.3,0-0.5,0c-1.7,0-3.1,1.2-3.3,2.9c-0.3,0.1-0.5,0.3-0.5,0.6c0,0.3,0.2,0.6,0.6,0.7
			c0.4,1.4,1.7,2.4,3.2,2.4c1.5,0,2.8-1,3.2-2.4c0.3,0,0.6-0.3,0.6-0.7C193.9,90.8,193.7,90.5,193.4,90.4z"/>
	</g>
</g>
<g>
	<path d="M260.1,88.6l-3.6,0c-0.1,0-0.2,0.1-0.2,0.2l0,0.4c0,0.1,0.1,0.2,0.2,0.2l3.6,0c0.1,0,0.2-0.1,0.2-0.2l0-0.4
		C260.4,88.7,260.3,88.6,260.1,88.6z M260.2,89.3C260.2,89.3,260.2,89.3,260.2,89.3l-3.7,0.1c0,0-0.1,0-0.1-0.1l0-0.4
		c0,0,0-0.1,0.1-0.1l3.6,0c0,0,0.1,0,0.1,0.1L260.2,89.3z"/>
	<path d="M258.6,86.8l0-0.3c0-0.1-0.1-0.2-0.3-0.2c-0.1,0-0.2,0.1-0.2,0.3l0,0.3c-0.8,0.1-1.5,0.8-1.5,1.7l3.5,0
		C260.1,87.6,259.4,86.9,258.6,86.8z"/>
	<path d="M260.1,89.6l-3.5,0c0,0,0,0,0,0l0,4.6c0,0.3,0.2,0.5,0.5,0.5l2.5,0c0.3,0,0.5-0.2,0.5-0.5L260.1,89.6
		C260.1,89.7,260.1,89.7,260.1,89.6z M259.7,91.1l-0.4,0l0,0.3l0.4,0l0,0.2l-0.4,0l0,0.3l0.4,0l0,0.2l-0.4,0l0,0.3l0.4,0l0,0.2
		l-0.4,0l0,0.3l0.4,0l0,0.2l-0.4,0l0,0.3l0.4,0l0,0.2l-0.4,0l0,0.4l-0.2,0l0-0.4l-0.4,0l0-0.2l0.4,0l0-0.3l-0.4,0l0-0.2l0.4,0l0-0.3
		l-0.4,0l0-0.2l0.4,0l0-0.3l-0.4,0l0-0.2l0.4,0l0-0.3l-0.4,0l0-0.2l0.4,0l0-0.3l-0.4,0l0-0.2l0.4,0l0-0.4l0.2,0l0,0.4l0.4,0
		L259.7,91.1z"/>
</g>
<path class="st0" d="M50.7,87.3C50.7,87.3,50.6,87.3,50.7,87.3l0-0.2c0,0,0,0,0,0s0,0,0,0L50.7,87.3C50.7,87.3,50.7,87.3,50.7,87.3z
	"/>
<path class="st0" d="M50.7,87.7C50.7,87.7,50.6,87.6,50.7,87.7l0-0.2c0,0,0,0,0,0s0,0,0,0L50.7,87.7C50.7,87.6,50.7,87.7,50.7,87.7z
	"/>
<path class="st0" d="M51.3,87.5C51.3,87.5,51.3,87.5,51.3,87.5C51.3,87.5,51.3,87.5,51.3,87.5l0.1-0.2c0,0,0,0,0.1,0s0,0,0,0.1
	L51.3,87.5C51.3,87.5,51.3,87.5,51.3,87.5z"/>
<path class="st0" d="M51,87.8C51,87.8,51,87.8,51,87.8C51,87.8,51,87.7,51,87.8l0.1-0.2c0,0,0,0,0.1,0c0,0,0,0,0,0.1L51,87.8
	C51.1,87.8,51,87.8,51,87.8z"/>
<path class="st0" d="M51.7,88.2h-0.1c0,0,0,0,0,0s0,0,0,0L51.7,88.2C51.7,88.1,51.8,88.1,51.7,88.2C51.8,88.1,51.7,88.2,51.7,88.2z"
	/>
<path class="st0" d="M51.3,88.2h-0.1c0,0,0,0,0,0s0,0,0,0L51.3,88.2C51.4,88.1,51.4,88.1,51.3,88.2C51.4,88.1,51.4,88.2,51.3,88.2z"
	/>
<path class="st0" d="M49.8,88.2h-0.1c0,0,0,0,0,0s0,0,0,0L49.8,88.2C49.8,88.1,49.8,88.1,49.8,88.2C49.8,88.1,49.8,88.2,49.8,88.2z"
	/>
<path class="st0" d="M50.2,88.2H50c0,0,0,0,0,0s0,0,0,0L50.2,88.2C50.2,88.1,50.2,88.1,50.2,88.2C50.2,88.1,50.2,88.2,50.2,88.2z"/>
<path class="st0" d="M50.1,87.5C50,87.5,50,87.5,50.1,87.5l-0.1-0.1c0,0,0,0,0-0.1c0,0,0,0,0.1,0L50.1,87.5
	C50.1,87.5,50.1,87.5,50.1,87.5C50.1,87.5,50.1,87.5,50.1,87.5z"/>
<path class="st0" d="M50.3,87.8C50.3,87.8,50.3,87.8,50.3,87.8l-0.1-0.1c0,0,0,0,0-0.1c0,0,0,0,0.1,0L50.3,87.8
	C50.4,87.7,50.4,87.8,50.3,87.8C50.3,87.8,50.3,87.8,50.3,87.8z"/>
<path class="st0" d="M50.8,89.2h-0.3c0,0,0,0,0,0v-0.5c0-0.1,0.1-0.1,0.1-0.1h0.1c0.1,0,0.1,0.1,0.1,0.1L50.8,89.2
	C50.9,89.2,50.9,89.2,50.8,89.2z M50.6,89.1h0.2v-0.5c0,0,0,0,0,0h-0.1c0,0,0,0,0,0V89.1z"/>
<path class="st0" d="M53.3,94h-5.1c0,0,0,0,0,0v-2.4c0-0.2,0.2-0.4,0.4-0.4h4.5c0.2,0,0.4,0.2,0.4,0.4L53.3,94
	C53.3,94,53.3,94,53.3,94z M48.2,93.9h5v-2.4c0-0.2-0.1-0.3-0.3-0.3h-4.5c-0.2,0-0.3,0.1-0.3,0.3V93.9z"/>
<path class="st0" d="M52.6,93c-0.3,0-0.5-0.2-0.6-0.4c-0.1,0.3-0.4,0.4-0.6,0.4c-0.3,0-0.5-0.2-0.6-0.4C50.6,92.8,50.3,93,50,93
	c-0.3,0-0.5-0.2-0.6-0.4C49.3,92.8,49,93,48.8,93c-0.4,0-0.7-0.3-0.7-0.7v-0.9c0-0.2,0.2-0.3,0.3-0.3H53c0.2,0,0.3,0.2,0.3,0.3v0.9
	C53.3,92.7,53,93,52.6,93z M52,92.5C52,92.5,52,92.5,52,92.5c0.2,0.3,0.4,0.4,0.6,0.4c0.3,0,0.6-0.3,0.6-0.6v-0.9
	c0-0.1-0.1-0.2-0.2-0.2h-4.6c-0.1,0-0.2,0.1-0.2,0.2v0.9c0,0.3,0.3,0.6,0.6,0.6c0.3,0,0.5-0.2,0.6-0.4c0,0,0-0.1,0.1-0.1
	c0,0,0.1,0,0.1,0.1c0.1,0.2,0.3,0.4,0.6,0.4c0.3,0,0.5-0.2,0.6-0.4c0,0,0-0.1,0.1-0.1c0,0,0.1,0,0.1,0.1c0.1,0.2,0.3,0.4,0.6,0.4
	C51.6,92.9,51.8,92.8,52,92.5C51.9,92.5,51.9,92.5,52,92.5z"/>
<rect x="52.4" y="91.8" class="st0" width="0.9" height="0.1"/>
<path class="st0" d="M50.4,91.9h-0.1c0,0,0,0,0,0s0,0,0,0L50.4,91.9C50.4,91.8,50.4,91.8,50.4,91.9C50.4,91.9,50.4,91.9,50.4,91.9z"
	/>
<path class="st0" d="M52,91.9h-0.3c0,0,0,0,0,0s0,0,0,0L52,91.9C52,91.8,52,91.8,52,91.9C52,91.9,52,91.9,52,91.9z M51.4,91.9h-0.3
	c0,0,0,0,0,0s0,0,0,0L51.4,91.9C51.5,91.8,51.5,91.8,51.4,91.9C51.5,91.9,51.5,91.9,51.4,91.9z M50.9,91.9h-0.3c0,0,0,0,0,0s0,0,0,0
	L50.9,91.9C50.9,91.8,51,91.8,50.9,91.9C51,91.9,50.9,91.9,50.9,91.9z"/>
<path class="st0" d="M52.4,91.9h-0.1c0,0,0,0,0,0s0,0,0,0L52.4,91.9C52.4,91.8,52.4,91.8,52.4,91.9C52.4,91.9,52.4,91.9,52.4,91.9z"
	/>
<rect x="48.1" y="91.8" class="st0" width="2.1" height="0.1"/>
<path class="st0" d="M53.3,94h-5.1c0,0,0,0,0,0v-0.5c0,0,0,0,0,0h5.1c0,0,0,0,0,0L53.3,94C53.3,94,53.3,94,53.3,94z M48.2,93.9h5
	v-0.4h-5V93.9z"/>
<path class="st0" d="M52.4,91.2h-3.5c0,0,0,0,0,0v-1.8c0-0.1,0.1-0.2,0.2-0.2h3.1c0.1,0,0.2,0.1,0.2,0.2L52.4,91.2
	C52.5,91.2,52.5,91.2,52.4,91.2z M49,91.1h3.4v-1.7c0-0.1-0.1-0.2-0.2-0.2h-3.1c-0.1,0-0.2,0.1-0.2,0.2V91.1z"/>
<path class="st0" d="M52,90.5c-0.2,0-0.4-0.1-0.4-0.3c-0.1,0.2-0.3,0.3-0.4,0.3c-0.2,0-0.4-0.1-0.4-0.3c-0.1,0.2-0.3,0.3-0.4,0.3
	c-0.2,0-0.4-0.1-0.4-0.3c-0.1,0.2-0.3,0.3-0.4,0.3c-0.3,0-0.5-0.2-0.5-0.5v-0.6c0-0.1,0.1-0.2,0.2-0.2h3.1c0.1,0,0.2,0.1,0.2,0.2V90
	C52.5,90.2,52.3,90.5,52,90.5z M51.6,90.1C51.6,90.1,51.6,90.1,51.6,90.1c0.1,0.2,0.3,0.3,0.4,0.3c0.2,0,0.4-0.2,0.4-0.4v-0.6
	c0-0.1-0.1-0.2-0.2-0.2h-3.1c-0.1,0-0.2,0.1-0.2,0.2V90c0,0.2,0.2,0.4,0.4,0.4c0.2,0,0.3-0.1,0.4-0.3c0,0,0,0,0.1,0s0.1,0,0.1,0
	c0.1,0.2,0.2,0.3,0.4,0.3c0.2,0,0.3-0.1,0.4-0.3c0,0,0,0,0.1,0c0,0,0.1,0,0.1,0c0.1,0.2,0.2,0.3,0.4,0.3
	C51.3,90.4,51.4,90.3,51.6,90.1C51.5,90.1,51.5,90.1,51.6,90.1z"/>
<rect x="51.9" y="89.6" class="st0" width="0.6" height="0.1"/>
<path class="st0" d="M50.5,89.7h-0.1c0,0,0,0,0,0c0,0,0,0,0,0L50.5,89.7C50.6,89.6,50.6,89.6,50.5,89.7
	C50.6,89.7,50.6,89.7,50.5,89.7z"/>
<path class="st0" d="M51.5,89.7h-0.2c0,0,0,0,0,0c0,0,0,0,0,0L51.5,89.7C51.5,89.6,51.5,89.6,51.5,89.7
	C51.5,89.7,51.5,89.7,51.5,89.7z M51,89.7h-0.2c0,0,0,0,0,0c0,0,0,0,0,0L51,89.7C51,89.6,51,89.6,51,89.7C51,89.7,51,89.7,51,89.7z"
	/>
<path class="st0" d="M51.9,89.7h-0.1c0,0,0,0,0,0c0,0,0,0,0,0L51.9,89.7C51.9,89.6,51.9,89.6,51.9,89.7
	C51.9,89.7,51.9,89.7,51.9,89.7z"/>
<rect x="48.9" y="89.6" class="st0" width="1.5" height="0.1"/>
<path class="st0" d="M52.4,91.2h-3.5c0,0,0,0,0,0v-0.4c0,0,0,0,0,0h3.5c0,0,0,0,0,0L52.4,91.2C52.5,91.2,52.5,91.2,52.4,91.2z
	 M49,91.1h3.4v-0.3H49V91.1z"/>
<path class="st0" d="M50.7,88.4C50.7,88.4,50.7,88.4,50.7,88.4c-0.1-0.1-0.2-0.2-0.2-0.3c0-0.2,0.2-0.3,0.2-0.3c0,0,0.1,0,0.1,0
	c0,0,0,0.1,0,0.1c0,0-0.1,0.1-0.1,0.2C50.6,88.2,50.6,88.3,50.7,88.4C50.7,88.3,50.7,88.4,50.7,88.4C50.7,88.4,50.7,88.4,50.7,88.4z
	"/>
<g>
	<g>
		<g>
			<g>
				<rect x="119.9" y="141.6" class="st0" width="0.2" height="0.2"/>
			</g>
			<g>
				<rect x="119.9" y="142" class="st0" width="0.2" height="0.2"/>
			</g>
		</g>
		<g>
			<g>
				<rect x="119.7" y="141.8" class="st0" width="0.2" height="0.2"/>
			</g>
			<g>
				<rect x="120.1" y="141.8" class="st0" width="0.2" height="0.2"/>
			</g>
		</g>
	</g>
	<g>
		<g>
			<g>
				<rect x="116.3" y="144.9" class="st0" width="0.2" height="0.2"/>
			</g>
			<g>
				<rect x="116.3" y="145.3" class="st0" width="0.2" height="0.2"/>
			</g>
		</g>
		<g>
			<g>
				<rect x="116.1" y="145.1" class="st0" width="0.2" height="0.2"/>
			</g>
			<g>
				<rect x="116.5" y="145.1" class="st0" width="0.2" height="0.2"/>
			</g>
		</g>
	</g>
	<g>
		<g>
			<g>
				<rect x="117.5" y="140.9" class="st0" width="0.1" height="0.2"/>
			</g>
			<g>
				<rect x="117.5" y="141.2" class="st0" width="0.1" height="0.2"/>
			</g>
		</g>
		<g>
			<g>
				<rect x="117.3" y="141.1" class="st0" width="0.2" height="0.1"/>
			</g>
			<g>
				<rect x="117.6" y="141.1" class="st0" width="0.2" height="0.1"/>
			</g>
		</g>
	</g>
	
		<rect x="117.5" y="143.7" transform="matrix(-1 -1.224647e-16 1.224647e-16 -1 235.3399 287.6009)" class="st0" width="0.3" height="0.3"/>
	
		<rect x="121.3" y="143.2" transform="matrix(-1 -1.224647e-16 1.224647e-16 -1 242.9503 286.7458)" class="st0" width="0.3" height="0.3"/>
	<g>
		<path class="st0" d="M122.1,147C122.1,147,122.1,147,122.1,147l-3.2-1.3c0,0,0,0-0.1-0.1c0,0,0-0.1,0-0.1l1.9-1.9c0,0,0,0,0.1,0
			c0,0,0.1,0,0.1,0.1l1.3,3.2C122.2,146.9,122.2,147,122.1,147C122.1,147,122.1,147,122.1,147z M119.1,145.7l2.9,1.1l-1.1-2.9
			L119.1,145.7z"/>
	</g>
	<g>
		<path class="st0" d="M121.1,144.6h-1c0,0-0.1,0-0.1-0.1c0,0,0-0.1,0.1-0.1h1C121.1,144.4,121.2,144.4,121.1,144.6
			C121.2,144.5,121.1,144.6,121.1,144.6z"/>
	</g>
	<g>
		<path class="st0" d="M121.3,145.1h-1.6c0,0-0.1,0-0.1-0.1c0,0,0-0.1,0.1-0.1h1.6C121.3,144.9,121.4,144.9,121.3,145.1
			C121.4,145,121.3,145.1,121.3,145.1z"/>
	</g>
	<g>
		<path class="st0" d="M121.5,145.5h-2.3c0,0-0.1,0-0.1-0.1s0-0.1,0.1-0.1h2.3C121.5,145.4,121.5,145.4,121.5,145.5
			C121.5,145.5,121.5,145.5,121.5,145.5z"/>
	</g>
	<g>
		<path class="st0" d="M121.7,146h-2.1c0,0-0.1,0-0.1-0.1s0-0.1,0.1-0.1h2.1C121.7,145.9,121.7,145.9,121.7,146
			C121.7,146,121.7,146,121.7,146z"/>
	</g>
	<g>
		<path class="st0" d="M121.9,146.5h-1.1c0,0-0.1,0-0.1-0.1s0-0.1,0.1-0.1h1.1C121.9,146.3,121.9,146.4,121.9,146.5
			C121.9,146.5,121.9,146.5,121.9,146.5z"/>
	</g>
	<g>
		<g>
			<path class="st0" d="M119.6,143.7C119.5,143.7,119.5,143.7,119.6,143.7L119.6,143.7c-0.1-0.1-0.1-0.2,0-0.2c0,0,0.1,0,0.1,0l0,0
				C119.7,143.7,119.7,143.7,119.6,143.7C119.6,143.7,119.6,143.7,119.6,143.7z"/>
		</g>
		<g>
			<path class="st0" d="M119.5,143.4C119.4,143.4,119.4,143.4,119.5,143.4l-0.2-0.3c0,0,0,0,0,0c0,0,0,0,0,0l-0.1-0.3
				c0,0,0-0.1,0-0.1c0,0,0.1,0,0.1,0l0.1,0.3c0,0,0,0,0,0c0,0,0,0,0,0l0.1,0.3C119.5,143.3,119.5,143.4,119.5,143.4
				C119.5,143.4,119.5,143.4,119.5,143.4z"/>
		</g>
		<g>
			<path class="st0" d="M119.1,142.5C119.1,142.5,119.1,142.5,119.1,142.5L119.1,142.5c-0.1-0.1-0.1-0.2,0-0.2c0,0,0.1,0,0.1,0l0,0
				C119.2,142.5,119.2,142.5,119.1,142.5C119.1,142.5,119.1,142.5,119.1,142.5z M119,142.2C119,142.2,118.9,142.2,119,142.2
				l-0.2-0.3c0,0,0,0,0,0c0,0,0,0,0,0l-0.1-0.3c0,0,0-0.1,0-0.1c0,0,0.1,0,0.1,0l0.1,0.3c0,0,0,0,0,0c0,0,0,0,0,0l0.1,0.3
				C119.1,142.1,119.1,142.2,119,142.2C119,142.2,119,142.2,119,142.2z"/>
		</g>
		<g>
			<path class="st0" d="M118.7,141.3C118.6,141.3,118.6,141.3,118.7,141.3L118.7,141.3c-0.1-0.1-0.1-0.2,0-0.2c0,0,0.1,0,0.1,0l0,0
				C118.8,141.3,118.7,141.3,118.7,141.3C118.7,141.3,118.7,141.3,118.7,141.3z"/>
		</g>
	</g>
	<g>
		<path class="st0" d="M119.1,144.2C119.1,144.2,119.1,144.2,119.1,144.2L119.1,144.2c-0.1-0.1-0.1-0.1-0.1-0.2c0,0,0.1,0,0.1,0l0,0
			C119.2,144.1,119.2,144.2,119.1,144.2C119.2,144.2,119.2,144.2,119.1,144.2z M118.8,143.9C118.8,143.9,118.8,143.9,118.8,143.9
			l-0.3-0.2c0,0,0,0,0,0c0,0,0,0,0,0l-0.3-0.3c0,0,0-0.1,0-0.1c0,0,0.1,0,0.1,0l0.3,0.3c0,0,0,0,0,0c0,0,0,0,0,0l0.2,0.2
			C118.9,143.8,118.9,143.9,118.8,143.9C118.9,143.9,118.8,143.9,118.8,143.9z M118,143.2C118,143.2,118,143.2,118,143.2L118,143.2
			c-0.1-0.1-0.1-0.1-0.1-0.2c0,0,0.1,0,0.1,0l0,0C118.1,143,118.1,143.1,118,143.2C118.1,143.2,118.1,143.2,118,143.2z M117.7,142.9
			C117.7,142.9,117.7,142.8,117.7,142.9l-0.3-0.2c0,0,0,0,0,0c0,0,0,0,0,0l-0.3-0.3c0,0,0-0.1,0-0.1c0,0,0.1,0,0.1,0l0.3,0.3
			c0,0,0,0,0,0c0,0,0,0,0,0l0.2,0.2C117.8,142.7,117.8,142.8,117.7,142.9C117.8,142.8,117.7,142.9,117.7,142.9z M116.9,142.1
			C116.9,142.1,116.9,142.1,116.9,142.1L116.9,142.1c-0.1-0.1-0.1-0.1-0.1-0.2c0,0,0.1,0,0.1,0l0,0C117,142,117,142,116.9,142.1
			C117,142.1,117,142.1,116.9,142.1z M116.6,141.8C116.6,141.8,116.6,141.8,116.6,141.8l-0.2-0.1c0,0,0-0.1,0-0.1c0,0,0.1,0,0.1,0
			l0.1,0.1C116.7,141.7,116.7,141.7,116.6,141.8C116.7,141.8,116.6,141.8,116.6,141.8z"/>
	</g>
	<g>
		<path class="st0" d="M118.8,144.8C118.8,144.8,118.8,144.8,118.8,144.8L118.8,144.8c-0.1,0-0.1,0-0.1-0.1s0-0.1,0.1-0.1l0,0
			C118.8,144.6,118.9,144.6,118.8,144.8C118.9,144.7,118.8,144.8,118.8,144.8z M118.3,144.7C118.3,144.7,118.3,144.7,118.3,144.7
			l-0.3,0c0,0,0,0,0,0c0,0,0,0,0,0l-0.4,0c0,0-0.1,0-0.1-0.1c0,0,0-0.1,0.1-0.1l0.4,0c0,0,0,0,0,0c0,0,0,0,0,0l0.3,0
			C118.4,144.6,118.4,144.6,118.3,144.7C118.4,144.7,118.4,144.7,118.3,144.7z M117.2,144.6C117.2,144.6,117.2,144.6,117.2,144.6
			L117.2,144.6c-0.1,0-0.1,0-0.1-0.1s0-0.1,0.1-0.1l0,0C117.3,144.4,117.3,144.5,117.2,144.6C117.3,144.6,117.3,144.6,117.2,144.6z
			 M116.8,144.6C116.8,144.6,116.8,144.6,116.8,144.6L116.8,144.6c-0.1,0-0.1-0.1-0.1-0.1c0,0,0-0.1,0.1-0.1l0,0
			C116.8,144.4,116.9,144.4,116.8,144.6C116.9,144.5,116.8,144.6,116.8,144.6z"/>
	</g>
	<g>
		<path class="st0" d="M117.1,145.9C117.1,145.9,117.1,145.9,117.1,145.9c-0.1,0-0.1-0.1-0.1-0.1c0,0,0,0,0,0c0,0,0.1-0.1,0.1,0
			C117.2,145.7,117.2,145.8,117.1,145.9C117.2,145.8,117.2,145.8,117.1,145.9C117.2,145.9,117.2,145.9,117.1,145.9z M117.3,145.6
			C117.3,145.6,117.3,145.6,117.3,145.6c-0.1-0.1-0.1-0.1-0.1-0.1c0.1-0.1,0.2-0.2,0.4-0.2c0,0,0,0,0,0c0,0,0,0,0,0
			c0.1,0,0.2-0.1,0.3-0.1c0,0,0.1,0,0.1,0.1c0,0,0,0.1-0.1,0.1c-0.1,0-0.2,0-0.3,0.1c0,0,0,0,0,0c0,0,0,0,0,0
			C117.6,145.4,117.5,145.5,117.3,145.6C117.4,145.6,117.4,145.6,117.3,145.6z M118.5,145.3C118.5,145.3,118.5,145.3,118.5,145.3
			C118.5,145.3,118.4,145.3,118.5,145.3c-0.1,0-0.1-0.1-0.1-0.1c0,0,0.1-0.1,0.1-0.1c0,0,0,0,0,0
			C118.5,145.2,118.6,145.2,118.5,145.3C118.5,145.3,118.5,145.3,118.5,145.3z"/>
	</g>
	<g>
		<path class="st0" d="M120.3,143.5C120.3,143.5,120.2,143.4,120.3,143.5C120.2,143.4,120.2,143.4,120.3,143.5
			c-0.1-0.1-0.1-0.2,0-0.2c0,0,0.1,0,0.1,0.1c0,0,0,0,0,0C120.4,143.4,120.4,143.5,120.3,143.5C120.3,143.5,120.3,143.5,120.3,143.5
			z M120.3,143C120.3,143,120.3,143,120.3,143c-0.1,0-0.1-0.1-0.1-0.1c0-0.1,0.1-0.2,0.1-0.3c0,0,0,0,0,0c0,0,0,0,0,0
			c0.1-0.1,0.2-0.2,0.3-0.3c0,0,0.1,0,0.1,0c0,0,0,0.1,0,0.1c-0.1,0.1-0.2,0.2-0.3,0.3c0,0,0,0,0,0c0,0,0,0,0,0
			C120.5,142.8,120.4,142.9,120.3,143C120.4,143,120.4,143,120.3,143z M121,142.3C121,142.3,121,142.2,121,142.3
			c-0.1-0.1-0.1-0.2,0-0.2c0,0,0,0,0,0c0,0,0.1,0,0.1,0.1C121.2,142.2,121.1,142.2,121,142.3C121.1,142.3,121.1,142.3,121,142.3
			C121.1,142.3,121,142.3,121,142.3z"/>
	</g>
</g>
<path class="st0" d="M52.7,142.5l0.8-0.4c0,0,0,0,0.1-0.1c0,0,0-0.1,0-0.1l-0.3-0.6c0,0,0-0.1-0.1-0.1l-1.3-0.3c0,0-0.1,0-0.1,0
	l-0.5,0.4c0,0-0.1,0.1-0.1,0.1c0,0,0,0.1,0,0.1l0.5,0.7c-0.7,0-1.4,0.3-1.8,0.9c-1.1-0.2-2.2,0.4-2.5,1.5c-0.1,0.5-0.1,1.1,0.2,1.6
	c0.3,0.5,0.8,0.8,1.3,1c0.2,0,0.4,0.1,0.5,0.1c0.7,0,1.4-0.3,1.8-0.9c0.2,0,0.3,0.1,0.5,0.1c0.9,0,1.8-0.6,2.1-1.6l0,0
	C54,144,53.5,143,52.7,142.5z M51.9,141.7l0.1,0.5l-0.4-0.6L51.9,141.7z M53.1,142l-0.6,0.3l0.3-0.4L53.1,142z M52.5,141.9l-0.3,0.4
	c0,0,0,0,0,0c0,0,0,0,0,0l-0.1-0.5L52.5,141.9z M52.2,141.6l0.2-0.3l0.3,0.1l0,0.3L52.2,141.6z M53.2,141.8l-0.4-0.1l0-0.3l0.2,0.1
	L53.2,141.8z M51.8,141.2l0.2,0.1l-0.2,0.3l-0.4-0.1L51.8,141.2z M50.6,146.2c-0.4,0.4-0.9,0.6-1.5,0.5c-0.8-0.2-1.2-1-1-1.8
	c0.2-0.7,0.9-1.2,1.6-1.1c0,0,0,0,0,0C49.4,144.8,49.8,145.7,50.6,146.2z M49,147.1c-0.5-0.1-0.9-0.4-1.2-0.9
	c-0.3-0.4-0.3-0.9-0.2-1.4c0.2-1,1.2-1.6,2.2-1.4c0,0.1-0.1,0.1-0.1,0.2c-0.8-0.1-1.7,0.4-1.9,1.2c-0.2,0.9,0.3,1.8,1.2,2
	c0.1,0,0.3,0.1,0.4,0.1c0.5,0,1-0.2,1.3-0.7l0,0l0.1-0.1c0,0,0,0,0,0c0.1-0.1,0.1-0.2,0.2-0.3c0,0,0-0.1,0-0.1c0,0,0-0.1,0-0.1
	c0,0,0-0.1,0-0.1c0,0,0,0,0,0c0,0,0-0.1,0-0.1c0,0,0,0,0-0.1c0,0,0-0.1,0-0.1c0,0,0,0,0-0.1c0,0,0-0.1,0-0.1c0,0,0,0,0-0.1
	c0,0,0-0.1,0-0.1c0,0,0,0,0-0.1c0,0,0,0,0-0.1c0,0,0,0,0-0.1c0,0,0,0,0-0.1c0,0,0,0,0-0.1c0,0,0,0,0-0.1c0,0,0,0,0-0.1
	c0,0,0,0,0-0.1c0,0,0,0,0-0.1c0,0,0,0,0-0.1c0,0,0,0,0-0.1c0,0,0,0,0-0.1c0,0,0,0,0,0c0,0,0,0,0-0.1c0,0,0,0,0,0c0,0,0,0-0.1-0.1
	c0,0,0,0,0,0c0,0,0,0-0.1,0c0,0,0,0,0,0c0,0,0,0-0.1,0c0,0,0,0-0.1,0c0,0,0,0,0,0c0,0,0,0,0,0c0,0,0,0,0-0.1c0,0,0,0,0,0
	c0,0,0,0,0-0.1c0,0,0,0,0,0c0,0,0,0,0,0c0,0,0,0,0.1,0c0,0,0,0,0.1,0c0,0,0,0,0.1,0c0,0,0,0,0.1,0.1c0,0,0,0,0.1,0c0,0,0,0,0.1,0.1
	c0,0,0,0,0,0.1c0,0,0,0,0.1,0.1c0,0,0,0,0,0.1c0,0,0,0,0,0.1c0,0,0,0,0,0.1c0,0,0,0,0,0.1c0,0,0,0,0,0.1c0,0,0,0,0,0.1
	c0,0,0,0,0,0.1c0,0,0,0.1,0,0.1c0,0,0,0,0,0.1c0,0,0,0.1,0,0.1c0,0,0,0,0,0.1c0,0,0,0.1,0,0.1c0,0,0,0,0,0.1c0,0,0,0.1,0,0.1
	c0,0,0,0,0,0.1c0,0,0,0.1,0,0.1c0,0,0,0,0,0.1c0,0,0,0.1,0,0.1c0,0,0,0,0,0.1c0,0,0,0.1,0,0.1c0,0,0,0,0,0.1c0,0.1,0,0.1,0,0.2
	c0,0,0,0.1,0,0.1c0,0.1-0.1,0.2-0.1,0.2c0,0,0,0.1-0.1,0.1C50.6,147,49.8,147.3,49,147.1z M50.5,143.5c0.4-0.4,0.9-0.6,1.5-0.5
	c0.4,0.1,0.7,0.3,0.9,0.7c0.2,0.3,0.3,0.7,0.2,1.1c-0.2,0.7-0.9,1.2-1.6,1.1c0,0,0,0,0,0C51.7,144.9,51.3,144,50.5,143.5z
	 M50.3,144.1c0.5,0.3,0.7,0.9,0.6,1.5C50.4,145.3,50.1,144.7,50.3,144.1z M53.5,144.9c-0.1,0.5-0.4,0.9-0.9,1.2
	c-0.4,0.2-0.9,0.3-1.3,0.2c0,0,0,0,0,0c0,0,0,0,0,0c0,0,0-0.1,0-0.1c0.1,0,0.2,0,0.3,0c0.8,0,1.4-0.5,1.6-1.3c0.1-0.4,0-0.9-0.2-1.3
	c-0.2-0.4-0.6-0.7-1-0.8c-0.6-0.2-1.3,0.1-1.7,0.6l0,0l-0.1,0.1c0,0,0,0,0,0c-0.1,0.1-0.2,0.3-0.2,0.4c0,0,0,0,0,0c0,0,0,0,0,0
	l0,0.1l0,0c0,0,0,0,0,0c-0.2,0.7,0.1,1.5,0.7,1.8c0,0,0,0,0,0c0,0,0,0,0,0c0,0,0,0.1-0.1,0.1c0,0,0,0,0,0c-0.7-0.4-1.1-1.3-0.9-2.1
	c0,0,0-0.1,0-0.1c0-0.1,0.1-0.3,0.2-0.4c0.4-0.6,1.1-1,1.9-0.9c0,0,0.1,0,0.1,0c0,0,0.1,0,0.1,0c0,0,0.1,0,0.1,0c0,0,0.1,0,0.1,0
	C53.2,143,53.7,143.9,53.5,144.9z"/>
<g>
	<g>
		<g>
			<g>
				<path class="st0" d="M188.4,145.9c-0.1,0-0.3,0-0.4-0.1c-0.6-0.2-0.8-0.9-0.7-1.5c0.2-0.6,0.8-1.3,0.9-1.3l0-0.1l1.4,0.6l0,0.1
					c0,0,0,1-0.2,1.6C189.2,145.6,188.8,145.9,188.4,145.9z M188.3,143.3c-0.2,0.2-0.6,0.7-0.8,1.2c-0.1,0.4,0,1,0.5,1.2
					c0.5,0.2,1-0.1,1.2-0.5c0.2-0.4,0.2-1.2,0.2-1.4L188.3,143.3z"/>
			</g>
			<g>
				
					<rect x="187" y="146.3" transform="matrix(0.3593 -0.9332 0.9332 0.3593 -16.3736 269.0513)" class="st0" width="1.5" height="0.2"/>
			</g>
			<g>
				<path class="st0" d="M188.1,147.5C188.1,147.5,188.1,147.5,188.1,147.5l-1.3-0.5c-0.1,0-0.1-0.1-0.1-0.1c0-0.1,0.1-0.1,0.1-0.1
					l1.2,0.5c0.1,0,0.1,0.1,0.1,0.1C188.2,147.5,188.2,147.5,188.1,147.5z"/>
			</g>
		</g>
		<g>
			<rect x="187.6" y="143.9" class="st0" width="2" height="0.2"/>
		</g>
		<g>
			<path class="st0" d="M188,144.8c-0.1,0-0.2-0.1-0.2-0.2s0.1-0.2,0.2-0.2s0.2,0.1,0.2,0.2S188.1,144.8,188,144.8z M188,144.5
				C188,144.5,188,144.5,188,144.5c-0.1,0.1,0,0.1,0,0.1C188,144.6,188.1,144.6,188,144.5C188.1,144.5,188,144.5,188,144.5z"/>
		</g>
		<g>
			<path class="st0" d="M188.5,145.4c-0.1,0-0.2-0.1-0.2-0.2s0.1-0.2,0.2-0.2s0.2,0.1,0.2,0.2S188.6,145.4,188.5,145.4z
				 M188.5,145.1C188.4,145.1,188.4,145.2,188.5,145.1c-0.1,0.1,0,0.1,0,0.1S188.5,145.2,188.5,145.1
				C188.5,145.2,188.5,145.1,188.5,145.1z"/>
		</g>
		<g>
			<path class="st0" d="M188.9,144.7c-0.1,0-0.2-0.1-0.2-0.2c0-0.1,0.1-0.2,0.2-0.2c0.1,0,0.2,0.1,0.2,0.2
				C189.1,144.6,189,144.7,188.9,144.7z M188.9,144.5C188.9,144.5,188.9,144.5,188.9,144.5c-0.1,0.1,0,0.1,0,0.1
				C189,144.6,189,144.5,188.9,144.5C189,144.5,189,144.5,188.9,144.5z"/>
		</g>
	</g>
	<g>
		<g>
			<g>
				<path class="st0" d="M191.3,145c-0.4,0-0.7-0.2-1-0.5c-0.4-0.5-0.6-1.4-0.6-1.5l0-0.1l1.2-0.9l0.1,0c0,0,0.9,0.5,1.2,1.1
					c0.3,0.5,0.3,1.2-0.3,1.6C191.8,145,191.5,145,191.3,145z M190,143.1c0.1,0.2,0.2,0.9,0.6,1.3c0.3,0.3,0.9,0.5,1.3,0.2
					c0.4-0.3,0.4-0.9,0.2-1.3c-0.2-0.4-0.8-0.8-1-0.9L190,143.1z"/>
			</g>
			<g>
				
					<rect x="192.2" y="144.6" transform="matrix(0.8104 -0.5859 0.5859 0.8104 -48.6764 140.2217)" class="st0" width="0.2" height="1.5"/>
			</g>
			<g>
				<path class="st0" d="M192.2,146.4C192.2,146.4,192.1,146.4,192.2,146.4c-0.1-0.1-0.1-0.2-0.1-0.2l1.1-0.8c0,0,0.1,0,0.2,0
					c0,0,0,0.1,0,0.2L192.2,146.4C192.2,146.4,192.2,146.4,192.2,146.4z"/>
			</g>
		</g>
		<g>
			
				<rect x="189.9" y="143.1" transform="matrix(0.9668 -0.2556 0.2556 0.9668 -30.2664 53.5565)" class="st0" width="2" height="0.2"/>
		</g>
		<g>
			<path class="st0" d="M191.6,143.8c0,0-0.1,0-0.1,0c-0.1,0-0.1-0.1-0.1-0.1l0,0c0-0.1,0-0.2,0.2-0.3c0.1,0,0.2,0,0.3,0.2
				C191.8,143.6,191.7,143.7,191.6,143.8C191.6,143.8,191.6,143.8,191.6,143.8z M191.6,143.5C191.6,143.5,191.6,143.5,191.6,143.5
				C191.5,143.5,191.5,143.5,191.6,143.5L191.6,143.5c0,0.1,0,0.1,0,0.1c0,0,0,0,0,0C191.6,143.6,191.6,143.6,191.6,143.5
				C191.6,143.5,191.6,143.5,191.6,143.5z"/>
		</g>
		<g>
			<path class="st0" d="M191.3,144.5c0,0-0.1,0-0.1,0c-0.1,0-0.1-0.1-0.1-0.1s0-0.1,0-0.2c0-0.1,0.1-0.1,0.1-0.1c0.1,0,0.1,0,0.2,0
				c0.1,0,0.1,0.1,0.1,0.1c0,0.1,0,0.1,0,0.2C191.5,144.4,191.4,144.5,191.3,144.5C191.4,144.5,191.3,144.5,191.3,144.5z
				 M191.3,144.2C191.3,144.2,191.3,144.2,191.3,144.2C191.3,144.2,191.3,144.2,191.3,144.2C191.3,144.3,191.3,144.3,191.3,144.2
				L191.3,144.2c0,0.1,0,0.1,0,0.1c0,0,0,0,0,0C191.3,144.3,191.4,144.3,191.3,144.2C191.4,144.3,191.4,144.3,191.3,144.2
				C191.4,144.3,191.4,144.2,191.3,144.2C191.3,144.2,191.3,144.2,191.3,144.2z"/>
		</g>
		<g>
			<path class="st0" d="M190.7,143.9c-0.1,0-0.1-0.1-0.2-0.1c0,0,0-0.1,0-0.1c0,0,0.1-0.1,0.1-0.1c0,0,0.1,0,0.1,0
				c0,0,0.1,0.1,0.1,0.1c0,0,0,0.1,0,0.1C190.8,143.9,190.8,143.9,190.7,143.9C190.7,143.9,190.7,143.9,190.7,143.9z M190.7,143.7
				C190.7,143.7,190.7,143.7,190.7,143.7C190.7,143.7,190.6,143.7,190.7,143.7C190.6,143.7,190.6,143.7,190.7,143.7
				c0,0.1,0,0.1,0,0.1C190.7,143.8,190.7,143.8,190.7,143.7C190.7,143.8,190.7,143.7,190.7,143.7
				C190.7,143.7,190.7,143.7,190.7,143.7C190.7,143.7,190.7,143.7,190.7,143.7z"/>
		</g>
	</g>
	<g>
		<path class="st0" d="M188.9,142.8C188.9,142.8,188.9,142.8,188.9,142.8C188.8,142.7,188.8,142.7,188.9,142.8
			c-0.1-0.1-0.1-0.2-0.1-0.2c0,0,0.1,0,0.1,0c0,0,0,0,0,0C189,142.7,189,142.7,188.9,142.8C189,142.8,188.9,142.8,188.9,142.8z
			 M188.6,142.4C188.6,142.4,188.5,142.4,188.6,142.4c-0.2-0.1-0.3-0.2-0.3-0.2c0,0,0,0,0,0c0,0,0,0,0,0c-0.1,0-0.1-0.1-0.2-0.1
			c-0.1,0-0.1-0.1-0.1-0.1c0-0.1,0.1-0.1,0.1-0.1c0.1,0,0.2,0,0.3,0.1c0,0,0,0,0,0c0,0,0,0,0,0c0.1,0.1,0.2,0.1,0.3,0.2
			C188.7,142.3,188.7,142.3,188.6,142.4C188.6,142.4,188.6,142.4,188.6,142.4z"/>
	</g>
	<g>
		<path class="st0" d="M189.3,142.5C189.3,142.5,189.2,142.5,189.3,142.5c-0.1-0.3-0.3-1-0.5-1.2c0,0,0-0.1,0-0.1c0,0,0.1,0,0.1,0
			c0.3,0.3,0.4,1.1,0.4,1.2C189.4,142.5,189.4,142.5,189.3,142.5C189.3,142.5,189.3,142.5,189.3,142.5z"/>
	</g>
	<g>
		<path class="st0" d="M189.8,142.4C189.8,142.4,189.8,142.3,189.8,142.4c-0.1-0.1-0.1-0.5,0.5-1c0,0,0.1,0,0.1,0c0,0,0,0.1,0,0.1
			c-0.5,0.4-0.5,0.7-0.5,0.7C189.9,142.3,189.9,142.4,189.8,142.4C189.8,142.4,189.8,142.4,189.8,142.4z"/>
	</g>
	<rect x="189.2" y="142.8" class="st0" width="0.3" height="0.3"/>
	<rect x="188.3" y="141.5" class="st0" width="0.3" height="0.3"/>
	<rect x="190.9" y="141" class="st0" width="0.3" height="0.3"/>
</g>
<g>
	<path class="st0" d="M156.1,200.3c0,0.1-0.1,0.2-0.1,0.4c-0.1,0.1-0.2,0.2-0.3,0.3c-0.2,0.1-0.5,0.1-0.7,0.1
		c-0.1,0-0.2-0.1-0.4-0.1c-0.1-0.1-0.2-0.1-0.3-0.2c-0.2-0.2-0.3-0.4-0.3-0.7c-0.1-0.5-0.1-1-0.1-1.5c0-0.5,0-1,0-1.4l0.1,0l0,0
		c0,0.1-0.1,0.3-0.1,0.4c-0.1,0.1-0.1,0.2-0.2,0.4c0,0-0.1,0-0.1,0l0,0l0,0c-0.2-0.2-0.3-0.4-0.4-0.6c0-0.2,0-0.5,0-0.7
		c0-0.2,0-0.5-0.1-0.7c0-0.1,0-0.2,0-0.3c0-0.1,0-0.2-0.1-0.3l0,0c0,0,0-0.1,0-0.1c0,0,0,0,0,0l0,0c0.3-0.1,0.6-0.1,0.9-0.1
		c0.3,0,0.6,0,0.9,0c0.3,0,0.6,0,0.9,0.1c0.3,0,0.6,0.1,0.9,0.2c0,0,0.1,0.1,0.1,0.1c0,0,0,0,0,0l0,0l0,0c-0.1,0.1-0.1,0.2-0.1,0.3
		c0,0.1-0.1,0.2-0.1,0.3c0,0.1,0,0.1,0,0.2l0,0.2c0,0.1,0,0.2,0,0.3c0,0.2,0,0.5-0.1,0.7c0,0.1-0.1,0.2-0.1,0.3
		c-0.1,0.1-0.2,0.2-0.3,0.2l0,0c0,0-0.1,0-0.1,0l0,0c-0.1-0.1-0.1-0.1-0.2-0.2c0-0.1-0.1-0.2-0.1-0.2c-0.1-0.2-0.1-0.3-0.1-0.5v0
		l0.1,0c0,0.1,0,0.2,0,0.3l0,0.3c0,0.2,0,0.4,0,0.6c0,0.4,0,0.8,0,1.2c0,0.2,0,0.4,0.1,0.6c0,0.1,0.1,0.2,0.1,0.3
		c0.1,0.1,0.2,0.1,0.2,0c0.1,0,0.1-0.1,0.1-0.2c0-0.1,0-0.2,0-0.3c0-0.1,0-0.2-0.1-0.3c0-0.1-0.1-0.2-0.1-0.3l0,0l0,0c0,0,0,0,0,0
		c0,0,0,0,0,0c0.1,0,0.2,0,0.2,0.1c0.1,0,0.1,0.1,0.2,0.2l0,0l-0.1,0c0.1-0.1,0.1-0.1,0.2-0.1c0.1,0,0.1-0.1,0.2-0.1
		c0.1,0,0.2,0,0.2,0c0.1,0,0.1,0.1,0.2,0.1l0,0c0,0,0,0,0,0c0,0,0,0,0,0l0,0c-0.1,0-0.1,0-0.2,0c-0.1,0-0.1,0.1-0.1,0.1
		c-0.1,0.1-0.1,0.2-0.1,0.3C156.2,199.8,156.1,200,156.1,200.3z M156,200.3c0-0.2,0.1-0.5,0.2-0.7c0-0.1,0.1-0.2,0.2-0.3
		c0-0.1,0.1-0.1,0.1-0.1c0.1,0,0.1,0,0.2,0l0,0l0,0c-0.1,0-0.1-0.1-0.2-0.1c-0.1,0-0.1,0-0.2,0c-0.1,0-0.3,0.1-0.3,0.2c0,0,0,0,0,0
		c0,0,0,0,0,0l0,0l0,0c0-0.1-0.1-0.1-0.1-0.2c-0.1,0-0.1-0.1-0.2-0.1l0,0l0,0c0.1,0.1,0.1,0.2,0.1,0.3c0,0.1,0.1,0.2,0.1,0.3
		c0,0.1,0,0.2,0,0.3c0,0.1,0,0.2-0.1,0.3c0,0-0.1,0-0.2,0c-0.1,0-0.1,0-0.2-0.1c-0.1-0.1-0.1-0.2-0.1-0.3c-0.1-0.2-0.1-0.4-0.1-0.6
		c0-0.4,0-0.8,0-1.2c0-0.4,0.1-0.8,0.2-1.2c0,0,0,0,0,0c0,0,0,0,0,0l0,0v0c0,0.2,0.1,0.3,0.1,0.5c0,0.1,0.1,0.1,0.1,0.2
		c0.1,0.1,0.1,0.1,0.2,0.2l0,0l-0.1,0c0.2,0,0.3-0.3,0.3-0.5c0.1-0.2,0.1-0.4,0.1-0.7c0-0.1,0-0.2,0-0.3l0-0.2c0-0.1,0-0.1,0-0.2
		c0-0.1,0-0.2,0.1-0.4c0-0.1,0.1-0.2,0.2-0.3l0,0l0,0.2c-0.3-0.1-0.5-0.2-0.8-0.2c-0.3,0-0.6-0.1-0.9-0.1c-0.3,0-0.6,0-0.9,0
		c-0.3,0-0.6,0.1-0.9,0.1l0,0l0-0.1c0.1,0.1,0.1,0.2,0.1,0.4c0,0.1,0,0.2,0,0.4c0,0.2,0,0.5,0.1,0.7c0,0.2,0,0.5,0,0.7
		c0,0.2,0.2,0.4,0.3,0.6l0,0l-0.1,0c0.2-0.2,0.3-0.4,0.4-0.7l0,0c0,0,0,0,0,0c0,0,0,0,0,0l0,0c0.1,0.5,0.1,1,0.1,1.5
		c0,0.5,0,1,0.1,1.4c0.1,0.2,0.1,0.5,0.3,0.6c0.1,0.1,0.2,0.2,0.3,0.2c0.1,0.1,0.2,0.1,0.3,0.1c0.2,0,0.5,0,0.7-0.1
		c0.1-0.1,0.2-0.1,0.3-0.2C156,200.5,156,200.4,156,200.3z"/>
	<path class="st0" d="M153,195.3c0.3-0.1,0.5-0.1,0.8-0.1c0.3,0,0.5,0,0.8,0c0.3,0,0.5,0,0.8,0.1c0.3,0,0.5,0.1,0.8,0.2l0,0.1
		c-0.3-0.1-0.5-0.1-0.8-0.2c-0.3,0-0.5,0-0.8,0c-0.3,0-0.5,0-0.8,0C153.6,195.3,153.3,195.3,153,195.3L153,195.3z"/>
	<g>
		<path class="st0" d="M156.2,195.6c0-0.2,0.1-0.4,0.3-0.6c0.2-0.1,0.4-0.2,0.6-0.2c0.2,0,0.4,0,0.6,0c0.1,0,0.2,0,0.3,0
			c0.1,0,0.2,0,0.3-0.1l0,0c0,0,0.1,0,0.1,0c0,0,0,0.1,0,0.1c-0.1,0.1-0.2,0.3-0.3,0.5c0,0.1,0,0.2,0,0.3c0,0.1,0,0.2,0,0.3
			c0,0.4-0.1,0.8-0.2,1.2c-0.1,0.2-0.1,0.4-0.3,0.6c-0.1,0.1-0.2,0.2-0.3,0.2c-0.1,0-0.2,0.1-0.3,0.1c-0.2,0-0.4-0.1-0.6-0.2
			c-0.2-0.1-0.3-0.3-0.4-0.5l0,0c0.1,0.2,0.3,0.3,0.4,0.5c0.2,0.1,0.4,0.2,0.6,0.2c0.1,0,0.2,0,0.3-0.1c0.1,0,0.2-0.1,0.2-0.2
			c0.1-0.2,0.2-0.4,0.3-0.5c0.1-0.4,0.2-0.8,0.2-1.2c0-0.1,0-0.2,0-0.3c0-0.1,0-0.2,0-0.3c0-0.2,0.1-0.4,0.3-0.6l0.1,0.1
			c-0.1,0.1-0.2,0.1-0.3,0.1c-0.1,0-0.2,0-0.3,0.1c-0.2,0-0.4,0-0.6,0c-0.2,0-0.4,0-0.6,0.1C156.4,195.3,156.3,195.4,156.2,195.6
			L156.2,195.6z"/>
		<path class="st0" d="M156.1,195.8c0.1-0.1,0.2-0.2,0.3-0.3c0.1-0.1,0.2-0.1,0.3-0.2c0.1,0,0.3-0.1,0.4-0.1l0.2,0l0.2,0l0,0
			c0,0,0.1,0,0.1,0.1l0,0c0,0.3,0,0.7-0.1,1c0,0.2,0,0.3-0.1,0.5c0,0.2-0.1,0.3-0.1,0.5c0,0,0,0,0,0c0,0,0,0,0,0
			c0-0.2,0.1-0.3,0.1-0.5c0-0.2,0-0.3,0-0.5c0-0.3,0-0.6,0-1l0.1,0.1l0,0l-0.2,0l-0.2,0c-0.1,0-0.2,0-0.4,0.1
			c-0.1,0-0.2,0.1-0.3,0.1C156.3,195.7,156.2,195.7,156.1,195.8L156.1,195.8C156.2,195.9,156.1,195.9,156.1,195.8
			C156.1,195.8,156.1,195.8,156.1,195.8z"/>
		<path class="st0" d="M157.4,195.7c0,0.1-0.1,0.2-0.2,0.2c-0.1,0-0.2-0.1-0.2-0.2c0-0.1,0.1-0.2,0.2-0.2
			C157.3,195.5,157.4,195.6,157.4,195.7z M157.3,195.7c0-0.1,0-0.1-0.1-0.1c-0.1,0-0.1,0.1-0.1,0.1c0,0.1,0.1,0.1,0.1,0.1
			C157.3,195.8,157.3,195.7,157.3,195.7z"/>
		<path class="st0" d="M157.4,196c0,0.1-0.1,0.2-0.2,0.2c-0.1,0-0.2-0.1-0.1-0.2c0-0.1,0.1-0.1,0.2-0.1
			C157.3,195.9,157.4,195.9,157.4,196z M157.3,196c0,0,0-0.1-0.1-0.1c-0.1,0-0.1,0-0.1,0.1C157.1,196.1,157.2,196.1,157.3,196
			C157.3,196.1,157.3,196.1,157.3,196z"/>
		<path class="st0" d="M157.3,196.4c0,0.1-0.1,0.1-0.1,0.1c-0.1,0-0.1-0.1-0.1-0.1c0-0.1,0.1-0.1,0.1-0.1
			C157.3,196.2,157.3,196.3,157.3,196.4z M157.3,196.4c0-0.1,0-0.1-0.1-0.1c-0.1,0-0.1,0-0.1,0.1
			C157.1,196.4,157.2,196.4,157.3,196.4C157.3,196.4,157.3,196.4,157.3,196.4z"/>
		<path class="st0" d="M157.3,196.6C157.3,196.7,157.2,196.7,157.3,196.6c-0.1,0.1-0.2,0-0.2,0C157.1,196.6,157.2,196.5,157.3,196.6
			C157.2,196.5,157.3,196.6,157.3,196.6z M157.3,196.6C157.3,196.6,157.2,196.6,157.3,196.6c-0.1-0.1-0.1,0-0.1,0
			C157.1,196.7,157.2,196.7,157.3,196.6C157.2,196.7,157.3,196.7,157.3,196.6z"/>
		<path class="st0" d="M157.3,196.9C157.3,196.9,157.2,196.9,157.3,196.9c-0.1,0.1-0.1,0-0.1,0C157.1,196.8,157.2,196.8,157.3,196.9
			C157.2,196.8,157.3,196.8,157.3,196.9z M157.2,196.9C157.2,196.8,157.2,196.8,157.2,196.9C157.2,196.8,157.1,196.8,157.2,196.9
			C157.1,196.9,157.2,196.9,157.2,196.9C157.2,196.9,157.2,196.9,157.2,196.9z"/>
		<path class="st0" d="M158.1,195.2c0.1-0.1,0.2-0.1,0.3-0.1c0,0,0.1,0,0.1,0.1c0,0,0,0.1,0,0.1c0,0.1-0.1,0.2-0.2,0.2
			c-0.1,0-0.2,0-0.3,0c0,0,0,0,0,0c0,0,0,0,0,0c0.1,0,0.2,0,0.2,0c0,0,0.1,0,0.1,0.1c0,0,0.1,0.1,0.1,0.1c0,0.1,0,0.1-0.1,0.1
			c0,0-0.1,0.1-0.1,0.1c-0.1,0-0.2,0-0.3,0c0,0,0,0,0-0.1c0,0,0,0,0.1,0l0,0c0.1,0,0.2,0,0.2,0.1c0,0,0.1,0,0.1,0.1
			c0,0,0.1,0.1,0,0.2c0,0.1-0.1,0.2-0.2,0.2c-0.1,0-0.2,0-0.3,0l0-0.1c0.1,0,0.3,0.1,0.4,0.2c0,0.1,0.1,0.1,0,0.2
			c0,0.1,0,0.1-0.1,0.2c-0.1,0.1-0.2,0.2-0.3,0.3c-0.1,0.1-0.2,0.1-0.3,0.3l0,0c0,0,0,0,0,0c0,0,0,0,0,0c0.1-0.1,0.2-0.2,0.3-0.3
			c0.1-0.1,0.2-0.2,0.3-0.3c0.1-0.1,0.1-0.2,0-0.3c-0.1-0.1-0.2-0.1-0.3-0.2c0,0,0,0,0-0.1c0,0,0,0,0,0c0.1,0,0.2,0,0.2,0
			c0.1,0,0.1-0.1,0.1-0.1c0,0,0-0.1-0.1-0.1c-0.1,0-0.1,0-0.2,0l0-0.1c0.1,0,0.1,0,0.2,0c0.1,0,0.1-0.1,0.1-0.1c0-0.1,0-0.1-0.1-0.1
			c-0.1,0-0.1,0-0.2,0l0-0.1c0.1,0,0.2,0,0.2,0c0.1,0,0.1-0.1,0.1-0.1c0-0.1,0-0.1-0.1-0.1C158.2,195.2,158.2,195.2,158.1,195.2
			L158.1,195.2C158.1,195.2,158.1,195.2,158.1,195.2C158.1,195.2,158.1,195.2,158.1,195.2z"/>
	</g>
	<g>
		<path class="st0" d="M153,195.4c-0.1-0.2-0.2-0.3-0.4-0.4c-0.2-0.1-0.3-0.1-0.5-0.1c-0.2,0-0.4,0-0.6,0c-0.1,0-0.2,0-0.3-0.1
			c-0.1,0-0.2-0.1-0.3-0.1l0.1-0.1c0.2,0.2,0.3,0.4,0.3,0.6c0,0.1,0,0.2,0,0.3c0,0.1,0,0.2,0,0.3c0,0.4,0,0.8,0.2,1.2
			c0.1,0.2,0.1,0.4,0.2,0.6c0.1,0.1,0.1,0.1,0.2,0.2c0.1,0,0.2,0.1,0.3,0.1c0.2,0,0.4-0.1,0.6-0.2c0.2-0.1,0.3-0.3,0.4-0.4l0,0
			c-0.1,0.2-0.2,0.3-0.4,0.5c-0.2,0.1-0.4,0.2-0.6,0.2c-0.1,0-0.2,0-0.3-0.1c-0.1-0.1-0.2-0.1-0.3-0.2c-0.1-0.2-0.2-0.4-0.3-0.6
			c-0.1-0.4-0.2-0.8-0.2-1.2c0-0.1,0-0.2,0-0.3c0-0.1,0-0.2,0-0.3c0-0.2-0.1-0.4-0.3-0.5l0,0c0,0,0-0.1,0-0.1c0,0,0.1,0,0.1,0
			c0.1,0,0.2,0.1,0.3,0.1c0.1,0,0.2,0,0.3,0c0.2,0,0.4,0,0.6,0c0.2,0,0.4,0,0.6,0.2c0.1,0.1,0.2,0.1,0.2,0.2
			C153,195.1,153,195.2,153,195.4L153,195.4z"/>
		<path class="st0" d="M153.1,195.6c-0.1-0.1-0.2-0.2-0.3-0.2c-0.1-0.1-0.2-0.1-0.3-0.1c-0.1,0-0.2-0.1-0.4-0.1l-0.2,0l-0.2,0
			l0.1-0.1c0,0.3,0,0.6,0,1c0,0.2,0,0.3,0,0.5c0,0.2,0,0.3,0.1,0.5c0,0,0,0,0,0c0,0,0,0,0,0c0-0.2-0.1-0.3-0.1-0.5
			c0-0.2,0-0.3,0-0.5c0-0.3,0-0.7,0-1v0l0,0c0,0,0-0.1,0.1-0.1l0,0l0.2,0l0.2,0c0.1,0,0.2,0.1,0.4,0.1c0.1,0,0.2,0.1,0.3,0.2
			C152.9,195.4,153,195.5,153.1,195.6C153.1,195.6,153.1,195.6,153.1,195.6C153.1,195.6,153.1,195.6,153.1,195.6L153.1,195.6z"/>
		<path class="st0" d="M151.9,195.5c0,0.1,0.1,0.1,0.1,0.1c0.1,0,0.1,0,0.1-0.1c0-0.1-0.1-0.1-0.1-0.1
			C152,195.3,151.9,195.4,151.9,195.5z M151.9,195.5c0-0.1,0.1-0.2,0.2-0.2c0.1,0,0.2,0.1,0.2,0.2c0,0.1-0.1,0.2-0.2,0.2
			C151.9,195.6,151.8,195.5,151.9,195.5z"/>
		<path class="st0" d="M151.9,195.8C151.9,195.9,152,195.9,151.9,195.8c0.1,0.1,0.2,0,0.2,0c0,0,0-0.1-0.1-0.1
			C152,195.7,151.9,195.8,151.9,195.8z M151.9,195.8c0-0.1,0.1-0.1,0.1-0.1c0.1,0,0.1,0.1,0.1,0.1c0,0.1-0.1,0.2-0.1,0.2
			C151.9,196,151.9,195.9,151.9,195.8z"/>
		<path class="st0" d="M151.9,196.1C151.9,196.2,152,196.2,151.9,196.1c0.1,0.1,0.2,0,0.2,0C152.1,196.1,152.1,196,151.9,196.1
			C152,196,151.9,196.1,151.9,196.1z M151.9,196.1c0-0.1,0.1-0.1,0.1-0.1c0.1,0,0.1,0.1,0.1,0.1c0,0.1-0.1,0.1-0.1,0.1
			C152,196.3,151.9,196.2,151.9,196.1z"/>
		<path class="st0" d="M152,196.4C152,196.5,152,196.5,152,196.4c0.1,0.1,0.1,0,0.1,0C152.1,196.4,152.1,196.4,152,196.4
			C152,196.4,152,196.4,152,196.4z M151.9,196.4C151.9,196.4,152,196.3,151.9,196.4c0.1-0.1,0.2-0.1,0.2,0
			C152.1,196.5,152.1,196.5,151.9,196.4C152,196.5,151.9,196.5,151.9,196.4z"/>
		<path class="st0" d="M152,196.7C152,196.7,152,196.7,152,196.7C152.1,196.7,152.1,196.7,152,196.7
			C152.1,196.6,152.1,196.6,152,196.7C152,196.6,152,196.6,152,196.7z M152,196.7C152,196.6,152,196.6,152,196.7
			c0.1-0.1,0.1,0,0.1,0C152.1,196.7,152.1,196.7,152,196.7C152,196.7,152,196.7,152,196.7z"/>
		<path class="st0" d="M151.2,195c-0.1,0-0.1-0.1-0.2-0.1c-0.1,0-0.1,0.1-0.1,0.1c0,0.1,0.1,0.1,0.1,0.1c0.1,0,0.1,0,0.2,0l0,0.1
			c-0.1,0-0.1,0-0.2,0c-0.1,0-0.1,0.1-0.1,0.1c0,0.1,0,0.1,0.1,0.1c0.1,0,0.1,0,0.2,0l0,0.1c-0.1,0-0.2,0-0.2,0
			c-0.1,0-0.1,0.1-0.1,0.1c0,0.1,0.1,0.1,0.1,0.1c0.1,0,0.1,0,0.2,0c0,0,0,0,0,0.1c0,0,0,0,0,0c-0.1,0-0.2,0.1-0.3,0.1
			c-0.1,0.1,0,0.2,0,0.3c0.1,0.1,0.2,0.2,0.3,0.3c0.1,0.1,0.2,0.2,0.3,0.3c0,0,0,0,0,0c0,0,0,0,0,0l0,0c-0.1-0.1-0.2-0.2-0.3-0.3
			c-0.1-0.1-0.2-0.2-0.3-0.3c0-0.1-0.1-0.1-0.1-0.2c0-0.1,0-0.2,0.1-0.2c0.1-0.1,0.2-0.2,0.4-0.2l0,0.1c-0.1,0-0.2,0-0.2-0.1
			c-0.1,0-0.2-0.1-0.2-0.2c0-0.1,0-0.1,0-0.2c0,0,0.1-0.1,0.1-0.1c0.1,0,0.2,0,0.2,0l0,0c0,0,0.1,0,0.1,0c0,0,0,0.1,0,0.1
			c-0.1,0-0.2,0-0.3,0c0,0-0.1,0-0.1-0.1c0,0-0.1-0.1-0.1-0.1c0-0.1,0-0.1,0.1-0.1c0,0,0.1,0,0.1-0.1c0.1,0,0.2,0,0.2,0c0,0,0,0,0,0
			c0,0,0,0,0,0c-0.1,0-0.2,0-0.3-0.1c-0.1,0-0.2-0.1-0.2-0.2c0-0.1,0-0.1,0-0.1c0,0,0.1-0.1,0.1-0.1
			C151,194.9,151.1,194.9,151.2,195C151.2,195,151.2,195,151.2,195C151.2,195,151.2,195,151.2,195L151.2,195z"/>
	</g>
	<path class="st0" d="M154,197.9c0,0.1-0.1,0.1-0.2,0.2c-0.1,0-0.1,0.1-0.2,0.1c-0.1,0-0.2,0-0.2,0c-0.1,0-0.1,0-0.2-0.1
		c0,0,0,0,0-0.1c0,0,0,0,0,0l0,0c0,0,0.1,0,0.1-0.1c0,0,0.1-0.1,0.1-0.1c0.1-0.1,0.1-0.1,0.2-0.2l0.1,0c0,0.1-0.1,0.2-0.2,0.3
		c-0.1,0.1-0.2,0.1-0.3,0.2l0-0.1c0.1,0,0.1,0.1,0.2,0.1c0.1,0,0.1,0,0.2,0C153.7,198.1,153.8,198,154,197.9L154,197.9z"/>
	<path class="st0" d="M153.7,197.5c0.1,0.1,0.2,0.1,0.3,0.2l0,0.1c-0.1,0-0.2-0.1-0.3-0.1L153.7,197.5z"/>
	<path class="st0" d="M155.4,197.4c0.1,0.2,0.2,0.4,0.4,0.5c0,0,0,0,0,0l0,0c0,0,0,0,0,0c0,0,0,0,0,0c0,0,0,0,0,0c0,0,0,0,0,0
		c0,0,0,0,0,0c-0.1,0-0.1,0-0.2,0.1c-0.1,0-0.2,0.1-0.3,0.1l0,0c0,0,0,0,0,0l0,0c0,0-0.1-0.1-0.1-0.1c0,0,0-0.1-0.1-0.1
		c0-0.1-0.1-0.1-0.1-0.2l0.1,0c0,0.1,0.1,0.1,0.1,0.2c0,0,0,0.1,0.1,0.1c0,0,0,0.1,0.1,0.1h0l0,0c0.1,0,0.2-0.1,0.3-0.1
		c0.1,0,0.1,0,0.1-0.1c0,0,0,0,0,0c0,0,0,0,0,0c0,0,0,0,0,0c0,0,0,0,0,0c0,0,0,0,0,0l0,0c0,0,0,0,0,0
		C155.6,197.8,155.5,197.6,155.4,197.4L155.4,197.4z"/>
	<path class="st0" d="M155.6,197.6c0,0-0.1,0.1-0.1,0.1c0,0-0.1,0-0.1,0.1c-0.1,0-0.2,0-0.2,0l0-0.1c0.1,0,0.1,0,0.2,0
		c0,0,0.1,0,0.1-0.1c0,0,0.1,0,0.1-0.1L155.6,197.6z"/>
	<path class="st0" d="M155.2,196.8c0-0.1,0.1-0.2,0.1-0.3c0.1-0.1,0.1-0.2,0.2-0.3c0.1-0.1,0.2-0.1,0.3-0.2c0.1-0.1,0.2-0.1,0.3-0.1
		l0,0.1c-0.1,0-0.2,0.1-0.3,0.2c-0.1,0.1-0.2,0.1-0.2,0.2c-0.1,0.1-0.1,0.2-0.2,0.2C155.4,196.7,155.3,196.8,155.2,196.8
		L155.2,196.8z"/>
	<path class="st0" d="M153.1,196c0.1,0,0.3,0,0.4,0.1c0.1,0.1,0.2,0.1,0.3,0.2c0.1,0.1,0.1,0.2,0.2,0.3c0,0.1,0,0.1,0,0.2l0,0.2
		l-0.1,0l0-0.2c0-0.1,0-0.1,0-0.2c0-0.1-0.1-0.2-0.1-0.3c-0.1-0.1-0.2-0.1-0.3-0.2c-0.1,0-0.2-0.1-0.3-0.1L153.1,196z"/>
	<g>
		<path class="st0" d="M156,196.4c0,0.1-0.1,0.1-0.1,0.2c-0.1,0-0.1,0-0.2,0.1c-0.1,0-0.1,0.1-0.1,0.1c0,0.1-0.1,0.1-0.1,0.2
			c0,0,0,0,0,0c0,0,0,0,0,0c0-0.1,0-0.1,0.1-0.2c0-0.1,0.1-0.1,0.2-0.2c0.1,0,0.1-0.1,0.2-0.1C155.9,196.5,155.9,196.4,156,196.4
			L156,196.4C156,196.4,156,196.4,156,196.4C156,196.4,156,196.4,156,196.4z"/>
		<path class="st0" d="M156,196.4c0,0.1,0,0.3-0.2,0.4c-0.1,0.1-0.1,0.1-0.2,0.1c-0.1,0-0.1,0-0.2,0c0,0,0,0,0,0c0,0,0,0,0,0l0,0
			c0.1,0,0.1-0.1,0.2-0.1c0.1,0,0.1-0.1,0.1-0.1C155.8,196.7,155.9,196.6,156,196.4L156,196.4C155.9,196.4,156,196.4,156,196.4
			C156,196.4,156,196.4,156,196.4z"/>
	</g>
	<g>
		<path class="st0" d="M153.3,196.3c0,0.1,0.1,0.1,0.1,0.1c0.1,0,0.1,0.1,0.2,0.1c0.1,0,0.1,0.1,0.1,0.2c0,0.1,0,0.1,0.1,0.2
			c0,0,0,0,0,0c0,0,0,0,0,0c0-0.1,0-0.1-0.1-0.2c0-0.1-0.1-0.1-0.1-0.1c-0.1,0-0.1-0.1-0.2-0.1C153.3,196.4,153.3,196.3,153.3,196.3
			C153.2,196.3,153.3,196.2,153.3,196.3C153.3,196.2,153.3,196.2,153.3,196.3L153.3,196.3z"/>
		<path class="st0" d="M153.3,196.3c0,0.1,0.1,0.2,0.2,0.3c0,0,0.1,0.1,0.1,0.1c0,0,0.1,0.1,0.2,0.1l0,0c0,0,0,0,0,0c0,0,0,0,0,0
			c-0.1,0-0.1,0-0.2,0c-0.1,0-0.1-0.1-0.2-0.1C153.3,196.6,153.2,196.5,153.3,196.3C153.3,196.3,153.3,196.3,153.3,196.3
			C153.3,196.3,153.3,196.3,153.3,196.3L153.3,196.3z"/>
	</g>
	<path class="st0" d="M153.9,195.4c0.1,0,0.2,0.1,0.3,0.1c0.1,0.1,0.1,0.2,0.2,0.3l0,0l-0.1-0.1l0.9,0l0,0l-0.1,0.1
		c0-0.1,0.1-0.1,0.1-0.2c0,0,0.1-0.1,0.1-0.1c0.1-0.1,0.2-0.1,0.3-0.1c0,0,0,0,0,0c0,0,0,0,0,0c-0.1,0-0.2,0.1-0.2,0.1
		c0,0-0.1,0.1-0.1,0.1c0,0,0,0.1,0,0.1l0,0.1l-0.1,0l0,0l-0.9,0l-0.1,0l0-0.1l0,0c0-0.1,0-0.1-0.1-0.2
		C154.1,195.6,154,195.5,153.9,195.4L153.9,195.4C153.9,195.4,153.9,195.4,153.9,195.4C153.9,195.4,153.9,195.4,153.9,195.4z"/>
	<path class="st0" d="M155,195.6c0,0.1-0.1,0.1-0.2,0.1c-0.1,0-0.2-0.1-0.2-0.1c0-0.1,0.1-0.1,0.2-0.1
		C154.9,195.5,155,195.5,155,195.6z"/>
	<g>
		<path class="st0" d="M154.9,196.9l-0.5,0c0,0,0,0,0-0.1l0-0.2c0,0,0,0,0.1,0l0.5,0c0,0,0,0,0,0.1L154.9,196.9
			C154.9,196.9,154.9,196.9,154.9,196.9z M154.4,196.8l0.5,0l0-0.2l-0.5,0L154.4,196.8z"/>
	</g>
	<g>
		<path class="st0" d="M154.8,197.4l-0.5,0c0,0,0,0,0-0.1l0-0.3c0,0,0,0,0.1,0l0.5,0c0,0,0,0,0,0.1L154.8,197.4
			C154.9,197.4,154.9,197.4,154.8,197.4z M154.4,197.3l0.5,0l0-0.2l-0.5,0L154.4,197.3z"/>
	</g>
	<g>
		<path class="st0" d="M154.8,197.9l-0.4,0c0,0,0,0,0,0l0-0.3l0,0c0,0,0,0,0,0l0.5,0l0,0c0,0,0,0,0,0L154.8,197.9
			C154.8,197.9,154.8,197.9,154.8,197.9z M154.8,197.9L154.8,197.9L154.8,197.9z M154.7,197.9C154.7,197.9,154.7,197.9,154.7,197.9
			L154.7,197.9z M154.4,197.8l0.3,0l0-0.2l-0.4,0L154.4,197.8z M154.4,197.6L154.4,197.6C154.4,197.6,154.4,197.6,154.4,197.6z"/>
	</g>
	<path class="st0" d="M154.7,198.1c0,0-0.3-0.1-0.3,0c0,0,0.1,0.7,0.1,0.7C154.6,198.8,154.7,198.1,154.7,198.1z"/>
	<path class="st0" d="M154.8,199.2c0,0-0.1,0-0.2,0c-0.1,0-0.2,0-0.2-0.1c0,0,0.1,0,0.2,0S154.8,199.2,154.8,199.2z"/>
	<path class="st0" d="M154.7,199.5c0,0-0.1,0-0.1,0c-0.1,0-0.1,0-0.1,0c0,0,0.1,0,0.1,0C154.7,199.5,154.7,199.5,154.7,199.5z"/>
	<path class="st0" d="M154.8,199.7c0,0,0,0-0.1,0c-0.1,0-0.1,0-0.1,0c0,0,0,0,0.1,0S154.8,199.7,154.8,199.7z"/>
	<path class="st0" d="M154.8,200C154.8,200.1,154.8,200.1,154.8,200c-0.1,0.1-0.1,0-0.1,0C154.7,200,154.7,200,154.8,200
		C154.8,200,154.8,200,154.8,200z"/>
	<path class="st0" d="M156.4,195.2c0-0.2,0.1-0.4,0.1-0.5l0.1,0.1l-0.7,0.4l0,0c0,0,0,0,0,0h0l-0.3-0.4l0.1,0l0,0l-0.4,0.3l0,0
		c0,0,0,0,0,0l0,0v0l-0.5-0.6l0.1,0l0,0l-0.5,0.6l0,0c0,0,0,0,0,0l0,0l0,0l-0.4-0.4l0.1,0l0,0l-0.4,0.4l0,0c0,0,0,0,0,0l0,0
		l-0.7-0.3l0.1-0.1l0,0l0,0c0,0,0,0.1,0.1,0.1l0.1,0.1l0.1,0.2l-0.1,0c0.3-0.1,0.6-0.1,0.8-0.1c0.3,0,0.6,0,0.8,0
		c0.3,0,0.6,0,0.8,0.1c0.1,0,0.3,0.1,0.4,0.1c0.1,0,0.1,0,0.2,0.1L156.4,195.2L156.4,195.2L156.4,195.2L156.4,195.2
		C156.4,195.1,156.4,195.1,156.4,195.2z M156.4,195.2C156.4,195.3,156.4,195.2,156.4,195.2L156.4,195.2L156.4,195.2l-0.1,0l-0.1,0
		c-0.1,0-0.1,0-0.2-0.1c-0.1,0-0.3-0.1-0.4-0.1c-0.3-0.1-0.6-0.1-0.8-0.1c-0.3,0-0.6,0-0.8,0c-0.3,0-0.6,0.1-0.8,0.1l0,0
		c0,0,0,0-0.1,0l-0.1-0.2l-0.1-0.1c0,0,0-0.1-0.1-0.1v0l0,0l0,0c0,0,0-0.1,0-0.1c0,0,0,0,0,0l0.6,0.3l0,0l0,0l0.3-0.5l0,0l0,0
		c0,0,0,0,0.1,0l0,0l0.4,0.4l0,0l0,0l0.5-0.6l0,0l0,0c0,0,0,0,0.1,0c0,0,0,0,0,0l0.4,0.6l0,0l0,0l0.3-0.3v0l0,0c0,0,0.1,0,0.1,0l0,0
		l0.3,0.4l0,0l0,0l0.7-0.4c0,0,0.1,0,0.1,0c0,0,0,0,0,0l0,0C156.5,194.8,156.5,195.1,156.4,195.2z"/>
	<path class="st0" d="M154.8,194.7c0,0.1-0.1,0.1-0.1,0.1c-0.1,0-0.1-0.1-0.1-0.1c0-0.1,0.1-0.1,0.1-0.1
		C154.8,194.6,154.8,194.7,154.8,194.7z"/>
	<path class="st0" d="M153.2,194.8c0-0.1,0-0.3,0.1-0.4c0.1-0.1,0.1-0.2,0.2-0.3c0.1-0.1,0.2-0.2,0.3-0.3c0.1,0,0.1-0.1,0.2-0.1
		l0.2-0.1l0,0l0,0c0.1,0,0.1,0,0.2,0.1c0.1,0,0.1,0,0.2,0c0.1,0,0.1,0,0.2,0c0.1,0,0.1-0.1,0.2-0.1l0,0l0,0l0,0c0,0,0.1,0,0.1,0.1
		l0.1,0.1l0.2,0.1c0.1,0.1,0.3,0.2,0.4,0.3c0.1,0.1,0.2,0.3,0.3,0.4c0,0.2,0,0.3,0,0.5l-0.1,0c0-0.1,0-0.3,0-0.4
		c0-0.1-0.1-0.3-0.3-0.4c-0.1-0.1-0.3-0.2-0.4-0.2l-0.2-0.1l-0.1-0.1c0,0-0.1,0-0.1-0.1l0.1,0l0,0c-0.1,0-0.1,0.1-0.2,0.1
		c-0.1,0-0.2,0-0.2,0c-0.1,0-0.2,0-0.2,0c-0.1,0-0.2,0-0.2-0.1l0.1,0l-0.2,0.1c-0.1,0-0.1,0.1-0.2,0.1c-0.1,0.1-0.2,0.2-0.3,0.3
		c-0.1,0.1-0.2,0.2-0.2,0.3C153.3,194.5,153.2,194.6,153.2,194.8L153.2,194.8z"/>
	<path class="st0" d="M154.2,193.4C154.2,193.4,154.2,193.4,154.2,193.4L154.2,193.4L154.2,193.4L154.2,193.4L154.2,193.4
		c0.1,0,0.1,0,0.1,0c0.1,0,0.1,0,0.2,0c0.1,0,0.2-0.1,0.3-0.1l0,0l0,0l-0.3-0.6l0,0l0.1,0c0,0.1-0.1,0.3-0.2,0.4
		c0,0.1-0.1,0.1-0.1,0.2C154.3,193.3,154.3,193.4,154.2,193.4L154.2,193.4C154.3,193.4,154.2,193.4,154.2,193.4z M154.2,193.5
		C154.2,193.4,154.2,193.4,154.2,193.5l0.1-0.1c0,0,0-0.1,0.1-0.1c0-0.1,0.1-0.1,0.1-0.2c0-0.1,0.1-0.3,0.1-0.4c0,0,0-0.1,0.1-0.1
		c0,0,0,0,0,0l0,0l0.3,0.7l0,0c0,0,0,0,0,0l0,0c-0.1,0.1-0.2,0.1-0.3,0.1c-0.1,0-0.1,0-0.2,0c0,0-0.1,0-0.1,0L154.2,193.5
		L154.2,193.5L154.2,193.5L154.2,193.5C154.2,193.5,154.2,193.5,154.2,193.5z"/>
	<path class="st0" d="M154.7,194.3c-0.1,0-0.2,0-0.3-0.1c-0.1-0.1-0.1-0.2-0.1-0.3c0-0.2,0.1-0.3,0.2-0.5l0,0l0,0
		c0.1,0.1,0.3,0.2,0.3,0.4c0,0.1,0,0.2,0,0.3C154.9,194.2,154.8,194.3,154.7,194.3z M154.7,194.2c0.1,0,0.1,0,0.1-0.1
		c0-0.1,0-0.1,0-0.2c0-0.1-0.1-0.3-0.3-0.4l0,0c-0.1,0.1-0.1,0.3-0.1,0.4c0,0.1,0,0.1,0.1,0.2C154.6,194.2,154.6,194.2,154.7,194.2z
		"/>
	<path class="st0" d="M156.3,198.7c0,0.2-0.1,0.3-0.3,0.4c-0.1,0.1-0.3,0-0.4-0.1c-0.1-0.1-0.1-0.1-0.1-0.2c0,0,0-0.1,0-0.1
		c0,0,0-0.1,0-0.1c0.1-0.1,0.2-0.2,0.4-0.3l0,0l0,0l0,0c0.1,0,0.2,0.1,0.2,0.2c0,0,0.1,0.1,0.1,0.1
		C156.3,198.6,156.3,198.7,156.3,198.7z M156.3,198.7c0-0.1-0.1-0.1-0.1-0.2c-0.1-0.1-0.1-0.1-0.2-0.1l0,0l0,0
		c-0.1,0-0.3,0.1-0.3,0.2c0,0.1,0,0.1,0,0.2c0,0.1,0,0.1,0.1,0.2c0.1,0.1,0.2,0.1,0.4,0.1C156.2,199,156.3,198.9,156.3,198.7z"/>
</g>
<g>
	<line class="st1" x1="256.1" y1="146.1" x2="256.1" y2="142.6"/>
	<line class="st1" x1="260.8" y1="142.6" x2="260.8" y2="146.1"/>
	<polyline class="st1" points="260.7,142.6 261.6,142.6 260.4,141.8 260.4,140.7 259.8,140.7 259.8,141.4 258.4,140.5 255.4,142.6 
		256.2,142.6 	"/>
	<polyline class="st1" points="257.4,141.7 258.5,141 259.6,141.8 	"/>
	<line class="st1" x1="255.3" y1="146.6" x2="261.5" y2="146.6"/>
	<line class="st1" x1="256.9" y1="146.1" x2="259.9" y2="146.1"/>
	<g>
		<rect x="257.7" y="142.9" class="st0" width="0.7" height="0.7"/>
		<rect x="258.5" y="142.9" class="st0" width="0.7" height="0.7"/>
		<rect x="257.7" y="143.7" class="st0" width="0.7" height="0.7"/>
		<rect x="258.5" y="143.7" class="st0" width="0.7" height="0.7"/>
	</g>
</g>
</svg>
