<?xml version="1.0" encoding="utf-8"?>
<!-- Generator: Adobe Illustrator 22.1.0, SVG Export Plug-In . SVG Version: 6.00 Build 0)  -->
<svg version="1.1" id="Layer_1" xmlns="http://www.w3.org/2000/svg" xmlns:xlink="http://www.w3.org/1999/xlink" x="0px" y="0px"
	 viewBox="0 0 300 300" style="enable-background:new 0 0 300 300;" xml:space="preserve">
<style type="text/css">
	.st0{fill:#F7AC40;}
</style>
<g>
	<g>
		<path class="st0" d="M149.9,142.2c-1.1-0.4-1.9-1.1-2.6-2c-0.7-1-1.2-2.1-1.4-3.3c-0.2-1.2-0.1-2.4,0.3-3.5c0.4-1,1-1.9,1.8-2.6
			c0.8-0.7,1.9-1.2,3-1.2c1.1-0.1,2.3,0.2,3.2,0.8c0.9,0.6,1.6,1.6,1.9,2.6c0.4,1.1,0.4,2.3,0.2,3.4c-0.3,1.2-0.8,2.3-1.6,3.3
			c-0.7,0.9-1.7,1.7-2.7,2.4c-0.2,0.2-0.5,0.3-0.8,0.5c0,0-0.1,0,0,0.1c0,0,0.1,0,0.1,0c1.1-0.6,2.1-1.3,2.9-2.2
			c0.9-0.9,1.6-2,2-3.1c0.4-1.1,0.5-2.4,0.3-3.6c-0.2-1.1-0.8-2.1-1.6-2.9c-0.8-0.8-1.9-1.2-3.1-1.3c-1.1-0.1-2.3,0.2-3.3,0.8
			c-0.9,0.6-1.7,1.4-2.2,2.4c-0.6,1-0.8,2.2-0.8,3.3c0,1.3,0.4,2.5,1,3.6c0.6,1,1.3,1.9,2.3,2.5c0.2,0.1,0.5,0.2,0.7,0.3
			C149.8,142.3,149.9,142.3,149.9,142.2C149.9,142.3,150,142.2,149.9,142.2L149.9,142.2z"/>
	</g>
	<g>
		<path class="st0" d="M149.8,142.5c0.2,0,0.4,0.1,0.6,0.1c0,0,0.1,0,0.1,0c0,0,0.1,0,0-0.1c-0.2,0-0.4-0.1-0.6-0.1
			C149.9,142.4,149.9,142.5,149.8,142.5C149.8,142.5,149.8,142.5,149.8,142.5L149.8,142.5z"/>
	</g>
	<g>
		<path class="st0" d="M149.7,142.3c0.4,0.1,0.8,0.2,1.2,0.3c0,0,0.1,0,0.1,0c0,0,0-0.1,0-0.1c-0.4-0.1-0.8-0.2-1.2-0.3
			C149.8,142.2,149.7,142.2,149.7,142.3C149.6,142.3,149.6,142.3,149.7,142.3L149.7,142.3z"/>
	</g>
	<g>
		<path class="st0" d="M150.3,142.5c-0.1,0.1-0.2,0.2-0.2,0.3c0,0.1,0,0.3,0,0.4c0,0.2,0.2,0.2,0.3,0.1c0.2-0.1,0.4-0.2,0.6-0.2
			c0,0-0.1,0-0.1,0c-0.1,0.1-0.1,0.3,0,0.4c0.1,0.1,0.2,0.2,0.3,0.2c0.1,0,0.3-0.1,0.4-0.2c0.1-0.1,0.1-0.3,0.3-0.3
			c0.2,0,0.6,0,0.7-0.3c0.1-0.3-0.3-0.5-0.5-0.6c-0.4-0.1-0.8,0-1.1,0.2c0,0,0,0,0,0c0,0,0.1,0,0.1,0c0.2-0.1,0.5-0.2,0.8-0.1
			c0.2,0.1,0.5,0.2,0.5,0.5c0,0.3-0.3,0.2-0.5,0.2c-0.1,0-0.2,0.1-0.3,0.1c-0.1,0.1-0.1,0.2-0.2,0.3c-0.1,0.1-0.1,0.1-0.2,0
			c-0.1,0-0.1-0.1-0.2-0.1c-0.1-0.1,0-0.3,0-0.4c0,0-0.1,0-0.1,0c-0.1,0.1-0.3,0.1-0.4,0.2c-0.1,0-0.1,0.1-0.2,0c0,0,0-0.1,0-0.1
			c0-0.2,0-0.5,0.2-0.6c0,0,0,0,0,0C150.4,142.5,150.3,142.5,150.3,142.5L150.3,142.5z"/>
	</g>
	<g>
		<path class="st0" d="M146.5,153.1c-0.5-0.2-1.1-0.3-1.6-0.6c-0.4-0.2-0.9-0.4-1.2-0.7c-0.7-0.6-1.3-1.3-1.6-2.1
			c-0.4-0.8-0.5-1.7-0.5-2.7c0.1-0.9,0.4-1.8,0.9-2.6c0.5-0.8,1.2-1.5,2-1.9c0.9-0.5,1.9-0.7,2.9-0.5c0.5,0.1,1,0.3,1.4,0.6
			c0.4,0.3,0.7,0.8,0.9,1.3c0.4,0.8,0.6,1.7,0.6,2.6c0,0.9-0.1,1.8-0.4,2.6c-0.3,0.8-0.7,1.6-1.3,2.3c-0.1,0.2-0.3,0.3-0.4,0.5
			c0,0,0,0.1,0,0.1c0,0,0.1,0,0.1,0c0.6-0.7,1.2-1.4,1.5-2.3c0.3-0.8,0.5-1.7,0.6-2.7c0-0.9-0.1-1.8-0.4-2.7
			c-0.2-0.5-0.4-0.9-0.7-1.3c-0.3-0.4-0.7-0.7-1.2-0.9c-0.9-0.4-2-0.4-3,0c-0.9,0.3-1.8,0.9-2.4,1.7c-0.6,0.7-1,1.6-1.2,2.5
			c-0.2,0.9-0.2,1.9,0.1,2.8c0.3,0.9,0.8,1.7,1.4,2.4c0.3,0.3,0.7,0.6,1.1,0.9c0.5,0.3,1,0.5,1.5,0.7c0.3,0.1,0.5,0.2,0.8,0.3
			C146.4,153.2,146.4,153.2,146.5,153.1C146.5,153.1,146.5,153.1,146.5,153.1L146.5,153.1z"/>
	</g>
	<g>
		<path class="st0" d="M146.5,153.4c0,0,0.1,0,0.1-0.1c0,0,0-0.1-0.1-0.1C146.5,153.3,146.4,153.3,146.5,153.4
			C146.4,153.4,146.4,153.4,146.5,153.4L146.5,153.4z"/>
	</g>
	<g>
		<path class="st0" d="M146.6,153.3C146.6,153.3,146.6,153.2,146.6,153.3c-0.1-0.1-0.1-0.1-0.2-0.1c0.1,0.2,0.1,0.5,0.1,0.8
			c0,0.1,0,0.3,0,0.4c0,0.1,0,0.3,0.1,0.3c0.1,0.1,0.2,0,0.3,0c0.1,0,0.2-0.1,0.3-0.2c0.1-0.2,0.2-0.4,0.3-0.6c-0.1,0-0.1,0-0.2,0.1
			c0.2,0.1,0.2,0.3,0.3,0.4c0.1,0.1,0.3,0.2,0.5,0c0.1-0.1,0.1-0.3,0.1-0.5c0-0.2-0.1-0.3-0.2-0.4c-0.1,0-0.2,0.1-0.1,0.1
			c0.2,0.1,0.5,0.1,0.7,0c0.2-0.1,0.4-0.4,0.2-0.6c-0.1-0.1-0.2-0.1-0.3-0.1c-0.1,0-0.3-0.1-0.4-0.1c-0.3,0-0.6,0-0.9,0
			c0,0-0.1,0-0.1,0.1c0,0,0.1,0,0.1,0c0.2,0,0.5-0.1,0.7,0c0.2,0,0.5,0,0.7,0.1c0.1,0,0.2,0.1,0.2,0.2c0,0.1-0.1,0.2-0.2,0.2
			c-0.2,0.1-0.4,0.1-0.6,0c0,0-0.1,0.1-0.1,0.1c0.1,0,0.1,0.2,0.1,0.3c0,0.1,0,0.1,0,0.2c0,0.1,0,0.2-0.1,0.2c0,0-0.1,0-0.1,0
			c-0.1,0-0.1-0.1-0.1-0.1c-0.1-0.1-0.1-0.2-0.2-0.3c-0.1,0-0.2,0-0.2,0.1c0,0.2-0.1,0.4-0.2,0.5c-0.1,0.1-0.1,0.1-0.2,0.1
			c-0.1,0-0.1,0-0.1,0c0,0,0-0.1,0-0.1c0-0.4,0.1-0.9-0.1-1.3c0,0-0.1,0-0.1,0c-0.1,0.1-0.1,0.2,0,0.2
			C146.5,153.4,146.7,153.4,146.6,153.3L146.6,153.3z"/>
	</g>
	<g>
		<path class="st0" d="M146.8,153.1c0.7-0.2,1.4-0.7,1.8-1.3c0.1-0.1-0.1-0.1-0.2-0.1c-0.4,0.6-1,1-1.7,1.2
			C146.6,153,146.7,153.1,146.8,153.1L146.8,153.1z"/>
	</g>
	<g>
		<path class="st0" d="M153.9,155.6c-0.9-0.3-1.8-0.8-2.5-1.5c-0.7-0.7-1.3-1.5-1.5-2.5c-0.3-0.9-0.3-1.9,0.1-2.8
			c0.3-0.8,0.8-1.6,1.5-2.2c0.7-0.6,1.6-1.1,2.5-1.3c0.5-0.1,1-0.1,1.4,0c0.5,0.1,0.9,0.3,1.3,0.7c0.7,0.6,1.2,1.5,1.4,2.4
			c0.2,0.9,0.2,1.8-0.1,2.7c-0.2,0.9-0.7,1.7-1.3,2.4c-0.6,0.7-1.3,1.2-2.1,1.7c-0.2,0.1-0.4,0.2-0.6,0.3
			C154,155.4,154,155.5,153.9,155.6c0.1-0.1,0.2-0.1,0.2-0.1c0.9-0.4,1.7-0.9,2.3-1.5c0.7-0.6,1.2-1.4,1.6-2.3
			c0.4-0.9,0.5-1.8,0.4-2.7c-0.1-0.9-0.5-1.8-1-2.5c-0.3-0.4-0.7-0.7-1.2-0.9c-0.4-0.2-0.9-0.3-1.4-0.3c-1,0-2,0.4-2.8,0.9
			c-0.8,0.5-1.4,1.2-1.9,2c-0.5,0.8-0.7,1.8-0.6,2.7c0.1,1,0.5,2,1.2,2.8c0.6,0.8,1.5,1.4,2.4,1.8c0.2,0.1,0.4,0.2,0.7,0.3
			C153.8,155.7,153.9,155.7,153.9,155.6C153.9,155.6,154,155.6,153.9,155.6L153.9,155.6z"/>
	</g>
	<g>
		<path class="st0" d="M153.2,155.7c-0.3,0.2-0.6,0.4-0.6,0.7c-0.1,0.3,0.1,0.6,0.4,0.6c0.2,0,0.3,0,0.5-0.1c0,0,0,0,0.1,0
			c0,0,0,0,0,0c0,0,0,0,0,0c0,0,0,0.1,0,0c0,0,0,0,0,0c0,0.1-0.1,0.1-0.1,0.2c0,0.3,0.2,0.5,0.4,0.5c0.3,0,0.6-0.3,0.5-0.6
			c0,0-0.1,0-0.1,0.1c0.3,0,0.9-0.1,1-0.5c0-0.2,0-0.4-0.2-0.5c-0.1-0.2-0.3-0.3-0.5-0.3c-0.3-0.1-0.6,0-0.8,0c0,0-0.1,0-0.1,0.1
			c0,0,0.1,0,0.1,0c0.5-0.1,1-0.1,1.3,0.4c0.1,0.2,0.1,0.4,0,0.5c-0.1,0.2-0.4,0.2-0.6,0.2c0,0-0.2,0-0.1,0.1c0,0.1,0,0.2-0.1,0.4
			c-0.1,0.1-0.2,0.2-0.3,0.1c-0.1,0-0.2-0.1-0.2-0.2c0-0.1,0-0.2,0.1-0.3c0.1-0.1,0.1-0.2-0.1-0.2c-0.1,0-0.1,0-0.2,0.1
			c-0.1,0-0.1,0-0.2,0.1c-0.1,0-0.3,0-0.4-0.1c-0.1-0.1-0.1-0.2-0.1-0.4c0-0.3,0.3-0.5,0.6-0.7c0,0,0,0,0-0.1
			C153.3,155.7,153.3,155.7,153.2,155.7L153.2,155.7z"/>
	</g>
	<g>
		<path class="st0" d="M153.6,155.7c0.2,0.2,0.4,0.2,0.6,0.3c0,0,0.1,0,0.1-0.1c0,0,0-0.1-0.1-0.1c0,0-0.1,0-0.1,0c0,0-0.1,0-0.1,0
			c-0.1,0-0.2-0.1-0.2-0.2C153.7,155.6,153.7,155.6,153.6,155.7C153.6,155.6,153.5,155.6,153.6,155.7L153.6,155.7z"/>
	</g>
	<g>
		<path class="st0" d="M154.3,157.4c-0.4,1.8-1.6,3.2-2.3,4.8c-0.7,1.7-1.1,3.5-1.2,5.3c0,1,0.1,2,0.3,3c0,0.1,0.2,0,0.2-0.1
			c-0.4-1.8-0.4-3.6-0.1-5.4c0.2-0.9,0.4-1.8,0.8-2.6c0.4-0.8,0.8-1.6,1.3-2.4c0.5-0.9,1-1.7,1.2-2.7
			C154.5,157.3,154.3,157.3,154.3,157.4L154.3,157.4z"/>
	</g>
	<g>
		<path class="st0" d="M148.1,153.8c0.4,0.2,0.7,0.5,0.9,0.9c0.3,0.4,0.5,0.7,0.7,1.1c0.4,0.8,0.7,1.6,0.8,2.4
			c0.4,1.8,0.3,3.7,0,5.5c-0.2,1.1-0.4,2.2-0.6,3.3c0,0.1,0.2,0,0.2,0c0.4-2,0.8-3.9,0.9-5.9c0-1.8-0.2-3.6-1-5.2
			c-0.2-0.4-0.5-0.9-0.7-1.2c-0.3-0.4-0.6-0.7-1-1C148.2,153.7,148,153.7,148.1,153.8L148.1,153.8z"/>
	</g>
	<g>
		<path class="st0" d="M151,143.4C151,143.4,151,143.4,151,143.4C151,143.4,151,143.5,151,143.4C150.9,143.5,150.9,143.5,151,143.4
			c-0.1,0.1-0.1,0.1-0.1,0.2c0,0.1,0,0.1,0.1,0.2c0,0.1,0.1,0.2,0.1,0.3c0.1,0.2,0.1,0.4,0.2,0.7c0.1,0.4,0.1,0.9,0.1,1.4
			c0,0.1,0.2,0,0.2,0c0-0.5,0-1.1-0.1-1.6c-0.1-0.3-0.1-0.5-0.2-0.8c0-0.1,0-0.1-0.1-0.2C151.1,143.5,151.1,143.4,151,143.4
			c0-0.1-0.2-0.1-0.2,0C150.8,143.5,151,143.5,151,143.4L151,143.4z"/>
	</g>
	<g>
		<path class="st0" d="M151.3,146.2c0,0.1,0,0.3,0,0.4c0,0,0,0,0,0c0,0,0.1,0,0.1,0c0,0,0.1,0,0.1-0.1c0-0.1,0-0.3,0-0.4
			c0,0,0,0,0,0C151.5,146.1,151.4,146.1,151.3,146.2C151.4,146.1,151.3,146.1,151.3,146.2L151.3,146.2z"/>
	</g>
	<g>
		<path class="st0" d="M153.2,145.3c-0.3-1-0.3-2.2,0-3.2c0.3-0.8,0.9-1.6,1.7-1.9c0.8-0.3,1.8-0.2,2.5,0.4c0.8,0.6,1.1,1.6,1,2.5
			c0,1-0.5,2-1,2.9c-0.1,0.1-0.1,0.2-0.2,0.3c0,0,0.1,0,0.1,0c0,0,0.1,0,0.1-0.1c0.6-0.9,1.1-1.9,1.2-3c0.1-1-0.2-2-0.9-2.7
			c-0.7-0.6-1.7-0.8-2.6-0.6c-0.9,0.2-1.6,0.9-2,1.7c-0.5,1-0.5,2.1-0.3,3.2c0,0.1,0.1,0.3,0.1,0.4
			C153,145.4,153.2,145.4,153.2,145.3L153.2,145.3z"/>
	</g>
	<g>
		<path class="st0" d="M154.2,141.2c-0.4,0.7-0.6,1.5-0.5,2.3c0,0.2,0.1,0.4,0.2,0.6c0,0,0,0,0,0c-0.1-0.2-0.1-0.4-0.1-0.6
			c0-0.2,0-0.4,0-0.6c0-0.4,0.1-0.8,0.2-1.1C154,141.6,154.1,141.4,154.2,141.2C154.2,141.2,154.2,141.2,154.2,141.2L154.2,141.2z"
			/>
	</g>
	<g>
		<path class="st0" d="M154.2,141.2c0.2,0,0.4,0.1,0.6,0.3c0,0,0,0,0,0c-0.5,0.5-0.9,1.3-0.9,2.1c0,0.2,0,0.4,0.1,0.6c0,0,0,0,0,0
			c-0.1-0.4-0.1-0.8,0-1.1c0.1-0.4,0.2-0.7,0.4-1c0.1-0.2,0.2-0.4,0.4-0.5c0,0,0,0,0,0C154.6,141.4,154.4,141.2,154.2,141.2
			C154.2,141.2,154.2,141.2,154.2,141.2L154.2,141.2z"/>
	</g>
	<g>
		<path class="st0" d="M154.9,140.6c-0.2,0.1-0.3,0.4-0.1,0.5c0.1,0.1,0.3,0,0.4-0.1c0.1-0.1,0.1-0.2,0-0.4
			c-0.1-0.1-0.3-0.2-0.5-0.2c0,0,0,0,0,0c0.1,0,0.3,0,0.4,0.1c0.1,0.1,0.1,0.2,0,0.3c-0.1,0.1-0.2,0.2-0.3,0.1
			c-0.1,0-0.2-0.1-0.2-0.3C154.7,140.8,154.8,140.7,154.9,140.6C154.9,140.6,154.9,140.6,154.9,140.6L154.9,140.6z"/>
	</g>
	<g>
		<path class="st0" d="M152,147.1c-0.4,0.1-0.7,0.6-0.8,1c-0.1,0.3-0.2,0.6-0.2,0.8c-0.1,0.3-0.1,0.6-0.1,0.9c0,0.6,0,1.2,0.1,1.8
			c0.1,0.5,0.3,0.9,0.6,1.4c0.3,0.4,0.6,0.8,1,1c0.1,0,0.1,0.1,0.2,0.1c0,0,0,0,0,0c-0.4-0.3-0.8-0.6-1.1-1
			c-0.3-0.4-0.5-0.8-0.6-1.3c-0.2-0.5-0.2-1.1-0.2-1.7c0-0.6,0.1-1.2,0.3-1.8c0.1-0.2,0.1-0.5,0.2-0.7c0.1-0.2,0.2-0.4,0.4-0.5
			C151.9,147.2,151.9,147.2,152,147.1C152,147.2,152,147.1,152,147.1L152,147.1z"/>
	</g>
	<g>
		<path class="st0" d="M151.7,147.2c0.2,0,0.4,0.1,0.5,0.3c0,0,0,0,0,0c-0.5,0.4-0.7,1-0.8,1.5c-0.2,0.7-0.4,1.4-0.4,2.1
			c0,0.4,0,0.8,0.1,1.2c0,0,0,0,0,0c-0.1-0.7-0.1-1.5,0.1-2.2c0.1-0.4,0.2-0.7,0.2-1.1c0.1-0.3,0.2-0.6,0.3-0.9
			c0.1-0.3,0.3-0.6,0.6-0.8c0,0,0,0,0,0C152.1,147.3,151.9,147.2,151.7,147.2C151.7,147.2,151.7,147.2,151.7,147.2L151.7,147.2z"/>
	</g>
	<g>
		<path class="st0" d="M152.6,146.5c0,0-0.1-0.1-0.1-0.1c0,0,0,0,0,0c-0.1,0.1-0.1,0.3-0.1,0.4c0,0.1,0.1,0.2,0.2,0.3
			c0.1,0,0.2,0,0.3-0.1c0.1-0.1,0.1-0.2,0-0.4c-0.1-0.2-0.2-0.2-0.4-0.3c0,0,0,0,0,0c0.1,0.1,0.2,0.1,0.3,0.2
			c0.1,0.1,0.1,0.2,0.1,0.4c0,0.1-0.2,0.2-0.3,0.1c-0.1,0-0.2-0.1-0.2-0.2c-0.1-0.2,0-0.3,0.1-0.5c0,0,0,0,0,0
			C152.5,146.4,152.6,146.4,152.6,146.5C152.6,146.5,152.6,146.5,152.6,146.5L152.6,146.5z"/>
	</g>
	<g>
		<path class="st0" d="M148.9,131.5c-0.4,0.4-0.7,0.8-0.9,1.3c-0.2,0.5-0.3,1.1-0.4,1.6c-0.1,0.6-0.1,1.3-0.1,1.9
			c0,0.6,0.1,1.3,0.4,1.9c0.2,0.5,0.6,1,1,1.3c0.1,0,0.1,0.1,0.2,0.1c0,0,0,0,0,0c-0.5-0.3-0.8-0.8-1.1-1.3
			c-0.3-0.6-0.4-1.2-0.4-1.8c0-0.6,0-1.3,0.1-1.9c0.1-0.6,0.2-1.1,0.3-1.6c0.2-0.5,0.4-1,0.8-1.4
			C148.8,131.6,148.8,131.5,148.9,131.5C148.9,131.5,148.9,131.5,148.9,131.5L148.9,131.5z"/>
	</g>
	<g>
		<path class="st0" d="M148.8,131.7c0.2,0,0.4,0.1,0.5,0.2c0,0,0,0,0,0.1c0,0,0,0,0,0c0,0-0.1,0.1-0.1,0.1c-0.1,0.1-0.1,0.1-0.2,0.2
			c-0.2,0.3-0.4,0.6-0.5,1c-0.3,0.8-0.4,1.6-0.5,2.4c0,0.5,0,1,0,1.5c0,0,0,0,0,0c0-0.8,0-1.6,0.1-2.4c0.1-0.7,0.3-1.4,0.6-2
			c0.2-0.3,0.4-0.6,0.7-0.9c0,0,0,0,0,0C149.3,131.8,149.1,131.7,148.8,131.7C148.8,131.7,148.8,131.7,148.8,131.7L148.8,131.7z"/>
	</g>
	<g>
		<path class="st0" d="M149.5,130.9c0.2-0.1,0.4-0.3,0.6-0.4c0,0,0,0,0,0C150,130.6,149.8,130.8,149.5,130.9
			C149.5,130.9,149.5,130.9,149.5,130.9L149.5,130.9z"/>
	</g>
	<g>
		<path class="st0" d="M149.3,131.1c0.2,0.1,0.3,0.2,0.4,0.4c0,0,0,0,0,0c0.3-0.3,0.6-0.5,1-0.6c0,0,0,0,0,0c-0.4,0.1-0.8,0.3-1,0.6
			c0,0,0,0,0,0C149.7,131.3,149.5,131.1,149.3,131.1C149.3,131,149.3,131.1,149.3,131.1L149.3,131.1z"/>
	</g>
	<g>
		<path class="st0" d="M150.4,130.4c0.1,0.1,0.1,0.1,0.2,0.2c0,0.1,0.1,0.2,0.1,0.2c0,0,0,0,0,0
			C150.7,130.7,150.6,130.6,150.4,130.4C150.4,130.4,150.4,130.4,150.4,130.4L150.4,130.4z"/>
	</g>
	<g>
		<path class="st0" d="M143.8,143.5c0.2,0.3,0.4,0.5,0.5,0.7c0,0,0,0,0,0C144.2,144,144,143.8,143.8,143.5
			C143.8,143.5,143.8,143.5,143.8,143.5L143.8,143.5z"/>
	</g>
	<g>
		<path class="st0" d="M144,143.3c0.2-0.2,0.5-0.4,0.9-0.5c0,0,0,0,0,0C144.5,142.9,144.2,143.1,144,143.3
			C144,143.3,144,143.3,144,143.3L144,143.3z"/>
	</g>
	<g>
		<path class="st0" d="M144.3,144c0.2-0.3,0.5-0.5,0.8-0.7c0,0,0,0,0,0C144.8,143.5,144.6,143.7,144.3,144
			C144.3,144,144.3,144,144.3,144L144.3,144z"/>
	</g>
	<g>
		<path class="st0" d="M145,142.7c0,0,0.1,0.1,0.1,0.1c0,0,0,0,0,0C145.1,142.8,145,142.8,145,142.7C145,142.7,145,142.7,145,142.7
			L145,142.7z"/>
	</g>
	<g>
		<path class="st0" d="M143.3,144.2c-0.3,0.3-0.4,0.7-0.5,1.1c-0.1,0.4-0.1,0.8-0.2,1.3c0,0.9,0,1.7,0.3,2.5
			c0.1,0.5,0.4,0.9,0.6,1.3c0,0,0,0,0,0c-0.5-0.7-0.7-1.5-0.9-2.4c-0.1-0.8-0.1-1.7,0.1-2.5C142.8,145.1,143,144.6,143.3,144.2
			C143.3,144.2,143.3,144.2,143.3,144.2L143.3,144.2z"/>
	</g>
	<g>
		<path class="st0" d="M143.6,145c-0.1,0.6-0.2,1.2-0.2,1.9c0,0.6,0,1.3,0.2,1.9c0.1,0.3,0.1,0.7,0.2,1c0,0,0,0,0,0
			c-0.1-0.3-0.2-0.6-0.2-0.9c-0.1-0.3-0.1-0.6-0.1-0.9c-0.1-0.6-0.1-1.2,0-1.9C143.5,145.7,143.5,145.3,143.6,145
			C143.6,145,143.6,145,143.6,145L143.6,145z"/>
	</g>
	<g>
		<path class="st0" d="M143.2,144.2c0.2,0.2,0.4,0.4,0.6,0.6c0,0,0,0,0,0C143.6,144.6,143.4,144.4,143.2,144.2
			C143.2,144.2,143.2,144.2,143.2,144.2L143.2,144.2z"/>
	</g>
	<g>
		<path class="st0" d="M144,150.4C144,150.4,144.1,150.5,144,150.4C144.1,150.5,144.1,150.5,144,150.4
			C144.1,150.5,144,150.4,144,150.4C144,150.4,144,150.4,144,150.4L144,150.4z"/>
	</g>
	<g>
		<path class="st0" d="M143.9,150c0.2,0.4,0.5,0.9,0.9,1.2c0,0,0,0,0,0C144.5,150.9,144.2,150.5,143.9,150
			C143.9,150,143.9,150,143.9,150L143.9,150z"/>
	</g>
	<g>
		<polygon class="st0" points="145.1,151.6 145.1,151.6 145.1,151.6 		"/>
	</g>
	<g>
		<polygon class="st0" points="156.2,145.5 156.2,145.5 156.2,145.5 		"/>
	</g>
	<g>
		<path class="st0" d="M156.2,145.5c0.4-0.5,0.6-1,0.7-1.6c0-0.2,0-0.3,0-0.5c0,0,0,0,0,0c0,0.6-0.2,1.2-0.5,1.7
			C156.4,145.2,156.3,145.4,156.2,145.5C156.2,145.5,156.2,145.5,156.2,145.5L156.2,145.5z"/>
	</g>
	<g>
		<path class="st0" d="M156.4,145.6c0.3-0.4,0.4-0.9,0.6-1.4c0-0.1,0.1-0.3,0.1-0.4c0,0,0,0,0,0c-0.1,0.5-0.3,1-0.5,1.4
			C156.5,145.4,156.5,145.5,156.4,145.6C156.4,145.6,156.4,145.6,156.4,145.6L156.4,145.6z"/>
	</g>
	<g>
		<path class="st0" d="M156.6,145.7c0.3-0.3,0.5-0.7,0.5-1.1c0,0,0,0,0,0c0,0.2-0.1,0.4-0.2,0.6
			C156.8,145.3,156.7,145.5,156.6,145.7C156.6,145.7,156.6,145.7,156.6,145.7L156.6,145.7z"/>
	</g>
	<g>
		<path class="st0" d="M156.7,145.9c0.1-0.1,0.2-0.3,0.3-0.5c0,0,0,0,0,0C157,145.6,156.9,145.8,156.7,145.9
			C156.7,145.9,156.7,145.9,156.7,145.9L156.7,145.9z"/>
	</g>
	<g>
		<path class="st0" d="M157,146.2c0.5-0.8,0.7-1.8,0.8-2.8c0-0.3,0-0.6,0-0.8c0,0,0,0,0,0c0,0.2,0,0.5,0,0.7c0,0.2,0,0.5-0.1,0.7
			c-0.1,0.5-0.2,0.9-0.4,1.4C157.2,145.7,157.1,145.9,157,146.2C157,146.2,157,146.2,157,146.2L157,146.2z"/>
	</g>
	<g>
		<path class="st0" d="M157.2,146.3c0.3-0.4,0.5-0.8,0.6-1.3c0.1-0.5,0.2-1,0.3-1.5c0-0.3,0.1-0.6,0.1-0.8c0,0,0,0,0,0
			c-0.1,0.5-0.1,1-0.2,1.5c-0.1,0.5-0.2,1-0.4,1.4C157.5,145.9,157.3,146.1,157.2,146.3C157.2,146.3,157.2,146.3,157.2,146.3
			L157.2,146.3z"/>
	</g>
	<g>
		<polygon class="st0" points="155.9,140.2 155.9,140.2 155.9,140.2 		"/>
	</g>
	<g>
		<path class="st0" d="M155.8,140.2c0.5,0.1,0.9,0.4,1.2,0.9c0,0,0,0,0,0C156.8,140.6,156.3,140.2,155.8,140.2
			C155.8,140.1,155.8,140.2,155.8,140.2L155.8,140.2z"/>
	</g>
	<g>
		<path class="st0" d="M156.5,140.3c0.4,0.3,0.6,0.8,0.7,1.3c0,0.1,0,0.3,0,0.4c0,0,0,0,0,0c0-0.5-0.2-1-0.5-1.4
			C156.7,140.5,156.6,140.3,156.5,140.3C156.5,140.3,156.5,140.3,156.5,140.3L156.5,140.3z"/>
	</g>
	<g>
		<path class="st0" d="M156.9,140.7c0.3,0.4,0.5,0.9,0.5,1.4c0,0,0,0,0,0C157.4,141.6,157.3,141.1,156.9,140.7
			C156.9,140.7,156.9,140.7,156.9,140.7L156.9,140.7z"/>
	</g>
	<g>
		<path class="st0" d="M157.1,140.6c0.3,0.5,0.5,1.1,0.5,1.7c0,0.2,0,0.3,0,0.5c0,0,0,0,0,0c0-0.6-0.1-1.2-0.3-1.7
			C157.2,140.9,157.2,140.8,157.1,140.6C157.1,140.6,157.1,140.6,157.1,140.6L157.1,140.6z"/>
	</g>
	<g>
		<path class="st0" d="M157.3,141c0.3,0.5,0.4,1,0.5,1.6c0,0.2,0,0.3,0,0.5c0,0,0,0,0,0c0-0.6,0-1.1-0.3-1.7
			C157.5,141.2,157.4,141.1,157.3,141C157.3,141,157.3,141,157.3,141L157.3,141z"/>
	</g>
	<g>
		<path class="st0" d="M157.5,141.1c0.2,0.6,0.3,1.2,0.4,1.8c0,0.2,0,0.4,0,0.5c0,0,0,0,0,0c0-0.2,0-0.3,0-0.5c0-0.2,0-0.3,0-0.5
			c0-0.3-0.1-0.6-0.2-0.9C157.7,141.4,157.6,141.2,157.5,141.1C157.5,141.1,157.5,141.1,157.5,141.1L157.5,141.1z"/>
	</g>
	<g>
		<path class="st0" d="M157.8,141.8c0.1,0.7,0.2,1.3,0.1,2c0,0,0,0,0,0C158,143.1,157.9,142.4,157.8,141.8
			C157.8,141.7,157.8,141.8,157.8,141.8L157.8,141.8z"/>
	</g>
	<g>
		<path class="st0" d="M157.7,141.2c0.3,0.6,0.4,1.2,0.4,1.9c0,0.2,0,0.4,0,0.5c0,0,0,0,0,0c0.1-0.6,0-1.3-0.2-1.9
			C157.8,141.6,157.7,141.4,157.7,141.2C157.7,141.2,157.7,141.2,157.7,141.2L157.7,141.2z"/>
	</g>
	<g>
		<path class="st0" d="M157.9,141.4c0.3,0.7,0.4,1.5,0.3,2.3c0,0.2-0.1,0.4-0.1,0.7c0,0,0,0,0,0c0.2-0.8,0.2-1.6,0-2.3
			C158,141.8,157.9,141.6,157.9,141.4C157.9,141.4,157.9,141.4,157.9,141.4L157.9,141.4z"/>
	</g>
	<g>
		<path class="st0" d="M158.1,142.1c0.1,0.8,0.1,1.6-0.2,2.3c-0.1,0.2-0.1,0.4-0.2,0.6c0,0,0,0,0,0c0.3-0.7,0.5-1.5,0.5-2.3
			C158.1,142.5,158.1,142.3,158.1,142.1C158.1,142.1,158.1,142.1,158.1,142.1L158.1,142.1z"/>
	</g>
	<g>
		<path class="st0" d="M157.4,144c0,0.2-0.1,0.4-0.1,0.6c0,0,0,0,0,0C157.3,144.4,157.4,144.2,157.4,144
			C157.4,144,157.4,144,157.4,144L157.4,144z"/>
	</g>
	<g>
		<path class="st0" d="M157.4,142.8c0.1,0.7,0,1.3-0.2,2c0,0.2-0.1,0.4-0.2,0.5c0,0,0,0,0,0c0.2-0.6,0.4-1.3,0.4-1.9
			C157.4,143.2,157.4,143,157.4,142.8C157.4,142.8,157.4,142.8,157.4,142.8L157.4,142.8z"/>
	</g>
	<g>
		<path class="st0" d="M157.5,142.1c0.1,0.4,0.2,0.9,0.1,1.3c0,0.5-0.1,0.9-0.3,1.3c-0.1,0.2-0.2,0.4-0.4,0.7c0,0,0,0,0,0
			c0.3-0.4,0.5-0.8,0.6-1.2c0.1-0.4,0.2-0.9,0.1-1.4C157.6,142.6,157.5,142.3,157.5,142.1C157.5,142.1,157.5,142.1,157.5,142.1
			L157.5,142.1z"/>
	</g>
	<g>
		<path class="st0" d="M157.7,143.3c0,0.7-0.2,1.4-0.5,2c-0.1,0.2-0.2,0.3-0.3,0.5c0,0,0,0,0,0c0.2-0.3,0.4-0.6,0.5-0.9
			c0.1-0.3,0.2-0.7,0.3-1C157.6,143.7,157.7,143.5,157.7,143.3C157.7,143.3,157.7,143.3,157.7,143.3L157.7,143.3z"/>
	</g>
	<g>
		<path class="st0" d="M157.9,143.4c-0.1,0.7-0.1,1.4-0.5,2.1c-0.1,0.2-0.2,0.3-0.4,0.5c0,0,0,0,0,0c0.5-0.5,0.7-1.2,0.8-1.9
			C157.8,143.8,157.9,143.6,157.9,143.4C157.9,143.4,157.9,143.4,157.9,143.4L157.9,143.4z"/>
	</g>
	<g>
		<path class="st0" d="M158,143.5c0,0.7-0.1,1.4-0.5,2c-0.1,0.2-0.2,0.3-0.3,0.5c0,0,0,0,0,0c0.2-0.3,0.4-0.6,0.5-0.9
			c0.1-0.3,0.2-0.7,0.3-1C158,143.9,158,143.7,158,143.5C158,143.5,158,143.5,158,143.5L158,143.5z"/>
	</g>
	<g>
		<path class="st0" d="M156.1,144.5c0,0.2-0.1,0.3-0.1,0.5c-0.1,0.2-0.1,0.3-0.2,0.4c0,0,0,0,0,0c0.1-0.1,0.2-0.3,0.2-0.4
			C156,144.9,156.1,144.7,156.1,144.5C156.1,144.5,156.1,144.5,156.1,144.5L156.1,144.5z"/>
	</g>
	<g>
		<path class="st0" d="M156.4,144.1c0,0.5-0.2,0.9-0.4,1.3c0,0,0,0,0,0C156.3,145,156.4,144.6,156.4,144.1
			C156.4,144.1,156.4,144.1,156.4,144.1L156.4,144.1z"/>
	</g>
	<g>
		<path class="st0" d="M155.9,144.4c0,0.4-0.2,0.8-0.5,1.1c0,0,0,0,0,0C155.6,145.2,155.8,144.8,155.9,144.4
			C155.9,144.4,155.9,144.4,155.9,144.4L155.9,144.4z"/>
	</g>
	<g>
		<path class="st0" d="M155.4,144.8c-0.1,0.1-0.1,0.3-0.2,0.4c0,0,0,0,0,0C155.3,145.1,155.3,144.9,155.4,144.8
			C155.4,144.8,155.4,144.8,155.4,144.8L155.4,144.8z"/>
	</g>
	<g>
		<path class="st0" d="M155.6,145.1c0.3,0,0.5,0.1,0.8,0.1c0.3,0.1,0.5,0.2,0.7,0.3c0,0,0,0,0,0c-0.2-0.1-0.5-0.2-0.7-0.3
			C156.1,145.2,155.9,145.2,155.6,145.1C155.6,145.1,155.6,145.1,155.6,145.1L155.6,145.1z"/>
	</g>
	<g>
		<path class="st0" d="M156,145.2c0.4,0.1,0.8,0.3,1.2,0.5c0,0,0,0,0,0C156.9,145.5,156.5,145.3,156,145.2
			C156,145.2,156,145.2,156,145.2L156,145.2z"/>
	</g>
	<g>
		<path class="st0" d="M155.9,145c0.3,0,0.6,0.1,0.9,0.2c0.1,0.1,0.3,0.1,0.4,0.2c0.1,0.1,0.3,0.2,0.4,0.2c0,0,0,0,0,0
			c-0.1-0.1-0.2-0.2-0.4-0.2c-0.1-0.1-0.3-0.1-0.4-0.2C156.5,145.1,156.2,145,155.9,145C155.9,145,155.9,145,155.9,145L155.9,145z"
			/>
	</g>
	<g>
		<path class="st0" d="M156.5,144.8c0.2,0.1,0.4,0.1,0.6,0.2c0.1,0,0.2,0.1,0.3,0.1c0.1,0,0.2,0.1,0.3,0.1c0,0,0,0,0,0
			c-0.2-0.1-0.4-0.2-0.6-0.3C156.9,145,156.7,144.9,156.5,144.8C156.5,144.8,156.5,144.8,156.5,144.8L156.5,144.8z"/>
	</g>
	<g>
		<path class="st0" d="M156.5,144.5c0.2,0.1,0.4,0.1,0.6,0.2c0.2,0.1,0.4,0.2,0.6,0.3c0,0,0,0,0,0c-0.2-0.1-0.4-0.2-0.6-0.3
			C156.9,144.6,156.7,144.6,156.5,144.5C156.5,144.5,156.5,144.5,156.5,144.5L156.5,144.5z"/>
	</g>
	<g>
		<path class="st0" d="M157.3,144.5c0.1,0.1,0.2,0.1,0.3,0.2c0.1,0,0.1,0.1,0.2,0.1c0.1,0,0.1,0.1,0.2,0.1c0,0,0,0,0,0
			c0,0-0.1-0.1-0.2-0.1c-0.1,0-0.1-0.1-0.2-0.1C157.5,144.6,157.4,144.6,157.3,144.5C157.3,144.5,157.3,144.5,157.3,144.5
			L157.3,144.5z"/>
	</g>
	<g>
		<path class="st0" d="M157.2,144.3c0.1,0,0.2,0,0.3,0c0.1,0,0.2,0.1,0.3,0.1c0,0,0,0,0,0C157.7,144.4,157.4,144.3,157.2,144.3
			C157.2,144.3,157.2,144.3,157.2,144.3L157.2,144.3z"/>
	</g>
	<g>
		<path class="st0" d="M157.2,143.8c0.3-0.1,0.6,0,0.9,0.1c0,0,0,0,0,0C157.9,143.8,157.5,143.7,157.2,143.8
			C157.2,143.8,157.2,143.8,157.2,143.8L157.2,143.8z"/>
	</g>
	<g>
		<path class="st0" d="M157.4,143.4c0.2,0,0.3,0,0.5,0c0,0,0,0,0,0C157.8,143.4,157.6,143.4,157.4,143.4
			C157.4,143.4,157.4,143.4,157.4,143.4L157.4,143.4z"/>
	</g>
	<g>
		<path class="st0" d="M157.5,143.1c0.1,0,0.1,0,0.2,0c0.1,0,0.1,0,0.2,0c0,0,0,0,0,0c-0.1,0-0.1,0-0.2,0
			C157.6,143.1,157.6,143.1,157.5,143.1C157.5,143.1,157.5,143.1,157.5,143.1L157.5,143.1z"/>
	</g>
	<g>
		<path class="st0" d="M157.7,143c0.1,0,0.2,0,0.2-0.1c0,0,0,0,0,0C157.8,142.9,157.8,143,157.7,143C157.7,143,157.7,143,157.7,143
			L157.7,143z"/>
	</g>
	<g>
		<path class="st0" d="M155,145.3c0.4,0,0.7,0,1.1,0.1c0.3,0.1,0.6,0.2,0.8,0.3c0.1,0.1,0.2,0.2,0.3,0.4c0,0,0,0,0,0
			c0-0.3-0.3-0.4-0.5-0.6c-0.3-0.1-0.7-0.2-1-0.2C155.4,145.3,155.2,145.3,155,145.3C154.9,145.3,154.9,145.3,155,145.3L155,145.3z"
			/>
	</g>
	<g>
		<path class="st0" d="M154.9,145.1c0.6,0.1,1.3,0.2,1.9,0.6c0.1,0.1,0.3,0.2,0.4,0.4c0,0,0,0,0,0c-0.2-0.3-0.5-0.5-0.7-0.6
			c-0.3-0.2-0.6-0.2-0.9-0.3C155.3,145.1,155.1,145.1,154.9,145.1C154.9,145.1,154.9,145.1,154.9,145.1L154.9,145.1z"/>
	</g>
	<g>
		<path class="st0" d="M156.5,145.7c0.1,0.1,0.1,0.2,0.2,0.2c0.1,0.1,0.1,0.2,0.2,0.2c0,0,0,0,0,0c-0.1-0.1-0.1-0.2-0.2-0.2
			C156.7,145.9,156.6,145.8,156.5,145.7C156.5,145.7,156.5,145.7,156.5,145.7L156.5,145.7z"/>
	</g>
	<g>
		<path class="st0" d="M156.9,146.1C157,146.1,157,146,156.9,146.1C156.9,146,156.9,146.1,156.9,146.1L156.9,146.1z"/>
	</g>
	<g>
		<path class="st0" d="M153.1,145.5C153.1,145.5,153.1,145.5,153.1,145.5C153.1,145.5,153.1,145.5,153.1,145.5L153.1,145.5z"/>
	</g>
	<g>
		<path class="st0" d="M153.1,145.5c-0.1-0.1-0.3-0.1-0.3,0c0,0.1,0,0.1,0,0.2c0,0.1,0.1,0.1,0.2,0.1
			C153,145.8,153.1,145.7,153.1,145.5C153.1,145.6,153.1,145.6,153.1,145.5c0,0.2-0.2,0.3-0.3,0.2c0,0-0.1-0.1,0-0.2
			c0-0.1,0.1-0.1,0.1-0.1C153,145.4,153,145.5,153.1,145.5C153.1,145.5,153.1,145.5,153.1,145.5L153.1,145.5z"/>
	</g>
	<g>
		<path class="st0" d="M153,145.3c0,0,0,0.1,0,0.2c0,0,0,0,0,0.1c0,0,0,0,0.1,0c0,0,0,0,0,0C153,145.5,153,145.4,153,145.3
			C153,145.3,153,145.3,153,145.3L153,145.3z"/>
	</g>
	<g>
		<path class="st0" d="M153,145.4c0,0,0,0.1,0,0.1c0,0,0,0,0,0.1c0,0,0,0,0,0c0,0,0,0,0,0c0,0,0,0,0,0c0,0,0,0,0,0c0,0,0,0,0,0
			c0,0,0,0,0-0.1C153.1,145.5,153,145.4,153,145.4C153,145.4,153,145.4,153,145.4L153,145.4z"/>
	</g>
	<g>
		<path class="st0" d="M153,145.4c0,0.1,0.1,0.1,0.1,0.2c0,0,0,0,0,0C153.1,145.5,153.1,145.5,153,145.4
			C153,145.4,153,145.4,153,145.4L153,145.4z"/>
	</g>
	<g>
		<path class="st0" d="M153.1,145.4C153.1,145.4,153.1,145.4,153.1,145.4c0.1,0.1,0.1,0.2,0.2,0.2c0,0,0,0,0,0
			C153.2,145.5,153.2,145.5,153.1,145.4C153.1,145.4,153.1,145.4,153.1,145.4C153.1,145.4,153.1,145.4,153.1,145.4L153.1,145.4z"/>
	</g>
	<g>
		<path class="st0" d="M153.7,154.5c0.4-0.2,0.7-0.5,1.1-0.8c0.3-0.3,0.6-0.6,0.9-1c0.3-0.3,0.5-0.7,0.7-1.1
			c0.2-0.4,0.4-0.8,0.5-1.2c0.1-0.4,0.2-0.8,0.2-1.3c0-0.1,0-0.1,0-0.2c0,0,0,0,0,0c0,0.4-0.1,0.9-0.2,1.3c-0.1,0.4-0.3,0.8-0.5,1.2
			c-0.2,0.4-0.4,0.8-0.7,1.1c-0.3,0.3-0.6,0.7-0.9,1c-0.3,0.3-0.7,0.6-1,0.8C153.8,154.4,153.7,154.4,153.7,154.5
			C153.7,154.5,153.7,154.5,153.7,154.5L153.7,154.5z"/>
	</g>
	<g>
		<path class="st0" d="M153.9,154.5c0.6-0.3,1.1-0.7,1.5-1.2c0.4-0.5,0.8-1,1.1-1.6c0.2-0.3,0.3-0.6,0.5-1c0,0,0,0,0,0
			c-0.3,0.6-0.6,1.2-0.9,1.7c-0.4,0.5-0.8,1-1.3,1.4C154.5,154.1,154.2,154.3,153.9,154.5C153.9,154.5,153.9,154.5,153.9,154.5
			L153.9,154.5z"/>
	</g>
	<g>
		<path class="st0" d="M154,154.8c0.5-0.3,1-0.7,1.5-1.1c0.4-0.4,0.9-0.9,1.2-1.4c0.2-0.3,0.4-0.6,0.6-0.9c0,0,0,0,0,0
			c-0.2,0.3-0.3,0.5-0.5,0.8c-0.2,0.3-0.4,0.5-0.6,0.7c-0.4,0.5-0.8,0.9-1.3,1.3C154.5,154.4,154.3,154.6,154,154.8
			C153.9,154.8,154,154.8,154,154.8L154,154.8z"/>
	</g>
	<g>
		<path class="st0" d="M154.2,154.9c0.2-0.1,0.4-0.2,0.5-0.4c0.2-0.1,0.3-0.3,0.5-0.4c0.3-0.3,0.6-0.6,0.9-0.9
			c0.1-0.1,0.2-0.2,0.2-0.3c0.1-0.1,0.2-0.2,0.2-0.3c0,0,0,0,0,0c-0.1,0.2-0.3,0.3-0.4,0.5c-0.1,0.2-0.3,0.3-0.4,0.5
			c-0.3,0.3-0.6,0.6-1,0.9C154.6,154.6,154.4,154.7,154.2,154.9C154.2,154.9,154.2,154.9,154.2,154.9L154.2,154.9z"/>
	</g>
	<g>
		<path class="st0" d="M154.4,154.9c0.3-0.2,0.6-0.4,0.9-0.6c0.3-0.2,0.6-0.5,0.8-0.7c0.1-0.1,0.3-0.3,0.4-0.4c0,0,0,0,0,0
			c-0.5,0.5-1,1-1.6,1.4C154.7,154.7,154.5,154.8,154.4,154.9C154.4,154.9,154.4,154.9,154.4,154.9L154.4,154.9z"/>
	</g>
	<g>
		<path class="st0" d="M154.4,155.2c0.4-0.3,0.9-0.5,1.3-0.9c0.4-0.3,0.7-0.7,1-1.1c0.2-0.2,0.3-0.5,0.5-0.7c0,0,0,0,0,0
			c-0.3,0.4-0.6,0.9-0.9,1.2c-0.3,0.4-0.7,0.7-1.1,1C154.8,154.9,154.6,155,154.4,155.2C154.4,155.2,154.4,155.2,154.4,155.2
			L154.4,155.2z"/>
	</g>
	<g>
		<path class="st0" d="M155.7,145.9c0.5,0.4,0.8,1.1,0.9,1.7c0,0.2,0,0.4,0,0.5c0,0,0,0,0,0c0.1-0.7-0.1-1.3-0.5-1.9
			C155.9,146.1,155.8,146,155.7,145.9C155.7,145.9,155.7,145.9,155.7,145.9L155.7,145.9z"/>
	</g>
	<g>
		<path class="st0" d="M156.1,146.3c0.3,0.5,0.5,1,0.6,1.5c0,0.2,0,0.3,0,0.5c0,0,0,0,0,0c0-0.5-0.1-1.1-0.4-1.6
			C156.3,146.5,156.2,146.4,156.1,146.3C156.2,146.2,156.1,146.3,156.1,146.3L156.1,146.3z"/>
	</g>
	<g>
		<path class="st0" d="M156.4,146.5c0.3,0.4,0.5,0.9,0.5,1.4c0,0.1,0,0.3,0,0.4c0,0,0,0,0,0c0-0.5-0.1-1-0.3-1.5
			C156.6,146.7,156.5,146.6,156.4,146.5C156.4,146.5,156.4,146.5,156.4,146.5L156.4,146.5z"/>
	</g>
	<g>
		<path class="st0" d="M156.8,146.8c0.1,0.2,0.1,0.4,0.2,0.6c0.1,0.2,0.1,0.4,0.2,0.6c0,0,0,0,0,0c-0.1-0.2-0.1-0.4-0.2-0.6
			C156.9,147.2,156.9,147,156.8,146.8C156.8,146.8,156.8,146.8,156.8,146.8L156.8,146.8z"/>
	</g>
	<g>
		<path class="st0" d="M157.2,147c0.1,0.2,0.1,0.4,0.2,0.6c0,0.2,0.1,0.4,0.1,0.7c0,0,0,0,0,0c0-0.2,0-0.4-0.1-0.6
			C157.3,147.4,157.3,147.2,157.2,147C157.2,147,157.2,147,157.2,147L157.2,147z"/>
	</g>
	<g>
		<path class="st0" d="M157.5,147.5c0.2,0.5,0.3,1,0.3,1.5c0,0,0,0,0,0C157.8,148.5,157.7,148,157.5,147.5
			C157.5,147.5,157.5,147.5,157.5,147.5L157.5,147.5z"/>
	</g>
	<g>
		<path class="st0" d="M156.1,149c0.1,0.8,0,1.5-0.3,2.2c-0.1,0.2-0.2,0.4-0.3,0.6c0,0,0,0,0,0c0.4-0.7,0.5-1.4,0.6-2.2
			C156.2,149.5,156.2,149.3,156.1,149C156.2,149,156.1,149,156.1,149L156.1,149z"/>
	</g>
	<g>
		<path class="st0" d="M153.1,155c0.2,0.2,0.4,0.4,0.6,0.5c0,0,0,0,0,0C153.5,155.4,153.2,155.2,153.1,155
			C153.1,155,153.1,155,153.1,155L153.1,155z"/>
	</g>
	<g>
		<path class="st0" d="M153,154.7c0,0-0.1-0.1-0.1-0.1c0,0-0.1-0.1-0.1-0.1c0,0,0,0,0,0c0.1,0.2,0.3,0.3,0.5,0.5
			c0.2,0.1,0.4,0.3,0.5,0.4c0,0,0,0,0,0c-0.2-0.1-0.4-0.2-0.6-0.4c-0.2-0.1-0.3-0.3-0.5-0.4c0,0,0,0,0,0c0,0,0.1,0.1,0.1,0.1
			C152.9,154.7,153,154.7,153,154.7C153,154.8,153,154.8,153,154.7L153,154.7z"/>
	</g>
	<g>
		<path class="st0" d="M153.4,154.7c-0.1-0.1-0.2-0.1-0.3-0.2c0,0,0,0,0,0c0.1,0.2,0.3,0.3,0.4,0.5c0.1,0.1,0.2,0.1,0.3,0.2
			c0.1,0.1,0.2,0.1,0.3,0.2c0,0,0,0,0,0c-0.1-0.1-0.2-0.1-0.3-0.2c-0.1-0.1-0.2-0.1-0.3-0.2C153.5,154.9,153.4,154.8,153.4,154.7
			c-0.1,0-0.2-0.1-0.3-0.2c0,0,0,0,0,0C153.2,154.6,153.3,154.6,153.4,154.7C153.4,154.7,153.4,154.7,153.4,154.7L153.4,154.7z"/>
	</g>
	<g>
		<path class="st0" d="M153.4,154.5c0.2,0.3,0.4,0.6,0.8,0.7c0,0,0,0,0,0C153.8,155,153.5,154.8,153.4,154.5
			C153.4,154.4,153.3,154.5,153.4,154.5L153.4,154.5z"/>
	</g>
	<g>
		<path class="st0" d="M153.6,154.3c0.2,0.3,0.4,0.6,0.8,0.7c0,0,0,0,0,0C154,154.9,153.8,154.6,153.6,154.3
			C153.6,154.3,153.6,154.3,153.6,154.3L153.6,154.3z"/>
	</g>
	<g>
		<path class="st0" d="M153.9,154.3c0.1,0.3,0.4,0.6,0.7,0.7c0,0,0,0,0,0C154.3,154.8,154,154.6,153.9,154.3
			C153.9,154.2,153.9,154.2,153.9,154.3L153.9,154.3z"/>
	</g>
	<g>
		<path class="st0" d="M154.2,154.3c0.1,0.3,0.4,0.5,0.7,0.6c0,0,0,0,0,0c-0.2,0-0.3-0.1-0.4-0.2
			C154.4,154.5,154.3,154.4,154.2,154.3C154.3,154.2,154.2,154.2,154.2,154.3L154.2,154.3z"/>
	</g>
	<g>
		<path class="st0" d="M154.5,154.2c0.2,0.2,0.4,0.4,0.7,0.5c0,0,0,0,0,0C154.9,154.6,154.7,154.4,154.5,154.2
			C154.5,154.2,154.5,154.2,154.5,154.2L154.5,154.2z"/>
	</g>
	<g>
		<path class="st0" d="M154.7,154.1c0.1,0.1,0.2,0.2,0.3,0.3c0.1,0.1,0.2,0.2,0.4,0.2c0,0,0,0,0,0c-0.1-0.1-0.2-0.1-0.4-0.2
			C154.9,154.3,154.8,154.2,154.7,154.1C154.8,154,154.7,154.1,154.7,154.1L154.7,154.1z"/>
	</g>
	<g>
		<path class="st0" d="M155,153.9c0.1,0.1,0.2,0.1,0.3,0.2c0.1,0.1,0.2,0.1,0.3,0.2c0,0,0,0,0,0c-0.1-0.1-0.2-0.1-0.3-0.2
			C155.2,154.1,155.1,154,155,153.9C155,153.9,155,153.9,155,153.9L155,153.9z"/>
	</g>
	<g>
		<path class="st0" d="M155.3,153.9c0.1,0.1,0.3,0.2,0.5,0.2c0,0,0,0,0,0C155.7,154,155.5,154,155.3,153.9
			C155.3,153.8,155.3,153.9,155.3,153.9L155.3,153.9z"/>
	</g>
	<g>
		<polygon class="st0" points="156.1,153.8 156.1,153.8 156.1,153.8 		"/>
	</g>
	<g>
		<path class="st0" d="M154.8,151.7c-0.2,0.5-0.4,0.9-0.8,1.3c-0.1,0.1-0.2,0.2-0.3,0.3c0,0,0,0,0,0c0.4-0.3,0.7-0.8,0.9-1.2
			C154.7,152,154.8,151.9,154.8,151.7C154.8,151.7,154.8,151.7,154.8,151.7L154.8,151.7z"/>
	</g>
	<g>
		<path class="st0" d="M145.7,152.2c0.7-0.3,1.2-0.9,1.5-1.6c0.4-0.7,0.6-1.5,0.9-2.3c0.2-0.5,0.3-0.9,0.6-1.4c0,0,0,0,0,0
			c-0.4,0.8-0.6,1.6-0.9,2.5c-0.3,0.7-0.6,1.5-1.1,2C146.4,151.7,146.1,152,145.7,152.2C145.7,152.2,145.7,152.2,145.7,152.2
			L145.7,152.2z"/>
	</g>
	<g>
		<path class="st0" d="M146,152.2c0.6-0.4,1.1-1,1.5-1.7c0.4-0.7,0.7-1.5,1-2.3c0.2-0.5,0.3-0.9,0.4-1.4c0,0,0,0,0,0
			c-0.2,0.8-0.5,1.6-0.8,2.4c-0.3,0.7-0.7,1.4-1.2,2C146.7,151.6,146.4,151.9,146,152.2C146,152.2,146,152.2,146,152.2L146,152.2z"
			/>
	</g>
	<g>
		<path class="st0" d="M146.5,152.3c0.5-0.5,0.9-1,1.2-1.6c0.3-0.6,0.6-1.2,0.8-1.9c0.1-0.4,0.3-0.7,0.4-1.1c0,0,0,0,0,0
			c-0.1,0.3-0.2,0.6-0.3,1c-0.1,0.3-0.2,0.6-0.4,1c-0.3,0.6-0.6,1.2-0.9,1.8C147,151.7,146.7,152,146.5,152.3
			C146.5,152.3,146.5,152.3,146.5,152.3L146.5,152.3z"/>
	</g>
	<g>
		<path class="st0" d="M146.9,152.3c0.4-0.4,0.7-0.9,1-1.3c0.3-0.5,0.5-1,0.7-1.5c0.1-0.3,0.2-0.6,0.3-0.9c0,0,0,0,0,0
			c-0.2,0.5-0.3,1.1-0.6,1.6c-0.2,0.5-0.5,1-0.8,1.4C147.3,151.8,147.1,152,146.9,152.3C146.9,152.3,146.9,152.3,146.9,152.3
			L146.9,152.3z"/>
	</g>
	<g>
		<path class="st0" d="M147.2,152.2c0,0.1,0.1,0,0.1,0c0,0,0.1-0.1,0.1-0.1c0,0,0.1-0.1,0.1-0.1c0.1-0.2,0.3-0.3,0.4-0.5
			c0.3-0.4,0.5-0.7,0.7-1.1c0.1-0.2,0.2-0.4,0.3-0.7c0,0,0,0,0,0c-0.3,0.8-0.7,1.5-1.2,2.1c-0.1,0.1-0.1,0.2-0.2,0.3
			C147.4,152.1,147.3,152.3,147.2,152.2C147.2,152.2,147.2,152.2,147.2,152.2L147.2,152.2z"/>
	</g>
	<g>
		<path class="st0" d="M147.6,152.2c0.5-0.5,0.9-1.1,1.2-1.7c0.1-0.2,0.2-0.3,0.2-0.5c0,0,0,0,0,0c-0.3,0.6-0.6,1.2-1.1,1.8
			C147.8,151.9,147.7,152.1,147.6,152.2C147.6,152.2,147.6,152.2,147.6,152.2L147.6,152.2z"/>
	</g>
	<g>
		<path class="st0" d="M147.3,143.2c0,0.1,0.1,0.2,0.2,0.3c0,0.1,0.1,0.2,0.1,0.3c0.1,0.2,0.2,0.4,0.2,0.6c0.1,0.4,0.2,0.8,0.3,1.3
			c0,0.2,0,0.5,0,0.7c0,0,0,0,0,0c0-0.9-0.1-1.7-0.5-2.5c0-0.1-0.1-0.2-0.2-0.3C147.5,143.4,147.4,143.3,147.3,143.2
			C147.3,143.2,147.3,143.2,147.3,143.2L147.3,143.2z"/>
	</g>
	<g>
		<path class="st0" d="M147.6,143c0.4,0.8,0.6,1.7,0.8,2.6c0,0.3,0.1,0.5,0.1,0.8c0,0,0,0,0,0c0-0.9-0.2-1.8-0.5-2.7
			C147.8,143.4,147.7,143.2,147.6,143C147.6,143,147.6,143,147.6,143L147.6,143z"/>
	</g>
	<g>
		<path class="st0" d="M147.8,142.8c0.2,0.5,0.4,1,0.6,1.5c0.2,0.5,0.3,1.1,0.3,1.6c0,0.3,0,0.6-0.1,0.9c0,0,0,0,0,0
			c0.1-0.5,0.2-1.1,0.1-1.6c-0.1-0.5-0.2-1.1-0.4-1.6C148.1,143.4,148,143.1,147.8,142.8C147.8,142.8,147.8,142.8,147.8,142.8
			L147.8,142.8z"/>
	</g>
	<g>
		<path class="st0" d="M148,142.5c0.5,0.9,0.8,1.8,0.9,2.8c0,0.3,0.1,0.5,0.1,0.8c0,0,0,0,0,0c0-1-0.2-1.9-0.6-2.8
			C148.2,143,148.1,142.8,148,142.5C148,142.5,148,142.5,148,142.5L148,142.5z"/>
	</g>
	<g>
		<path class="st0" d="M148.9,143.4c0.2,0.5,0.4,1,0.5,1.5c0,0.2,0.1,0.3,0.1,0.5c0,0,0,0,0,0c-0.1-0.5-0.2-1.1-0.4-1.6
			C149.1,143.7,149,143.5,148.9,143.4C148.9,143.4,148.9,143.4,148.9,143.4L148.9,143.4z"/>
	</g>
	<g>
		<path class="st0" d="M149.5,145c0.1,0.5,0.1,1.1,0.2,1.6c0,0.5,0,1.1-0.1,1.6c0,0.3-0.1,0.6-0.2,0.9c0,0,0,0,0,0
			c0.2-0.5,0.3-1,0.3-1.5c0-0.5,0-1.1-0.1-1.6C149.6,145.6,149.5,145.3,149.5,145C149.5,145,149.5,145,149.5,145L149.5,145z"/>
	</g>
	<g>
		<path class="st0" d="M149.8,147c-0.1,0.6-0.2,1.3-0.3,1.9c0,0.2-0.1,0.4-0.1,0.5c0,0,0,0,0,0c0.1-0.6,0.2-1.3,0.3-1.9
			C149.7,147.3,149.8,147.1,149.8,147C149.8,147,149.8,147,149.8,147L149.8,147z"/>
	</g>
	<g>
		<path class="st0" d="M147.5,144.7c0.2,0.6,0.3,1.3,0.3,2c0,0.7-0.1,1.3-0.2,2c-0.1,0.4-0.2,0.7-0.3,1.1c0,0,0,0,0,0
			c0.1-0.3,0.2-0.6,0.3-0.9c0.1-0.3,0.1-0.6,0.2-1c0.1-0.7,0.1-1.3,0-2C147.7,145.4,147.6,145.1,147.5,144.7
			C147.5,144.7,147.5,144.7,147.5,144.7L147.5,144.7z"/>
	</g>
	<g>
		<path class="st0" d="M147.9,147.1c0,0.3,0,0.6,0,1c0,0.3-0.1,0.6-0.2,1c0,0,0,0,0,0C147.9,148.4,148,147.7,147.9,147.1
			C148,147.1,147.9,147.1,147.9,147.1L147.9,147.1z"/>
	</g>
	<g>
		<path class="st0" d="M155.6,152.7c0.2,0.4,0.6,0.8,1,0.9c0,0,0,0,0,0C156.2,153.4,155.8,153.1,155.6,152.7
			C155.6,152.7,155.6,152.7,155.6,152.7L155.6,152.7z"/>
	</g>
	<g>
		<path class="st0" d="M156.1,152.7c0.2,0.2,0.4,0.5,0.7,0.6c0,0,0,0,0,0C156.5,153.1,156.3,152.9,156.1,152.7
			C156.1,152.7,156.1,152.7,156.1,152.7L156.1,152.7z"/>
	</g>
	<g>
		<path class="st0" d="M156.3,152.6c0.1,0.2,0.4,0.4,0.7,0.4c0,0,0,0,0,0c-0.1,0-0.3,0-0.4-0.1C156.5,152.8,156.4,152.7,156.3,152.6
			C156.3,152.6,156.3,152.6,156.3,152.6L156.3,152.6z"/>
	</g>
	<g>
		<path class="st0" d="M156.8,152.5C156.8,152.6,156.9,152.6,156.8,152.5C156.9,152.6,156.9,152.6,156.8,152.5
			C156.9,152.6,156.8,152.5,156.8,152.5C156.8,152.5,156.8,152.5,156.8,152.5L156.8,152.5z"/>
	</g>
	<g>
		<path class="st0" d="M153.1,155.8c-0.2,0.3-0.3,0.8-0.3,1.2c0,0,0,0,0,0c0-0.2,0-0.4,0.1-0.6C152.9,156.2,153,156,153.1,155.8
			C153.1,155.8,153.1,155.8,153.1,155.8L153.1,155.8z"/>
	</g>
	<g>
		<path class="st0" d="M153.3,155.8c-0.1,0.2-0.1,0.4-0.1,0.6c0,0.1,0,0.2,0,0.3c0,0.1,0,0.2,0,0.3c0,0,0,0,0,0c0-0.1,0-0.2,0-0.3
			c0-0.1,0-0.2,0-0.3C153.2,156.2,153.2,156,153.3,155.8C153.3,155.8,153.3,155.8,153.3,155.8L153.3,155.8z"/>
	</g>
	<g>
		<path class="st0" d="M153.3,155.8c-0.1,0.2-0.1,0.4-0.1,0.5c0,0.1,0,0.2,0,0.3c0,0.1,0,0.2,0,0.3c0,0,0,0,0,0c0-0.1,0-0.2,0-0.3
			c0-0.1,0-0.2,0-0.3C153.2,156.2,153.3,156,153.3,155.8C153.3,155.8,153.3,155.8,153.3,155.8L153.3,155.8z"/>
	</g>
	<g>
		<path class="st0" d="M153.4,155.8c0.1,0.2,0.1,0.4,0.1,0.5c0,0.2,0,0.4,0,0.5c0,0,0,0,0,0c0-0.2,0-0.4,0-0.6
			C153.6,156.1,153.5,155.9,153.4,155.8C153.4,155.7,153.4,155.7,153.4,155.8L153.4,155.8z"/>
	</g>
	<g>
		<path class="st0" d="M153.6,155.9c0.2,0.1,0.3,0.3,0.4,0.5c0.1,0.2,0.1,0.5,0,0.7c0,0,0,0,0,0c0.2-0.3,0.1-0.8-0.1-1
			C153.7,156,153.7,155.9,153.6,155.9C153.6,155.9,153.5,155.9,153.6,155.9L153.6,155.9z"/>
	</g>
	<g>
		<path class="st0" d="M153.7,155.9c0.2,0.1,0.3,0.3,0.4,0.5c0.1,0.2,0.1,0.4,0.1,0.6c0,0,0,0,0,0
			C154.3,156.6,154.1,156.1,153.7,155.9C153.7,155.8,153.7,155.9,153.7,155.9L153.7,155.9z"/>
	</g>
	<g>
		<path class="st0" d="M153.8,155.9c0.2,0.1,0.4,0.3,0.6,0.5c0.1,0.1,0.1,0.2,0.2,0.3c0,0.1,0,0.1,0,0.2c0,0.1,0,0.1,0,0.2
			c0,0,0,0,0,0c0-0.1,0-0.2,0-0.3c0-0.1-0.1-0.2-0.1-0.3c-0.1-0.2-0.2-0.3-0.4-0.5C154,156,153.9,155.9,153.8,155.9
			C153.8,155.9,153.8,155.9,153.8,155.9L153.8,155.9z"/>
	</g>
	<g>
		<path class="st0" d="M154.3,156c0.2,0,0.3,0.1,0.4,0.3c0,0.1,0.1,0.2,0.1,0.2c0,0,0,0.1,0,0.1c0,0,0,0.1,0,0.1c0,0,0,0,0,0
			c0-0.1,0-0.2,0-0.3c0-0.1,0-0.2-0.1-0.3C154.6,156.2,154.5,156,154.3,156C154.3,156,154.3,156,154.3,156L154.3,156z"/>
	</g>
	<g>
		<path class="st0" d="M146.8,153.1c0,0.2,0,0.4,0.1,0.7c0.1,0.2,0.1,0.4,0.3,0.6c0,0,0,0,0,0c-0.1-0.1-0.1-0.2-0.2-0.3
			c0-0.1-0.1-0.2-0.1-0.3C146.8,153.6,146.8,153.3,146.8,153.1C146.8,153.1,146.8,153.1,146.8,153.1L146.8,153.1z"/>
	</g>
	<g>
		<path class="st0" d="M146.9,153c0,0.2,0.1,0.4,0.2,0.6c0,0.1,0.1,0.2,0.1,0.3c0,0.1,0.1,0.2,0.2,0.3c0,0,0,0,0,0
			c0-0.1-0.1-0.2-0.1-0.3c0-0.1-0.1-0.2-0.1-0.3C147,153.4,147,153.2,146.9,153C146.9,152.9,146.9,153,146.9,153L146.9,153z"/>
	</g>
	<g>
		<path class="st0" d="M146.9,153.1c0.1,0.2,0.1,0.3,0.3,0.4c0,0.1,0.1,0.1,0.2,0.2c0,0,0.1,0.1,0.1,0.1c0,0,0.1,0.1,0.1,0.1
			c0,0,0,0,0,0c0,0-0.1-0.1-0.1-0.1c0,0-0.1-0.1-0.1-0.1c-0.1-0.1-0.1-0.1-0.2-0.2C147.1,153.4,147,153.2,146.9,153.1
			C147,153,146.9,153.1,146.9,153.1L146.9,153.1z"/>
	</g>
	<g>
		<path class="st0" d="M147.2,153.1c0.1,0.1,0.1,0.2,0.2,0.2c0,0,0,0,0,0C147.4,153.3,147.3,153.2,147.2,153.1
			C147.2,153.1,147.2,153.1,147.2,153.1L147.2,153.1z"/>
	</g>
	<g>
		<path class="st0" d="M144.4,151.9c0.5,0.4,1.1,0.5,1.8,0.6c0.2,0,0.4,0,0.5,0c0,0,0,0,0,0c-0.3,0-0.6,0-0.9,0
			c-0.3,0-0.6-0.1-0.9-0.3C144.7,152.1,144.6,152,144.4,151.9C144.4,151.9,144.4,151.9,144.4,151.9L144.4,151.9z"/>
	</g>
	<g>
		<path class="st0" d="M145.5,152c0.7,0.3,1.4,0.3,2.1,0.2c0.2,0,0.4-0.1,0.6-0.2c0,0,0,0,0,0c-0.3,0.1-0.7,0.2-1.1,0.2
			c-0.4,0-0.7,0-1.1-0.1C145.9,152.1,145.7,152,145.5,152C145.5,151.9,145.5,151.9,145.5,152L145.5,152z"/>
	</g>
	<g>
		<path class="st0" d="M146.1,151.9c0.6,0.1,1.2,0,1.8-0.1c0.2,0,0.3-0.1,0.5-0.2c0,0,0,0,0,0c-0.6,0.2-1.2,0.4-1.8,0.3
			C146.4,151.9,146.2,151.9,146.1,151.9C146.1,151.9,146.1,151.9,146.1,151.9L146.1,151.9z"/>
	</g>
	<g>
		<path class="st0" d="M146.3,151.7c0.2,0.2,0.5,0.1,0.8,0c0.2,0,0.3-0.1,0.5-0.1c0.2-0.1,0.3-0.1,0.5-0.2c0.2-0.1,0.4-0.1,0.6-0.2
			c0,0,0,0,0,0c-0.3,0.1-0.7,0.2-1,0.3c-0.2,0-0.3,0.1-0.5,0.1c-0.1,0-0.3,0.1-0.4,0.1C146.6,151.8,146.5,151.8,146.3,151.7
			C146.3,151.7,146.3,151.7,146.3,151.7L146.3,151.7z"/>
	</g>
	<g>
		<path class="st0" d="M146.7,151.6c0.6,0,1.2-0.2,1.7-0.5c0.2-0.1,0.3-0.2,0.4-0.3c0,0,0,0,0,0c-0.5,0.3-1,0.5-1.6,0.7
			C147,151.5,146.8,151.5,146.7,151.6C146.7,151.6,146.7,151.6,146.7,151.6L146.7,151.6z"/>
	</g>
	<g>
		<path class="st0" d="M147.3,151.2c0.3-0.1,0.5-0.2,0.8-0.3c0.3-0.1,0.5-0.2,0.8-0.4c0,0,0,0,0,0c-0.3,0.1-0.5,0.3-0.8,0.4
			C147.9,151,147.6,151.1,147.3,151.2C147.3,151.2,147.3,151.2,147.3,151.2L147.3,151.2z"/>
	</g>
	<g>
		<path class="st0" d="M148,150.1c0.5-0.3,0.9-0.6,1.3-1c0.1-0.1,0.2-0.2,0.3-0.4c0,0,0,0,0,0c-0.4,0.4-0.7,0.8-1.2,1.1
			C148.2,149.9,148.1,150,148,150.1C148,150.1,148,150.1,148,150.1L148,150.1z"/>
	</g>
	<g>
		<path class="st0" d="M148.1,149.6c0.4-0.3,0.8-0.6,1.1-1c0.1-0.1,0.2-0.2,0.2-0.3c0,0,0,0,0,0c-0.1,0.2-0.3,0.4-0.5,0.6
			c-0.2,0.2-0.3,0.3-0.5,0.5C148.3,149.4,148.2,149.5,148.1,149.6C148.1,149.6,148.1,149.6,148.1,149.6L148.1,149.6z"/>
	</g>
	<g>
		<path class="st0" d="M148.2,149.1c0.4-0.3,0.8-0.6,1-1c0,0,0,0,0,0c-0.1,0.2-0.3,0.4-0.5,0.5C148.6,148.8,148.4,148.9,148.2,149.1
			C148.2,149.1,148.2,149.1,148.2,149.1L148.2,149.1z"/>
	</g>
	<g>
		<path class="st0" d="M148.7,148.3c0.2-0.2,0.5-0.5,0.7-0.7c0,0,0,0,0,0C149.1,147.8,148.9,148.1,148.7,148.3
			C148.6,148.3,148.7,148.3,148.7,148.3L148.7,148.3z"/>
	</g>
	<g>
		<path class="st0" d="M148.9,147.7C149,147.7,149,147.6,148.9,147.7C148.9,147.6,148.9,147.7,148.9,147.7L148.9,147.7z"/>
	</g>
	<g>
		<path class="st0" d="M148.2,146.3c0.3-0.3,0.6-0.6,0.8-1c0,0,0,0,0,0c-0.1,0.2-0.2,0.4-0.4,0.6C148.5,146,148.4,146.1,148.2,146.3
			C148.2,146.3,148.2,146.3,148.2,146.3L148.2,146.3z"/>
	</g>
	<g>
		<path class="st0" d="M148.4,145.7c0.3-0.4,0.6-0.8,0.9-1.2c0,0,0,0,0,0C149,144.9,148.7,145.3,148.4,145.7
			C148.3,145.7,148.3,145.7,148.4,145.7L148.4,145.7z"/>
	</g>
	<g>
		<path class="st0" d="M148,145.7c0.3-0.4,0.7-0.8,1-1.2c0,0,0,0,0,0C148.7,144.8,148.3,145.2,148,145.7
			C148,145.7,148,145.7,148,145.7L148,145.7z"/>
	</g>
	<g>
		<path class="st0" d="M148,145.3c0.3-0.4,0.6-0.8,0.9-1.2c0,0,0,0,0,0C148.6,144.5,148.3,144.9,148,145.3
			C148,145.3,148,145.3,148,145.3L148,145.3z"/>
	</g>
	<g>
		<path class="st0" d="M148,144.9c0.2-0.3,0.5-0.7,0.7-1c0,0,0,0,0,0C148.4,144.2,148.2,144.6,148,144.9
			C147.9,144.9,148,144.9,148,144.9L148,144.9z"/>
	</g>
	<g>
		<path class="st0" d="M148,144.4c0-0.1,0.1-0.3,0.2-0.4c0.1-0.1,0.2-0.2,0.3-0.3c0,0,0,0,0,0C148.2,143.9,148,144.2,148,144.4
			C147.9,144.4,148,144.4,148,144.4L148,144.4z"/>
	</g>
	<g>
		<path class="st0" d="M147.8,144.1c0.1-0.2,0.3-0.5,0.4-0.7c0,0,0,0,0,0C148.1,143.6,148,143.8,147.8,144.1
			C147.8,144.1,147.8,144.1,147.8,144.1L147.8,144.1z"/>
	</g>
	<g>
		<path class="st0" d="M147.6,143.9c0.2-0.3,0.4-0.7,0.7-1c0,0,0,0,0,0C148,143.2,147.7,143.5,147.6,143.9
			C147.5,143.9,147.6,143.9,147.6,143.9L147.6,143.9z"/>
	</g>
	<g>
		<path class="st0" d="M147.5,143.6c0.2-0.3,0.3-0.6,0.5-0.8c0,0,0,0,0,0C147.8,143,147.6,143.3,147.5,143.6
			C147.4,143.6,147.5,143.6,147.5,143.6L147.5,143.6z"/>
	</g>
	<g>
		<path class="st0" d="M147.4,143.3c0.1-0.2,0.2-0.4,0.3-0.6c0,0,0,0,0,0C147.5,142.9,147.4,143.1,147.4,143.3
			C147.3,143.3,147.4,143.3,147.4,143.3L147.4,143.3z"/>
	</g>
	<g>
		<path class="st0" d="M147.2,143.2c0-0.1,0.1-0.1,0.1-0.2c0-0.1,0.1-0.1,0.1-0.2c0,0,0,0,0,0c0,0.1-0.1,0.1-0.1,0.2
			C147.2,143.1,147.2,143.1,147.2,143.2C147.1,143.2,147.2,143.2,147.2,143.2L147.2,143.2z"/>
	</g>
	<g>
		<path class="st0" d="M147,143.1c0-0.1,0.1-0.1,0.1-0.2c0.1-0.1,0.1-0.1,0.2-0.2c0,0,0,0,0,0C147.1,142.8,147,142.9,147,143.1
			C146.9,143.1,147,143.1,147,143.1L147,143.1z"/>
	</g>
	<g>
		<path class="st0" d="M147,142.8c0-0.1,0.1-0.1,0.1-0.2c0,0,0,0,0,0C147,142.7,147,142.7,147,142.8C147,142.8,147,142.8,147,142.8
			L147,142.8z"/>
	</g>
	<g>
		<path class="st0" d="M146.8,142.7c0,0,0-0.1,0-0.1c0,0,0-0.1,0.1-0.1c0,0,0,0,0,0C146.8,142.5,146.8,142.6,146.8,142.7
			C146.8,142.7,146.8,142.7,146.8,142.7L146.8,142.7z"/>
	</g>
	<g>
		<path class="st0" d="M146.6,142.5C146.6,142.5,146.6,142.5,146.6,142.5C146.6,142.5,146.5,142.5,146.6,142.5
			C146.5,142.5,146.5,142.5,146.6,142.5C146.5,142.5,146.6,142.5,146.6,142.5C146.6,142.5,146.6,142.5,146.6,142.5
			C146.6,142.5,146.6,142.5,146.6,142.5L146.6,142.5z"/>
	</g>
	<g>
		<path class="st0" d="M146.3,142.5C146.3,142.5,146.3,142.5,146.3,142.5C146.3,142.5,146.2,142.5,146.3,142.5
			C146.2,142.5,146.2,142.5,146.3,142.5C146.2,142.5,146.3,142.5,146.3,142.5C146.3,142.5,146.3,142.5,146.3,142.5
			C146.3,142.5,146.3,142.5,146.3,142.5L146.3,142.5z"/>
	</g>
	<g>
		<polygon class="st0" points="146,142.5 146,142.5 146,142.5 		"/>
	</g>
	<g>
		<path class="st0" d="M145.9,143.9c0.3,0.4,0.5,0.9,0.7,1.4c0.2,0.5,0.3,1,0.4,1.5c0,0.3,0.1,0.6,0.1,0.9c0,0,0,0,0,0
			c0-0.5-0.1-1.1-0.2-1.6c-0.1-0.5-0.3-1-0.6-1.5C146.3,144.4,146.1,144.1,145.9,143.9C145.9,143.9,145.9,143.9,145.9,143.9
			L145.9,143.9z"/>
	</g>
	<g>
		<path class="st0" d="M145.3,151.2c0.3,0,0.7-0.1,0.9-0.4c0,0,0,0,0,0C146,151.1,145.7,151.2,145.3,151.2
			C145.3,151.2,145.3,151.2,145.3,151.2L145.3,151.2z"/>
	</g>
	<g>
		<path class="st0" d="M149.1,141.9C149.1,141.9,149.1,141.9,149.1,141.9C149.2,141.9,149.2,141.9,149.1,141.9
			C149.2,141.9,149.2,141.9,149.1,141.9C149.2,141.9,149.2,141.9,149.1,141.9C149.2,141.9,149.2,141.9,149.1,141.9
			C149.2,141.9,149.2,141.9,149.1,141.9C149.2,141.9,149.2,141.9,149.1,141.9C149.2,141.9,149.2,141.9,149.1,141.9
			C149.1,141.9,149.1,141.9,149.1,141.9C149.1,141.9,149.1,141.9,149.1,141.9L149.1,141.9z"/>
	</g>
	<g>
		<path class="st0" d="M154.5,132c0.2,0.5,0.4,1.1,0.5,1.6c0.1,0.6,0.1,1.1,0.1,1.7c0,0.6-0.1,1.1-0.2,1.7c-0.1,0.5-0.3,1.1-0.5,1.6
			c-0.2,0.5-0.5,1-0.8,1.5c0,0.1-0.1,0.1-0.1,0.2c0,0,0,0,0,0c0.3-0.4,0.6-0.9,0.9-1.4c0.2-0.5,0.4-1,0.5-1.6
			c0.1-0.5,0.2-1.1,0.2-1.7c0-0.6,0-1.1-0.1-1.7c-0.1-0.6-0.2-1.1-0.4-1.6C154.5,132.1,154.5,132.1,154.5,132
			C154.5,132,154.5,132,154.5,132L154.5,132z"/>
	</g>
	<g>
		<path class="st0" d="M154.9,132.8c0.2,0.9,0.3,1.8,0.3,2.8c0,0.9-0.2,1.8-0.5,2.7c-0.2,0.5-0.4,1-0.6,1.4c0,0,0,0,0,0
			c0.2-0.4,0.4-0.8,0.6-1.3c0.2-0.4,0.3-0.9,0.4-1.3c0.1-0.5,0.2-0.9,0.2-1.4c0-0.5,0-0.9,0-1.4c0-0.5-0.1-0.9-0.2-1.4
			C155,132.9,154.9,132.9,154.9,132.8C154.9,132.8,154.9,132.8,154.9,132.8L154.9,132.8z"/>
	</g>
	<g>
		<path class="st0" d="M155.1,132.8c0.1,0.4,0.3,0.9,0.3,1.3c0.1,0.4,0.1,0.9,0.1,1.4c0,0.5-0.1,0.9-0.2,1.4
			c-0.1,0.4-0.2,0.9-0.4,1.3c-0.2,0.4-0.4,0.8-0.6,1.2c0,0-0.1,0.1-0.1,0.1c0,0,0,0,0,0c0.3-0.4,0.5-0.8,0.6-1.2
			c0.2-0.4,0.3-0.9,0.4-1.3c0.1-0.4,0.2-0.9,0.2-1.3c0-0.5,0-0.9-0.1-1.4c-0.1-0.5-0.2-0.9-0.3-1.3
			C155.2,132.9,155.1,132.8,155.1,132.8C155.1,132.8,155.1,132.8,155.1,132.8L155.1,132.8z"/>
	</g>
	<g>
		<path class="st0" d="M155.4,133c0.1,0.5,0.2,0.9,0.2,1.4c0,0.5,0,0.9,0,1.4c0,0.5-0.1,0.9-0.2,1.4c-0.1,0.5-0.3,0.9-0.4,1.3
			c-0.2,0.4-0.4,0.8-0.6,1.3c0,0-0.1,0.1-0.1,0.1c0,0,0,0,0,0c0.3-0.4,0.5-0.8,0.7-1.2c0.2-0.4,0.3-0.9,0.5-1.3
			c0.1-0.5,0.2-0.9,0.2-1.4c0-0.5,0.1-0.9,0-1.4c0-0.5-0.1-0.9-0.2-1.4C155.5,133.1,155.4,133,155.4,133
			C155.4,133,155.4,133,155.4,133L155.4,133z"/>
	</g>
	<g>
		<path class="st0" d="M155.6,132.9c0.1,0.4,0.2,0.8,0.3,1.3c0.1,0.4,0.1,0.9,0.1,1.3c0,0.4-0.1,0.9-0.2,1.3
			c-0.1,0.4-0.3,0.8-0.4,1.2c-0.2,0.4-0.4,0.8-0.7,1.1c0,0-0.1,0.1-0.1,0.1c0,0,0,0,0,0c0.3-0.3,0.5-0.7,0.7-1.1
			c0.2-0.4,0.4-0.8,0.5-1.2c0.1-0.4,0.2-0.9,0.2-1.3c0-0.4,0-0.9,0-1.3c-0.1-0.4-0.1-0.9-0.3-1.3C155.6,133,155.6,133,155.6,132.9
			C155.6,132.9,155.6,132.9,155.6,132.9L155.6,132.9z"/>
	</g>
	<g>
		<path class="st0" d="M155.9,133.3c0.2,0.7,0.3,1.5,0.2,2.2c0,0.7-0.2,1.5-0.4,2.2c-0.1,0.4-0.3,0.8-0.5,1.2c0,0,0,0,0,0
			c0.2-0.3,0.3-0.7,0.5-1c0.1-0.4,0.2-0.7,0.3-1.1c0.2-0.7,0.2-1.5,0.1-2.2C156.1,134.1,156.1,133.7,155.9,133.3
			C156,133.3,155.9,133.3,155.9,133.3L155.9,133.3z"/>
	</g>
	<g>
		<path class="st0" d="M156.3,134.9c0,0.3,0,0.7-0.1,1c0,0,0,0,0,0C156.3,135.6,156.3,135.3,156.3,134.9
			C156.3,134.9,156.3,134.9,156.3,134.9L156.3,134.9z"/>
	</g>
	<g>
		<path class="st0" d="M154.2,135c0,0.5,0,0.9,0,1.4c-0.1,0.5-0.2,0.9-0.3,1.4c-0.1,0.5-0.3,0.9-0.5,1.3c-0.2,0.4-0.5,0.8-0.8,1.2
			c-0.3,0.4-0.6,0.7-1,1c0,0-0.1,0.1-0.1,0.1c0,0,0,0,0,0c0.4-0.3,0.7-0.6,1-1c0.3-0.4,0.6-0.8,0.8-1.2c0.2-0.4,0.4-0.8,0.6-1.3
			c0.1-0.4,0.3-0.9,0.3-1.4c0.1-0.5,0.1-0.9,0.1-1.4C154.2,135.1,154.2,135,154.2,135C154.2,134.9,154.2,134.9,154.2,135L154.2,135z
			"/>
	</g>
	<g>
		<path class="st0" d="M150.1,142.3c0.4,0,0.8-0.2,1.1-0.4c0.2-0.1,0.4-0.2,0.5-0.4c0.2-0.1,0.3-0.3,0.5-0.4
			c0.2-0.2,0.4-0.4,0.6-0.5c0,0,0,0,0,0c-0.3,0.3-0.6,0.6-1,0.9c-0.3,0.3-0.7,0.5-1.1,0.7C150.6,142.2,150.3,142.3,150.1,142.3
			C150.1,142.3,150.1,142.3,150.1,142.3L150.1,142.3z"/>
	</g>
	<g>
		<path class="st0" d="M150.6,142.5c0.8-0.4,1.5-1,2.1-1.6c0.2-0.2,0.4-0.4,0.5-0.5c0,0,0,0,0,0c-0.6,0.7-1.3,1.2-2,1.7
			C151.1,142.2,150.8,142.3,150.6,142.5C150.6,142.5,150.6,142.5,150.6,142.5L150.6,142.5z"/>
	</g>
	<g>
		<path class="st0" d="M150.8,142.6c0.5-0.3,1-0.7,1.4-1c0.4-0.4,0.9-0.8,1.3-1.2c0.2-0.2,0.5-0.5,0.7-0.7c0,0,0,0,0,0
			c-0.4,0.4-0.8,0.9-1.2,1.3c-0.4,0.4-0.9,0.8-1.3,1.1C151.4,142.2,151.1,142.4,150.8,142.6C150.8,142.6,150.8,142.6,150.8,142.6
			L150.8,142.6z"/>
	</g>
	<g>
		<path class="st0" d="M150.4,142.8c0,0.1-0.1,0.2-0.1,0.2c0,0.1,0,0.2,0,0.3c0,0,0,0,0,0c0,0,0-0.1,0-0.1c0,0,0-0.1,0-0.1
			C150.3,143,150.4,142.9,150.4,142.8C150.4,142.8,150.4,142.8,150.4,142.8L150.4,142.8z"/>
	</g>
	<g>
		<path class="st0" d="M150.5,142.7c0,0.1-0.1,0.2-0.1,0.3c0,0.1,0,0.1,0,0.2c0,0,0,0.1,0,0.2c0,0,0,0,0,0c0,0,0-0.1,0-0.1
			c0-0.1,0-0.1,0-0.2C150.4,142.9,150.4,142.8,150.5,142.7C150.5,142.7,150.5,142.7,150.5,142.7L150.5,142.7z"/>
	</g>
	<g>
		<path class="st0" d="M150.6,142.7c0,0.1-0.1,0.1-0.1,0.2c0,0.1,0,0.2,0.1,0.2c0,0,0,0,0,0c0-0.1,0-0.1,0-0.2
			C150.5,142.9,150.6,142.8,150.6,142.7C150.6,142.7,150.6,142.7,150.6,142.7L150.6,142.7z"/>
	</g>
	<g>
		<path class="st0" d="M150.8,142.5c0,0.1,0,0.2,0,0.2c0,0.1,0,0.2,0,0.2c0,0,0,0,0,0c0-0.1,0-0.2,0-0.2
			C150.8,142.7,150.8,142.6,150.8,142.5C150.8,142.5,150.8,142.5,150.8,142.5L150.8,142.5z"/>
	</g>
	<g>
		<path class="st0" d="M150.9,142.7c-0.1,0.1-0.1,0.3,0,0.4c0,0,0,0,0,0C150.8,143,150.8,142.9,150.9,142.7
			C150.9,142.7,150.9,142.7,150.9,142.7L150.9,142.7z"/>
	</g>
	<g>
		<path class="st0" d="M150.9,142.5c0,0.1,0,0.3,0.1,0.4c0,0.1,0,0.3,0.1,0.4c0,0,0,0,0,0c0-0.1,0-0.3-0.1-0.4
			C151,142.8,151,142.7,150.9,142.5C150.9,142.5,150.9,142.5,150.9,142.5L150.9,142.5z"/>
	</g>
	<g>
		<path class="st0" d="M151.1,142.5c0,0.1,0,0.3,0,0.4c0,0.1,0,0.2,0.1,0.4c0,0,0,0,0,0c0-0.1,0-0.1-0.1-0.2c0-0.1,0-0.1,0-0.2
			C151.1,142.8,151.1,142.7,151.1,142.5C151.1,142.5,151.1,142.5,151.1,142.5L151.1,142.5z"/>
	</g>
	<g>
		<path class="st0" d="M151.2,142.5c0.2,0.2,0.3,0.4,0.4,0.6c0,0,0,0,0,0C151.5,142.9,151.4,142.7,151.2,142.5
			C151.2,142.5,151.2,142.5,151.2,142.5L151.2,142.5z"/>
	</g>
	<g>
		<path class="st0" d="M151.5,142.6c0.1,0.1,0.2,0.2,0.3,0.3c0,0,0,0,0,0C151.7,142.8,151.6,142.7,151.5,142.6
			C151.5,142.6,151.5,142.6,151.5,142.6L151.5,142.6z"/>
	</g>
	<g>
		<path class="st0" d="M152.3,130c0.4,0.4,0.7,0.8,1,1.3c0.1,0.1,0.1,0.3,0.2,0.4c0,0,0,0,0,0c-0.2-0.5-0.5-1-0.8-1.4
			C152.5,130.2,152.4,130.1,152.3,130C152.3,130,152.3,130,152.3,130L152.3,130z"/>
	</g>
	<g>
		<path class="st0" d="M153,130.2c0.3,0.3,0.6,0.8,0.7,1.2c0,0.1,0.1,0.3,0.1,0.4c0,0,0,0,0,0c-0.1-0.5-0.2-0.9-0.5-1.3
			C153.2,130.4,153.1,130.3,153,130.2C153,130.2,153,130.2,153,130.2L153,130.2z"/>
	</g>
	<g>
		<path class="st0" d="M148.7,141.3c0.5,0.3,1.2,0.3,1.8,0c0.6-0.2,1.1-0.7,1.6-1.1c0.3-0.3,0.5-0.6,0.8-0.9c0,0,0,0,0,0
			c-0.4,0.5-0.9,1-1.4,1.4c-0.5,0.4-1.1,0.7-1.7,0.8C149.4,141.5,149.1,141.5,148.7,141.3C148.7,141.3,148.7,141.3,148.7,141.3
			L148.7,141.3z"/>
	</g>
	<g>
		<path class="st0" d="M149.1,141.6c0.5,0.2,1,0,1.5-0.2c0.4-0.2,0.9-0.5,1.3-0.8c0.2-0.2,0.4-0.4,0.6-0.6c0,0,0,0,0,0
			c-0.3,0.3-0.7,0.6-1.1,0.9c-0.2,0.1-0.4,0.2-0.6,0.4c-0.2,0.1-0.5,0.2-0.7,0.3C149.7,141.7,149.4,141.7,149.1,141.6
			C149.1,141.6,149.1,141.6,149.1,141.6L149.1,141.6z"/>
	</g>
	<g>
		<path class="st0" d="M149.6,141.9c0.8-0.2,1.7-0.6,2.4-1.1c0.2-0.1,0.4-0.3,0.6-0.5c0,0,0,0,0,0c-0.3,0.3-0.7,0.5-1,0.8
			c-0.4,0.2-0.8,0.4-1.2,0.6C150.1,141.8,149.8,141.8,149.6,141.9C149.6,141.9,149.6,141.9,149.6,141.9L149.6,141.9z"/>
	</g>
	<g>
		<path class="st0" d="M149.9,142c0.6-0.2,1.2-0.5,1.7-0.9c0.1-0.1,0.3-0.2,0.4-0.3c0,0,0,0,0,0c-0.5,0.4-1,0.7-1.6,1
			C150.2,141.9,150.1,142,149.9,142C149.9,142,149.9,142,149.9,142L149.9,142z"/>
	</g>
	<g>
		<path class="st0" d="M150,142.2c0.6-0.3,1.2-0.6,1.7-1c0.1-0.1,0.3-0.2,0.4-0.3c0,0,0,0,0,0c-0.3,0.2-0.5,0.4-0.8,0.6
			c-0.3,0.2-0.5,0.3-0.8,0.5C150.3,142.1,150.2,142.1,150,142.2C150,142.2,150,142.2,150,142.2L150,142.2z"/>
	</g>
	<g>
		<path class="st0" d="M149.1,141.5c0.2,0.3,0.4,0.5,0.7,0.7c0.4,0.2,0.7,0.2,1.1,0.2c0.2,0,0.5,0,0.7-0.1c0,0,0,0,0,0
			c-0.4,0-0.8,0.1-1.2,0c-0.3,0-0.7-0.2-1-0.4C149.3,141.8,149.2,141.7,149.1,141.5C149.1,141.5,149.1,141.5,149.1,141.5
			L149.1,141.5z"/>
	</g>
	<g>
		<polygon class="st0" points="149.8,141.4 149.8,141.4 149.8,141.4 		"/>
	</g>
	<g>
		<path class="st0" d="M149.6,141.2c0,0.3,0.3,0.6,0.6,0.7c0.4,0.2,0.7,0.2,1.1,0.2c0.2,0,0.4-0.1,0.6-0.1c0,0,0,0,0,0
			c-0.2,0.1-0.4,0.1-0.5,0.1c-0.2,0-0.4,0-0.6,0c-0.2,0-0.4-0.1-0.5-0.1c-0.2-0.1-0.3-0.1-0.5-0.3
			C149.7,141.5,149.6,141.3,149.6,141.2C149.6,141.2,149.6,141.2,149.6,141.2L149.6,141.2z"/>
	</g>
	<g>
		<path class="st0" d="M150.1,141.2c0.1,0.2,0.3,0.4,0.5,0.5c0.3,0.1,0.6,0.2,0.8,0.2c0.2,0,0.4,0,0.6,0c0,0,0,0,0,0
			c-0.3,0-0.6,0-0.9,0c-0.3,0-0.5-0.1-0.7-0.3C150.2,141.4,150.1,141.3,150.1,141.2C150.1,141.2,150.1,141.2,150.1,141.2
			L150.1,141.2z"/>
	</g>
	<g>
		<path class="st0" d="M150.8,141.3c0.3,0.3,0.8,0.4,1.2,0.3c0.1,0,0.2-0.1,0.3-0.1c0,0,0,0,0,0
			C151.8,141.7,151.2,141.6,150.8,141.3C150.8,141.3,150.8,141.3,150.8,141.3L150.8,141.3z"/>
	</g>
	<g>
		<path class="st0" d="M151.1,141.2c0.5,0.2,1.1,0.2,1.6,0c0,0,0,0,0,0c-0.3,0.1-0.5,0.2-0.8,0.2
			C151.7,141.3,151.4,141.3,151.1,141.2C151.1,141.2,151.1,141.2,151.1,141.2L151.1,141.2z"/>
	</g>
	<g>
		<path class="st0" d="M152,141c0.4,0,0.9,0,1.3-0.2c0,0,0,0,0,0c-0.2,0.1-0.4,0.1-0.6,0.2C152.5,141,152.2,141,152,141
			C152,141,152,141,152,141L152,141z"/>
	</g>
	<g>
		<path class="st0" d="M153.7,138.9c0.6,0,1.2-0.1,1.7-0.2c0,0,0,0,0,0C154.8,138.8,154.2,138.9,153.7,138.9
			C153.7,138.9,153.7,138.9,153.7,138.9L153.7,138.9z"/>
	</g>
	<g>
		<path class="st0" d="M153.9,138.7c0.6,0,1.2-0.1,1.7-0.2c0,0,0,0,0,0C155,138.6,154.4,138.7,153.9,138.7
			C153.9,138.7,153.9,138.7,153.9,138.7L153.9,138.7z"/>
	</g>
	<g>
		<path class="st0" d="M154.3,138.5c0.5-0.1,1-0.1,1.4-0.3c0,0,0,0,0,0C155.2,138.3,154.7,138.4,154.3,138.5
			C154.3,138.5,154.3,138.5,154.3,138.5L154.3,138.5z"/>
	</g>
	<g>
		<path class="st0" d="M154.3,138.2c0.3,0,0.5-0.1,0.8-0.1c0.3-0.1,0.5-0.1,0.8-0.2c0,0,0,0,0,0c-0.3,0.1-0.5,0.1-0.8,0.2
			C154.8,138.1,154.5,138.2,154.3,138.2C154.3,138.2,154.3,138.2,154.3,138.2L154.3,138.2z"/>
	</g>
	<g>
		<path class="st0" d="M154.6,138c0.2,0,0.4-0.1,0.6-0.1c0.2,0,0.4-0.1,0.6-0.2c0,0,0,0,0,0c-0.2,0-0.4,0.1-0.6,0.1
			C155,137.8,154.8,137.9,154.6,138C154.6,137.9,154.6,138,154.6,138L154.6,138z"/>
	</g>
	<g>
		<path class="st0" d="M155.3,137.5c0.1,0,0.2-0.1,0.3-0.1c0,0,0,0,0,0C155.5,137.4,155.4,137.5,155.3,137.5
			C155.3,137.5,155.3,137.5,155.3,137.5L155.3,137.5z"/>
	</g>
	<g>
		<path class="st0" d="M154.8,136.2c0.6-0.1,1.2-0.3,1.6-0.6c0,0,0,0,0,0c-0.3,0.2-0.5,0.3-0.8,0.4
			C155.4,136.1,155.1,136.1,154.8,136.2C154.8,136.2,154.8,136.2,154.8,136.2L154.8,136.2z"/>
	</g>
	<g>
		<path class="st0" d="M154.8,136c0.2-0.1,0.5-0.1,0.7-0.2c0.2-0.1,0.4-0.2,0.6-0.3c0,0,0,0,0,0c-0.2,0.1-0.4,0.2-0.7,0.3
			C155.3,135.9,155,135.9,154.8,136C154.8,136,154.8,136,154.8,136L154.8,136z"/>
	</g>
	<g>
		<path class="st0" d="M155,135.7c0.4-0.1,0.8-0.3,1.2-0.5c0,0,0,0,0,0C155.8,135.3,155.4,135.5,155,135.7
			C155,135.7,155,135.7,155,135.7L155,135.7z"/>
	</g>
	<g>
		<path class="st0" d="M155.1,135.3c0.3-0.1,0.6-0.2,0.8-0.3c0,0,0,0,0,0C155.6,135.1,155.3,135.2,155.1,135.3
			C155,135.3,155,135.3,155.1,135.3L155.1,135.3z"/>
	</g>
	<g>
		<path class="st0" d="M155.4,134.9c0.1-0.1,0.3-0.1,0.4-0.2c0,0,0,0,0,0C155.7,134.7,155.5,134.8,155.4,134.9
			C155.4,134.9,155.4,134.9,155.4,134.9L155.4,134.9z"/>
	</g>
	<g>
		<path class="st0" d="M154.2,134.1c0.4-0.1,0.8-0.3,1.1-0.6c0,0,0,0,0,0C154.9,133.8,154.6,134,154.2,134.1
			C154.2,134.1,154.2,134.1,154.2,134.1L154.2,134.1z"/>
	</g>
	<g>
		<path class="st0" d="M154.5,133.7c0.5-0.2,0.9-0.5,1.3-0.8c0,0,0,0,0,0C155.4,133.2,155,133.5,154.5,133.7
			C154.5,133.7,154.5,133.7,154.5,133.7L154.5,133.7z"/>
	</g>
	<g>
		<path class="st0" d="M154.4,133.5c0.3-0.2,0.7-0.4,1-0.6c0,0,0,0,0,0C155.1,133.1,154.7,133.3,154.4,133.5
			C154.4,133.5,154.4,133.5,154.4,133.5L154.4,133.5z"/>
	</g>
	<g>
		<path class="st0" d="M154.5,133.2c0.1-0.1,0.3-0.2,0.4-0.3c0,0,0,0,0,0C154.8,133,154.7,133.1,154.5,133.2
			C154.5,133.2,154.5,133.2,154.5,133.2L154.5,133.2z"/>
	</g>
	<g>
		<path class="st0" d="M154.4,132.9c0.1-0.1,0.3-0.2,0.4-0.3c0,0,0,0,0,0C154.7,132.7,154.5,132.8,154.4,132.9
			C154.4,132.9,154.4,132.9,154.4,132.9L154.4,132.9z"/>
	</g>
	<g>
		<path class="st0" d="M154.4,132.5c0,0,0.1-0.1,0.1-0.1c0,0,0,0,0,0C154.5,132.4,154.4,132.4,154.4,132.5
			C154.4,132.5,154.4,132.5,154.4,132.5L154.4,132.5z"/>
	</g>
	<g>
		<path class="st0" d="M148.4,141c0.4,0.2,0.8,0.3,1.2,0.5c0,0,0,0,0,0C149.2,141.3,148.8,141.2,148.4,141
			C148.4,141,148.3,141,148.4,141L148.4,141z"/>
	</g>
	<g>
		<path class="st0" d="M146.8,138.2c0.2,0.5,0.4,1,0.7,1.4c0.3,0.4,0.6,0.8,1,1c0.2,0.1,0.5,0.2,0.7,0.3c0,0,0,0,0,0
			c-0.5-0.1-0.8-0.4-1.2-0.7c-0.4-0.4-0.6-0.8-0.8-1.2C147,138.8,146.9,138.5,146.8,138.2C146.8,138.2,146.8,138.2,146.8,138.2
			L146.8,138.2z"/>
	</g>
	<g>
		<path class="st0" d="M147.4,138.9c0.2,0.7,0.6,1.3,1.2,1.7c0.2,0.1,0.4,0.2,0.6,0.3c0,0,0,0,0,0c-0.7-0.2-1.3-0.7-1.6-1.4
			C147.6,139.3,147.5,139.1,147.4,138.9C147.4,138.9,147.4,138.9,147.4,138.9L147.4,138.9z"/>
	</g>
	<g>
		<path class="st0" d="M148,139.3c0.4,0.6,1,1,1.6,1.2c0.7,0.2,1.4,0.1,2.1-0.2c0.4-0.2,0.7-0.4,0.9-0.8c0,0,0,0,0,0
			c-0.4,0.5-1.1,0.9-1.8,1c-0.7,0.1-1.4-0.1-2-0.5C148.5,140,148.2,139.7,148,139.3C148,139.3,148,139.3,148,139.3L148,139.3z"/>
	</g>
	<g>
		<path class="st0" d="M149.5,140.2c0.6,0.1,1.3,0.1,1.9-0.2c0.2-0.1,0.3-0.2,0.5-0.3c0,0,0,0,0,0c-0.6,0.3-1.2,0.5-1.9,0.5
			C149.9,140.3,149.7,140.3,149.5,140.2C149.5,140.2,149.5,140.2,149.5,140.2L149.5,140.2z"/>
	</g>
	<g>
		<path class="st0" d="M150.4,139.9c0.6-0.1,1.1-0.3,1.6-0.5c0.1-0.1,0.3-0.2,0.4-0.3c0,0,0,0,0,0c-0.5,0.3-1,0.5-1.6,0.7
			C150.7,139.8,150.5,139.8,150.4,139.9C150.4,139.9,150.4,139.9,150.4,139.9L150.4,139.9z"/>
	</g>
	<g>
		<path class="st0" d="M149.1,140.8c0.7,0.1,1.4,0,2-0.2c0.2-0.1,0.4-0.1,0.5-0.2c0,0,0,0,0,0c-0.2,0.1-0.3,0.1-0.5,0.2
			c-0.2,0.1-0.3,0.1-0.5,0.1c-0.3,0.1-0.7,0.1-1,0.1C149.5,140.9,149.3,140.9,149.1,140.8C149.1,140.8,149.1,140.8,149.1,140.8
			L149.1,140.8z"/>
	</g>
	<g>
		<path class="st0" d="M149.3,140.9c0.2,0.2,0.5,0.2,0.7,0.2c0.2,0,0.3-0.1,0.5-0.1c0.2,0,0.4-0.1,0.5-0.2c0.2-0.1,0.4-0.1,0.6-0.2
			c0,0,0,0,0,0c-0.3,0.1-0.7,0.3-1,0.4c-0.2,0-0.3,0.1-0.5,0.1c-0.1,0-0.3,0-0.4,0C149.6,141.1,149.4,141,149.3,140.9
			C149.3,140.9,149.3,140.9,149.3,140.9L149.3,140.9z"/>
	</g>
	<g>
		<path class="st0" d="M149.4,141.2c0.6,0,1.2-0.1,1.7-0.3c0.1-0.1,0.3-0.1,0.4-0.2c0,0,0,0,0,0c-0.3,0.1-0.5,0.2-0.8,0.3
			c-0.3,0.1-0.6,0.1-0.8,0.2C149.7,141.2,149.6,141.2,149.4,141.2C149.4,141.2,149.4,141.2,149.4,141.2L149.4,141.2z"/>
	</g>
	<g>
		<path class="st0" d="M149.5,141.4c0.6-0.1,1.1-0.2,1.6-0.5c0.1-0.1,0.3-0.1,0.4-0.2c0,0,0,0,0,0c-0.3,0.1-0.5,0.2-0.8,0.3
			c-0.3,0.1-0.5,0.2-0.8,0.2C149.9,141.4,149.7,141.4,149.5,141.4C149.5,141.4,149.5,141.4,149.5,141.4L149.5,141.4z"/>
	</g>
	<g>
		<path class="st0" d="M147.1,153c0.2,0.1,0.3,0.2,0.5,0.4c0.2,0.1,0.3,0.3,0.5,0.4c0,0,0,0,0,0c-0.2-0.1-0.3-0.2-0.5-0.4
			C147.5,153.2,147.3,153.1,147.1,153C147.1,153,147.1,153,147.1,153L147.1,153z"/>
	</g>
	<g>
		<path class="st0" d="M147.4,153.1c0.3,0.2,0.6,0.4,0.8,0.5c0,0,0,0,0,0C147.9,153.4,147.7,153.2,147.4,153.1
			C147.4,153,147.4,153.1,147.4,153.1L147.4,153.1z"/>
	</g>
	<g>
		<path class="st0" d="M147.5,153.1c0.2,0.1,0.4,0.2,0.5,0.3c0.1,0.1,0.3,0.3,0.4,0.4c0,0,0,0,0,0c-0.1-0.2-0.2-0.3-0.4-0.4
			C147.8,153.3,147.6,153.2,147.5,153.1C147.5,153.1,147.5,153.1,147.5,153.1L147.5,153.1z"/>
	</g>
	<g>
		<path class="st0" d="M147.6,153c0.2,0.1,0.3,0.2,0.5,0.2c0.2,0.1,0.3,0.2,0.5,0.2c0,0,0,0,0,0c-0.2-0.1-0.3-0.2-0.5-0.2
			C147.9,153.2,147.8,153.1,147.6,153C147.6,153,147.6,153,147.6,153L147.6,153z"/>
	</g>
	<g>
		<path class="st0" d="M147.6,153.1c0.2,0.2,0.4,0.4,0.6,0.6c0,0,0,0,0,0C148,153.4,147.8,153.2,147.6,153.1
			C147.6,153.1,147.6,153.1,147.6,153.1L147.6,153.1z"/>
	</g>
	<g>
		<path class="st0" d="M147.7,153.2c0.1,0,0.2,0.1,0.3,0.2c0,0,0.1,0.1,0.1,0.1c0,0.1,0.1,0.1,0.1,0.2c0,0,0,0,0,0
			c-0.1-0.1-0.1-0.2-0.2-0.3C148,153.3,147.8,153.2,147.7,153.2C147.7,153.2,147.7,153.2,147.7,153.2L147.7,153.2z"/>
	</g>
	<g>
		<path class="st0" d="M148,153.2c0.2,0,0.3,0.1,0.4,0.3c0,0,0,0,0,0C148.3,153.3,148.1,153.2,148,153.2
			C148,153.1,147.9,153.2,148,153.2L148,153.2z"/>
	</g>
	<g>
		<path class="st0" d="M152.6,154c0.7-0.3,1.4-0.8,1.9-1.3c0.1-0.2,0.3-0.3,0.4-0.5c0,0,0,0,0,0c-0.2,0.3-0.5,0.6-0.8,0.8
			c-0.3,0.3-0.6,0.5-0.9,0.7C153,153.8,152.8,153.9,152.6,154C152.6,154,152.6,154,152.6,154L152.6,154z"/>
	</g>
	<g>
		<path class="st0" d="M152.9,154.2c0.5-0.3,1.1-0.6,1.5-1c0.1-0.1,0.3-0.2,0.4-0.3c0,0,0,0,0,0c-0.5,0.4-1,0.8-1.5,1.1
			C153.2,154,153,154.1,152.9,154.2C152.9,154.2,152.9,154.2,152.9,154.2L152.9,154.2z"/>
	</g>
	<g>
		<path class="st0" d="M153,154.3c0.1-0.1,0.3-0.2,0.4-0.3c0.1-0.1,0.3-0.2,0.4-0.3c0,0,0,0,0,0c-0.1,0.1-0.3,0.2-0.4,0.3
			C153.3,154.1,153.2,154.2,153,154.3C153,154.3,153,154.3,153,154.3L153,154.3z"/>
	</g>
	<g>
		<path class="st0" d="M152.3,153.7c0.3-0.1,0.6-0.3,0.8-0.5c0,0,0,0,0,0C152.8,153.4,152.6,153.6,152.3,153.7
			C152.3,153.7,152.3,153.7,152.3,153.7L152.3,153.7z"/>
	</g>
	<g>
		<path class="st0" d="M153.2,143.4c-0.1,0.5,0,1.1,0.2,1.6c0.1,0.1,0.1,0.3,0.2,0.4c0,0,0,0,0,0c-0.3-0.5-0.4-1-0.4-1.6
			C153.2,143.7,153.2,143.5,153.2,143.4C153.2,143.4,153.2,143.4,153.2,143.4L153.2,143.4z"/>
	</g>
	<g>
		<path class="st0" d="M153.4,144c0,0.3,0,0.5,0.1,0.8c0,0.1,0.1,0.2,0.1,0.4c0.1,0.1,0.1,0.3,0.2,0.4c0,0,0,0,0,0
			c-0.1-0.1-0.1-0.2-0.2-0.4c-0.1-0.1-0.1-0.2-0.1-0.4C153.5,144.5,153.4,144.2,153.4,144C153.4,144,153.4,144,153.4,144L153.4,144z
			"/>
	</g>
	<g>
		<path class="st0" d="M153.7,144.6c0,0.2,0.1,0.5,0.3,0.6c0,0,0,0,0,0c-0.1-0.1-0.2-0.2-0.2-0.3
			C153.8,144.8,153.7,144.7,153.7,144.6C153.7,144.6,153.7,144.6,153.7,144.6L153.7,144.6z"/>
	</g>
	<g>
		<path class="st0" d="M154.1,145.1C154.1,145.1,154.1,145.1,154.1,145.1C154.1,145.1,154.1,145.1,154.1,145.1L154.1,145.1z"/>
	</g>
	<g>
		<path class="st0" d="M150,151.6c0.2,0.6,0.5,1.1,0.9,1.5c0.4,0.4,0.9,0.8,1.4,1c0.3,0.1,0.6,0.2,0.9,0.2c0,0,0,0,0,0
			c-0.3,0-0.6-0.1-0.8-0.2c-0.3-0.1-0.5-0.2-0.8-0.4c-0.5-0.3-0.9-0.8-1.2-1.3C150.3,152.2,150.2,151.9,150,151.6
			C150,151.6,150,151.6,150,151.6L150,151.6z"/>
	</g>
	<g>
		<path class="st0" d="M150.4,152.3c0.2,0.4,0.5,0.9,0.8,1.2c0.3,0.4,0.7,0.7,1.1,1c0.2,0.2,0.5,0.3,0.7,0.4c0,0,0,0,0,0
			c-0.4-0.2-0.9-0.5-1.2-0.8c-0.4-0.3-0.7-0.7-1-1.1C150.6,152.8,150.5,152.6,150.4,152.3C150.4,152.3,150.4,152.3,150.4,152.3
			L150.4,152.3z"/>
	</g>
	<g>
		<path class="st0" d="M150.3,151.8c0.2,0.5,0.5,1.1,0.8,1.5c0.2,0.2,0.3,0.5,0.5,0.7c0.2,0.2,0.4,0.4,0.6,0.6
			c0.2,0.2,0.5,0.3,0.8,0.4c0,0,0,0,0,0c-0.3-0.1-0.5-0.2-0.7-0.4c-0.2-0.2-0.4-0.4-0.6-0.6c-0.4-0.4-0.7-0.9-1-1.4
			C150.6,152.4,150.5,152.1,150.3,151.8C150.4,151.8,150.3,151.8,150.3,151.8L150.3,151.8z"/>
	</g>
	<g>
		<path class="st0" d="M150.7,152.1c0.2,0.5,0.4,0.9,0.7,1.3c0.3,0.4,0.6,0.7,1,1.1c0.2,0.2,0.4,0.3,0.7,0.5c0,0,0,0,0,0
			c-0.2-0.1-0.4-0.3-0.6-0.4c-0.2-0.2-0.4-0.3-0.5-0.5c-0.3-0.3-0.6-0.7-0.9-1.1C150.9,152.6,150.8,152.4,150.7,152.1
			C150.7,152.1,150.7,152.1,150.7,152.1L150.7,152.1z"/>
	</g>
	<g>
		<path class="st0" d="M151,152.6c0.4,0.7,0.9,1.3,1.6,1.8c0.2,0.1,0.4,0.3,0.6,0.4c0,0,0,0,0,0c-0.3-0.2-0.7-0.4-1-0.7
			c-0.3-0.3-0.6-0.6-0.8-0.9C151.3,153,151.2,152.8,151,152.6C151,152.6,151,152.6,151,152.6L151,152.6z"/>
	</g>
	<g>
		<path class="st0" d="M152.3,154.4c0.3,0.3,0.6,0.5,1,0.6c0,0,0,0,0,0C152.9,154.9,152.6,154.7,152.3,154.4
			C152.3,154.4,152.3,154.4,152.3,154.4L152.3,154.4z"/>
	</g>
</g>
</svg>
