<?xml version="1.0" encoding="utf-8"?>
<!-- Generator: Adobe Illustrator 22.1.0, SVG Export Plug-In . SVG Version: 6.00 Build 0)  -->
<svg version="1.1" id="Layer_1" xmlns="http://www.w3.org/2000/svg" xmlns:xlink="http://www.w3.org/1999/xlink" x="0px" y="0px"
	 viewBox="0 0 300 300" style="enable-background:new 0 0 300 300;" xml:space="preserve">
<style type="text/css">
	.st0{fill:none;stroke:#F1BC19;stroke-miterlimit:10;}
</style>
<g>
	<path class="st0" d="M117.3,165l-6-6c-0.9,1.4-2.1,2.6-3.5,3.5l6,6c1,1,2.5,1,3.5,0C118.2,167.5,118.2,165.9,117.3,165z"/>
	<path class="st0" d="M111.5,152.8c0-5.4-4.4-9.8-9.8-9.8c-5.4,0-9.8,4.4-9.8,9.8c0,5.4,4.4,9.8,9.8,9.8
		C107.1,162.6,111.5,158.2,111.5,152.8z M101.7,160.2c-4,0-7.3-3.3-7.3-7.3c0-4,3.3-7.3,7.3-7.3c4,0,7.3,3.3,7.3,7.3
		C109,156.9,105.7,160.2,101.7,160.2z"/>
	<path class="st0" d="M96,152.8h1.6c0-2.2,1.8-4.1,4.1-4.1v-1.6C98.5,147.1,96,149.7,96,152.8z"/>
</g>
<g>
	<path class="st0" d="M187.1,162.8c1.5,0,2.7,1.2,2.7,2.7c0,1.5-1.2,2.7-2.7,2.7c-1.5,0-2.7-1.2-2.7-2.7
		C184.5,164,185.7,162.8,187.1,162.8z"/>
	<path class="st0" d="M198.7,162.8c1.5,0,2.7,1.2,2.7,2.7c0,1.5-1.2,2.7-2.7,2.7c-1.5,0-2.7-1.2-2.7-2.7
		C196.1,164,197.3,162.8,198.7,162.8z"/>
	<path class="st0" d="M205.5,148.2c-3.4,0-16.4,0-16.4,0s-1,0.2-1,1.3c0,1.1,1,1.4,1,1.4h14.7l-0.8,2.8c-4,0-14.4,0-14.4,0
		s-0.9,0.2-0.9,1.2c0,1,0.9,1.3,0.9,1.3h13.7h0l-0.8,2.6h-14.9l-1-7.9l-0.3-2.7c0,0-0.3-2.5-0.5-3.5c-0.2-1-2.7-2.3-8.2-4.9
		c-1.3-0.5-2.4,1.8,0,3l4.3,2c0,0,1,0.6,1.1,1.4c0.1,0.8,1.8,13.8,1.8,13.8s0.1,1.8,1.7,1.8c1.6,0,15.1,0,16.5,0
		c1.4,0,1.6-1.4,1.6-1.4l3.3-9.7C207,150.8,207.9,148.2,205.5,148.2z"/>
</g>
<g>
	<path class="st0" d="M161.2,154c0-7.7-6.3-14-14-14c-7.7,0-14,6.3-14,14c0,4.1,1.8,7.8,4.6,10.3l0,0l0.5,0.4c0,0,0.1,0,0.1,0.1
		c0.2,0.2,0.5,0.4,0.7,0.6c0.1,0.1,0.2,0.1,0.2,0.2c0.3,0.2,0.6,0.4,0.8,0.5c0.1,0,0.1,0.1,0.2,0.1c0.3,0.2,0.6,0.3,1,0.5
		c0,0,0,0,0.1,0c1.1,0.5,2.2,0.9,3.4,1.1c0,0,0.1,0,0.1,0c0.4,0.1,0.7,0.1,1.1,0.1c0,0,0.1,0,0.1,0c0.4,0,0.8,0,1.1,0
		c0.4,0,0.8,0,1.1,0c0,0,0.1,0,0.1,0c0.4,0,0.7-0.1,1.1-0.1c0,0,0.1,0,0.1,0c1.2-0.2,2.3-0.6,3.3-1c0,0,0.1,0,0.1-0.1
		c0.3-0.1,0.6-0.3,0.9-0.5c0.1,0,0.1-0.1,0.2-0.1c0.3-0.2,0.5-0.3,0.8-0.5c0.1-0.1,0.2-0.1,0.3-0.2c0.2-0.2,0.4-0.3,0.7-0.5
		c0,0,0.1-0.1,0.1-0.1l0.5-0.4l0,0C159.4,161.8,161.2,158.1,161.2,154L161.2,154z M134.1,154c0-7.2,5.8-13,13-13c7.2,0,13,5.8,13,13
		c0,3.9-1.7,7.3-4.4,9.7c-0.1-0.1-0.3-0.2-0.5-0.3l-4.3-2.2c-0.4-0.2-0.6-0.6-0.6-1v-1.5c0.1-0.1,0.2-0.3,0.3-0.4
		c0.6-0.8,1-1.7,1.3-2.6c0.6-0.3,1.1-1,1.1-1.7v-1.8c0-0.4-0.2-0.9-0.5-1.2v-2.4c0-0.3,0.1-1.8-1-3c-0.9-1.1-2.5-1.6-4.5-1.6
		s-3.6,0.5-4.5,1.6c-1.1,1.2-1,2.7-1,3v2.4c-0.3,0.3-0.5,0.8-0.5,1.2v1.8c0,0.6,0.3,1.1,0.7,1.4c0.4,1.6,1.3,2.8,1.6,3.3v1.5
		c0,0.4-0.2,0.8-0.6,1l-4,2.2c-0.1,0.1-0.3,0.2-0.4,0.2C135.8,161.3,134.1,157.8,134.1,154L134.1,154z M154.8,164.5
		c-0.2,0.1-0.4,0.3-0.5,0.4c-0.1,0.1-0.2,0.1-0.3,0.2c-0.2,0.1-0.5,0.3-0.7,0.4c-0.1,0-0.1,0.1-0.2,0.1c-0.6,0.3-1.2,0.5-1.8,0.8
		c0,0,0,0-0.1,0c-0.3,0.1-0.6,0.2-1,0.3h0c-0.3,0.1-0.7,0.1-1,0.2c0,0,0,0,0,0c-0.3,0-0.6,0.1-1,0.1c-0.1,0-0.1,0-0.2,0
		c-0.3,0-0.6,0-1,0c-0.3,0-0.6,0-1,0c-0.1,0-0.1,0-0.2,0c-0.3,0-0.6-0.1-1-0.1l0,0c-0.7-0.1-1.3-0.3-2-0.5c0,0,0,0-0.1,0
		c-0.3-0.1-0.6-0.2-1-0.4c0,0,0,0,0,0c-0.3-0.1-0.6-0.3-0.9-0.4c0,0-0.1,0-0.1-0.1c-0.3-0.1-0.5-0.3-0.8-0.4c-0.1,0-0.1-0.1-0.2-0.1
		c-0.2-0.1-0.5-0.3-0.7-0.5c0,0,0,0-0.1-0.1l0,0l4-2.2c0.7-0.4,1.1-1.1,1.1-1.9v-1.8l-0.1-0.1c0,0-1.1-1.4-1.5-3.2l0-0.2l-0.2-0.1
		c-0.2-0.2-0.4-0.4-0.4-0.7v-1.8c0-0.2,0.1-0.5,0.3-0.6l0.2-0.2v-2.8l0-0.1c0,0-0.2-1.2,0.7-2.2c0.7-0.8,2-1.3,3.8-1.3
		c1.7,0,3,0.4,3.7,1.3c0.9,1,0.7,2.2,0.7,2.2l0,2.9l0.2,0.2c0.2,0.2,0.3,0.4,0.3,0.6v1.8c0,0.4-0.2,0.7-0.6,0.8l-0.3,0.1l-0.1,0.3
		c-0.3,0.9-0.7,1.8-1.3,2.6c-0.1,0.2-0.3,0.4-0.4,0.5l-0.1,0.1v1.9c0,0.8,0.5,1.6,1.2,1.9l4.3,2.2c0,0,0.1,0,0.1,0
		C154.9,164.4,154.8,164.5,154.8,164.5L154.8,164.5z M154.8,164.5"/>
</g>
</svg>
