<svg width="2000" height="1000" viewBox="0 0 3500 1000" fill="none" xmlns="http://www.w3.org/2000/svg">
<path fill-rule="evenodd" clip-rule="evenodd" d="M965.404 912.853C956.316 908.703 946.818 904.978 936.976 901.704C934.957 900.985 932.847 900.387 930.673 899.917C929.748 899.713 928.913 899.356 928.246 898.878C927.579 898.399 927.101 897.815 926.856 897.179C926.612 896.544 926.608 895.876 926.845 895.239C927.082 894.602 927.553 894.015 928.215 893.533C979.334 856 1001.52 813.274 1003.85 761.612C1005.74 722.333 995.533 685.012 965.404 650.968C943.952 627.676 915.967 607.438 883.021 591.391C881.571 590.667 880.058 589.987 878.545 589.348C866.111 584.535 856.402 581.783 847.86 579.361L847.859 579.361C843.411 578.1 839.278 576.929 835.242 575.603C833.266 574.979 831.586 573.995 830.393 572.762C829.2 571.529 828.54 570.095 828.488 568.623C828.435 567.15 828.992 565.697 830.097 564.427C831.201 563.156 832.808 562.119 834.738 561.432C841.035 559.212 848.461 556.648 856.418 553.901L856.43 553.897C886.305 543.581 923.661 530.683 936.85 523.728C973.46 504.738 999.896 478.205 1012.15 448.153C1024.4 418.101 1021.8 386.172 1004.74 357.209C983.494 321.335 943.28 296.653 894.745 277.758C843.038 257.825 785.903 245.146 726.763 240.48C700.731 238.31 682.641 231.118 669.089 216.564C667.333 214.596 665.456 212.687 663.576 210.775L663.574 210.774C661.877 209.047 660.177 207.319 658.562 205.542L602.274 143.241C543.906 78.3868 460.01 35.7464 353.675 12.7666C337.664 9.3338 321.262 6.69537 304.86 4.05694C296.658 2.73773 288.457 1.41851 280.305 0C269.905 0.425553 260.324 0.765972 249.86 1.10641C222.189 9.10681 215.003 18.7243 219.542 39.4062C228.871 81.9615 260.639 116.559 303.753 146.858C336.782 170.093 377.123 186.264 418.094 202.18C434.164 208.259 450.396 214.337 466.628 220.415C473.124 222.848 479.62 225.281 486.106 227.713C486.106 228.104 485.939 228.453 485.774 228.801C485.651 229.058 485.529 229.314 485.475 229.586C481.913 229.355 478.376 228.971 474.886 228.437C456.192 224.809 437.552 221.045 418.914 217.281L418.913 217.281C380.487 209.522 342.065 201.763 303.186 195.201C222.478 181.004 137.049 185.499 60.5741 207.968C50.5771 211.019 41.2628 215.001 32.9029 219.798C24.855 224.266 19.4715 230.548 17.7455 237.485C16.0194 244.422 18.0672 251.547 23.5111 257.545C39.1431 274.865 62.4021 286.908 87.8041 297.249C142.579 319.548 202.775 331.293 265.618 338.357C317.62 344.102 369.496 341.038 421.308 336.485C424.277 336.213 427.245 335.928 430.214 335.642L430.234 335.64C434.696 335.211 439.159 334.782 443.622 334.399C444.435 334.399 445.294 334.682 446.52 335.086L446.52 335.086C446.72 335.152 446.93 335.221 447.152 335.293C446.609 336.784 445.76 338.216 444.63 339.549C407.567 375.508 382.291 415.595 358.591 456.065C333.297 499.386 282.758 624.588 256.634 689.308L256.633 689.309L255.344 692.502V692.843C252.319 700.545 249.545 707.354 247.213 712.929H248.032C247.828 713.469 247.622 714.011 247.416 714.554C247.103 715.378 246.789 716.204 246.475 717.031L246.475 717.032C242.785 726.745 239.069 736.528 237.191 742.717C234.82 750.719 232.537 758.721 230.251 766.731L230.249 766.739C228.646 772.358 227.041 777.982 225.404 783.613C225.026 784.975 224.367 786.412 223.709 787.849L223.709 787.85C223.38 788.569 223.051 789.287 222.756 789.996C218.71 788.849 214.833 787.684 211.047 786.547L211.036 786.544C203.031 784.138 195.436 781.857 187.521 780.124C129.027 767.57 63.8518 780.124 27.9864 810.338C16.2914 820.455 8.12586 832.223 4.09711 844.765C3.46649 846.59 2.80725 848.395 2.14666 850.204L2.14653 850.205C1.42058 852.193 0.693013 854.185 0 856.213V882.597C0.983882 884.151 1.76428 885.76 2.33222 887.405C6.55538 909.492 19.9182 930.557 48.2198 942.004C110.181 966.899 174.852 968.473 233.157 946.259C253.705 938.429 266.564 938.94 286.104 945.876C355.44 970.346 431.078 981.41 508.482 984.772C572.382 987.754 636.585 984.674 699.218 975.623C707.935 974.309 716.992 974.425 725.629 975.963C749.671 980.027 784.538 982.272 810.403 983.937C827.87 985.062 841.231 985.922 844.382 986.9C859.425 992.022 875.536 995.566 892.16 997.411C907.531 999.152 923.093 1000.01 938.678 999.964C953.18 1000.29 967.606 998.426 980.91 994.517C987.709 992.405 993.768 989.345 998.69 985.538C1003.61 981.732 1007.28 977.265 1009.46 972.431C1012.63 966.191 1013.43 959.516 1011.8 953.013C1010.17 946.51 1006.16 940.385 1000.13 935.195C990.279 926.616 978.572 919.085 965.404 912.853ZM807.823 785.443C806.393 810.164 795.538 834.217 776.307 855.276C750.185 882.244 710.303 901.794 664.235 910.215C567.432 930.08 463.853 929.023 367.983 907.194C363.998 906.233 360.034 905.001 355.591 903.621C352.162 902.555 348.448 901.401 344.22 900.215C342.959 900.938 329.722 895.959 316.17 890.299C315.066 889.729 313.884 889.231 312.641 888.81C311.872 888.399 311.073 888.015 310.245 887.661C309.876 887.607 309.543 887.473 309.3 887.278L307.283 886.256C301.181 882.872 296.265 878.617 292.887 873.798C289.508 868.979 287.752 863.714 287.743 858.383V854.127V852.595C306.652 742.377 417.463 457.044 452.194 398.062C468.394 370.316 485.791 342.74 511.319 317.931C512.1 316.989 512.653 315.969 512.957 314.909C512.514 314.804 512.158 314.683 511.847 314.579C511.406 314.431 511.058 314.313 510.688 314.313C509.293 314.448 507.916 314.585 506.548 314.722L506.544 314.722C502.721 315.104 498.971 315.478 495.119 315.76C459.506 318.909 423.956 321.037 387.964 317.122C344.922 313.044 303.434 303.438 265.745 288.823C248.043 282.312 232.913 273.031 221.622 261.758C212.356 251.587 214.373 243.033 227.925 235.544C233.663 232.288 240.023 229.569 246.835 227.458C299.37 211.926 358.123 208.793 413.618 218.564C439.946 222.986 465.941 228.211 491.935 233.434C505.211 236.102 518.486 238.77 531.804 241.331C534.177 241.762 536.603 242.047 539.053 242.182C539.053 241.878 539.214 241.574 539.375 241.27L539.375 241.268C539.439 241.147 539.503 241.026 539.557 240.906C534.924 239.172 530.28 237.446 525.642 235.722L525.635 235.719C514.561 231.603 503.517 227.498 492.724 223.33C464.549 212.436 436.814 201.286 414.06 185.371C384.434 164.391 362.688 140.688 356.196 111.452C352.918 96.8132 358.339 90.1746 378.131 84.7275H400.697C405.295 85.5252 409.91 86.2839 414.523 87.0425C425.909 88.9145 437.288 90.7856 448.412 93.2386C521.593 109.112 579.331 138.432 619.356 182.988L658.058 225.841C659.15 227.07 660.359 228.289 661.573 229.513L661.573 229.513L661.574 229.514C662.881 230.832 664.193 232.155 665.37 233.501C669.509 238.197 675.285 242.141 682.194 244.989C689.103 247.836 696.938 249.502 705.017 249.842C745.65 253.055 784.916 261.738 820.492 275.375C853.963 288.142 881.634 305.419 896.51 330.186C907.941 349.811 909.753 371.393 901.678 391.764C899.985 396.653 900.058 401.745 901.89 406.61C903.722 411.476 907.259 415.973 912.205 419.723C931.114 434.915 936.724 448.916 928.845 463.682C916.751 488.533 894.217 510.475 863.985 526.835C846.293 536.613 826.077 544.101 804.356 548.921C802.853 549.238 801.49 549.46 800.059 549.694L800.055 549.695L800.044 549.696C799.559 549.776 799.066 549.856 798.557 549.942C795.148 550.371 791.687 550.585 788.22 550.58C775.723 550.607 763.609 547.67 753.993 542.282L714.724 518.834C714.724 518.834 677.661 492.918 639.779 480.534C634.725 478.865 629.501 477.443 624.147 476.279C623.838 476.195 623.522 476.124 623.201 476.066C619.616 475.554 615.961 475.298 612.297 475.3C604.074 475.293 595.96 476.564 588.582 479.014C581.204 481.464 574.76 485.027 569.75 489.428C567.501 492.14 565.559 494.851 563.696 497.452L563.695 497.454C562.634 498.935 561.599 500.38 560.547 501.769C536.469 539.175 554.685 565.092 619.671 587.901C659.076 601.735 682.728 615.61 700.638 626.118L700.64 626.118C708.513 630.737 715.278 634.706 721.784 637.734C727.268 641.181 732.499 644.84 737.668 648.5C752.064 658.778 764.533 670.212 774.794 682.544C785.417 695.721 793.549 709.747 798.998 724.291C806.709 744.275 809.688 764.958 807.823 785.571V785.443ZM1161.94 631.69C1087.6 623.945 1050.43 601.873 1050.43 565.474C1050.38 559.477 1051.76 553.513 1054.53 547.814L1171.71 367.889H1359.29L1242.18 547.814C1241.29 549.583 1240.82 551.435 1240.79 553.303C1240.79 559.601 1248.1 564.368 1262.6 567.687C1269.91 569.763 1277.81 570.708 1285.73 570.453C1305.61 570.071 1325.32 567.837 1344.29 563.814C1371.55 558.305 1395.15 546.61 1411.11 530.706L1515.99 367.889H1704.02L1536.41 630.584H1347.32L1358.22 614.583C1304.52 626.28 1248.44 632.239 1192.01 632.243C1180.16 632.243 1170.2 631.988 1161.94 631.69ZM1779.15 628.371L1882.46 469.426C1891.35 462.774 1902.05 457.341 1913.98 453.426C1927.59 448.574 1941.21 444.064 1954.76 439.595C1971.25 433.82 1989.45 430.62 2008.02 430.233C2015.57 430.134 2023.04 431.289 2029.77 433.595C2044.27 436.829 2051.58 441.68 2051.58 447.893C2051.53 449.887 2050.56 451.82 2048.81 453.426L1938.25 624.498C1936.66 627.141 1935.3 629.841 1934.15 632.584C1932.01 637.648 1929.93 644.329 1927.85 651.564C1926.53 655.76 1925.89 660.041 1925.95 664.33C1925.94 672.973 1928.58 681.525 1933.71 689.443C1938.85 697.361 1946.36 704.474 1955.77 710.333C1959.55 712.375 1963.65 714.248 1968.38 716.248C1973.1 718.248 1978.78 720.503 1984.32 722.546C2015.33 733.525 2053.22 738.93 2097.78 738.93C2177.62 737.426 2238.89 727.497 2281.58 709.141L2240.8 659.479C2223.15 666.688 2202.8 670.322 2182.18 669.948C2145.18 668.543 2125.45 656.5 2123.81 633.988C2123.59 630.396 2124.65 626.821 2126.9 623.562L2238.28 453.255C2241.1 448.139 2242.49 442.714 2242.38 437.255C2242.38 405.593 2205.15 382.897 2130.68 369.166C2115.84 367.612 2100.83 366.886 2085.81 366.996C2035.11 367.293 1984.86 373.438 1937.24 385.167L1948.21 367.506H1760.18L1591.32 628.031L1779.15 628.371ZM3312.1 367.336L3080.52 520.195L3043.71 366.783H2855.68L2918.72 628.371C2893.14 643.152 2864.17 655.011 2832.93 663.479C2823.09 665.99 2685.5 685.353 2694.7 628.371L2809.04 453.255C2811.85 448.137 2813.24 442.713 2813.14 437.255C2813.14 405.593 2775.9 382.897 2701.44 369.166C2686.58 367.612 2671.54 366.886 2656.5 366.996C2605.82 367.287 2555.59 373.448 2508 385.209L2518.9 367.549H2330.69L2161.82 628.031H2349.78L2453.28 469.086C2462.15 462.419 2472.85 456.984 2484.8 453.085C2498.41 448.319 2512.09 443.723 2525.71 439.297C2542.14 433.5 2560.31 430.299 2578.84 429.935C2586.4 429.83 2593.88 430.954 2600.65 433.212C2615.15 436.531 2622.4 441.326 2622.4 447.596C2622.33 449.568 2621.39 451.48 2619.69 453.085L2506.48 628.371C2478.81 662.415 2510.08 703.609 2539.2 716.163C2617.92 748.335 2791.33 760.293 2923.69 717.78C2960.78 707.857 2995.63 694.493 3027.26 678.076C3040.91 670.671 3067.24 654.103 3106.24 628.371L3500 367.336H3312.1ZM1545.62 757.016C1545.62 767.868 1538.37 778.294 1524 788.464C1507.9 799.292 1488.34 807.487 1466.83 812.423C1500.44 823.771 1517.25 839.091 1517.25 858.383C1516.47 871.432 1509.11 883.909 1496.39 893.746C1478.82 908.055 1456.06 919.05 1430.33 925.663C1402.98 933.139 1373.74 936.969 1344.23 936.94C1323.86 937.02 1303.59 935.113 1284.03 931.28C1278.3 930.258 1264.18 927.322 1241.55 922.513L1262.41 888.129C1266.77 890.109 1271.41 891.777 1276.28 893.108C1288.22 896.682 1301.05 898.703 1314.1 899.065C1319.18 899.759 1324.36 900.073 1329.54 900.002C1346.33 899.962 1362.92 897.51 1378.2 892.81C1396.73 886.966 1408.31 879.348 1412.93 869.958C1414.4 866.831 1415.19 863.577 1415.27 860.298C1415.27 846.737 1399.05 837.346 1366.61 832.126C1345.93 828.961 1324.76 827.531 1303.57 827.871L1304.33 827.232H1303.57L1320.53 798.763C1323.5 798.763 1325.83 798.901 1327.53 799.001L1327.53 799.002C1328.15 799.039 1328.69 799.07 1329.14 799.088C1329.38 799.098 1329.6 799.103 1329.79 799.103H1346.69C1397.11 797.656 1427.47 786.308 1437.77 765.059C1438.75 763.259 1439.29 761.36 1439.34 759.442C1439.34 748.094 1428.27 739.952 1406.13 735.015C1389.93 731.261 1372.76 729.812 1355.7 730.76C1351.38 731.293 1346.98 731.492 1342.59 731.355L1212.05 933.791H1089.2L1150.22 838.999L1211.23 744.207C1191.29 748.631 1170.38 750.746 1149.4 750.463C1141.71 750.463 1133.7 750.463 1125.51 749.824L1144.79 719.78C1151.48 720.206 1157.9 720.419 1164.08 720.419C1197.7 720.419 1223.19 713.326 1240.54 699.141L1340.19 698.843C1426.68 698.418 1486.66 707.695 1520.15 726.674C1537.09 735.441 1545.58 745.555 1545.62 757.016ZM2178.71 853.276C2158.57 847.612 2137.92 842.808 2116.88 838.892C2095.07 834.296 2084.17 830.268 2084.17 826.807C2084.17 823.445 2088.58 820.636 2097.34 818.296C2105.68 816.045 2114.58 814.876 2123.56 814.849C2158.99 814.292 2194.21 818.637 2227.06 827.615L2248.68 792.55C2220.65 784.805 2183.74 780.932 2137.93 780.932C2101.86 780.392 2066.12 785.719 2033.74 796.465C2002.85 807.274 1987.41 820.764 1987.41 836.807C1987.41 846.595 1997.94 854.766 2018.93 861.234C2039.06 865.575 2059.27 870.057 2079.56 874.681C2099.86 879.277 2110.07 884.469 2110.07 890.299C2110.07 898.044 2093.12 901.874 2059.08 901.874C2024.52 902.4 1990.07 899.02 1957.16 891.874L1935.54 926.599C1944.28 929.436 1963.58 932.046 1993.46 934.429C2014.34 936.57 2035.39 937.821 2056.49 938.174C2100.79 938.174 2137.6 932.798 2166.93 922.045C2196.26 911.293 2210.97 897.108 2211.05 879.49C2211.22 869.192 2200.44 860.454 2178.71 853.276ZM2560.94 956.855C2552.56 956.929 2544.3 955.458 2537.05 952.6C2530.29 949.281 2527.2 943.238 2527.79 934.471L2591.89 834.339C2593.45 831.435 2594.22 828.364 2594.16 825.275C2594.16 807.317 2573.32 794.55 2531.63 786.975C2523.3 786.07 2514.86 785.643 2506.42 785.698C2477.98 785.834 2449.78 789.23 2423.03 795.742L2467.59 735.909H2369.64L2225.99 934.131H2332.58L2391.26 844.042C2396.18 840.05 2402.22 836.753 2409.04 834.339C2416.26 831.35 2423.73 828.636 2431.41 826.211C2440.85 823.182 2451.1 821.474 2461.54 821.189C2466.02 821.123 2470.48 821.658 2474.65 822.764C2482.4 824.636 2486.25 827.445 2486.25 831.275C2486.24 832.331 2485.99 833.38 2485.49 834.382L2421.39 934.429C2414.46 946.217 2407.46 966.686 2439.16 982.899C2461.51 991.936 2487.27 996.373 2513.29 995.666C2558.63 994.815 2593.38 989.141 2617.55 978.644L2593.59 950.472C2584.2 955.062 2572.69 957.249 2561.13 956.643L2560.94 956.855ZM1930.62 779.187H1823.46L1814.77 792.422C1797.24 782.549 1773.67 777.613 1744.04 777.613C1712.4 778.247 1681.37 783.701 1653.29 793.568C1625.21 803.435 1600.79 817.46 1581.86 834.594C1567.02 847.541 1558.65 863.337 1557.97 879.703C1557.97 906.768 1579.44 924.045 1622.39 931.535C1633.58 933.319 1645.05 934.19 1656.55 934.131C1683.41 933.855 1709.88 929.797 1734.27 922.216C1734.18 920.421 1733.56 918.656 1732.45 917.024C1730.24 914.286 1728.35 911.441 1726.77 908.513C1724.78 904.397 1725.19 899.923 1727.91 896.002C1727.91 895.807 1728.04 895.594 1728.19 895.363C1728.26 895.24 1728.35 895.113 1728.41 894.98C1722.11 894.98 1722.11 894.555 1725.13 891.023C1725.64 890.469 1726.08 889.874 1726.65 889.193C1726.29 889.213 1725.93 889.213 1725.57 889.193C1723.55 888.979 1721.56 888.623 1719.65 888.129C1716.16 887.843 1712.87 886.865 1710.2 885.32C1678.68 874.469 1675.65 847.744 1675.59 847.02C1675.15 841.778 1676.61 836.542 1679.85 831.765C1683.08 826.989 1687.98 822.816 1694.14 819.606C1700.3 816.397 1707.52 814.248 1715.18 813.345C1722.84 812.442 1730.72 812.812 1738.12 814.423C1741.52 815.112 1744.8 816.054 1747.89 817.232C1750.16 817.944 1752.28 818.86 1754.19 819.955C1762.77 824.005 1769.13 829.854 1772.28 836.594C1774.84 842.991 1774.84 849.73 1772.28 856.127C1772.28 856.766 1772.28 857.404 1771.84 858.042C1768.79 867.866 1761.25 876.795 1750.28 883.575C1745.64 886.273 1740.14 888.211 1734.21 889.235C1735.66 890.342 1736.86 891.32 1738.06 892.299C1739.25 893.278 1738.94 894.852 1736.54 894.767C1734.15 894.682 1732.32 896.001 1731.31 897.661C1729.85 900.161 1729.26 902.855 1729.58 905.534C1729.91 908.213 1731.15 910.805 1733.2 913.109C1735.7 915.853 1737.57 918.837 1738.75 921.96C1757.73 931.666 1781.07 936.682 1804.87 936.174C1831.13 935.738 1857.02 931.91 1881.14 924.896L1901.37 895.831C1893.81 897.032 1886.07 897.675 1878.3 897.746C1866.14 897.746 1860.02 895.619 1860.02 891.32C1860.06 889.84 1860.6 888.385 1861.6 887.065L1930.62 779.187ZM1706.79 821.275L1704.65 822.041C1699.15 824.285 1694.46 827.322 1690.91 830.935C1688.19 833.88 1686.31 837.142 1685.36 840.552C1685.36 840.866 1685.13 841.144 1684.9 841.43C1684.69 841.687 1684.47 841.952 1684.41 842.254C1684.4 842.625 1684.52 842.993 1684.76 843.327C1685 843.66 1685.36 843.949 1685.8 844.169C1687.44 844.637 1688.13 843.701 1688.45 842.722V841.999C1689.53 838.695 1691.5 835.551 1694.25 832.722C1697.33 829.473 1701.41 826.715 1706.22 824.636C1706.95 824.405 1707.6 824.072 1708.11 823.658C1708.28 823.426 1708.37 823.171 1708.37 822.913C1708.37 822.655 1708.28 822.4 1708.11 822.168C1708.44 821.651 1707.82 821.39 1707.28 821.164L1707.23 821.144L1707.14 821.106C1707.11 821.091 1707.08 821.076 1707.04 821.062L1706.79 821.275ZM2711.15 954.216C2717.57 949.883 2721.17 944.005 2721.17 937.877C2721.44 934.762 2720.76 931.643 2719.16 928.714C2717.57 925.786 2715.1 923.11 2711.9 920.855C2708.71 918.599 2704.86 916.811 2700.6 915.603C2696.34 914.395 2691.76 913.793 2687.13 913.833C2682.5 913.813 2677.92 914.428 2673.65 915.64C2669.38 916.851 2665.52 918.635 2662.3 920.882C2659.09 923.13 2656.58 925.795 2654.93 928.716C2653.28 931.637 2652.53 934.754 2652.72 937.877C2652.72 944.005 2656.32 949.883 2662.74 954.216C2669.16 958.55 2677.87 960.984 2686.94 960.984C2696.02 960.984 2704.73 958.55 2711.15 954.216ZM2796.37 959.154H2739.64V829.148H2796.37V959.154ZM2755.6 771.22C2759.54 770.154 2763.76 769.623 2768 769.656V769.571C2772.28 769.512 2776.52 770.04 2780.48 771.123C2784.44 772.207 2788.04 773.822 2791.04 775.872C2794.05 777.922 2796.41 780.363 2797.97 783.048C2799.54 785.732 2800.28 788.603 2800.15 791.487C2800.33 794.286 2799.66 797.081 2798.19 799.7C2796.71 802.319 2794.46 804.708 2791.58 806.722C2788.4 808.878 2784.6 810.575 2780.42 811.709C2776.24 812.843 2771.75 813.39 2767.25 813.318C2763 813.284 2758.81 812.686 2754.9 811.558C2751 810.43 2747.46 808.794 2744.49 806.743C2741.53 804.692 2739.19 802.267 2737.61 799.605C2736.03 796.944 2735.24 794.099 2735.29 791.232C2735.34 788.365 2736.23 785.533 2737.9 782.897C2739.57 780.261 2741.99 777.873 2745.03 775.87C2748.07 773.866 2751.66 772.286 2755.6 771.22ZM2880.39 838.383C2895.17 830.441 2913.57 826.214 2932.46 826.425V826.34C2967.88 826.34 3009.23 842.255 3009.36 887.321V959.112H2952.63V889.789C2952.63 860.767 2929.18 860.767 2921.43 860.767C2913.72 860.907 2906.29 862.692 2900.18 865.865C2894.08 869.039 2889.62 873.436 2887.45 878.427C2886.15 881.177 2885.56 884.054 2885.69 886.938V959.282H2828.96V870.895C2828.96 857.15 2828.52 847.234 2827.44 837.744L2826.5 829.233H2879.57L2880.39 838.383ZM426.798 863.098L426.792 863.101L426.603 862.931C427.265 862.601 427.954 862.307 428.644 862.012C429.466 861.661 430.291 861.309 431.079 860.894C429.694 861.657 428.246 862.377 426.798 863.098Z" fill="#F1BC19"/>
</svg>
