<svg width="1020" height="1220" viewBox="0 0 1020 1220" fill="none" xmlns="http://www.w3.org/2000/svg">
<path d="M965.637 1113.68C956.547 1108.62 947.047 1104.07 937.203 1100.08C935.182 1099.2 933.073 1098.47 930.898 1097.9C929.972 1097.65 929.138 1097.21 928.47 1096.63C927.803 1096.05 927.325 1095.33 927.08 1094.56C926.835 1093.78 926.831 1092.97 927.069 1092.19C927.306 1091.41 927.778 1090.7 928.439 1090.11C979.571 1044.32 1001.76 992.194 1004.1 929.167C1005.99 881.247 995.774 835.715 965.637 794.181C944.18 765.765 916.188 741.074 883.234 721.497C881.784 720.614 880.271 719.784 878.757 719.005C859.843 710.075 847.234 706.96 835.444 702.235C833.467 701.474 831.787 700.274 830.594 698.77C829.4 697.265 828.74 695.516 828.688 693.72C828.635 691.923 829.193 690.15 830.297 688.601C831.402 687.051 833.009 685.785 834.939 684.947C864.887 672.071 920.369 649.695 937.077 638.948C973.695 615.78 1000.14 583.409 1012.39 546.747C1024.65 510.084 1022.04 471.13 1004.98 435.795C983.732 392.029 943.507 361.917 894.961 338.865C843.242 314.547 786.093 299.078 726.939 293.385C700.9 290.738 682.806 281.964 669.25 264.208C665.909 259.639 662.126 255.33 658.721 250.761L602.42 174.754C544.038 95.6319 460.121 43.6107 353.76 15.5752C329.739 9.29322 304.835 5.19174 280.373 0C269.97 0.519175 260.387 0.934485 249.921 1.34983C222.243 11.1103 215.055 22.8436 219.595 48.0755C228.926 99.993 260.702 142.202 303.826 179.167C336.863 207.514 377.214 227.243 418.195 246.66C440.703 257.043 463.526 267.427 486.223 277.81C486.223 278.641 485.719 279.316 485.593 280.095C482.029 279.813 478.492 279.345 475.001 278.693C417.753 265.142 361.011 250.034 303.259 238.145C222.532 220.825 137.082 226.309 60.5887 253.72C50.5893 257.443 41.2728 262.302 32.9109 268.154C24.861 273.604 19.4762 281.268 17.7497 289.732C16.0233 298.195 18.0715 306.887 23.5168 314.204C39.1526 335.335 62.4171 350.027 87.8253 362.643C142.614 389.848 202.824 404.177 265.683 412.796C317.697 419.804 369.585 416.066 421.41 410.511C428.85 409.681 436.289 408.746 443.729 407.967C444.675 407.967 445.683 408.435 447.26 409.058C446.717 410.876 445.868 412.624 444.738 414.249C407.666 458.12 382.384 507.026 358.678 556.399C332.954 610.134 281.129 767.132 255.406 844.853C255.406 844.853 255.406 845.164 255.406 845.268C252.38 854.665 249.605 862.972 247.273 869.773C247.273 869.773 247.84 869.773 248.092 869.773C243.931 883.168 239.392 897.497 237.248 906.115C233.213 922.729 229.43 939.342 225.458 956.008C224.891 958.5 223.693 961.2 222.81 963.796C210.201 959.435 199.23 954.866 187.567 951.751C129.058 936.435 63.8672 951.751 27.9932 988.612C16.2954 1000.96 8.12782 1015.31 4.0981 1030.61C2.7741 1035.29 1.324 1039.85 0 1044.58V1076.77C0.984119 1078.66 1.76471 1080.63 2.33278 1082.63C6.55697 1109.58 19.9231 1135.28 48.2314 1149.24C110.207 1179.62 174.894 1181.54 233.213 1154.44C253.767 1144.88 266.628 1145.51 286.173 1153.97C355.525 1183.82 431.183 1197.32 508.605 1201.42C572.52 1205.06 636.739 1201.3 699.387 1190.26C708.106 1188.66 717.165 1188.8 725.804 1190.67C766.091 1198.98 836.768 1201.06 844.586 1204.02C859.632 1210.27 875.747 1214.59 892.376 1216.84C907.75 1218.96 923.316 1220.01 938.905 1219.96C953.41 1220.35 967.839 1218.08 981.147 1213.31C987.947 1210.73 994.009 1207 998.931 1202.36C1003.85 1197.71 1007.53 1192.26 1009.71 1186.37C1012.87 1178.75 1013.68 1170.61 1012.05 1162.68C1010.42 1154.74 1006.41 1147.27 1000.38 1140.94C990.518 1130.47 978.808 1121.28 965.637 1113.68ZM808.018 958.24C806.588 988.4 795.73 1017.74 776.494 1043.44C750.367 1076.34 710.475 1100.19 664.396 1110.46C567.569 1134.7 463.965 1133.41 368.072 1106.78C361.011 1104.7 354.012 1101.58 344.303 1098.26C343.042 1099.14 329.802 1093.07 316.247 1086.17C315.142 1085.47 313.96 1084.86 312.716 1084.35C311.948 1083.85 311.148 1083.38 310.32 1082.95C309.951 1082.88 309.618 1082.72 309.375 1082.48L307.357 1081.23C301.254 1077.1 296.337 1071.91 292.957 1066.03C289.578 1060.15 287.821 1053.73 287.812 1047.23C287.812 1045.57 287.812 1043.9 287.812 1042.04C287.812 1041.41 287.812 1040.79 287.812 1040.17C306.727 905.7 417.564 557.593 452.303 485.636C468.507 451.786 485.908 418.143 511.442 387.875C512.224 386.726 512.777 385.482 513.081 384.189C512.01 383.878 511.442 383.462 510.812 383.462C505.516 384.085 500.472 384.76 495.239 385.227C459.617 389.069 424.058 391.665 388.058 386.889C345.005 381.913 303.508 370.194 265.809 352.364C248.103 344.421 232.969 333.098 221.675 319.344C212.407 306.936 214.425 296.501 227.98 287.363C233.719 283.391 240.081 280.074 246.894 277.499C299.442 258.55 358.209 254.727 413.718 266.648C453.501 274.799 492.528 285.183 531.933 294.424C534.306 294.95 536.733 295.297 539.183 295.462C539.183 294.943 539.498 294.424 539.687 293.905C523.989 286.74 508.164 279.679 492.843 272.463C464.661 259.172 436.92 245.569 414.16 226.152C384.527 200.557 362.776 171.639 356.282 135.972C353.004 118.112 358.426 110.013 378.223 103.368H400.794C416.745 106.742 432.885 109.546 448.521 113.751C521.719 133.116 579.471 168.887 619.506 223.245L658.217 275.526C660.487 278.641 663.261 281.704 665.531 284.871C669.671 290.601 675.448 295.412 682.359 298.886C689.27 302.36 697.106 304.393 705.187 304.807C745.83 308.728 785.106 319.32 820.691 335.958C854.169 351.533 881.847 372.611 896.726 402.827C908.161 426.769 909.973 453.099 901.896 477.952C900.203 483.916 900.275 490.128 902.108 496.065C903.94 502.001 907.479 507.487 912.425 512.062C931.339 530.596 936.951 547.677 929.07 565.693C916.973 596.011 894.433 622.779 864.194 642.738C846.497 654.668 826.277 663.803 804.551 669.683C802.533 670.202 800.768 670.514 798.75 670.929C795.34 671.453 791.879 671.714 788.41 671.708C775.911 671.741 763.794 668.158 754.175 661.584L714.897 632.978C714.897 632.978 677.825 601.36 639.933 586.252C634.879 584.216 629.653 582.481 624.297 581.06C623.989 580.958 623.673 580.871 623.352 580.8C619.765 580.176 616.11 579.863 612.444 579.866C604.22 579.857 596.104 581.408 588.724 584.397C581.345 587.386 574.899 591.733 569.887 597.103C566.357 602.294 563.583 607.486 560.682 612.159C536.598 657.794 554.819 689.412 619.821 717.24C676.564 741.537 700.648 765.938 721.958 778.035C727.443 782.24 732.676 786.705 737.846 791.17C752.245 803.709 764.717 817.658 774.981 832.704C785.607 848.78 793.741 865.891 799.191 883.635C806.904 908.016 809.883 933.248 808.018 958.396V958.24Z" fill="#1b262c"/>
</svg>
